<svg class="Egg" xmlns="http://www.w3.org/2000/svg" viewBox="0 0 512 512"><title>Egg1</title><path d="M195.74,214.91c1.2,1.92,2.21,4,3.4,5.88s2.28,3.62,3.42,5.43c2.29,3.66,4.66,7.28,6.85,11,1.08,1.85,2.21,3.68,3.33,5.51,1,1.66,2.22,3.3,3.07,5.06q5-4.15,10.15-8.14c2.8-2.16,5.71-4.18,8.51-6.36,1.52-1.17,2.91-2.58,4.37-3.83,1.21-1,2.42-2.05,3.68-3,5.63-4.27,11.28-8.44,17.17-12.33,5.3-3.51,10.7-6.84,16.16-10.09l0,0,.07-.09v0a3.92,3.92,0,0,1,.25-.32l.17-.2.09-.1.06-.08,0,0a1,1,0,0,0,.08-.11c.05-.06.09-.14.14-.21l.07-.15s.06-.1.08-.15l.16-.29.26-.49c-.11-.21-.22-.43-.34-.63a9.9,9.9,0,0,0-.63-1h0l-.07-.09-.18-.21c-.13-.15-.26-.31-.4-.45l-.17-.19c-3.72-2.1-7.35-4.41-11-6.69q-6.81-4.29-13.6-8.61c-3.37-2.14-6.9-4.53-10.94-5.11-4.5-.65-9.16.91-13.48,2-8.86,2.13-17.71,4.3-26.52,6.63q-7.09,1.88-14.16,3.87l-.11.12-.1.11h0c0,.07-.11.15-.13.19l0,.06v0l-.09.27c-.06.25-.1.51-.15.76v.07a1.8,1.8,0,0,1,0,.22c0,.14,0,.29,0,.43,0,.3,0,.59,0,.88a2.26,2.26,0,0,0,0,.26c1.27,3.06,2.46,6.15,4,9.11C191.07,207.66,193.46,211.25,195.74,214.91Z" fill="#22b473"/><path d="M282.16,293c.6-.61,1.19-1.22,1.78-1.84l1.82-1.9c.34-.35.67-.73,1-1.09,1.34-2.26,2.87-4.44,4.24-6.63,2.14-3.42,4.25-6.85,6.28-10.33,14.53-24.89,28.69-50.31,39.35-77.14,0-.06,0-.13,0-.19,0-.24,0-.49,0-.73s0-.24,0-.36c0,.16,0-.14,0-.17-.07-.41-.18-.82-.28-1.22A150.12,150.12,0,0,1,290.52,169h0c-.11,0-.28,0-.41.06h-.61l-.16,0c-5.82,18.77-11,37.74-14.93,57a381.87,381.87,0,0,0-6,38.78,357.83,357.83,0,0,0-1.44,38.6l.13.06.16.07-.22-.09a1.83,1.83,0,0,1,.32.14l.09.05.15.08q7.13-5.19,14.23-10.44Z" fill="#22b473"/><path d="M358.53,197.28c-.93-.28-1.86-.56-2.78-.9-.44-.16-.87-.34-1.31-.52l-.44-.18c-3.14-.57-6.25-1.29-9.31-2l-1.59-.4-.38.13-.13.06h0c.11-.05.09,0,0,0h0l-.26.13a8.87,8.87,0,0,0-1.09.6,5.14,5.14,0,0,0-.54.37l-.11.07q-4.44,10.84-9.46,21.46-7.68,16.2-16.58,31.8c0,.25-.09.5-.11.74a10.3,10.3,0,0,0,0,1.47,51.46,51.46,0,0,0,3.8,5.19,39.71,39.71,0,0,0,5.64,5.2,47.8,47.8,0,0,0,13.05,6.38c5.12,1.79,10.32,3.37,15.46,5.07s10.56,3.44,15.77,5.36A32.36,32.36,0,0,1,374.3,280a13.6,13.6,0,0,1,2.36,1.77l.24.18a8,8,0,0,0,1.18.74q-.12-12.34-1.35-24.65a285.42,285.42,0,0,0-11-54.6c-.5-1.62-1-3.24-1.55-4.85A37.42,37.42,0,0,1,358.53,197.28Z" fill="#22b473"/><path d="M319.27,332.66c6.22-2.85,12.33-6,18.65-8.66,3.13-1.3,6-3.2,9-4.71,1.57-.79,3-1.74,4.63-2.49s3-1.34,4.5-2a101.44,101.44,0,0,1,15.9-5.17c.59-.25,1.18-.5,1.75-.77a16.63,16.63,0,0,0,1.77-.94,5.35,5.35,0,0,0,1.34-1.13,1.66,1.66,0,0,1,.35-.35c.56-6.31.85-12.64.91-19v0c-.11-.13-.21-.26-.31-.4s-.23-.32-.34-.49a5.36,5.36,0,0,1-.28-.53,1.08,1.08,0,0,1-.32-.22c-3.72-3.74-8.77-5.09-13.68-6.51-5.52-1.61-11-3.41-16.49-5.16-5.11-1.64-10.28-3.17-15.24-5.24a42.42,42.42,0,0,1-12.34-7.48,40.56,40.56,0,0,1-4.58-4.87c-.06-.05-.13-.08-.18-.13l-.53-.5-.24-.22-.12-.11,0,0-.09-.06-.14-.1-.31-.19a5.12,5.12,0,0,0-.57-.3l-.14-.05-.31-.1a5.06,5.06,0,0,0-.67-.17l-.14,0h0l-.32,0h0c-.22.38-.44.77-.67,1.14q-5.67,9.53-11.65,18.84c-2,3.12-4,6.28-6,9.41-1.21,1.88-2.37,3.89-3.68,5.76a2.92,2.92,0,0,1-.14.31c-.1.22-.2.45-.31.66l-.67,1.3c-.28.56-.54,1.14-.8,1.71-1.42,9.24-2.64,18.51-3.75,27.79q-1.48,12.3-2.55,24.64h0l0,0,.12.3c0,.05,0,.1.05.14a.82.82,0,0,1,0,.11l.07.14a10.18,10.18,0,0,0,.6,1c-.16-.25,0,0,.07.08l.08.09a178.52,178.52,0,0,0,19.37-6.66C307.17,338.73,313.11,335.49,319.27,332.66Z" fill="#22b473"/><path d="M221.56,335.76c10.83-6.68,21.27-14,31.56-21.46l10.73-7.81c.08-.18.15-.37.23-.56s.05-.11.08-.17l0-.07q.17-.44.3-.87c.08-.29.16-.59.22-.89,0,0,0-.08,0-.12a275.6,275.6,0,0,1,2-43.64,429.12,429.12,0,0,1,9.88-53.82c-6,3.72-11.94,7.59-17.79,11.56-5.69,3.86-11.31,7.86-17,11.67a101.24,101.24,0,0,0-8.72,6.07c-2.76,2.28-5.46,4.67-8.1,7.09-5.08,4.63-10.16,9.25-15.19,13.94-4.54,4.23-8.84,8.7-13.3,13,0,0,0,0,0,0a15.34,15.34,0,0,1-1.81,3.76,2.5,2.5,0,0,1-.23.39c.52,2.08.7,4.27,1,6.38.38,2.67.92,5.29,1.56,7.91,4.37,17.78,8.73,35.61,10.05,53.91l.71.22a9.68,9.68,0,0,0,1.06.27l.26.05h.11l.53.05h0l3.66-2C216.14,339.09,218.86,337.43,221.56,335.76Z" fill="#22b473"/><path d="M248.67,425.33c0-.26-.09-.51-.15-.77-.1-.5-.24-1-.39-1.5-.07-.24-.15-.47-.22-.7-2.71-4.32-5.11-8.83-7.58-13.29a194.82,194.82,0,0,0-10.9-17.49,136,136,0,0,0-11.89-15c-3.58-3.83-7-7.65-9.45-12.26H208l-.51.05a9,9,0,0,0-1.6.43c-.41.42-.82.84-1.22,1.28q-2.16,2.31-4.13,4.79a114.5,114.5,0,0,0-7.3,10.33,83.4,83.4,0,0,0-6.16,11.24c-.83,1.92-1.66,3.88-2.34,5.86s-1,3.79-1.65,5.63c.85.62,1.7,1.24,2.56,1.84a111.83,111.83,0,0,0,33.73,15.39,135.34,135.34,0,0,0,29.33,4.5C248.71,425.56,248.69,425.44,248.67,425.33Z" fill="#22b473"/><path d="M183.19,398.73c.53-1.83,1-3.66,1.66-5.46a83.25,83.25,0,0,1,8.87-18.64,79.3,79.3,0,0,1,6.35-8.25c.49-.56,1-1.08,1.51-1.62,0,0,0-.08,0-.11,1.38-2.13,2.74-4.26,4-6.46a35.32,35.32,0,0,1-1-4.47,36.84,36.84,0,0,1-.44-4.45c0-.57-.08-1.21-.06-1.84.12-3.45.14-6.91.16-10.38-.3-2.68-.65-5.37-1.06-8q-2.18-14.36-5.52-28.49c-1.11-4.72-2.33-9.41-3.43-14.13-.55-2.38-.88-4.81-1.23-7.23-.25-1.7-.57-3.38-.81-5.07l-.11-.08c-.17-.19-.36-.37-.55-.55s-.32-.2-.49-.29a4.07,4.07,0,0,1-.6-.38c-1.22-.09-2.45-.33-3.56-.41-2.31-.19-4.62-.34-6.95-.31a217.56,217.56,0,0,0-25.39,1.33c-4,.52-8,1.31-12.06,2a57,57,0,0,1-5.68.79,10.67,10.67,0,0,1-3,0c-.16,4.86-.2,9.72-.09,14.58.37,16.95,2.47,33.94,7.24,50.24a129.79,129.79,0,0,0,18,38.14A106.25,106.25,0,0,0,182,403.13C182.27,401.64,182.77,400.16,183.19,398.73Z" fill="#22b473"/><path d="M275.32,395.45c.25-17.41,1.25-34.81,2.75-52.16,1.4-16.1,3.37-32.12,5.78-48.1q-7.68,5.74-15.31,11.53c-19.23,14.55-38.75,29.18-60.08,40.59l-.08.11-.18.27c-.11.18-.21.36-.31.55l-.14.3h0a1.21,1.21,0,0,0-.05.14c0,.11-.07.23-.11.34a32,32,0,0,0,4.78,16.25c3.22,5.16,8,9.18,11.81,13.84s7.55,9.89,11.08,15c6,8.74,10.51,18.42,16.08,27.45.33.28.64.58.95.88s.74.81,1.1,1.22.62.73,1,1.07l.26.26.1.08a3.62,3.62,0,0,1,.71.5,1,1,0,0,1,.17.25h2.22a145.57,145.57,0,0,0,17.82-1.3C275.1,414.85,275.19,405.13,275.32,395.45Z" fill="#22b473"/><path d="M376.45,312.67a134.86,134.86,0,0,0-21.86,6.6c-3.16,1.21-6.34,2.32-9.47,3.62-1.61.67-3.19,1.29-4.75,2.06s-2.93,1.73-4.44,2.53c-6.1,3.22-11.9,7-18.05,10.09s-12.27,5.94-18.62,8.41a93.12,93.12,0,0,1-15.49,4.67l-.07.06a8.39,8.39,0,0,0-1.51.86l-.15.11h0l0,0-.32.27c-.21.19-.41.39-.61.6l-.28.32-.14.18h0l0,0c-.16.23-.32.46-.47.7s-.23.43-.34.64q-.72,9.29-1.23,18.59-.69,12.91-1,25.86c-.23,8.48-.21,17-.43,25.43a127.77,127.77,0,0,0,18.72-4.17,110.42,110.42,0,0,0,33-16.35A106.57,106.57,0,0,0,355,376a133.91,133.91,0,0,0,17-39.29,179.48,179.48,0,0,0,4.52-24.08Z" fill="#22b473"/><path d="M201.28,111.52c.31.6.64,1.2,1,1.78s.75,1.18,1.15,1.75c.22.32.51.65.74,1l.51.55c1.92,2.16,3.72,4.44,5.53,6.7a189.85,189.85,0,0,1,17.65,25.32c2.5,4.45,4.84,9,6.9,13.69a48.81,48.81,0,0,1,2.74,7.32c.46,1.77,1,3.53,1.47,5.29a17.66,17.66,0,0,1,5.35,1.1c4.14,1.58,7.77,4.21,11.46,6.61,6.84,4.46,13.88,8.79,20.5,13.61.24,0,.48.13.72.17a5.21,5.21,0,0,0,.55.08l.8,0c.24,0,.5,0,.76,0q1.85-6.92,3.82-13.79c7.1-24.63,15.21-49.06,24.12-73.11,0-.39.06-.78.06-1.18a12.67,12.67,0,0,0-.17-1.73A94.62,94.62,0,0,0,282.8,92a70.17,70.17,0,0,0-38.28-4.5c-13.19,2.26-25.4,8.31-36.05,16.3q-4,3-7.81,6.43C200.89,110.68,201.07,111.13,201.28,111.52Z" fill="#22b473"/><path d="M177.15,189.61c17.75-5.14,35.69-10,53.76-13.89a33.36,33.36,0,0,1,6.54-.83c-2.23-4.34-4.41-8.7-6.58-13.09a185.61,185.61,0,0,0-16-25.8c-2.95-4.11-6-8.13-9.2-12.08l-3.39-4.19-.68-.63-1.81-1.8a17.52,17.52,0,0,0-1.69-1.55c-.58-.44-1.27-.87-1.91-1.28h0A159.74,159.74,0,0,0,177.46,137a225.91,225.91,0,0,0-23.93,45.15c-2.19,5.47-4.18,11-6,16.64Q162.26,193.94,177.15,189.61Z" fill="#22b473"/><path d="M309.5,110.5a11.59,11.59,0,0,0-.74,1.09l-.44.75c-4.19,12.47-8.6,24.88-12.75,37.37q-2.46,7.38-4.8,14.81c.06.16.11.31.17.46a9.48,9.48,0,0,0,.52,1c.1.17.23.33.33.5l0,.09c4.52,2.89,9.12,5.65,13.87,8.13a178.52,178.52,0,0,0,27.24,11.52q7.15,2.34,14.51,4c4.9,1.11,9.86,1.76,14.78,2.74h0a247.94,247.94,0,0,0-17.06-38.39c-7.74-14-17-27.21-28.19-38.62-2.17-2.21-4.43-4.36-6.76-6.42A10.11,10.11,0,0,1,309.5,110.5Z" fill="#22b473"/><path d="M134.33,270.88l.43.21.2.08c.25.1.5.2.76.28a11.81,11.81,0,0,0,1.58.41c.25,0,.51.09.77.12l.32,0,.36,0H139c1.7-.25,3.38-.6,5.06-.93a152.57,152.57,0,0,1,25.3-2.88q3.24-.11,6.48-.07c2.09,0,4.16.3,6.24.45s4.31.28,6.47.49c.73.07,1.5.11,2.26.2l1.46-.49,1.14-.39h0l.24-.12.36-.2c2.31-2.51,4.78-4.88,7.24-7.25,2.79-2.69,5.6-5.38,8.51-7.93q2.1-1.84,4.23-3.63a53.55,53.55,0,0,1-4.09-6c-1.36-2.05-2.76-4.08-4.09-6.15-2.33-3.64-4.63-7.29-7-10.93s-5-7.31-7.43-11A83.32,83.32,0,0,1,185,203.81a59.17,59.17,0,0,1-2.74-7,6.22,6.22,0,0,1-.74-1c-.3-.49-.57-1-.9-1.47l-.09-.12,0,0-.26-.3-.32-.3-.13-.11c-.16-.11-.33-.21-.5-.31Q168,196.43,156.7,200l-5.51,2.24c-1,.39-2,.74-2.9,1.18-.4.19-.75.41-1.13.62a2.12,2.12,0,0,1-.88.28.65.65,0,0,1-.24,0c.07,0,0,.05-.11.11a1,1,0,0,1-.2.08,285.74,285.74,0,0,0-7.4,30.36,280.15,280.15,0,0,0-4.32,36A1.17,1.17,0,0,1,134.33,270.88Z" fill="#22b473"/><path d="M374.22,228.72a279.06,279.06,0,0,0-16.46-52.9A217.21,217.21,0,0,0,332.44,131a147.76,147.76,0,0,0-22.72-24.56.71.71,0,0,0-.09-.07,114.05,114.05,0,0,0-9.18-7c-11.06-7.56-23.68-12.9-37.06-14.38A73.05,73.05,0,0,0,225,91.58a104.21,104.21,0,0,0-27.71,19.1,1.36,1.36,0,0,0-.48.44c-2,1.93-4,3.92-5.91,6a186.35,186.35,0,0,0-28.09,40.21,261,261,0,0,0-20.06,50.24,287.74,287.74,0,0,0-10.21,55.69c-.29,3.63-.52,7.28-.68,10.92v.06A232.79,232.79,0,0,0,134,318.74a156.29,156.29,0,0,0,13.28,44.6,115,115,0,0,0,23.18,32.57,107.89,107.89,0,0,0,31.09,21,126.66,126.66,0,0,0,36.9,9.92,149.64,149.64,0,0,0,39.94-.69,122.22,122.22,0,0,0,36.17-11.31,106.87,106.87,0,0,0,30.18-22.48,118.12,118.12,0,0,0,22-34.1,165.59,165.59,0,0,0,11.83-46,232.5,232.5,0,0,0,1.53-27A280.65,280.65,0,0,0,374.22,228.72ZM281.54,348l-.08-.09c-.06-.07-.23-.33-.07-.08a10.18,10.18,0,0,1-.6-1l-.07-.14a.82.82,0,0,0,0-.11s0-.09-.05-.14l-.12-.3,0,0h0q1.08-12.35,2.55-24.64c1.11-9.28,2.33-18.55,3.75-27.79.26-.57.52-1.15.8-1.71l.67-1.3c.11-.21.21-.44.31-.66a2.92,2.92,0,0,0,.14-.31c1.31-1.87,2.47-3.88,3.68-5.76,2-3.13,4-6.29,6-9.41q6-9.31,11.65-18.84c.23-.37.45-.76.67-1.14h0l.32,0h0l.14,0a5.06,5.06,0,0,1,.67.17l.31.1.14.05a5.12,5.12,0,0,1,.57.3l.31.19.14.1.09.06,0,0,.12.11.24.22.53.5c.05.05.12.08.18.13a40.56,40.56,0,0,0,4.58,4.87,42.42,42.42,0,0,0,12.34,7.48c5,2.07,10.13,3.6,15.24,5.24,5.48,1.75,11,3.55,16.49,5.16,4.91,1.42,10,2.77,13.68,6.51a1.08,1.08,0,0,0,.32.22,5.36,5.36,0,0,0,.28.53c.11.17.22.33.34.49s.2.27.31.4v0c-.06,6.33-.35,12.66-.91,19a1.66,1.66,0,0,0-.35.35,5.35,5.35,0,0,1-1.34,1.13,16.63,16.63,0,0,1-1.77.94c-.57.27-1.16.52-1.75.77a101.44,101.44,0,0,0-15.9,5.17c-1.51.64-3,1.29-4.5,2s-3.06,1.7-4.63,2.49c-3,1.51-5.9,3.41-9,4.71-6.32,2.62-12.43,5.81-18.65,8.66s-12.1,6.07-18.36,8.7A178.52,178.52,0,0,1,281.54,348Zm-71.83-5.35h0l-.53-.05h-.11l-.26-.05a9.68,9.68,0,0,1-1.06-.27l-.71-.22c-1.32-18.3-5.68-36.13-10.05-53.91-.64-2.62-1.18-5.24-1.56-7.91-.31-2.11-.49-4.3-1-6.38a2.5,2.5,0,0,0,.23-.39,15.34,15.34,0,0,0,1.81-3.76s0,0,0,0c4.46-4.3,8.76-8.77,13.3-13,5-4.69,10.11-9.31,15.19-13.94,2.64-2.42,5.34-4.81,8.1-7.09a101.24,101.24,0,0,1,8.72-6.07c5.72-3.81,11.34-7.81,17-11.67,5.85-4,11.78-7.84,17.79-11.56a429.12,429.12,0,0,0-9.88,53.82,275.6,275.6,0,0,0-2,43.64s0,.08,0,.12c-.06.3-.14.6-.22.89s-.19.58-.3.87l0,.07c0,.06-.05.12-.08.17s-.15.38-.23.56l-10.73,7.81c-10.29,7.48-20.73,14.78-31.56,21.46-2.7,1.67-5.42,3.33-8.19,4.88ZM185.17,194.43c0-.29,0-.58,0-.88,0-.14,0-.29,0-.43a1.8,1.8,0,0,0,0-.22v-.07c.05-.25.09-.51.15-.76l.09-.27a.08.08,0,0,0,0,0l0-.06h0c0-.1,0-.06,0,0l0-.06s.09-.12.13-.19h0s0-.06,0-.07a.09.09,0,0,1,0,.06l.1-.11.11-.12q7.06-2,14.16-3.87c8.81-2.33,17.66-4.5,26.52-6.63,4.32-1,9-2.6,13.48-2,4,.58,7.57,3,10.94,5.11q6.79,4.32,13.6,8.61c3.61,2.28,7.24,4.59,11,6.69l.17.19c.14.14.27.3.4.45l.18.21.07.09h0a9.9,9.9,0,0,1,.63,1c.12.2.23.42.34.63l-.26.49-.16.29s-.06.1-.08.15l-.07.15c0,.07-.09.15-.14.21a1,1,0,0,1-.08.11l0,0-.06.08-.09.1-.17.2a3.92,3.92,0,0,0-.25.32v0l-.07.09,0,0c-5.46,3.25-10.86,6.58-16.16,10.09-5.89,3.89-11.54,8.06-17.17,12.33-1.26.95-2.47,2-3.68,3-1.46,1.25-2.85,2.66-4.37,3.83-2.8,2.18-5.71,4.2-8.51,6.36q-5.16,4-10.15,8.14c-.85-1.76-2.05-3.4-3.07-5.06-1.12-1.83-2.25-3.66-3.33-5.51-2.19-3.72-4.56-7.34-6.85-11-1.14-1.81-2.29-3.61-3.42-5.43s-2.2-4-3.4-5.88c-2.28-3.66-4.67-7.25-6.62-11.11-1.5-3-2.69-6.05-4-9.11A2.26,2.26,0,0,1,185.17,194.43ZM276.73,203h0a.8.8,0,0,0,0,.23ZM263.85,306.49l.08-.18a1.34,1.34,0,0,0-.07.18Zm3.76-2.73-.15-.08-.09-.05a1.83,1.83,0,0,0-.32-.14l.22.09-.16-.07-.13-.06a357.83,357.83,0,0,1,1.44-38.6,381.87,381.87,0,0,1,6-38.78c3.93-19.26,9.11-38.23,14.93-57l.16,0h.61c.13,0,.3,0,.41-.06h0a150.12,150.12,0,0,0,45.76,22.39c.1.4.21.81.28,1.22,0,0,.05.33,0,.17,0,.12,0,.24,0,.36s0,.49,0,.73c0,.06,0,.13,0,.19C326,220.9,311.83,246.32,297.3,271.21c-2,3.48-4.14,6.91-6.28,10.33-1.37,2.19-2.9,4.37-4.24,6.63-.35.36-.68.74-1,1.09l-1.82,1.9c-.59.62-1.18,1.23-1.78,1.84l-.32.32Q274.75,298.56,267.61,303.76Zm109.12-45.71q1.25,12.29,1.35,24.65a8,8,0,0,1-1.18-.74l-.24-.18A13.6,13.6,0,0,0,374.3,280a32.36,32.36,0,0,0-6.13-2.73c-5.21-1.92-10.5-3.61-15.77-5.36s-10.34-3.28-15.46-5.07a47.8,47.8,0,0,1-13.05-6.38,39.71,39.71,0,0,1-5.64-5.2,51.46,51.46,0,0,1-3.8-5.19,10.3,10.3,0,0,1,0-1.47c0-.24.07-.49.11-.74q8.88-15.59,16.58-31.8,5-10.59,9.46-21.46l.11-.07a5.14,5.14,0,0,1,.54-.37,8.87,8.87,0,0,1,1.09-.6l.26-.13h0l.13-.06.38-.13,1.59.4c3.06.73,6.17,1.45,9.31,2l.44.18c.44.18.87.36,1.31.52.92.34,1.85.62,2.78.9a37.42,37.42,0,0,0,5.63,1.32c.52,1.61,1,3.23,1.55,4.85A285.42,285.42,0,0,1,376.73,258.05ZM345.2,154.59A247.94,247.94,0,0,1,362.26,193h0c-4.92-1-9.88-1.63-14.78-2.74s-9.74-2.45-14.51-4A178.52,178.52,0,0,1,305.7,174.7c-4.75-2.48-9.35-5.24-13.87-8.13l0-.09c-.1-.17-.23-.33-.33-.5a9.48,9.48,0,0,1-.52-1c-.06-.15-.11-.3-.17-.46q2.34-7.43,4.8-14.81c4.15-12.49,8.56-24.9,12.75-37.37l.44-.75a11.59,11.59,0,0,1,.74-1.09,10.11,10.11,0,0,0,.75-1c2.33,2.06,4.59,4.21,6.76,6.42C328.22,127.38,337.46,140.63,345.2,154.59ZM244.52,87.53A70.17,70.17,0,0,1,282.8,92a94.62,94.62,0,0,1,24.12,14.68,12.67,12.67,0,0,1,.17,1.73c0,.4,0,.79-.06,1.18-8.91,24-17,48.48-24.12,73.11q-2,6.89-3.82,13.79c-.26,0-.52,0-.76,0l-.8,0a5.21,5.21,0,0,1-.55-.08c-.24,0-.48-.12-.72-.17-6.62-4.82-13.66-9.15-20.5-13.61-3.69-2.4-7.32-5-11.46-6.61a17.66,17.66,0,0,0-5.35-1.1c-.5-1.76-1-3.52-1.47-5.29a48.81,48.81,0,0,0-2.74-7.32c-2.06-4.68-4.4-9.24-6.9-13.69a189.85,189.85,0,0,0-17.65-25.32c-1.81-2.26-3.61-4.54-5.53-6.7l-.51-.55c-.23-.35-.52-.68-.74-1-.4-.57-.78-1.15-1.15-1.75s-.67-1.18-1-1.78c-.21-.39-.39-.84-.62-1.26q3.76-3.37,7.81-6.43C219.12,95.84,231.33,89.79,244.52,87.53ZM177.46,137a159.74,159.74,0,0,1,18.73-22.49h0c.64.41,1.33.84,1.91,1.28a17.52,17.52,0,0,1,1.69,1.55l1.81,1.8.68.63,3.39,4.19c3.17,4,6.25,8,9.2,12.08a185.61,185.61,0,0,1,16,25.8c2.17,4.39,4.35,8.75,6.58,13.09a33.36,33.36,0,0,0-6.54.83c-18.07,3.87-36,8.75-53.76,13.89q-14.88,4.32-29.62,9.13c1.82-5.61,3.81-11.17,6-16.64A225.91,225.91,0,0,1,177.46,137Zm-31.73,67.53a1,1,0,0,0,.2-.08c.15-.06.18-.09.11-.11a.65.65,0,0,0,.24,0,2.12,2.12,0,0,0,.88-.28c.38-.21.73-.43,1.13-.62.94-.44,1.93-.79,2.9-1.18L156.7,200q11.25-3.54,22.59-6.82c.17.1.34.2.5.31l.13.11.32.3.26.3,0,0,.09.12c.33.47.6,1,.9,1.47a6.22,6.22,0,0,0,.74,1,59.17,59.17,0,0,0,2.74,7,83.32,83.32,0,0,0,6.45,11.37c2.44,3.7,5.05,7.27,7.43,11s4.63,7.29,7,10.93c1.33,2.07,2.73,4.1,4.09,6.15a53.55,53.55,0,0,0,4.09,6q-2.13,1.78-4.23,3.63c-2.91,2.55-5.72,5.24-8.51,7.93-2.46,2.37-4.93,4.74-7.24,7.25l-.36.2-.24.12h0l-1.14.39-1.46.49c-.76-.09-1.53-.13-2.26-.2-2.16-.21-4.31-.34-6.47-.49s-4.15-.43-6.24-.45-4.32,0-6.48.07a152.57,152.57,0,0,0-25.3,2.88c-1.68.33-3.36.68-5.06.93h-.26l-.36,0-.32,0c-.26,0-.52-.08-.77-.12a11.81,11.81,0,0,1-1.58-.41c-.26-.08-.51-.18-.76-.28l-.2-.08-.43-.21a1.17,1.17,0,0,0-.32-.09,280.15,280.15,0,0,1,4.32-36A285.74,285.74,0,0,1,145.73,204.48ZM158.86,379.2a129.79,129.79,0,0,1-18-38.14c-4.77-16.3-6.87-33.29-7.24-50.24-.11-4.86-.07-9.72.09-14.58a10.67,10.67,0,0,0,3,0,57,57,0,0,0,5.68-.79c4-.73,8-1.52,12.06-2a217.56,217.56,0,0,1,25.39-1.33c2.33,0,4.64.12,6.95.31,1.11.08,2.34.32,3.56.41a4.07,4.07,0,0,0,.6.38c.17.09.33.19.49.29s.38.36.55.55l.11.08c.24,1.69.56,3.37.81,5.07.35,2.42.68,4.85,1.23,7.23,1.1,4.72,2.32,9.41,3.43,14.13Q201,314.64,203.18,329c.41,2.67.76,5.36,1.06,8,0,3.47,0,6.93-.16,10.38,0,.63,0,1.27.06,1.84a36.84,36.84,0,0,0,.44,4.45,35.32,35.32,0,0,0,1,4.47c-1.24,2.2-2.6,4.33-4,6.46,0,0,0,.07,0,.11-.5.54-1,1.06-1.51,1.62a79.3,79.3,0,0,0-6.35,8.25,83.25,83.25,0,0,0-8.87,18.64c-.64,1.8-1.13,3.63-1.66,5.46-.42,1.43-.92,2.91-1.22,4.4A106.25,106.25,0,0,1,158.86,379.2Zm60.53,42a111.83,111.83,0,0,1-33.73-15.39c-.86-.6-1.71-1.22-2.56-1.84.64-1.84,1-3.79,1.65-5.63s1.51-3.94,2.34-5.86a83.4,83.4,0,0,1,6.16-11.24,114.5,114.5,0,0,1,7.3-10.33q2-2.47,4.13-4.79c.4-.44.81-.86,1.22-1.28a9,9,0,0,1,1.6-.43l.51-.05h.08c2.43,4.61,5.87,8.43,9.45,12.26a136,136,0,0,1,11.89,15,194.82,194.82,0,0,1,10.9,17.49c2.47,4.46,4.87,9,7.58,13.29.07.23.15.46.22.7.15.49.29,1,.39,1.5.06.26.11.51.15.77s0,.23.05.34A135.34,135.34,0,0,1,219.39,421.17Zm29.34,4.5h0C248.72,425.61,248.72,425.62,248.73,425.67Zm6.86.16a1,1,0,0,0-.17-.25,3.62,3.62,0,0,0-.71-.5l-.1-.08-.26-.26c-.34-.34-.65-.71-1-1.07s-.71-.83-1.1-1.22-.62-.6-.95-.88c-5.57-9-10.05-18.71-16.08-27.45-3.53-5.12-7.11-10.22-11.08-15s-8.59-8.68-11.81-13.84A32,32,0,0,1,207.59,349c0-.11.07-.23.11-.34a1.21,1.21,0,0,1,.05-.14h0l.14-.3c.1-.19.2-.37.31-.55l.18-.27.08-.11c21.33-11.41,40.85-26,60.08-40.59q7.63-5.79,15.31-11.53c-2.41,16-4.38,32-5.78,48.1-1.5,17.35-2.5,34.75-2.75,52.16-.13,9.68-.22,19.4.31,29.08a145.57,145.57,0,0,1-17.82,1.3ZM355,376a106.57,106.57,0,0,1-26.18,27.8,110.42,110.42,0,0,1-33,16.35,127.77,127.77,0,0,1-18.72,4.17c.22-8.47.2-16.95.43-25.43s.56-17.25,1-25.86q.5-9.3,1.23-18.59c.11-.21.22-.43.34-.64s.31-.47.47-.7l0,0h0l.14-.18.28-.32c.2-.21.4-.41.61-.6l.32-.27,0,0h0l.15-.11a8.39,8.39,0,0,1,1.51-.86l.07-.06A93.12,93.12,0,0,0,299.26,346c6.35-2.47,12.54-5.34,18.62-8.41s11.95-6.87,18.05-10.09c1.51-.8,2.9-1.78,4.44-2.53s3.14-1.39,4.75-2.06c3.13-1.3,6.31-2.41,9.47-3.62a134.86,134.86,0,0,1,21.86-6.6l.09,0A179.48,179.48,0,0,1,372,336.72,133.91,133.91,0,0,1,355,376Z"/></svg>
