<svg class="Egg2" xmlns="http://www.w3.org/2000/svg" xmlns:xlink="http://www.w3.org/1999/xlink" viewBox="0 0 512 512">
  <defs>
    <linearGradient id="linear-gradient" x1="132.2" y1="256.15" x2="378.71" y2="256.15" gradientUnits="userSpaceOnUse">
      <stop offset="0" stop-color="#00a89c"/>
      <stop offset="1" stop-color="#92278e"/>
    </linearGradient>
    <radialGradient id="radial-gradient" cx="255.86" cy="255.86" r="157.08" gradientUnits="userSpaceOnUse">
      <stop offset="0.14" stop-color="#fff" stop-opacity="0.4"/>
      <stop offset="1" stop-color="#f1f1f1" stop-opacity="0"/>
    </radialGradient>
  </defs>
  <title>Egg2</title>
  <g>
    <g>
      <path d="M378.71,285.22c0,97.78-55.18,141.56-123.25,141.56S132.2,383,132.2,285.22,187.39,85.51,255.46,85.51,378.71,187.45,378.71,285.22Z" fill="url(#linear-gradient)"/>
      <path d="M377.71,285.22c0,17.3-1.7,34.67-6.09,51.43a133.88,133.88,0,0,1-17,39.3,106.5,106.5,0,0,1-26.17,27.79,110.38,110.38,0,0,1-33,16.36,136.39,136.39,0,0,1-38,5.67A139.48,139.48,0,0,1,219,421.11a111.91,111.91,0,0,1-33.72-15.4,105.63,105.63,0,0,1-26.81-26.57A129.91,129.91,0,0,1,140.5,341c-4.77-16.3-6.87-33.29-7.24-50.24a273.76,273.76,0,0,1,4.67-56A281.27,281.27,0,0,1,153.12,182a225.63,225.63,0,0,1,23.94-45.14c8.64-12.43,18.86-24,31-33.12,10.65-8,22.85-14,36-16.3A70.15,70.15,0,0,1,282.39,92c13,5.3,24.43,14,34.21,23.93a177.88,177.88,0,0,1,28.2,38.63,254.41,254.41,0,0,1,20.5,48.86,284.66,284.66,0,0,1,11,54.6,272.22,272.22,0,0,1,1.39,27.23,1,1,0,0,0,2,0,281.36,281.36,0,0,0-5.89-56.56,278.87,278.87,0,0,0-16.47-52.9A217.21,217.21,0,0,0,332,131c-9-12.06-19.53-23.12-32-31.64C289,91.75,276.36,86.41,263,84.93a73.11,73.11,0,0,0-38.4,6.58c-13,5.95-24.39,15.11-34.11,25.51a186.46,186.46,0,0,0-28.09,40.21,262.31,262.31,0,0,0-20.06,50.24,287,287,0,0,0-10.2,55.69,241.4,241.4,0,0,0,1.47,55.51,156.58,156.58,0,0,0,13.28,44.61,114.85,114.85,0,0,0,23.19,32.57,107.75,107.75,0,0,0,31.09,21A126.52,126.52,0,0,0,238,426.79,149.63,149.63,0,0,0,278,426.1a122.13,122.13,0,0,0,36.17-11.31,106.91,106.91,0,0,0,30.19-22.48,118,118,0,0,0,22-34.11,164.83,164.83,0,0,0,11.83-45.95,230.32,230.32,0,0,0,1.53-27A1,1,0,0,0,377.71,285.22Z"/>
    </g>
    <path d="M191.74,210.91c1.2,1.92,2.21,4,3.4,5.88s2.28,3.62,3.42,5.43c2.29,3.66,4.66,7.28,6.85,11,1.08,1.85,2.21,3.68,3.33,5.51,1,1.66,2.22,3.3,3.07,5.06q5-4.15,10.15-8.14c2.8-2.16,5.71-4.18,8.51-6.36,1.52-1.17,2.91-2.58,4.37-3.83,1.21-1,2.42-2.05,3.68-3,5.63-4.27,11.28-8.44,17.17-12.33,5.3-3.51,10.7-6.84,16.16-10.09l0,0,.07-.09v0a3.92,3.92,0,0,1,.25-.32l.17-.2.09-.1.06-.08,0,0a1,1,0,0,0,.08-.11c.05-.06.09-.14.14-.21l.07-.15s.06-.1.08-.15l.16-.29.26-.49c-.11-.21-.22-.43-.34-.63a9.9,9.9,0,0,0-.63-1h0l-.07-.09-.18-.21c-.13-.15-.26-.31-.4-.45l-.17-.19c-3.72-2.1-7.35-4.41-11-6.69q-6.81-4.29-13.6-8.61c-3.37-2.14-6.9-4.53-10.94-5.11-4.5-.65-9.16.91-13.48,2-8.86,2.13-17.71,4.3-26.52,6.63q-7.09,1.88-14.16,3.87l-.11.12-.1.11h0c0,.07-.11.15-.13.19l0,.06v0l-.09.27c-.06.25-.1.51-.15.76v.07a1.8,1.8,0,0,1,0,.22c0,.14,0,.29,0,.43,0,.3,0,.59,0,.88a2.26,2.26,0,0,0,0,.26c1.27,3.06,2.46,6.15,4,9.11C187.07,203.66,189.46,207.25,191.74,210.91Z" fill="#22b473"/>
    <path d="M285.16,286c.6-.61,1.19-1.22,1.78-1.84l1.82-1.9c.34-.35.67-.73,1-1.09,1.34-2.26,2.87-4.44,4.24-6.63,2.14-3.42,4.25-6.85,6.28-10.33,14.53-24.89,28.69-50.31,39.35-77.14,0-.06,0-.13,0-.19,0-.24,0-.49,0-.73s0-.24,0-.36c0,.16,0-.14,0-.17-.07-.41-.18-.82-.28-1.22A150.12,150.12,0,0,1,293.52,162h0c-.11,0-.28,0-.41.06h-.61l-.16,0c-5.82,18.77-11,37.74-14.93,57a381.87,381.87,0,0,0-6,38.78,357.83,357.83,0,0,0-1.44,38.6l.13.06.16.07-.22-.09a1.83,1.83,0,0,1,.32.14l.09.05.15.08q7.13-5.19,14.23-10.44Z" fill="#22b473"/>
    <path d="M361.53,190.28c-.93-.28-1.86-.56-2.78-.9-.44-.16-.87-.34-1.31-.52l-.44-.18c-3.14-.57-6.25-1.29-9.31-2l-1.59-.4-.38.13-.13.06h0c.11-.05.09,0,0,0h0l-.26.13a8.87,8.87,0,0,0-1.09.6,5.14,5.14,0,0,0-.54.37l-.11.07q-4.44,10.84-9.46,21.46-7.68,16.2-16.58,31.8c0,.25-.09.5-.11.74a10.3,10.3,0,0,0,0,1.47,51.46,51.46,0,0,0,3.8,5.19,39.71,39.71,0,0,0,5.64,5.2,47.8,47.8,0,0,0,13.05,6.38c5.12,1.79,10.32,3.37,15.46,5.07s10.56,3.44,15.77,5.36A32.36,32.36,0,0,1,377.3,273a13.6,13.6,0,0,1,2.36,1.77l.24.18a8,8,0,0,0,1.18.74q-.12-12.34-1.35-24.65a285.42,285.42,0,0,0-11-54.6c-.5-1.62-1-3.24-1.55-4.85A37.42,37.42,0,0,1,361.53,190.28Z" fill="#22b473"/>
    <path d="M323.27,336.66c6.22-2.85,12.33-6,18.65-8.66,3.13-1.3,6-3.2,9-4.71,1.57-.79,3-1.74,4.63-2.49s3-1.34,4.5-2a101.44,101.44,0,0,1,15.9-5.17c.59-.25,1.18-.5,1.75-.77a16.63,16.63,0,0,0,1.77-.94,5.35,5.35,0,0,0,1.34-1.13,1.66,1.66,0,0,1,.35-.35c.56-6.31.85-12.64.91-19v0c-.11-.13-.21-.26-.31-.4s-.23-.32-.34-.49a5.36,5.36,0,0,1-.28-.53,1.08,1.08,0,0,1-.32-.22c-3.72-3.74-8.77-5.09-13.68-6.51-5.52-1.61-11-3.41-16.49-5.16-5.11-1.64-10.28-3.17-15.24-5.24a42.42,42.42,0,0,1-12.34-7.48,40.56,40.56,0,0,1-4.58-4.87c-.06-.05-.13-.08-.18-.13l-.53-.5-.24-.22-.12-.11,0,0s-.07,0-.09-.06l-.14-.1-.31-.19a5.12,5.12,0,0,0-.57-.3l-.14-.05-.31-.1a5.06,5.06,0,0,0-.67-.17l-.14,0h0l-.32,0h0c-.22.38-.44.77-.67,1.14q-5.67,9.53-11.65,18.84c-2,3.12-4,6.28-6,9.41-1.21,1.88-2.37,3.89-3.68,5.76a2.92,2.92,0,0,1-.14.31c-.1.22-.2.45-.31.66l-.67,1.3c-.28.56-.54,1.14-.8,1.71-1.42,9.24-2.64,18.51-3.75,27.79q-1.48,12.3-2.55,24.64h0l0,0,.12.3c0,.05,0,.1.05.14a.82.82,0,0,1,0,.11l.07.14a10.18,10.18,0,0,0,.6,1c-.16-.25,0,0,.07.08l.08.09a178.52,178.52,0,0,0,19.37-6.66C311.17,342.73,317.11,339.49,323.27,336.66Z" fill="#22b473"/>
    <path d="M216.56,339.76c10.83-6.68,21.27-14,31.56-21.46l10.73-7.81c.08-.18.15-.37.23-.56s.05-.11.08-.17l0-.07q.17-.44.3-.87c.08-.29.16-.59.22-.89,0,0,0-.08,0-.12a275.6,275.6,0,0,1,2-43.64,429.12,429.12,0,0,1,9.88-53.82c-6,3.72-11.94,7.59-17.79,11.56-5.69,3.86-11.31,7.86-17,11.67a101.24,101.24,0,0,0-8.72,6.07c-2.76,2.28-5.46,4.67-8.1,7.09-5.08,4.63-10.16,9.25-15.19,13.94-4.54,4.23-8.84,8.7-13.3,13,0,0,0,0,0,0a15.34,15.34,0,0,1-1.81,3.76,2.5,2.5,0,0,1-.23.39c.52,2.08.7,4.27,1,6.38.38,2.67.92,5.29,1.56,7.91,4.37,17.78,8.73,35.61,10.05,53.91l.71.22a9.68,9.68,0,0,0,1.06.27l.26.05h.11l.53.05h0l3.66-2C211.14,343.09,213.86,341.43,216.56,339.76Z" fill="#22b473"/>
    <path d="M243.67,429.33c0-.26-.09-.51-.15-.77-.1-.5-.24-1-.39-1.5-.07-.24-.15-.47-.22-.7-2.71-4.32-5.11-8.83-7.58-13.29a194.82,194.82,0,0,0-10.9-17.49,136,136,0,0,0-11.89-15c-3.58-3.83-7-7.65-9.45-12.26H203l-.51.05a9,9,0,0,0-1.6.43c-.41.42-.82.84-1.22,1.28q-2.16,2.31-4.13,4.79a114.5,114.5,0,0,0-7.3,10.33,83.4,83.4,0,0,0-6.16,11.24c-.83,1.92-1.66,3.88-2.34,5.86s-1,3.79-1.65,5.63c.85.62,1.7,1.24,2.56,1.84a111.83,111.83,0,0,0,33.73,15.39,135.34,135.34,0,0,0,29.33,4.5C243.71,429.56,243.69,429.44,243.67,429.33Z" fill="#22b473"/>
    <path d="M178.19,402.73c.53-1.83,1-3.66,1.66-5.46a83.25,83.25,0,0,1,8.87-18.64,79.3,79.3,0,0,1,6.35-8.25c.49-.56,1-1.08,1.51-1.62,0,0,0-.08,0-.11,1.38-2.13,2.74-4.26,4-6.46a35.32,35.32,0,0,1-1-4.47,36.84,36.84,0,0,1-.44-4.45c0-.57-.08-1.21-.06-1.84.12-3.45.14-6.91.16-10.38-.3-2.68-.65-5.37-1.06-8q-2.18-14.36-5.52-28.49c-1.11-4.72-2.33-9.41-3.43-14.13-.55-2.38-.88-4.81-1.23-7.23-.25-1.7-.57-3.38-.81-5.07l-.11-.08c-.17-.19-.36-.37-.55-.55s-.32-.2-.49-.29a4.07,4.07,0,0,1-.6-.38c-1.22-.09-2.45-.33-3.56-.41-2.31-.19-4.62-.34-6.95-.31a217.56,217.56,0,0,0-25.39,1.33c-4,.52-8,1.31-12.06,2a57,57,0,0,1-5.68.79,10.67,10.67,0,0,1-3,0c-.16,4.86-.2,9.72-.09,14.58.37,16.95,2.47,33.94,7.24,50.24a129.79,129.79,0,0,0,18,38.14A106.25,106.25,0,0,0,177,407.13C177.27,405.64,177.77,404.16,178.19,402.73Z" fill="#22b473"/>
    <path d="M279.32,399.45c.25-17.41,1.25-34.81,2.75-52.16,1.4-16.1,3.37-32.12,5.78-48.1q-7.68,5.74-15.31,11.53c-19.23,14.55-38.75,29.18-60.08,40.59l-.08.11-.18.27c-.11.18-.21.36-.31.55l-.14.3h0a1.21,1.21,0,0,0-.05.14c0,.11-.07.23-.11.34a32,32,0,0,0,4.78,16.25c3.22,5.16,8,9.18,11.81,13.84s7.55,9.89,11.08,15c6,8.74,10.51,18.42,16.08,27.45.33.28.64.58,1,.88s.74.81,1.1,1.22.62.73,1,1.07l.26.26.1.08a3.62,3.62,0,0,1,.71.5,1,1,0,0,1,.17.25h2.22a145.57,145.57,0,0,0,17.82-1.3C279.1,418.85,279.19,409.13,279.32,399.45Z" fill="#22b473"/>
    <path d="M380.45,316.67a134.86,134.86,0,0,0-21.86,6.6c-3.16,1.21-6.34,2.32-9.47,3.62-1.61.67-3.19,1.29-4.75,2.06s-2.93,1.73-4.44,2.53c-6.1,3.22-11.9,7-18.05,10.09s-12.27,5.94-18.62,8.41a93.12,93.12,0,0,1-15.49,4.67l-.07.06a8.39,8.39,0,0,0-1.51.86l-.15.11h0l0,0-.32.27c-.21.19-.41.39-.61.6l-.28.32-.14.18h0l0,0c-.16.23-.32.46-.47.7s-.23.43-.34.64q-.72,9.29-1.23,18.59-.69,12.91-1,25.86c-.23,8.48-.21,17-.43,25.43a127.77,127.77,0,0,0,18.72-4.17,110.42,110.42,0,0,0,33-16.35A106.57,106.57,0,0,0,359,380a133.91,133.91,0,0,0,17-39.29,179.48,179.48,0,0,0,4.52-24.08Z" fill="#22b473"/>
    <path d="M204.28,104.52c.31.6.64,1.2,1,1.78s.75,1.18,1.15,1.75c.22.32.51.65.74,1l.51.55c1.92,2.16,3.72,4.44,5.53,6.7a189.85,189.85,0,0,1,17.65,25.32c2.5,4.45,4.84,9,6.9,13.69a48.81,48.81,0,0,1,2.74,7.32c.46,1.77,1,3.53,1.47,5.29a17.66,17.66,0,0,1,5.35,1.1c4.14,1.58,7.77,4.21,11.46,6.61,6.84,4.46,13.88,8.79,20.5,13.61.24,0,.48.13.72.17a5.21,5.21,0,0,0,.55.08l.8,0c.24,0,.5,0,.76,0q1.85-6.92,3.82-13.79c7.1-24.63,15.21-49.06,24.12-73.11,0-.39.06-.78.06-1.18a12.67,12.67,0,0,0-.17-1.73A94.62,94.62,0,0,0,285.8,85a70.17,70.17,0,0,0-38.28-4.5c-13.19,2.26-25.4,8.31-36.05,16.3q-4,3-7.81,6.43C203.89,103.68,204.07,104.13,204.28,104.52Z" fill="#22b473"/>
    <path d="M173.15,185.61c17.75-5.14,35.69-10,53.76-13.89a33.36,33.36,0,0,1,6.54-.83c-2.23-4.34-4.41-8.7-6.58-13.09a185.61,185.61,0,0,0-16-25.8c-2.95-4.11-6-8.13-9.2-12.08l-3.39-4.19-.68-.63-1.81-1.8a17.52,17.52,0,0,0-1.69-1.55c-.58-.44-1.27-.87-1.91-1.28h0A159.74,159.74,0,0,0,173.46,133a225.91,225.91,0,0,0-23.93,45.15c-2.19,5.47-4.18,11-6,16.64Q158.26,189.94,173.15,185.61Z" fill="#22b473"/>
    <path d="M312.5,103.5a11.59,11.59,0,0,0-.74,1.09l-.44.75c-4.19,12.47-8.6,24.88-12.75,37.37q-2.46,7.38-4.8,14.81c.06.16.11.31.17.46a9.48,9.48,0,0,0,.52,1c.1.17.23.33.33.5l0,.09c4.52,2.89,9.12,5.65,13.87,8.13a178.52,178.52,0,0,0,27.24,11.52q7.15,2.34,14.51,4c4.9,1.11,9.86,1.76,14.78,2.74h0a247.94,247.94,0,0,0-17.06-38.39c-7.74-14-17-27.21-28.19-38.62-2.17-2.21-4.43-4.36-6.76-6.42A10.11,10.11,0,0,1,312.5,103.5Z" fill="#22b473"/>
    <path d="M130.33,266.88l.43.21.2.08c.25.1.5.2.76.28a11.81,11.81,0,0,0,1.58.41c.25,0,.51.09.77.12l.32,0,.36,0H135c1.7-.25,3.38-.6,5.06-.93a152.57,152.57,0,0,1,25.3-2.88q3.24-.11,6.48-.07c2.09,0,4.16.3,6.24.45s4.31.28,6.47.49c.73.07,1.5.11,2.26.2l1.46-.49,1.14-.39h0l.24-.12.36-.2c2.31-2.51,4.78-4.88,7.24-7.25,2.79-2.69,5.6-5.38,8.51-7.93q2.1-1.84,4.23-3.63a53.55,53.55,0,0,1-4.09-6c-1.36-2.05-2.76-4.08-4.09-6.15-2.33-3.64-4.63-7.29-7-10.93s-5-7.31-7.43-11A83.32,83.32,0,0,1,181,199.81a59.17,59.17,0,0,1-2.74-7,6.22,6.22,0,0,1-.74-1c-.3-.49-.57-1-.9-1.47l-.09-.12,0,0-.26-.3-.32-.3-.13-.11c-.16-.11-.33-.21-.5-.31Q164,192.43,152.7,196l-5.51,2.24c-1,.39-2,.74-2.9,1.18-.4.19-.75.41-1.13.62a2.12,2.12,0,0,1-.88.28.65.65,0,0,1-.24,0c.07,0,0,.05-.11.11a1,1,0,0,1-.2.08,285.74,285.74,0,0,0-7.4,30.36,280.15,280.15,0,0,0-4.32,36A1.17,1.17,0,0,1,130.33,266.88Z" fill="#22b473"/>
    <path d="M270.66,208.17c-5.33,3.17-10.6,6.43-15.77,9.85-5.89,3.89-11.55,8.06-17.17,12.33-1.26,1-2.47,2-3.68,3-1.47,1.25-2.86,2.65-4.37,3.83-2.8,2.17-5.72,4.19-8.52,6.36q-1.82,1.41-3.61,2.85-5.08,5.31-10.5,10.31t-10.82,9.5a27.5,27.5,0,0,1-4.74,3.44c-.76.78-1.52,1.56-2.25,2.35l-.37.2-.23.12h0c-.38.12-.75.26-1.13.39l-1.46.49c-.76-.09-1.53-.14-2.27-.21l-2.32-.19c-6.07,1.28-12.75.35-18.8.11-11.61-.44-23,2.58-34.36,4.45a5.52,5.52,0,0,1-1.2.07c0,.2,0,.4,0,.6,0,0,0,0,0,.06a232.65,232.65,0,0,0,2.17,44.53,155.94,155.94,0,0,0,13.28,44.61,114.81,114.81,0,0,0,23.18,32.57,107.75,107.75,0,0,0,31.09,21,126.66,126.66,0,0,0,36.9,9.92c4.37.51,8.77.81,13.18.93a13,13,0,0,0,.95-2.62l-.21-.61c-3.48-3.11-4.65-7.4-6.3-11.74-1.78-3.1-3.59-6.19-5.47-9.24l-.24-.4c-.47-.62-.93-1.24-1.36-1.86-2.53-3.61-4.83-7.38-7.4-11-4.3-6-8.88-11.67-13.63-17.27a63.4,63.4,0,0,1-4.84-6.27c-3.51-4.71-6.11-9.81-5.32-14.72,0-.16,0-.31,0-.47a4.84,4.84,0,0,1-.1-1.32c0-.43-.06-.85-.07-1.28,0-.11.06-.23.1-.34l.06-.14h0c.05-.1.09-.2.14-.29a6,6,0,0,1,.31-.55,2.11,2.11,0,0,1,.18-.27.83.83,0,0,1,.08-.12l1.21-.66c.11-.08.21-.18.33-.26.65-.45,1.26-.93,1.85-1.42.42-.4.87-.79,1.36-1.18a5.37,5.37,0,0,1,2.65-1.14c4.46-4.34,10.88-7.28,16.51-10,2.58-2.34,5.11-4.65,7.65-6.57,3.35-2.53,7.21-4.25,10.91-6.21q6-4.36,11.86-8.82a45.55,45.55,0,0,1,3.85-3.08c.44-4.25.06-8.57,0-12.92,0-6.45.25-12.91.73-19.34a1.5,1.5,0,0,1,0-.22c0-4.72.4-9.43.82-14a117.33,117.33,0,0,1,2.75-17.89c.2-.78.4-1.55.61-2.33.61-3.7,1.26-7.39,2-11.07.27-2.07.67-4.13,1-6.29.45-7,1.27-14.13,4.83-19.67l.21-.83A14.84,14.84,0,0,0,270.66,208.17ZM154.06,383.09A129.41,129.41,0,0,1,136.11,345c-4.78-16.3-6.88-33.29-7.25-50.24q-.15-7.29.1-14.58a11.05,11.05,0,0,0,3,0c1.9-.16,3.8-.45,5.68-.79,4-.73,8-1.52,12.06-2A217.56,217.56,0,0,1,175.13,276c2.32,0,4.63.12,7,.31,1.11.08,2.34.31,3.55.4a6.33,6.33,0,0,0,.61.39,4.71,4.71,0,0,1,.48.29,7.27,7.27,0,0,1,.56.55l.1.08c.25,1.69.57,3.37.81,5.06.35,2.43.69,4.85,1.24,7.24,1.09,4.72,2.32,9.41,3.43,14.12,2.21,9.42,4.07,18.93,5.52,28.49q.62,4,1.05,8.05c0,3.46,0,6.92-.15,10.38,0,.62,0,1.26.06,1.84a36.84,36.84,0,0,0,.44,4.45,32.5,32.5,0,0,0,1,4.47c-1.25,2.2-2.61,4.32-4,6.46a.21.21,0,0,0,0,.1c-.5.55-1,1.07-1.51,1.63a76.94,76.94,0,0,0-6.35,8.25A83.28,83.28,0,0,0,180,397.16c-.63,1.79-1.12,3.63-1.66,5.45-.41,1.44-.92,2.92-1.21,4.4A105.78,105.78,0,0,1,154.06,383.09Zm49.15-14.87h.08c2.43,4.61,5.86,8.43,9.45,12.26a137.24,137.24,0,0,1,11.89,15A194.72,194.72,0,0,1,235.52,413c2.47,4.46,4.88,9,7.59,13.29.07.23.14.46.22.69.15.5.28,1,.39,1.51.06.26.1.51.15.77,0,.11,0,.23,0,.34a135.43,135.43,0,0,1-29.34-4.5,111.91,111.91,0,0,1-33.72-15.4c-.87-.59-1.71-1.21-2.56-1.83.63-1.84,1-3.79,1.64-5.63s1.52-3.94,2.35-5.86a82.79,82.79,0,0,1,6.16-11.24,116.43,116.43,0,0,1,7.29-10.33q2-2.47,4.13-4.8c.4-.43.82-.85,1.23-1.27a8.79,8.79,0,0,1,1.6-.43ZM261.9,264.06a275.55,275.55,0,0,0-2,43.64l0,.12c-.06.3-.13.59-.22.89a7.47,7.47,0,0,1-.3.87l0,.07c0,.06-.05.12-.07.17s-.16.37-.23.56l-10.74,7.81C238,325.67,227.59,333,216.76,339.65c-2.71,1.67-5.42,3.33-8.2,4.88l-3.66,2h0l-.53-.05h-.11l-.26-.05a7.51,7.51,0,0,1-1.06-.28l-.71-.22c-1.32-18.3-5.68-36.12-10.05-53.9-.64-2.63-1.18-5.24-1.57-7.91a62.7,62.7,0,0,0-1-6.38,1.9,1.9,0,0,0,.23-.39,15.19,15.19,0,0,0,1.82-3.76v0c4.46-4.31,8.76-8.77,13.3-13,5-4.69,10.12-9.31,15.2-13.95,2.64-2.41,5.34-4.8,8.09-7.08a101.4,101.4,0,0,1,8.73-6.07c5.72-3.81,11.33-7.81,17-11.67q8.78-6,17.8-11.56A427.32,427.32,0,0,0,261.9,264.06Z"/>
    <path d="M373.64,283.14c-3.15-1.37-6.51-1.76-9.81-2.6a60.35,60.35,0,0,1-9.73-3.88c-6.58-3-13.68-4.3-20.14-7.73a57,57,0,0,1-15.19-11.76c-.53-.26-1.06-.52-1.59-.8l-.33-.16c-7.41,3.27-10.52,12.72-14.72,19.52A151.74,151.74,0,0,1,293,289.09a5,5,0,0,1-.57,1.2c-3.45,5.43-8,11.19-14.13,13.81a19.36,19.36,0,0,1-3.4,3.51,31,31,0,0,1-5.32,2.89c-1.64,1.27-3.29,2.54-4.95,3.79a5.77,5.77,0,0,1-1,.58,51.28,51.28,0,0,1-4.55,3.31c-3.45,2.28-7.1,4.29-10.69,6.39q-5.53,3.9-11.16,7.68c-6.17,5.23-12.75,12.11-20.57,14.17l-.34.31a39.83,39.83,0,0,1-5,3.08l-.51.27a10.82,10.82,0,0,0-1.23,6.59,52.18,52.18,0,0,0,2.82,11.26c.4.8.8,1.61,1.15,2.43a43.13,43.13,0,0,0,2.71,3.86c1.69,2,3.41,3.93,5.11,5.86l.38.4c1.31,1.4,2.55,2.84,3.77,4.3,2.37,2.54,5,4.85,7.11,7.61,2.36,3.05,4,6.55,5.91,9.84l1.22,2a5.18,5.18,0,0,1,.71,1.79c1.4,2.3,2.76,4.62,4.06,7l2.39,4.32a39.3,39.3,0,0,1,7.23,12.3,22,22,0,0,0,3.14,2.14,148.66,148.66,0,0,0,25.3-1.67,122.13,122.13,0,0,0,36.17-11.31,106.91,106.91,0,0,0,30.19-22.48,117.79,117.79,0,0,0,22-34.11,165.19,165.19,0,0,0,11.84-45.95,229.14,229.14,0,0,0,1.49-24.7A23.68,23.68,0,0,0,373.64,283.14ZM262,429.72h-2.22a1.1,1.1,0,0,0-.17-.25,3.08,3.08,0,0,0-.72-.5l-.1-.09-.26-.25c-.33-.34-.64-.71-1-1.07s-.71-.84-1.11-1.22-.62-.6-1-.88c-5.57-9-10-18.71-16.07-27.45-3.54-5.12-7.11-10.22-11.08-15s-8.59-8.69-11.82-13.84a31.94,31.94,0,0,1-4.77-16.25c0-.11.06-.23.1-.34l.06-.14h0c.05-.1.09-.2.14-.29a6,6,0,0,1,.31-.55,2.11,2.11,0,0,1,.18-.27.83.83,0,0,1,.08-.12c21.32-11.4,40.84-26,60.07-40.59q7.65-5.78,15.32-11.52c-2.42,16-4.38,32-5.78,48.1-1.5,17.35-2.5,34.75-2.75,52.16-.14,9.68-.23,19.4.3,29.07A145.42,145.42,0,0,1,262,429.72ZM376.22,340.6a133.88,133.88,0,0,1-17,39.3,106.33,106.33,0,0,1-26.17,27.79,110.33,110.33,0,0,1-33,16.36,127.77,127.77,0,0,1-18.72,4.17c.21-8.48.2-17,.42-25.43q.35-12.93,1-25.86c.33-6.2.76-12.4,1.24-18.59a5.62,5.62,0,0,1,.34-.64c.15-.24.31-.47.47-.7l0,0h0l.15-.18c.09-.1.18-.21.28-.31s.4-.41.61-.6l.32-.28h0l.16-.12a9.35,9.35,0,0,1,1.51-.86s0,0,.07,0a91.83,91.83,0,0,0,15.48-4.68c6.35-2.47,12.54-5.34,18.62-8.4s12-6.87,18.06-10.09c1.51-.8,2.9-1.78,4.43-2.53s3.15-1.39,4.75-2.06c3.14-1.3,6.31-2.41,9.48-3.62a133.61,133.61,0,0,1,21.86-6.61l.08,0A179,179,0,0,1,376.22,340.6Zm5.16-30.25a1.66,1.66,0,0,0-.35.35,5.27,5.27,0,0,1-1.33,1.12,15.06,15.06,0,0,1-1.77.95c-.58.27-1.16.52-1.75.77a101.1,101.1,0,0,0-15.9,5.17c-1.51.64-3,1.28-4.5,2s-3.07,1.7-4.63,2.48c-3,1.52-5.9,3.42-9,4.72-6.32,2.62-12.43,5.81-18.65,8.66s-12.11,6.07-18.37,8.7a174.91,174.91,0,0,1-19.37,6.65l-.08-.08c0-.07-.22-.33-.06-.08a7.9,7.9,0,0,1-.6-1,.54.54,0,0,1-.07-.13l0-.11a.78.78,0,0,1-.05-.14c0-.1-.08-.2-.13-.3l0,0h0q1.08-12.35,2.54-24.64c1.12-9.28,2.33-18.55,3.76-27.79.26-.57.52-1.15.8-1.71s.44-.87.66-1.3c.11-.21.21-.44.32-.66s.09-.2.14-.31c1.31-1.88,2.47-3.88,3.68-5.77,2-3.12,4-6.28,6-9.4q6-9.32,11.66-18.84c.22-.38.44-.76.67-1.14h0l.32,0h0l.14,0c.22,0,.45.1.67.16l.31.11.14.05.57.3.31.19.13.09.1.07,0,0,.12.1.24.22c.17.18.35.34.52.51a2,2,0,0,0,.19.12,39.82,39.82,0,0,0,4.57,4.88,42.6,42.6,0,0,0,12.35,7.48c5,2.07,10.12,3.6,15.24,5.23,5.48,1.76,11,3.56,16.49,5.16,4.91,1.43,9.95,2.77,13.68,6.51a1,1,0,0,0,.31.23c.09.18.19.36.29.52s.22.34.33.5l.31.4h0C382.24,297.71,382,304,381.38,310.35Z"/>
    <path d="M377.42,221.61A278.84,278.84,0,0,0,361,168.71a217.72,217.72,0,0,0-25.33-44.81,147.7,147.7,0,0,0-22.71-24.56l-.09-.07a113.51,113.51,0,0,0-9.18-7C292.59,84.7,280,79.36,266.58,77.88a73.13,73.13,0,0,0-38.4,6.58,104.37,104.37,0,0,0-27.72,19.11,1.41,1.41,0,0,0-.47.44,18.65,18.65,0,0,0,3,5.4c1.79,2.1,4.09,3.73,6,5.67,4.61,4.6,8.31,10.45,12.06,15.75a105,105,0,0,1,9.65,15.72c1.92,3.5,3.89,7,5.46,10.65a7.3,7.3,0,0,1,.56,2.38,4.88,4.88,0,0,1,1.83,4.15q1,2,2.05,4.05h-.31a3.68,3.68,0,0,1,.88,1.43,3.45,3.45,0,0,1,.35,1.07,8.32,8.32,0,0,1,1.83.4,7.78,7.78,0,0,1,2.72,1.57c4,1.37,7.27,3.89,11.14,6.41,2.72,1.77,5.66,2.77,8.51,4.25s4.86,4.68,7.74,5.61a4.83,4.83,0,0,1,2.8,2.18l.72.42a5.3,5.3,0,0,1,1.16.44,4.77,4.77,0,0,1,2.22,2.85c0,.08.08.16.13.24l-.05.08a4.83,4.83,0,0,1-.18,3,2.57,2.57,0,0,1-.08.38,6.08,6.08,0,0,1-.53,1.16l.08,0c-.24,1-.48,2-.71,3-.45,5.06-2.22,9.83-3.26,15-.74,3.76-.62,7.64-1.35,11.39a30.22,30.22,0,0,1-1.73,5.31c.1,6.56-1.29,13-2.12,19.48-.92,7.23-1.35,14.49-1.68,21.77a5,5,0,0,1-.68,2.37c.17,7,.3,13.91.34,20.87,1.22,0,2.44,0,3.67,0a40.48,40.48,0,0,1,6.81-5.59,127.73,127.73,0,0,1,11.39-7.31c.11-.22.21-.45.32-.67.21-.44.44-.87.66-1.3.11-.21.21-.44.32-.66s.09-.2.14-.31c1.31-1.87,2.47-3.87,3.67-5.76a21.32,21.32,0,0,1,2.63-4.13c1.11-1.77,2.22-3.53,3.35-5.28,1.55-2.4,3.07-4.83,4.58-7.25a31.35,31.35,0,0,1,4.95-8.09c.71-1.17,1.43-2.32,2.13-3.5.22-.38.44-.76.67-1.14h0l.32,0h0l.14,0c.22,0,.45.1.67.16l.31.11.14.05q.28.13.57.3l.31.19.13.09.1.07,0,0,.12.1.24.22c.17.18.35.34.52.51a2,2,0,0,0,.19.12c.18.23.38.44.57.66,6.06,2,10.71,7.31,16.39,10.12,2.45,1.22,4.94,2.47,7.27,3.92a92.39,92.39,0,0,1,25.94,8.32c.27.13.52.27.78.41,3.52,1.05,7,2.26,9.88,4.53l1.1.22.18,0h.36c.5,0,1,.06,1.51.06l.61,0a4.13,4.13,0,0,1,.78-.63,6.12,6.12,0,0,1,.19-1.67A281.1,281.1,0,0,0,377.42,221.61ZM312,104.48c.23-.38.47-.74.73-1.09a9.88,9.88,0,0,0,.76-1q3.49,3.09,6.76,6.41a177.84,177.84,0,0,1,28.19,38.63,247.47,247.47,0,0,1,17.05,38.39h0c-4.92-1-9.89-1.63-14.79-2.74s-9.73-2.45-14.5-4a178.52,178.52,0,0,1-27.24-11.52c-4.76-2.49-9.35-5.24-13.87-8.13a.73.73,0,0,0,0-.09c-.09-.17-.22-.33-.33-.5a9.4,9.4,0,0,1-.51-1c-.06-.15-.12-.31-.17-.46q2.34-7.42,4.79-14.82c4.16-12.48,8.56-24.89,12.76-37.36C311.66,105,311.81,104.72,312,104.48ZM280.18,189.3c-.25,0-.48-.12-.72-.17-6.63-4.82-13.66-9.15-20.51-13.61-3.68-2.4-7.31-5-11.45-6.61a17.37,17.37,0,0,0-5.35-1.1c-.51-1.76-1-3.52-1.47-5.3a48.7,48.7,0,0,0-2.74-7.31c-2.07-4.68-4.4-9.24-6.91-13.69a189.78,189.78,0,0,0-17.64-25.32c-1.81-2.26-3.61-4.54-5.54-6.7-.16-.19-.33-.37-.5-.55-.24-.35-.52-.68-.74-1-.41-.57-.79-1.16-1.15-1.76s-.68-1.17-1-1.77c-.2-.39-.38-.85-.61-1.26q3.76-3.37,7.81-6.43c10.65-8,22.85-14,36.05-16.3A70.12,70.12,0,0,1,286,84.92,94.45,94.45,0,0,1,310.11,99.6a11.15,11.15,0,0,1,.18,1.73,11.5,11.5,0,0,1-.07,1.18c-8.91,24-17,48.48-24.11,73.11q-2,6.87-3.82,13.79l-.77,0-.8-.06A3.33,3.33,0,0,1,280.18,189.3Zm20.32,74.79c-2,3.49-4.15,6.92-6.28,10.34-1.37,2.19-2.91,4.37-4.24,6.63-.35.36-.69.74-1,1.09-.62.63-1.21,1.27-1.82,1.9s-1.19,1.23-1.79,1.84l-.31.32q-7.11,5.24-14.24,10.44l-.14-.08-.1-.05a1.09,1.09,0,0,0-.31-.14l.22.09-.16-.08-.13-.05a355.56,355.56,0,0,1,1.44-38.61,381.68,381.68,0,0,1,6-38.77c3.93-19.26,9.1-38.23,14.92-57l.17,0h.61a2.43,2.43,0,0,0,.4,0h0a149.75,149.75,0,0,0,45.76,22.38c.1.41.2.82.28,1.23,0,0,.05.33,0,.17,0,.12,0,.24,0,.36a6,6,0,0,1,0,.73c0,.06,0,.13,0,.19C329.19,213.79,315,239.21,300.5,264.09Zm79.6,10.76-.24-.18a13.6,13.6,0,0,0-2.36-1.77,33.65,33.65,0,0,0-6.13-2.74c-5.21-1.91-10.5-3.6-15.77-5.35s-10.34-3.28-15.46-5.07a47.74,47.74,0,0,1-13.06-6.39,39,39,0,0,1-5.63-5.19,52.61,52.61,0,0,1-3.8-5.19,10.3,10.3,0,0,1,0-1.47,6.62,6.62,0,0,1,.11-.74q8.88-15.58,16.57-31.8,5-10.61,9.47-21.46l.1-.08c.18-.12.36-.25.55-.36a9.62,9.62,0,0,1,1.08-.61l.27-.12h0l.14-.06.37-.13,1.6.4c3.05.73,6.17,1.45,9.31,2l.44.18c.43.18.87.36,1.31.52.91.34,1.84.62,2.77.9a37.55,37.55,0,0,0,5.64,1.32c.52,1.61,1.05,3.23,1.54,4.85a284.66,284.66,0,0,1,11,54.6q1.24,12.29,1.36,24.65A9,9,0,0,1,380.1,274.85Z"/>
    <path d="M274.26,194.82a5.67,5.67,0,0,1-1.83-1c-6.73-5.31-14.71-9.48-22.12-13.78-4.13-2.4-8.51-4.94-11.59-8.56a18.16,18.16,0,0,0-3.77-.6c-.5-1.76-1-3.52-1.47-5.29-.26-1-.6-2-1-3-6-7.92-9.81-17.43-15.1-25.83-.9-1.42-1.75-2.89-2.59-4.36-3.7-2.71-5.84-6.75-8.29-11s-6-7.48-8.61-11.46a31.43,31.43,0,0,0-4.89-3.17,1.6,1.6,0,0,0-.25.27c-2,1.93-4,3.92-5.91,6a186.35,186.35,0,0,0-28.09,40.21,261,261,0,0,0-20.06,50.24,287.74,287.74,0,0,0-10.21,55.69c-.27,3.29-.47,6.59-.63,9.89,1.27.41,2.54.88,3.92,1.32a33.93,33.93,0,0,0,3.86.94c3-.66,6.11-2.53,9.18-3a88.55,88.55,0,0,1,11.63-.69,111.21,111.21,0,0,1,12.25.49l7.2-.12c2.29,0,4.56.12,6.83.3a24.66,24.66,0,0,0,6-1.38c1.68-.72,3.22-1.65,4.85-2.43l3.75-3.69a50.84,50.84,0,0,1,6.84-6.69c.52-.5,1-1,1.57-1.5,5-4.69,10.11-9.31,15.19-13.94,2.64-2.42,5.34-4.81,8.1-7.09a101.24,101.24,0,0,1,8.72-6.07c5.72-3.81,11.34-7.81,17-11.67,5.85-4,11.78-7.84,17.79-11.56,0,0,0,.07,0,.11l.6-.45c.85-.87,1.69-1.74,2.47-2.67a2.68,2.68,0,0,0,.07-.27A13.52,13.52,0,0,0,274.26,194.82ZM149.53,178.1A225.91,225.91,0,0,1,173.46,133a159.74,159.74,0,0,1,18.73-22.49h0c.64.41,1.33.84,1.91,1.28a17.52,17.52,0,0,1,1.69,1.55l1.81,1.8.68.63,3.39,4.19c3.17,4,6.25,8,9.2,12.08a185.61,185.61,0,0,1,16,25.8c2.17,4.39,4.35,8.75,6.58,13.09a33.36,33.36,0,0,0-6.54.83c-18.07,3.87-36,8.75-53.76,13.89q-14.88,4.32-29.62,9.13C145.35,189.13,147.34,183.57,149.53,178.1Zm56.25,70.82c-2.91,2.55-5.72,5.24-8.51,7.93-2.46,2.37-4.93,4.74-7.24,7.25l-.36.2-.24.12h0l-1.14.39-1.46.49c-.76-.09-1.53-.13-2.26-.2-2.16-.21-4.31-.34-6.47-.49s-4.15-.43-6.24-.45-4.32,0-6.48.07a152.57,152.57,0,0,0-25.3,2.88c-1.68.33-3.36.68-5.06.93h-.26l-.36,0-.32,0c-.26,0-.52-.08-.77-.12a11.81,11.81,0,0,1-1.58-.41c-.26-.08-.51-.18-.76-.28l-.2-.08-.43-.21a1.17,1.17,0,0,0-.32-.09,280.15,280.15,0,0,1,4.32-36,285.74,285.74,0,0,1,7.4-30.36,1,1,0,0,0,.2-.08c.15-.06.18-.09.11-.11a.65.65,0,0,0,.24,0,2.12,2.12,0,0,0,.88-.28c.38-.21.73-.43,1.13-.62.94-.44,1.93-.79,2.9-1.18L152.7,196q11.25-3.54,22.59-6.82c.17.1.34.2.5.31l.13.11.32.3.26.3,0,0,.09.12c.33.47.6,1,.9,1.47a6.22,6.22,0,0,0,.74,1,59.17,59.17,0,0,0,2.74,7,83.32,83.32,0,0,0,6.45,11.37c2.44,3.7,5.05,7.27,7.43,11s4.63,7.29,7,10.93c1.33,2.07,2.73,4.1,4.09,6.15a53.55,53.55,0,0,0,4.09,6Q207.88,247.08,205.78,248.92Zm67.3-50.66-.16.29s-.06.1-.08.15l-.07.15c0,.07-.09.15-.14.21a1,1,0,0,1-.08.11l0,0-.06.08-.09.1-.17.2a3.92,3.92,0,0,0-.25.32v0l-.07.09,0,0c-5.46,3.25-10.86,6.58-16.16,10.09-5.89,3.89-11.54,8.06-17.17,12.33-1.26.95-2.47,2-3.68,3-1.46,1.25-2.85,2.66-4.37,3.83-2.8,2.18-5.71,4.2-8.51,6.36q-5.16,4-10.15,8.14c-.85-1.76-2.05-3.4-3.07-5.06-1.12-1.83-2.25-3.66-3.33-5.51-2.19-3.72-4.56-7.34-6.85-11-1.14-1.81-2.29-3.61-3.42-5.43s-2.2-4-3.4-5.88c-2.28-3.66-4.67-7.25-6.62-11.11-1.5-3-2.69-6.05-4-9.11a2.26,2.26,0,0,1,0-.26c0-.29,0-.58,0-.88,0-.14,0-.29,0-.43a1.8,1.8,0,0,0,0-.22v-.07c.05-.25.09-.51.15-.76l.09-.27a.08.08,0,0,0,0,0l0-.06h0c0-.1,0-.06,0,0l0-.06s.09-.12.13-.19h0s0-.06,0-.07a.09.09,0,0,1,0,.06l.1-.11.11-.12q7.06-2,14.16-3.87c8.81-2.33,17.66-4.5,26.52-6.63,4.32-1,9-2.6,13.48-2,4,.58,7.57,3,10.94,5.11q6.79,4.32,13.6,8.61c3.61,2.28,7.24,4.59,11,6.69l.17.19c.14.14.27.3.4.45l.18.21.07.09h0a9.9,9.9,0,0,1,.63,1c.12.2.23.42.34.63Z"/>
    <path d="M386.14,286.52c0,103.1-58.33,149.28-130.28,149.28S125.58,389.62,125.58,286.52,183.9,75.92,255.86,75.92,386.14,183.41,386.14,286.52Z" fill="url(#radial-gradient)"/>
  </g>
</svg>
