<svg class="Egg3" xmlns="http://www.w3.org/2000/svg" xmlns:xlink="http://www.w3.org/1999/xlink" viewBox="0 0 512 512">
  <defs>
    <linearGradient id="linear-gradient" x1="132.88" y1="256.09" x2="379.39" y2="256.09" gradientUnits="userSpaceOnUse">
      <stop offset="0" stop-color="#00a89c"/>
      <stop offset="1" stop-color="#92278e"/>
    </linearGradient>
    <radialGradient id="radial-gradient" cx="255.6" cy="255.44" r="157.08" gradientUnits="userSpaceOnUse">
      <stop offset="0.14" stop-color="#fff" stop-opacity="0.4"/>
      <stop offset="1" stop-color="#f1f1f1" stop-opacity="0"/>
    </radialGradient>
  </defs>
  <title>Egg3</title>
  <g>
    <g>
      <path d="M379.39,285.16c0,97.78-55.18,141.56-123.25,141.56S132.88,382.94,132.88,285.16,188.06,85.45,256.14,85.45,379.39,187.38,379.39,285.16Z" fill="url(#linear-gradient)"/>
      <path d="M378.39,285.16c0,17.3-1.7,34.67-6.09,51.43a133.88,133.88,0,0,1-17,39.3,106.53,106.53,0,0,1-26.18,27.79,110.21,110.21,0,0,1-33,16.36,136.5,136.5,0,0,1-38,5.67,139.48,139.48,0,0,1-38.42-4.66,111.8,111.8,0,0,1-33.72-15.4,105.63,105.63,0,0,1-26.81-26.57,129.91,129.91,0,0,1-17.95-38.14c-4.77-16.3-6.87-33.29-7.24-50.24a273.76,273.76,0,0,1,4.67-56A280.52,280.52,0,0,1,153.8,182a225.36,225.36,0,0,1,23.94-45.14c8.64-12.43,18.86-24,31-33.12,10.64-8,22.85-14,36-16.3a70.15,70.15,0,0,1,38.28,4.5c13,5.29,24.43,14,34.21,23.93,11.21,11.41,20.46,24.66,28.2,38.63A255,255,0,0,1,366,203.33a284.66,284.66,0,0,1,11,54.6,272.22,272.22,0,0,1,1.39,27.23,1,1,0,0,0,2,0,281.53,281.53,0,0,0-5.89-56.57A279.72,279.72,0,0,0,358,175.7a217.21,217.21,0,0,0-25.32-44.81c-9-12.06-19.53-23.13-32-31.64-11.06-7.56-23.69-12.9-37.07-14.38a73.11,73.11,0,0,0-38.4,6.58c-13,6-24.39,15.11-34.11,25.51a186.46,186.46,0,0,0-28.09,40.21A262.22,262.22,0,0,0,143,207.4a287.24,287.24,0,0,0-10.2,55.69,240.92,240.92,0,0,0,1.47,55.52,156.42,156.42,0,0,0,13.28,44.6,114.92,114.92,0,0,0,23.18,32.58,107.7,107.7,0,0,0,31.1,21,126.22,126.22,0,0,0,36.89,9.93,150,150,0,0,0,39.94-.69,122.13,122.13,0,0,0,36.17-11.31A107.06,107.06,0,0,0,345,392.25a118,118,0,0,0,22-34.11,165.17,165.17,0,0,0,11.83-45.95,232.5,232.5,0,0,0,1.53-27A1,1,0,0,0,378.39,285.16Z"/>
    </g>
    <g>
      <path d="M193.94,210.8c1.19,1.92,2.21,3.95,3.4,5.88s2.28,3.62,3.42,5.43c2.29,3.65,4.65,7.28,6.84,11,1.09,1.85,2.22,3.68,3.34,5.51,1,1.66,2.21,3.3,3.07,5.06q5-4.16,10.14-8.14c2.8-2.17,5.72-4.19,8.52-6.36,1.51-1.18,2.9-2.58,4.37-3.83,1.21-1,2.42-2,3.68-3,5.62-4.27,11.28-8.44,17.17-12.33,5.3-3.51,10.7-6.84,16.16-10.09l0,0,.07-.09,0,0a2.43,2.43,0,0,1,.24-.32l.18-.2.08-.1.07-.08,0,0,.07-.11.15-.21a.94.94,0,0,1,.06-.15l.09-.15c.06-.1.11-.2.16-.3s.17-.32.26-.48c-.12-.22-.22-.43-.34-.63a10,10,0,0,0-.64-1h0l-.07-.09-.17-.21c-.13-.16-.26-.31-.4-.46l-.17-.18c-3.73-2.1-7.36-4.41-11-6.69q-6.81-4.31-13.6-8.61c-3.37-2.15-6.9-4.53-11-5.11-4.49-.65-9.15.91-13.48,1.95-8.85,2.13-17.7,4.3-26.51,6.63q-7.1,1.88-14.16,3.86a.74.74,0,0,1-.12.13l-.09.1,0,0-.12.19,0,.06v0l-.09.28a6.38,6.38,0,0,0-.15.76v.07a1.5,1.5,0,0,0,0,.22c0,.14,0,.29,0,.43,0,.29,0,.59,0,.88v.25c1.27,3.06,2.46,6.16,3.95,9.12C189.26,203.55,191.66,207.14,193.94,210.8Z" fill="#22b473"/>
      <path d="M194.11,210.69c.86,1.37,1.61,2.8,2.42,4.17s1.71,2.71,2.6,4c1.77,2.67,3.6,5.32,5.42,8s3.71,5.28,5.5,7.93c.9,1.31,1.78,2.7,2.68,4a34.6,34.6,0,0,1,2.73,4.2l-2.48-.54c4.73-4,9.52-8.07,14.59-11.62l3.78-2.7a44.8,44.8,0,0,0,3.53-2.84c1.21-1,2.51-1.95,3.76-2.9s2.53-1.83,3.81-2.72q7.68-5.29,15.48-10.4c5.29-3.26,10.52-6.59,15.69-10l-.23.19.22-.3c.09-.13.18-.24.24-.32a3.48,3.48,0,0,0,.38-.54l-.09.19.1-.26.08-.14.13-.25.27-.56v.87a9,9,0,0,0-.79-1.21,7,7,0,0,0-.94-1l.24.18-10.59-6c-3.5-2-7-4.11-10.41-6.21l-5.16-3.16a43.41,43.41,0,0,0-5.07-2.8,14,14,0,0,0-5.13-1.27,20.89,20.89,0,0,0-5.47.6c-1.87.42-3.79,1-5.79,1.45l-5.87,1.47L208,182.94c-7.86,1.8-15.71,3.6-23.61,5.29l.53-.34-.15.16-.12.11.13-.15-.07.09.1-.14-.08.1s0,.06,0,0v0s0,0,0,.07l0-.1a4.56,4.56,0,0,0-.14.44l-.12.48v-.08c-.05.34-.09.55-.11.86l-.07.88-.07-.38c.65,1.81,1.24,3.62,1.92,5.39a50,50,0,0,0,2.24,5.22c.86,1.69,1.76,3.36,2.75,5Zm-.34.22-3.1-4.82c-1-1.61-2.07-3.21-3-4.88s-1.86-3.37-2.69-5.1l-2.46-5.18-.06-.13v-.25l0-.93c0-.29,0-.68,0-.94h0v-.07l.09-.61a3.94,3.94,0,0,1,.13-.65l0-.1h0l.05-.1a1.22,1.22,0,0,1,.06-.12l.1-.18.1-.14,0,.05v0l.14-.17.09-.11.05-.07.14-.21.39-.13c3.85-1.25,7.68-2.58,11.54-3.77,1-.3,1.93-.62,2.9-.9l2.92-.81c2-.54,3.89-1.08,5.85-1.58L218.72,176l5.87-1.45c1.91-.47,3.88-1,6-1.42a24.71,24.71,0,0,1,6.55-.51,18,18,0,0,1,6.5,1.78,43.43,43.43,0,0,1,5.44,3.19l5.06,3.32c3.38,2.21,6.72,4.47,10.06,6.72l10.07,6.64.17.11.07.08.54.63a5.78,5.78,0,0,1,.51.71,11.16,11.16,0,0,1,.83,1.46l.22.48-.22.39-.3.53-.17.29-.08.12a0,0,0,0,1,0,0l-.09.18a5.56,5.56,0,0,1-.54.66,3.08,3.08,0,0,0-.22.26l-.24.3-.1.12-.13.08c-5.35,3.1-10.64,6.33-15.87,9.63a179.9,179.9,0,0,0-14.84,11.13c-1.19,1-2.41,2-3.53,3s-2.3,2-3.37,3.07-2.24,2.22-3.51,3.22l-3.67,2.86c-1.21,1-2.45,1.9-3.69,2.83s-2.41,1.93-3.63,2.88c-2.42,1.91-4.85,3.8-7.33,5.65l-1.69,1.25-.79-1.79a45.26,45.26,0,0,0-2.24-4c-.83-1.44-1.56-2.84-2.34-4.27-1.51-2.86-3.07-5.63-4.62-8.45s-3.13-5.6-4.79-8.35c-.81-1.39-1.65-2.76-2.43-4.17S194.6,212.27,193.77,210.91Z"/>
    </g>
    <g>
      <path d="M286.35,291.89c.6-.61,1.2-1.22,1.79-1.84s1.2-1.27,1.82-1.9c.33-.35.67-.73,1-1.09,1.33-2.26,2.87-4.44,4.24-6.63,2.13-3.42,4.25-6.85,6.28-10.34,14.53-24.88,28.69-50.3,39.35-77.13,0-.06,0-.13,0-.19a6,6,0,0,0,0-.73c0-.12,0-.24,0-.36,0,.16,0-.14,0-.17-.08-.41-.18-.82-.28-1.23a149.75,149.75,0,0,1-45.76-22.38h0a2.43,2.43,0,0,1-.4,0h-.61l-.17,0c-5.82,18.77-11,37.74-14.92,57a381.68,381.68,0,0,0-6,38.77,355.56,355.56,0,0,0-1.44,38.61l.13.05.16.08-.22-.09a1.09,1.09,0,0,1,.31.14l.1.05.14.08q7.14-5.19,14.24-10.44Z" fill="#22b473"/>
      <path d="M286.21,291.74c1.54-1.6,3.08-3.21,4.6-4.85l0,.05c2.38-3.76,4.7-7.56,6.85-11.44l3.27-5.8,3.12-5.89,12.38-23.57c4.13-7.85,8.27-15.68,12.33-23.55s7.9-15.87,11.4-24l-.06.27a3.75,3.75,0,0,0,0-.58c0-.19,0-.39,0-.59l1.51-.19v.19c.94-.09-1.47,1-1.46.25,0-.13,0-.13,0-.13h0v-.18c0-.07,0-.09,0-.17l-.07-.35-.15-.72.5.53c-4.08-1.31-8.13-2.7-12.12-4.27s-7.93-3.25-11.81-5.07-7.69-3.79-11.42-5.9-7.38-4.42-10.93-6.86l1,.2c-.23,0-.48.09-.71.11h-.23a2.12,2.12,0,0,0-.3,0h.13a1,1,0,0,1-.24,0h-.31l1.37-.88c-3,11-6,22-8.74,33s-5,22.16-7.08,33.32c-1,5.58-2,11.17-2.78,16.78s-1.54,11.24-2.15,16.87c-1.24,11.26-2.05,22.64-2.29,34l-.31-.47.28.14-.39.92-.21-.1.38-.91.35.17.12.07.11.07-.5,0,7.24-5.07,7.15-5.16,0,0Zm.29.29-.32.32h0l-7.08,5.28-7,5.38-.22.18-.27-.14-.16-.08a.93.93,0,0,0-.15-.07l-.22-.09.38-.91.22.08-.39.93-.29-.12-.3-.12v-.35c-.45-11.4-.84-22.86-.21-34.33.32-5.74.88-11.44,1.62-17.13s1.57-11.36,2.62-17c2-11.28,4.73-22.42,7.65-33.48s6.27-22,10-32.81l.35-1,1,.16.11,0h-.06a.55.55,0,0,0-.18,0l-.12,0,.24,0h.73l.72,0,.3.23q5,3.89,10.42,7.27a122.87,122.87,0,0,0,11.07,6.26c3.8,1.91,7.7,3.61,11.66,5.15s8,2.87,12.1,4l.4.11.1.42.19.77.09.38a1.6,1.6,0,0,1,0,.21v.11h0s0,0,0-.13c0-.78-2.4.34-1.46.25v.06c0,.12,0,0,0,0l1.51-.19c0,.23.06.46.07.69a5.67,5.67,0,0,1,0,.71v.15l-.05.12Q337,205.79,331.48,218c-3.64,8.15-7.68,16.11-12,23.89-2.15,3.91-4.41,7.74-6.7,11.56s-4.68,7.57-7,11.34l-3.58,5.64L298.48,276c-1.23,1.85-2.39,3.75-3.62,5.59s-2.48,3.69-3.67,5.56l0,0,0,0C289.62,288.84,288.06,290.44,286.5,292Z"/>
    </g>
    <g>
      <path d="M366.72,194.17c-.93-.28-1.86-.56-2.77-.9-.44-.16-.88-.34-1.31-.52l-.44-.18c-3.14-.57-6.26-1.29-9.31-2l-1.6-.4-.37.13-.14.06h0l-.27.12a9.62,9.62,0,0,0-1.08.61c-.19.11-.37.24-.55.36l-.1.08q-4.46,10.84-9.47,21.46-7.68,16.2-16.57,31.8a6.62,6.62,0,0,0-.11.74,10.3,10.3,0,0,0,0,1.47,52.61,52.61,0,0,0,3.8,5.19,39,39,0,0,0,5.63,5.19,47.74,47.74,0,0,0,13.06,6.39c5.12,1.79,10.31,3.36,15.46,5.07s10.56,3.44,15.77,5.35a33.65,33.65,0,0,1,6.13,2.74,13.6,13.6,0,0,1,2.36,1.77l.24.18a9,9,0,0,0,1.18.74q-.13-12.34-1.36-24.65a284.66,284.66,0,0,0-11-54.6c-.49-1.62-1-3.24-1.54-4.85A37.55,37.55,0,0,1,366.72,194.17Z" fill="#22b473"/>
      <path d="M366.67,194.36l-2.3-.73c-.77-.24-1.51-.57-2.26-.85h.05c-1.83-.38-3.66-.72-5.49-1.07l-2.75-.52c-.93-.15-1.84-.34-2.76-.53h.32l-.54.22-.31-1.09h0l-.06,0,.06,0,0,0h.08l.11,0h.08s0,0,.22.07l.3.46-.12.39c-.11.12-.08.07-.09.09l0,0,0,0,0,0h-.06l0,0-.07,0,.06,0c-.33.16-.63.38-.94.56a7.94,7.94,0,0,0-.89.63l.22-.28c-1.65,4.67-3.33,9.34-5.18,14s-3.82,9.17-6,13.63q-1.63,3.34-3.35,6.64c-1.18,2.19-2.35,4.38-3.58,6.53-2.45,4.32-5.05,8.55-7.67,12.76l.12-.33a4.94,4.94,0,0,0-.14,1l0,1-.17-.48c.83,1.26,1.58,2.53,2.41,3.72a29.13,29.13,0,0,0,2.81,3.31,31.66,31.66,0,0,0,6.85,5.41c5.08,2.93,10.84,4.52,16.54,6.18l8.56,2.5,8.56,2.58c2.85.89,5.71,1.73,8.54,2.68a23.32,23.32,0,0,1,8.46,4.51l-.23-.18a4.77,4.77,0,0,0,.42.29l.28.16.55.33-2.78,1.69c-.15-7.08-.64-14.15-1.28-21.19s-1.47-14.08-2.55-21.08-2.13-14-3.44-21a185.62,185.62,0,0,0-5-20.76l.22.18A37,37,0,0,1,366.67,194.36Zm.11-.38a37.8,37.8,0,0,0,5.61,1.25l.16,0,.06.16c2.34,6.74,4.63,13.52,6.71,20.38a189.59,189.59,0,0,1,5.17,20.89c1.26,7.07,2.27,14.19,2.87,21.36s.81,14.35.81,21.53V283l-2.77-1.76-.89-.57-.44-.28a1.68,1.68,0,0,1-.27-.21l-.21-.16,0,0a14.46,14.46,0,0,0-3.2-2.24,38.46,38.46,0,0,0-3.88-1.73L368.16,273l-8.32-3.15-8.39-3.05-4.19-1.52c-1.4-.5-2.81-1-4.21-1.52a57.65,57.65,0,0,1-8.17-3.81,36.93,36.93,0,0,1-7.21-5.47,31,31,0,0,1-3.11-3.34c-.95-1.19-1.81-2.42-2.69-3.59l-.16-.21V247l0-1.21a7.39,7.39,0,0,1,.09-1.24v-.12l.1-.21c2.27-4.39,4.45-8.82,6.63-13.24L335,217.76l6.63-13.22c2.21-4.41,4.43-8.82,6.53-13.29l.09-.21.13-.08a9.45,9.45,0,0,1,1.06-.62,11.29,11.29,0,0,1,1.11-.53l.06,0h0l0,0,0,0,0,0-.08.08-.13.4.3.46a.73.73,0,0,0,.23.07h.07l.1,0h0l-.06,0h0l-.31-1.09.21-.07.27-.08.18-.06.14,0c.89.27,1.78.54,2.68.76l2.7.66c1.81.45,3.61.9,5.43,1.31h0c.75.3,1.46.64,2.23.87Z"/>
    </g>
    <g>
      <path d="M326.47,332.55c6.22-2.85,12.33-6,18.65-8.66,3.13-1.3,6-3.2,9-4.72,1.56-.78,3-1.73,4.63-2.48s3-1.34,4.5-2a101.1,101.1,0,0,1,15.9-5.17c.59-.25,1.17-.5,1.75-.77a15.06,15.06,0,0,0,1.77-.95A5.27,5.27,0,0,0,384,306.7a1.66,1.66,0,0,1,.35-.35c.57-6.31.86-12.64.92-19h0L385,287c-.11-.16-.23-.33-.33-.5s-.2-.34-.29-.52a1,1,0,0,1-.31-.23c-3.73-3.74-8.77-5.08-13.68-6.51-5.53-1.6-11-3.4-16.49-5.16-5.12-1.63-10.28-3.16-15.24-5.23a42.6,42.6,0,0,1-12.35-7.48,39.82,39.82,0,0,1-4.57-4.88,2,2,0,0,1-.19-.12c-.17-.17-.35-.33-.52-.51l-.24-.22-.12-.1,0,0-.1-.07-.13-.09-.31-.19q-.29-.16-.57-.3l-.14-.05-.31-.11c-.22-.06-.45-.12-.67-.16l-.14,0h0l-.32,0h0c-.23.38-.45.76-.67,1.14q-5.67,9.53-11.66,18.84c-2,3.12-4,6.28-6,9.4-1.21,1.89-2.37,3.89-3.68,5.77,0,.11-.1.21-.14.31s-.21.45-.32.66c-.22.43-.45.86-.66,1.3s-.54,1.14-.8,1.71c-1.43,9.24-2.64,18.51-3.76,27.79q-1.47,12.3-2.54,24.64h0l0,0c.05.1.09.2.13.3a.78.78,0,0,0,.05.14l0,.11a.54.54,0,0,0,.07.13,7.9,7.9,0,0,0,.6,1c-.16-.25,0,0,.06.08l.08.08a174.91,174.91,0,0,0,19.37-6.65C314.36,338.62,320.31,335.38,326.47,332.55Z" fill="#22b473"/>
      <path d="M326.38,332.37c4.36-2,8.64-4.2,12.95-6.35l3.25-1.58c1.08-.52,2.21-1,3.25-1.53,2.12-1.06,4.1-2.39,6.18-3.63.53-.32,1.05-.63,1.59-.92s1-.58,1.52-.89c1-.62,2.05-1.29,3.18-1.87,2.19-1.05,4.35-2.17,6.59-3.14a86.66,86.66,0,0,1,13.88-4.64l-.28.09,1.36-.62c.47-.19.81-.44,1.24-.64l.6-.32a3.8,3.8,0,0,0,.49-.33,3.24,3.24,0,0,0,.36-.31l.22-.24a7.4,7.4,0,0,1,.57-.55l-.73,1.29c.28-3.13.52-6.26.74-9.4s.39-6.28.5-9.43l.34.95-.3-.41c-.09-.12-.19-.28-.28-.42a7.92,7.92,0,0,1-.52-1l.66.68a5.5,5.5,0,0,1-.5-.34l-.21-.18-.08-.09-.36-.35c-.23-.25-.49-.46-.74-.69a15.37,15.37,0,0,0-1.63-1.22,23.06,23.06,0,0,0-3.68-2c-2.6-1.13-5.44-1.89-8.2-2.89-5.55-1.93-11.14-3.72-16.71-5.51-2.79-.89-5.6-1.74-8.39-2.71A80.27,80.27,0,0,1,335,268a41.42,41.42,0,0,1-7.71-4.55,41,41,0,0,1-6.52-6.24l.29.27a4.75,4.75,0,0,1-.48-.36l-.28-.26-.25-.22-.22-.18,1.95-1.47a1.23,1.23,0,0,1,.07.55,1.3,1.3,0,0,1-.13.46,1.27,1.27,0,0,1-.5.53,1.24,1.24,0,0,1-1,.12,1.3,1.3,0,0,1-.43-.21l0,0-.11-.06-.22-.13L319,256l.11.05a3.16,3.16,0,0,0-.53-.15c-.18,0-.33-.08-.51-.1h.1l-.38,0,1.28-.65c-1.68,3-3.46,6-5.21,9l-5.31,8.94c-1.78,3-3.63,5.88-5.44,8.83l-5.52,8.86.21-.38c-.19.44-.36.79-.53,1.16l-.48,1c-.32.64-.6,1.29-.9,1.94l.17-.55c-.53,4.36-1.11,8.71-1.69,13.07l-.88,6.52-.94,6.52c-.6,4.35-1,8.72-1.56,13.07s-1.12,8.72-1.73,13.07l-.09-.69h0l-3,.52a1,1,0,0,1,0-.25,1.55,1.55,0,0,1,.49-.84,1.6,1.6,0,0,1,1.16-.39,1.56,1.56,0,0,1,.83.32,1.41,1.41,0,0,1,.39.45.81.81,0,0,1,.08.15v0l0,.11.09.22.05.17v0s0,0,0,0v.13l0,.07v.05h0l-1.79,1.9,1.7-2.14c.05.14.17.33.25.49l.27.5-2.49,1.58-.09-.16-.07-.15a1.37,1.37,0,0,1-.12-.68,1.49,1.49,0,0,1,.71-1.16,1.4,1.4,0,0,1,.8-.21,2.17,2.17,0,0,1,.3,0,1.44,1.44,0,0,1,.75.46l.08.09,0,0,0,0,0,0s.05.07,0,0l.05.07-1.48-.42c3.29-.8,6.57-1.65,9.82-2.6s6.48-2,9.64-3.18,6.27-2.59,9.35-4S323.27,333.75,326.38,332.37Zm.17.36q-4.6,2.17-9.13,4.54c-3,1.57-6.06,3.12-9.16,4.56s-6.26,2.78-9.46,4-6.42,2.38-9.66,3.47l-.81.27-.67-.69-.11-.11-.15-.2,0-.05v0l.07.08a1.44,1.44,0,0,0,.75.46,2.17,2.17,0,0,0,.3,0,1.42,1.42,0,0,0,.8-.21,1.49,1.49,0,0,0,.71-1.16,1.54,1.54,0,0,0-.11-.68l-.08-.14c0-.06,0,0,0,0l-2.49,1.58-.4-.63a5.77,5.77,0,0,1-.41-.66l1.7-2.14-1.78,1.9h0v0l0,0,0,.07h0v0h0v0l-.06-.12c0-.05,0-.13-.05-.14l0-.07,0,0h0s-.05-.07.06.11a1.21,1.21,0,0,0,.38.43,1.56,1.56,0,0,0,.82.31,1.54,1.54,0,0,0,1.16-.4,1.44,1.44,0,0,0,.48-.85,1.66,1.66,0,0,0,0-.27l-3,.52,0,0-.12-.28,0-.41c.3-4.4.6-8.8,1-13.2.18-2.2.36-4.4.58-6.59s.37-4.4.68-6.59l.82-6.56.9-6.56c.59-4.37,1.19-8.74,1.84-13.11l0-.3.12-.24c.34-.69.65-1.39,1-2.06l.53-1,.41-.84.11-.23.1-.15,5.62-8.61c1.87-2.9,3.79-5.79,5.62-8.7l5.59-8.69c1.86-2.9,3.79-5.76,5.64-8.67l.49-.77.79.11.19,0h.09l.08,0h.1c.25,0,.52.13.77.19a6,6,0,0,1,.72.25l.11,0h0l.67.36.32.22.16.11,0,0a.92.92,0,0,0-.37-.16,1.23,1.23,0,0,0-.95.14,1.32,1.32,0,0,0-.49.54,1.27,1.27,0,0,0,0,1.08l2-1.47a3.26,3.26,0,0,1,.33.31l.28.27.25.26c.11.12.11.08.1.08l.29.27a36.56,36.56,0,0,0,5.84,6.21,39.85,39.85,0,0,0,7.17,4.72A104.27,104.27,0,0,0,352,272.81c5.6,1.75,11.2,3.42,16.84,5,2.8.82,5.68,1.4,8.54,2.44a25.72,25.72,0,0,1,4.19,1.9,19.71,19.71,0,0,1,2,1.3c.3.26.63.48.92.76l.44.39.11.1s0,0,0,0a.06.06,0,0,0-.06,0l.67.68c.12.18.19.35.34.54s.13.18.22.28l.23.27.32.39,0,.56c.05,3.18.09,6.37,0,9.56s-.28,6.38-.57,9.56l-.73,1.29s0,0,0,0h0l-.1.12-.2.23a6.24,6.24,0,0,1-.79.71,6.42,6.42,0,0,1-.78.54l-.75.41c-.5.26-1,.57-1.5.76l-1.47.62-.14.06-.14,0A120.27,120.27,0,0,0,366,315.21c-2.24.77-4.43,1.69-6.66,2.55-1,.43-2.08,1-3.17,1.54-.54.27-1.1.55-1.66.8l-1.6.76c-2.14,1.05-4.28,2.2-6.54,3.15s-4.49,1.72-6.69,2.71C335.24,328.61,330.93,330.75,326.55,332.73Z"/>
    </g>
    <g>
      <path d="M221.76,335.65c10.83-6.68,21.26-14,31.55-21.46l10.74-7.81c.07-.19.15-.37.23-.56s.05-.11.07-.17l0-.07a7.47,7.47,0,0,0,.3-.87c.09-.3.16-.59.22-.89l0-.12a275.55,275.55,0,0,1,2-43.64,427.32,427.32,0,0,1,9.88-53.82q-9,5.58-17.8,11.56c-5.69,3.86-11.3,7.86-17,11.67a101.4,101.4,0,0,0-8.73,6.07c-2.75,2.28-5.45,4.67-8.09,7.08-5.08,4.64-10.17,9.26-15.2,13.95-4.54,4.23-8.84,8.69-13.3,13v0a15.19,15.19,0,0,1-1.82,3.76,1.9,1.9,0,0,1-.23.39,62.7,62.7,0,0,1,1,6.38c.39,2.67.93,5.28,1.57,7.91,4.37,17.78,8.73,35.6,10.05,53.9l.71.22a7.51,7.51,0,0,0,1.06.28l.26.05h.11l.53.05h0l3.66-2C216.34,339,219.05,337.32,221.76,335.65Z" fill="#22b473"/>
      <path d="M221.65,335.48c3.62-2.29,7.25-4.57,10.75-7s7-4.95,10.42-7.53c6.83-5.17,13.54-10.51,20.33-15.77l-.52.66.27-.69c.06-.13.12-.37.18-.54a5.5,5.5,0,0,0,.16-.58l.14-.64,0,.42a183.1,183.1,0,0,1,.09-24.79c.59-8.24,1.66-16.41,2.91-24.55s2.85-16.22,4.5-24.27,3.42-16.08,5.26-24.09l1,.76c-3.56,2.35-7.07,4.77-10.6,7.17s-7.07,4.75-10.5,7.3l-10.4,7.51c-1.73,1.24-3.49,2.5-5.27,3.68s-3.49,2.37-5.09,3.65c-.79.61-1.57,1.34-2.36,2.05l-2.37,2.12c-1.58,1.42-3.17,2.8-4.73,4.24l-9.35,8.75-4.67,4.37c-1.54,1.47-3,3-4.55,4.49l-9.13,8.95.57-1c0,.16,0,.14,0,.21l-.05.14-.1.29-.22.57q-.22.57-.48,1.11a18.25,18.25,0,0,1-1.19,2.07l.16-.3a8.45,8.45,0,0,1-.49.82l.38-1.82a37.24,37.24,0,0,1,.74,4.52c.17,1.45.35,2.81.59,4.21.45,2.78,1.12,5.51,1.79,8.35l1.89,8.48c.61,2.84,1.17,5.69,1.73,8.54,1,5.72,2,11.46,2.7,17.23s1.22,11.56,1.52,17.35l-.29-.36c.45.15.89.29,1.31.4a5.16,5.16,0,0,0,1.28.24l-.19.05,3-1.61c1-.52,2-1.14,3-1.7Zm.21.34L216,339.38c-1,.58-2,1.2-3,1.76l-3,1.73-.09.05h-.1a6.25,6.25,0,0,1-1.44-.2c-.48-.11-.92-.23-1.35-.36l-.27-.08,0-.29c-1.12-11.5-3.68-22.78-6.55-34l-4.35-16.76c-.72-2.78-1.46-5.67-2-8.59-.27-1.45-.49-3-.68-4.38a35.44,35.44,0,0,0-.71-4l.38-1.82s0,0,0,.05l.16-.3a15.88,15.88,0,0,0,.9-1.6c.13-.27.26-.55.37-.83l.16-.41.07-.21,0-.11s.05-.12,0-.05l.58-1c6.16-5.93,12.14-12.08,18.59-17.68l9.53-8.58c1.6-1.43,3.26-2.82,4.88-4.22l2.45-2.1c.82-.7,1.62-1.41,2.53-2.08,1.78-1.34,3.61-2.52,5.42-3.67s3.59-2.27,5.37-3.45l10.74-7c7.15-4.66,14.54-9,21.74-13.61l1.49-1-.44,1.71q-3.1,11.91-5.32,24c-1.46,8.06-2.51,16.2-3.35,24.33S267.4,271.05,267,279.2s-.6,16.29-.45,24.42v.27l0,.16-.19.73a7.08,7.08,0,0,1-.25.78c-.1.26-.17.49-.3.78l-.28.62-.19.44-.32.22-10.66,7.21c-3.56,2.41-7.14,4.77-10.74,7.12l-10.8,7C229.12,331.25,225.53,333.6,221.86,335.82Z"/>
    </g>
    <g>
      <path d="M245.87,433.22c-.05-.26-.09-.51-.15-.77-.11-.51-.24-1-.39-1.51-.08-.23-.15-.46-.22-.69-2.71-4.32-5.12-8.83-7.59-13.29a194.72,194.72,0,0,0-10.89-17.49,137.24,137.24,0,0,0-11.89-15c-3.59-3.83-7-7.65-9.45-12.26h-.08l-.51,0a8.79,8.79,0,0,0-1.6.43c-.41.42-.83.84-1.23,1.27q-2.15,2.32-4.13,4.8a116.43,116.43,0,0,0-7.29,10.33,82.79,82.79,0,0,0-6.16,11.24c-.83,1.92-1.67,3.88-2.35,5.86s-1,3.79-1.64,5.63c.85.62,1.69,1.24,2.56,1.83a111.91,111.91,0,0,0,33.72,15.4,135.43,135.43,0,0,0,29.34,4.5C245.9,433.45,245.88,433.33,245.87,433.22Z" fill="#22b473"/>
      <path d="M245.67,433.25a15.09,15.09,0,0,0-.34-1.48c-.12-.48-.26-1-.43-1.46l0,.05c-3.2-4.94-6.22-10-9.46-14.92s-6.61-9.67-10-14.43-6.68-9.55-10.31-14.09-7.72-9.06-10.46-14.4l.57.33-.49,0-.5.13-1,.27.24-.15c-1.37,1.31-2.52,2.82-3.76,4.25a53.71,53.71,0,0,0-3.47,4.49q-3.21,4.69-5.95,9.67a76.73,76.73,0,0,0-4.8,10.14l-1.95,5.23c-.53,1.67-.86,3.55-1.51,5.54l-.68-2.16A113.3,113.3,0,0,0,196.21,419c1.28.64,2.58,1.25,3.88,1.85s2.61,1.19,3.93,1.75c2.64,1.12,5.34,2.11,8,3.1a171.12,171.12,0,0,0,16.59,5.07,92.29,92.29,0,0,0,17.28,2.56l-.22.23Zm.39-.06.06.34,0,.25h-.25c-5.85-.26-11.7-.59-17.57-1.19a99.23,99.23,0,0,1-17.45-3.22c-2.86-.8-5.66-1.8-8.44-2.88a87.17,87.17,0,0,1-8.15-3.63,84.83,84.83,0,0,1-7.78-4.39c-2.53-1.58-5-3.29-7.34-5.09l-1.16-.88.48-1.28c.59-1.63,1-3.5,1.68-5.45s1.53-3.6,2.29-5.39a65.73,65.73,0,0,1,5.81-10.1c2.17-3.18,4.4-6.32,6.82-9.3q.89-1.14,1.8-2.25c.61-.74,1.29-1.43,1.91-2.16,1.27-1.44,2.49-2.92,3.85-4.28l.12-.12.12,0,1.16-.33c.2-.06.39-.12.59-.16s.42-.05.63-.05h.38l.19.35a29.56,29.56,0,0,0,2.33,3.64,42.09,42.09,0,0,0,2.76,3.36c1.95,2.17,4.09,4.11,6.21,6.24A100.58,100.58,0,0,1,228.46,399a115.06,115.06,0,0,1,8.83,15.44,172.11,172.11,0,0,0,8,15.74v.06c.15.48.3,1,.42,1.48A12.84,12.84,0,0,1,246.06,433.19Z"/>
    </g>
    <g>
      <path d="M176.38,400.61c.54-1.82,1-3.66,1.66-5.45a83.28,83.28,0,0,1,8.88-18.64,76.94,76.94,0,0,1,6.35-8.25c.48-.56,1-1.08,1.51-1.63a.21.21,0,0,1,0-.1c1.37-2.14,2.73-4.26,4-6.46a32.5,32.5,0,0,1-1-4.47,36.84,36.84,0,0,1-.44-4.45c0-.58-.08-1.22-.06-1.84.12-3.46.14-6.92.15-10.38q-.44-4-1.05-8.05c-1.45-9.56-3.31-19.07-5.52-28.49-1.11-4.71-2.34-9.4-3.43-14.12-.55-2.39-.89-4.81-1.24-7.24-.24-1.69-.56-3.37-.81-5.06l-.1-.08a7.27,7.27,0,0,0-.56-.55,4.71,4.71,0,0,0-.48-.29,6.33,6.33,0,0,1-.61-.39c-1.21-.09-2.44-.32-3.55-.4-2.32-.19-4.63-.34-7-.31a217.56,217.56,0,0,0-25.39,1.33c-4.05.52-8.05,1.31-12.06,2-1.88.34-3.78.63-5.68.79a11.05,11.05,0,0,1-3,0q-.24,7.29-.1,14.58c.37,17,2.47,33.94,7.25,50.24a129.41,129.41,0,0,0,17.95,38.14A105.78,105.78,0,0,0,175.17,405C175.46,403.53,176,402.05,176.38,400.61Z" fill="#22b473"/>
      <path d="M176.19,400.56l1.4-4.69c.46-1.56,1.06-3.08,1.62-4.61a95.14,95.14,0,0,1,3.81-9,70.44,70.44,0,0,1,4.9-8.55,74.46,74.46,0,0,1,6-7.82l-.2.3.12-.26.06-.1.12-.21.24-.42.47-.83.94-1.66,1.89-3.31-.13,1.1a31.8,31.8,0,0,1-1.33-5.38,44,44,0,0,1-.52-5.56c0-1.8,0-3.54,0-5.31l0-5.29v.2l-1-7.88c-.38-2.63-.76-5.27-1.18-7.89-.82-5.26-1.68-10.52-2.71-15.75s-2.18-10.46-3.27-15.69l-.87-3.92c-.27-1.34-.48-2.67-.66-4-.34-2.67-.77-5.3-1.18-7.94l.2.37-.21-.19-.15-.15-.29-.29.06.05-1.1-.7.31.12-3.54-.4c-1.19-.09-2.36-.17-3.54-.22-2.34-.13-4.7,0-7.08,0-4.74.11-9.48.37-14.18.81-2.35.22-4.69.49-7,.85s-4.64.9-7,1.34l-7,1.38c-1.19.22-2.4.41-3.62.54a14.56,14.56,0,0,1-4,.11l2-1.55.07,8.77c0,2.92,0,5.84.14,8.76.27,5.83.73,11.65,1.46,17.43.35,2.89.78,5.77,1.27,8.64s1,5.73,1.61,8.57c1.24,5.68,2.67,11.31,4.44,16.84A148.19,148.19,0,0,0,152,378.83a96,96,0,0,0,23.31,26l-.37.14C175.25,403.46,175.76,402,176.19,400.56Zm.39.11c-.42,1.47-.9,2.91-1.18,4.39l-.07.37-.3-.23a119,119,0,0,1-25.07-25,113.75,113.75,0,0,1-16.28-31.72A147.46,147.46,0,0,1,129,331.25a167.3,167.3,0,0,1-2.75-17.63c-.63-5.91-1-11.85-1.13-17.77-.1-3,0-5.93,0-8.89l.19-8.88.05-2.07,1.93.52a12,12,0,0,0,3.06,0c1.14-.08,2.29-.21,3.44-.37l7.06-1c2.36-.33,4.72-.69,7.09-1s4.77-.42,7.16-.53c4.78-.25,9.54-.23,14.3-.27,2.36,0,4.76-.05,7.16.08,1.2.07,2.39.16,3.57.26l3.54.41.15,0,.16.1,1.07.65,0,0,0,0,.35.34.18.17a.73.73,0,0,0,.13.11l.16.09,0,.28,1.29,7.91c.22,1.31.47,2.61.78,3.89l1,3.87c1.39,5.17,2.86,10.3,4.15,15.52s2.5,10.44,3.53,15.71c.5,2.64,1,5.28,1.41,7.94l1.07,8v.2L199,349.62a41.15,41.15,0,0,0,.25,5.05,37.27,37.27,0,0,0,.93,5l.17.66-.29.44L197.88,364l-1.08,1.62-.54.81-.27.4-.14.2-.06.1s0,0,0,0l-.2.3a74.34,74.34,0,0,0-6.42,7.2,59.51,59.51,0,0,0-5.35,8.05,81.94,81.94,0,0,0-4.16,8.78c-.59,1.51-1.19,3-1.67,4.57Z"/>
    </g>
    <g>
      <path d="M275.52,401.34c.25-17.41,1.25-34.81,2.75-52.16,1.4-16.1,3.36-32.12,5.78-48.1q-7.68,5.73-15.32,11.52c-19.23,14.56-38.75,29.19-60.07,40.59a.83.83,0,0,0-.08.12,2.11,2.11,0,0,0-.18.27,6,6,0,0,0-.31.55c-.05.09-.09.19-.14.29h0l-.06.14c0,.11-.07.23-.1.34a31.94,31.94,0,0,0,4.77,16.25c3.23,5.15,8,9.18,11.82,13.84s7.54,9.89,11.08,15c6,8.74,10.5,18.42,16.07,27.45.33.28.65.58.95.88s.74.81,1.11,1.22.62.73.95,1.07l.26.25.1.09a3.08,3.08,0,0,1,.72.5,1.1,1.1,0,0,1,.17.25H258a145.42,145.42,0,0,0,17.81-1.31C275.29,420.74,275.38,411,275.52,401.34Z" fill="#22b473"/>
      <path d="M275.32,401.34l.41-25.19c.14-8.41.4-16.81.85-25.21s1.28-16.78,2.32-25.12,2.46-16.65,3.93-24.92l1.95,1.16c-6.22,4.44-12.49,8.82-18.65,13.36L247.7,329.09c-6.17,4.53-12.33,9.08-18.69,13.38s-12.84,8.44-19.56,12.2l.57-.5a5.67,5.67,0,0,0-.54,1l.06-.13a.85.85,0,0,0-.07.21l-.05.18.07-.54a30.28,30.28,0,0,0,7.11,18.58c2.18,2.65,4.72,5.11,7.21,7.78a102,102,0,0,1,6.93,8.46c2.16,2.9,4.23,5.85,6.27,8.8s4,6.13,5.73,9.27c3.58,6.28,6.75,12.66,10.3,18.77l-.37-.42,1,.94c.3.32.58.66.87,1l.78.93.38.44a3.49,3.49,0,0,0,.31.34l-.18-.14c.06.05.26.15.54.36a2.47,2.47,0,0,1,.5.45,4.81,4.81,0,0,1,.37.55l-1.41-.85c3.32.17,6.64.17,10,.09s6.65-.29,10-.61l-.71.86c-.08-4.87,0-9.73,0-14.58Zm.4,0,0,7.27c0,2.42.05,4.85.11,7.27.12,4.84.4,9.68.85,14.49l.06.72-.78.14q-5,.87-10,1.39c-3.36.34-6.74.6-10.12.69l-1.41-.85a.06.06,0,0,0,0,.06l.07.07s-.19-.09-.46-.25l-.05,0-.14-.11c-.16-.14-.41-.37-.55-.52l-.44-.46-.84-.89c-.26-.26-.51-.54-.78-.8l-.82-.72-.21-.18-.16-.24c-4-6.08-7.31-12.45-10.88-18.56-1.79-3.06-3.68-6-5.66-8.91s-4.06-5.86-6.16-8.7-4.23-5.66-6.55-8.23-4.89-5.18-7.21-8.11a38,38,0,0,1-3.18-4.67A33.45,33.45,0,0,1,206.08,355v-.31l.08-.23.1-.31a2.64,2.64,0,0,1,.1-.27l0-.09,0,0a8.74,8.74,0,0,1,.88-1.48l.24-.34.33-.16q10.13-5.22,19.9-11.17c3.25-2,6.48-4,9.66-6.13l4.77-3.16,4.71-3.27c6.25-4.39,12.36-9,18.41-13.65s12-9.48,18-14.24l2.33-1.85-.38,3c-1,8.32-1.89,16.66-2.83,25l-2.78,25c-1,8.32-1.89,16.66-2.63,25S275.86,393,275.72,401.34Z"/>
    </g>
    <g>
      <path d="M380.65,317.55a133.61,133.61,0,0,0-21.86,6.61c-3.17,1.21-6.34,2.32-9.48,3.62-1.6.67-3.19,1.29-4.75,2.06s-2.92,1.73-4.43,2.53c-6.1,3.22-11.9,7-18.06,10.09s-12.27,5.93-18.62,8.4A91.83,91.83,0,0,1,288,355.54s0,0-.07,0a9.35,9.35,0,0,0-1.51.86l-.16.12h0l-.32.28c-.21.19-.42.39-.61.6s-.19.21-.28.31l-.15.18h0l0,0c-.16.23-.32.46-.47.7a5.62,5.62,0,0,0-.34.64c-.48,6.19-.91,12.39-1.24,18.59q-.67,12.92-1,25.86c-.22,8.47-.21,16.95-.42,25.43a127.77,127.77,0,0,0,18.72-4.17,110.33,110.33,0,0,0,33-16.36,106.33,106.33,0,0,0,26.17-27.79,133.88,133.88,0,0,0,17-39.3,179,179,0,0,0,4.51-24.07Z" fill="#22b473"/>
      <path d="M380.69,317.75a119.82,119.82,0,0,0-23.81,7.82L351.11,328l-1.45.62-1.4.67-2.8,1.33a22,22,0,0,0-2.62,1.55l-1.35.86c-.46.29-.95.56-1.38.82-1.8,1-3.56,2.14-5.34,3.24-3.57,2.17-7.14,4.42-10.91,6.4s-7.55,3.79-11.42,5.51a105.38,105.38,0,0,1-24.23,7.75l.42-.17a1.32,1.32,0,0,1-.35.19l-.2.09-.39.2a6.65,6.65,0,0,0-.77.47l.09-.07-.37.3-.31.29a5.24,5.24,0,0,0-.61.63l.06-.08-.43.6c-.13.2-.23.41-.36.61l.11-.4c-.54,5.79-1.11,11.59-1.56,17.4s-.58,11.63-.79,17.45c-.11,2.91-.19,5.82-.26,8.73s0,5.83,0,8.75l.12,17.49L281.15,428a125.8,125.8,0,0,0,37.71-12.7,107.24,107.24,0,0,0,30.68-24.87,133.59,133.59,0,0,0,20.64-34,144.52,144.52,0,0,0,6.56-19c.88-3.25,1.58-6.55,2.24-9.86s1.12-6.65,1.56-10l.24.22Zm-.08-.39.08,0,.28-.09,0,.31c-1.62,13.41-4.05,26.8-8.41,39.74a109.08,109.08,0,0,1-19.76,35.82A102.74,102.74,0,0,1,338,407.56a108,108,0,0,1-17.37,11.12,114.33,114.33,0,0,1-39.13,11.8l-1.52.17.06-1.47.7-17.47.32-8.74c.16-2.91.31-5.82.43-8.73.28-5.83.43-11.66.65-17.49s.52-11.66.75-17.49v-.2l.1-.2c.14-.27.26-.55.41-.8l.46-.73h0l.06-.07a7.76,7.76,0,0,1,.72-.83l.39-.4.37-.35.09-.07c.26-.2.62-.45.94-.65l.5-.29.26-.13c.09,0,.23-.11.09-.06l.42-.16a85.22,85.22,0,0,0,11.8-3.68c3.86-1.49,7.68-3.13,11.46-4.85s7.54-3.55,11.25-5.38,7.31-3.92,11-5.94c1.84-1,3.73-2,5.63-2.91l1.37-.69,1.36-.74a25.3,25.3,0,0,1,2.9-1.45l3-1.16,1.48-.58,1.5-.51,6-2A177.4,177.4,0,0,1,380.61,317.36Z"/>
    </g>
    <g>
      <path d="M201.47,103.41q.47.9,1,1.77c.36.6.74,1.19,1.15,1.76.22.32.5.65.74,1,.17.18.34.36.5.55,1.93,2.16,3.73,4.44,5.54,6.7A189.78,189.78,0,0,1,228,140.51c2.51,4.45,4.84,9,6.91,13.69a48.7,48.7,0,0,1,2.74,7.31c.45,1.78,1,3.54,1.47,5.3a17.37,17.37,0,0,1,5.35,1.1c4.14,1.58,7.77,4.21,11.45,6.61,6.85,4.46,13.88,8.79,20.51,13.61.24.05.47.13.72.17a3.33,3.33,0,0,0,.54.07l.8.06.77,0q1.83-6.91,3.82-13.79c7.1-24.63,15.2-49.06,24.11-73.11a11.5,11.5,0,0,0,.07-1.18,11.15,11.15,0,0,0-.18-1.73A94.45,94.45,0,0,0,283,83.92a70.12,70.12,0,0,0-38.27-4.5c-13.2,2.26-25.4,8.31-36.05,16.3q-4,3-7.81,6.43C201.09,102.56,201.27,103,201.47,103.41Z" fill="#22b473"/>
      <path d="M201.65,103.32c.45.76.84,1.57,1.35,2.3l.73,1.11c.26.36.54.72.81,1.08l0,0,5.62,6.56q2.78,3.31,5.51,6.65c3.63,4.48,7.18,9,10.42,13.87,1.62,2.4,3.16,4.88,4.63,7.37s2.82,5.07,4.14,7.67,2.49,5.22,3.57,8c.27.7.51,1.41.73,2.15l.58,2.13,1.13,4.12L239.24,165a18.31,18.31,0,0,1,5.8,1.24,34,34,0,0,1,5.08,2.56c3.19,2,6,4.14,9,6.15l8.95,6.14c3,2.06,5.91,4.21,8.82,6.38l-.27-.12.65.16.31.06.33,0a10,10,0,0,0,1.35,0l-.68.53c2.17-7.31,4.13-14.67,6.29-22s4.17-14.65,6.35-21.95,4.36-14.6,6.73-21.85,4.88-14.44,7.46-21.62l-.11.49a8.43,8.43,0,0,0,0-1.23l-.14-1.2.69,1.2a95.67,95.67,0,0,0-24.61-14.56,75.13,75.13,0,0,0-13.69-3.94,72.22,72.22,0,0,0-14.18-1.18,74.19,74.19,0,0,0-27.94,6.13A89.34,89.34,0,0,0,201,102.31l0-.26Zm-.36.18-.62-1.25-.08-.15.12-.11a117.78,117.78,0,0,1,24-17.06,70.33,70.33,0,0,1,28.57-8.27,65.35,65.35,0,0,1,15,.87,71,71,0,0,1,14.53,4A92.5,92.5,0,0,1,308.35,97.1l.62.52.06.69.16,1.69a11.75,11.75,0,0,1-.06,1.68v.22l-.1.27q-4,10.65-8,21.36c-2.62,7.13-5.25,14.27-7.76,21.45s-4.95,14.38-7.18,21.65-4.23,14.61-6.14,22l-.13.5-.55,0a10.73,10.73,0,0,1-1.5,0l-.38,0L277,189l-.74-.16-.14,0-.14-.1c-2.94-2.07-6-4-9.06-5.87l-9.26-5.63c-3.11-1.84-6.16-3.9-9.21-5.57a31.56,31.56,0,0,0-4.65-2.18,16.65,16.65,0,0,0-4.78-.9l-1.27-.07-.34-1.22-1.18-4.19-.57-2c-.19-.64-.41-1.29-.64-1.94-.94-2.58-2.12-5.22-3.29-7.79s-2.4-5.16-3.7-7.7-2.59-5.07-4-7.55c-2.85-4.93-6-9.76-9.3-14.43s-6.87-9.2-10.57-13.59h0c-.26-.36-.54-.72-.79-1.08l-.73-1.14C202.13,105.1,201.75,104.28,201.29,103.5Z"/>
    </g>
    <g>
      <path d="M174.35,182.5c17.75-5.14,35.68-10,53.76-13.89a33.27,33.27,0,0,1,6.54-.83c-2.23-4.34-4.41-8.7-6.58-13.09a185.61,185.61,0,0,0-16-25.8c-3-4.11-6-8.13-9.2-12.08l-3.4-4.19-.67-.64c-.61-.59-1.21-1.19-1.81-1.79a20.54,20.54,0,0,0-1.69-1.56c-.58-.44-1.27-.86-1.91-1.27h0a159.06,159.06,0,0,0-18.73,22.49A225.63,225.63,0,0,0,150.72,175q-3.27,8.22-6,16.65Q159.47,186.83,174.35,182.5Z" fill="#22b473"/>
      <path d="M174.3,182.31l7.45-2.2,7.42-2.3c4.94-1.56,9.88-3.18,14.84-4.69l7.47-2.23c2.5-.69,5-1.39,7.52-2s5.05-1.24,7.59-1.78a36.17,36.17,0,0,1,8-1.06l-1.52,2.53c-2.4-4.91-4.65-9.94-6.94-14.87a141.58,141.58,0,0,0-7.76-14.33c-1.43-2.33-2.94-4.6-4.49-6.84-.78-1.12-1.55-2.25-2.36-3.35l-2.49-3.24c-3.35-4.31-6.68-8.61-10.31-12.72l.09.1c-1-.91-2-1.84-3-2.77a8.58,8.58,0,0,0-1.45-1.16l-1.68-1,1.52-.14A179.78,179.78,0,0,0,178.89,127,202.93,202.93,0,0,0,166,147.66c-2,3.55-3.85,7.14-5.63,10.78s-3.55,7.29-5.19,11q-5,11.13-9.33,22.55l-1.53-1.53c5-1.29,10-2.54,15-3.89,2.5-.66,5-1.38,7.47-2.07Zm.11.38L167,185.05c-2.44.84-4.9,1.64-7.34,2.5-4.88,1.69-9.73,3.48-14.58,5.23l-2.14.77.61-2.3a183,183,0,0,1,7.92-23.4c1.59-3.81,3.27-7.58,5.07-11.3s3.74-7.36,5.78-11A205.6,205.6,0,0,1,176,124.9a136.7,136.7,0,0,1,16.59-18.41l.75-.69.77.55,1.68,1.21a11.39,11.39,0,0,1,1.61,1.47c.93,1,1.85,2,2.79,2.89l.06.06,0,0c3.36,4.31,6.51,8.82,9.83,13.18s6.42,8.86,9.55,13.37,6.12,9.14,8.79,14,5.28,9.58,7.79,14.43l1.25,2.43-2.78.11a37.36,37.36,0,0,0-7.32,1.09l-7.57,1.62-7.58,1.59-7.61,1.55c-5.06,1.08-10.13,2.14-15.17,3.35-2.52.59-5,1.25-7.53,1.89Z"/>
    </g>
    <g>
      <path d="M312.69,105.39c-.26.35-.5.71-.73,1.09s-.3.5-.44.75c-4.2,12.47-8.6,24.88-12.76,37.36Q296.3,152,294,159.41c0,.15.11.31.17.46a9.4,9.4,0,0,0,.51,1c.11.17.24.33.33.5a.73.73,0,0,1,0,.09c4.52,2.89,9.11,5.64,13.87,8.13a178.52,178.52,0,0,0,27.24,11.52q7.16,2.34,14.5,4c4.9,1.11,9.87,1.76,14.79,2.74h0a247.47,247.47,0,0,0-17.05-38.39,177.84,177.84,0,0,0-28.19-38.63q-3.25-3.31-6.76-6.41A9.88,9.88,0,0,1,312.69,105.39Z" fill="#22b473"/>
      <path d="M312.85,105.51l-.6.89c-.2.3-.37.62-.55.93v0c-.73,2.17-1.44,4.35-2.11,6.54s-1.36,4.39-2,6.6c-1.3,4.4-2.5,8.83-3.77,13.25s-2.61,8.8-4,13.18q-1,3.28-2.09,6.54t-2.2,6.51l0-1.09a6.6,6.6,0,0,0,.37.85,3.57,3.57,0,0,0,.22.44l.17.26c.05.1.1.16.18.33l-.58-.64c5.19,3.53,10.42,7,15.95,10A124,124,0,0,0,329,177.94c2.95,1.12,5.95,2.08,9,3s6.08,1.61,9.15,2.28c6.13,1.43,12.3,1.93,18.69,3l-1.94,2.19c-2.9-7.7-6-15.32-9.57-22.72S347,151,342.84,143.94s-8.49-14-13.24-20.76c-2.39-3.35-4.9-6.63-7.61-9.75-.67-.78-1.37-1.54-2.07-2.31l-2.18-2.19-4.44-4.33.33,0A8.76,8.76,0,0,1,312.85,105.51Zm-.31-.25a9.37,9.37,0,0,0,.72-.93l.13-.23.2.18,4.57,4.22,2.32,2.08,2.23,2.17c3,2.91,5.87,5.9,8.65,9a134.66,134.66,0,0,1,15,20.07A180,180,0,0,1,358,164a245.15,245.15,0,0,1,9,23.33l.93,2.86-2.87-.66c-3-.69-6.12-1.26-9.22-1.94s-6.23-1.46-9.27-2.34-6.09-1.84-9.09-2.89-6-2.11-8.94-3.24q-8.88-3.42-17.54-7.38a166.73,166.73,0,0,1-16.9-8.87l-.8-.48.22-.16s-.07-.1-.12-.17l-.15-.21c-.09-.13-.22-.39-.33-.58a9.36,9.36,0,0,1-.59-1.25l-.19-.54.16-.56c.65-2.21,1.34-4.4,2.05-6.59s1.4-4.37,2.14-6.55c1.5-4.34,3.19-8.61,4.88-12.89s3.45-8.52,5.12-12.79q1.28-3.21,2.46-6.44c.81-2.15,1.58-4.31,2.33-6.48v0h0c.19-.32.36-.64.57-.95Z"/>
    </g>
    <g>
      <path d="M128.52,267.77l.44.21.19.08c.25.1.51.2.76.28a11.08,11.08,0,0,0,1.58.4c.26.05.52.1.78.13l.31,0a2.22,2.22,0,0,0,.37,0h.26c1.69-.25,3.37-.6,5-.93a153.78,153.78,0,0,1,25.31-2.89c2.16-.06,4.32-.09,6.48-.06s4.16.3,6.24.45,4.31.28,6.46.48c.74.07,1.51.12,2.27.21l1.46-.49c.38-.13.75-.27,1.13-.39h0l.23-.12.37-.2c2.31-2.51,4.78-4.88,7.23-7.25,2.79-2.69,5.6-5.38,8.52-7.93q2.1-1.84,4.22-3.63a53.47,53.47,0,0,1-4.08-6c-1.36-2-2.77-4.08-4.09-6.15-2.33-3.64-4.64-7.29-7-10.94s-5-7.3-7.44-11a84.32,84.32,0,0,1-6.44-11.37,59.17,59.17,0,0,1-2.74-7,6.71,6.71,0,0,1-.74-1c-.3-.49-.57-1-.9-1.47a1.47,1.47,0,0,1-.1-.13h0c-.09-.1-.17-.2-.27-.3s-.21-.21-.32-.3l-.12-.11-.51-.31q-11.32,3.27-22.58,6.82l-5.52,2.24c-1,.39-1.95.74-2.9,1.18-.39.18-.75.41-1.13.62a2,2,0,0,1-.87.28.71.71,0,0,1-.25,0c.07,0,0,0-.11.11a.48.48,0,0,1-.2.07,288.32,288.32,0,0,0-7.39,30.37,278.38,278.38,0,0,0-4.32,36A1,1,0,0,1,128.52,267.77Z" fill="#22b473"/>
      <path d="M128.61,267.59a8.51,8.51,0,0,0,1.81.65l.93.23c.31.08.63.11,1,.16l-.07.48h0l-.06,0h0a.18.18,0,0,1-.06-.05.24.24,0,0,1,0-.31c.18-.15.17-.07.2-.09h.24l.24,0,.48,0h0c4.25-.81,8.48-1.84,12.78-2.64s8.62-1.5,13-2c2.18-.23,4.36-.45,6.55-.56l3.3-.15a31.53,31.53,0,0,1,3.38-.05c2.27.14,4.29.29,6.52.38s4.36.27,6.59.46l-.92.1,2.62-.92-.41.18.69-.38-.56.43c1.62-1.65,3.22-3.32,4.87-4.95l2.46-2.45,2.54-2.36c1.68-1.58,3.39-3.13,5.1-4.68s3.51-3,5.26-4.47l-.2,2.84a59.94,59.94,0,0,1-4.41-6.64l-4.18-6.49-4-6.57c-1.31-2.21-2.64-4.4-4-6.55L186,214.74c-1.36-2.15-2.74-4.36-4-6.63s-2.41-4.6-3.44-7a63.64,63.64,0,0,1-2.74-7.28l.14.25c-.32-.45-.73-.94-1-1.37l-.4-.65a6.73,6.73,0,0,0-.4-.63l0,0a6,6,0,0,0-.66-.67l.05,0-.47-.29.47.06L168,192.37c-1.88.57-3.74,1.2-5.61,1.8-3.75,1.21-7.45,2.53-11.17,3.79l.09,0-5.17,2.31-2.52,1.13a7.36,7.36,0,0,0-1.18.63c-.21.12-.31.2-.67.38a3.39,3.39,0,0,1-1.2.35l.22,0a3,3,0,0,1-.74,0l.45-3.06a1.52,1.52,0,0,1,.47.17l.1.06a1.05,1.05,0,0,1,.2.14l.18.19a1.82,1.82,0,0,1,.23.39,1.58,1.58,0,0,1-.14,1.45,1.86,1.86,0,0,1-.28.33,1.59,1.59,0,0,1-.16.12l-.16.1-.27.13.21-.11a2.93,2.93,0,0,1-.66.26l1.18-1.07c-1.42,5.41-2.84,10.82-4.15,16.25s-2.59,10.87-3.86,16.34-2.33,11-3.21,16.52a165.34,165.34,0,0,0-1.79,16.76l-.16-.21Zm-.18.36-.27-.08h0a.2.2,0,0,1-.14-.21c.28-5.62.68-11.23,1.08-16.86s.93-11.25,1.68-16.86a165.46,165.46,0,0,1,3-16.7c1.31-5.51,2.82-11,4.65-16.33l1.17-1.07a.55.55,0,0,0-.25.1l.21-.1-.07,0-.12.07s-.06,0-.13.11a1.39,1.39,0,0,0-.48.82,1.49,1.49,0,0,0,.08.91,1.21,1.21,0,0,0,.23.38,1,1,0,0,0,.17.18,1.73,1.73,0,0,0,.19.15l.1.06a1.17,1.17,0,0,0,.42.14,1.55,1.55,0,0,0,.84-3l-.2,0-.2,0a.35.35,0,0,0-.24,0l.22,0s0,0,.15,0a5.45,5.45,0,0,0,.58-.28,9.55,9.55,0,0,1,1.36-.6l2.7-1,5.31-1.93.08,0h0c3.81-1,7.63-2,11.42-3,1.9-.54,3.8-1,5.68-1.61l5.67-1.67h0a.57.57,0,0,1,.46.06l.53.33,0,0,0,0a8.25,8.25,0,0,1,.79.77l0,.05c.18.22.29.45.44.67l.43.68c.28.47.56.77.84,1.17l.07.11a.61.61,0,0,1,.07.14,59.79,59.79,0,0,0,6.6,13.66c1.36,2.15,2.8,4.22,4.34,6.3l4.53,6.25c3,4.15,5.78,8.47,8.63,12.74l4.32,6.33a60.91,60.91,0,0,0,4.22,6.09,2,2,0,0,1-.12,2.76h0l-.07.07c-1.69,1.52-3.45,3-5.08,4.54s-3.28,3.14-4.94,4.68L197,259.24l-2.39,2.4c-1.58,1.62-3.21,3.18-4.82,4.77l-.1.1a2.05,2.05,0,0,1-.46.33l-.55.28-.12.06a1.48,1.48,0,0,1-.29.12l-2.56.84h0a2.37,2.37,0,0,1-.91.09c-2.1-.23-4.26-.38-6.4-.59s-4.42-.46-6.47-.69c-1-.12-2-.17-3.13-.19l-3.23-.09c-2.15-.11-4.31-.11-6.46-.09-4.32.05-8.64.25-13,.69s-8.58,1.19-12.89,1.91h0l-.51,0-.25,0h-.19s0,.05.19-.1a.25.25,0,0,0,0-.31l-.06,0,0,0h0a.24.24,0,0,1,.2.27.24.24,0,0,1-.28.2h0c-.32-.06-.65-.1-1-.19l-1-.25A9,9,0,0,1,128.43,268Z"/>
    </g>
    <path d="M385.88,286.1c0,103.11-58.33,149.28-130.28,149.28S125.32,389.21,125.32,286.1,183.65,75.5,255.6,75.5,385.88,183,385.88,286.1Z" fill="url(#radial-gradient)"/>
  </g>
</svg>
