<svg class="Antenna" xmlns="http://www.w3.org/2000/svg" viewBox="0 0 512 512">
  <title>antenna4</title>
  <g id="Color">
    <path class="AntennaColor" d="M227.4,33.09a8.88,8.88,0,0,1-2.11.16,1.07,1.07,0,0,0-.32-.08L223.45,33a.85.85,0,0,0-.54.16l-2.51,0a.94.94,0,0,0-1.35,0h-.17a1,1,0,0,0-.63-.29c-.8-.08-1.59-.13-2.39-.15l-2.35-.13a1,1,0,0,0-1-1.06,31.89,31.89,0,0,1-6.33-.09.94.94,0,0,0-.34,0l-.11,0h0l-.53-.07a.76.76,0,0,0-.6-.46,11.43,11.43,0,0,0-3.55,0,13.77,13.77,0,0,0-1.79-.19.86.86,0,0,0-.91-.66l-3.37.28a1.23,1.23,0,0,0-.29.07h-.39a1,1,0,0,0-.93-.84,9.49,9.49,0,0,0-2.32.18l-.75-.05a.81.81,0,0,0-.83.43,1,1,0,0,0-1.77.6.92.92,0,0,1-.24.83c-.42.51-.37,1.55.44,1.68,4.82.73,9.66,1.33,14.51,1.83a1,1,0,0,0,.93,1.28c.72.06,1.44.08,2.16.07a100.11,100.11,0,0,1,13.05,1.28,1.42,1.42,0,0,0,.1,1l0,.09a1.05,1.05,0,0,0-.37.33,35,35,0,0,0-3.61,6.85.65.65,0,0,0-.16.17l-.38.6a.89.89,0,0,0-.83.47l-2.85,5.2a.91.91,0,0,0-1.44.26q-1,2.3-2,4.61l-1.28,2.3c-.32.58-.64,1.15-.95,1.73a5.47,5.47,0,0,1-.81,1.39,1,1,0,0,0-.43,1.82,9.36,9.36,0,0,0,2.87,1.12,1.32,1.32,0,0,0,.32.35A15.23,15.23,0,0,0,211,68.27a.91.91,0,0,0,.68,0,12.13,12.13,0,0,0,1.37.43.78.78,0,0,0,.3.81l.21.15h0l0,0a11.51,11.51,0,0,0,4,2.08,27.42,27.42,0,0,0,.71,4.68c.22,3.4.81,8.8,4.63,6.8,1.89-1,2.08-3.12,1.76-5-.37-2.15-.89-4.29-1.37-6.42a1,1,0,0,0,1.41-1.3,26.46,26.46,0,0,1-1.43-3.84,1,1,0,0,0-1.6-.49,1,1,0,0,0-.47-.34c-.27-.1-.52-.22-.77-.34l-1.59-1a.87.87,0,0,0-.84,0,1,1,0,0,0-.27-.27,58.93,58.93,0,0,0-5.09-3,.88.88,0,0,0-.3-.1,13.61,13.61,0,0,0,1.27-2.53.84.84,0,0,0,.58-.43c.13-.22.25-.45.37-.67h0l.06-.1a5.43,5.43,0,0,0,1-2.29l1.27-2a.78.78,0,0,0,.53-.31l.15-.2h0l0,0q.69-.9,1.35-1.83a.86.86,0,0,0,.74-.48l2.81-5.2a.93.93,0,0,0,.13-.44,1,1,0,0,0,.2-.21l.79-1.28a1.1,1.1,0,0,0,.38-.48c0-.14.11-.27.16-.4l1.61-2.62a1.34,1.34,0,0,0,.07-.18l1.25-2.07s0,0,0,0l.1-.14h0l0-.05a7.93,7.93,0,0,0,1.35-2.84A1,1,0,0,0,227.4,33.09Z" fill="#838bc5"/>
    <path class="AntennaColor" data-name="AntennaColor" d="M317.19,63.43c-.18-.84-1-1.3-1.61-1.82-.86-.74-1.73-1.47-2.6-2.2L307.78,55a1,1,0,0,0-.91-.19c-2.44-2.61-4.93-5.16-7.61-7.52-2.9-2.55-6-4.81-9-7.19a12.63,12.63,0,0,1-3-3.27q5-7.18,10.36-14.12a1,1,0,0,0,.9-1.28,4.2,4.2,0,0,0-1.35-2.08,1.07,1.07,0,0,0-1.42.06s-.05,0-.07.06l-.18-.09c-.77-.28-1.3.47-1.21,1.14a1.32,1.32,0,0,0-.53.39,7.57,7.57,0,0,0-.49.63.83.83,0,0,0-.15.11L283.19,31.8l-2.4,2.45a12.53,12.53,0,0,0-2.12,2.25c-1,1.78,1.78,3.27,2.87,4.21q10.75,9.2,21.5,18.39c.85.72,1.71,1.43,2.61,2.07l-1.73.87c-2.14.53-4.28,1-6.45,1.37-1.23.2-2.46.38-3.7.53a7.69,7.69,0,0,0-2.92.67c-2,1.11-1.75,3.75-2.2,5.67a35,35,0,0,1-2.5,7,11.41,11.41,0,0,0-.49,1.19.86.86,0,0,0-.2.13c-.95,1-1.85,2.83-.32,3.74a1.56,1.56,0,0,0,.42.19.9.9,0,0,0,.72.49c.94.9,2.65,1.53,3.61.41a13.56,13.56,0,0,0,1.43-3.33c.55-1.3,1.09-2.61,1.64-3.91l1.44-3.45c.54-1.27.94-2.66,2.33-3.22a21.15,21.15,0,0,1,3.7-.86l4.37-.9,9.24-1.9a.81.81,0,0,0,.71-.87l.9.29a.91.91,0,0,0,1.2-.78l.08-.06A1,1,0,0,0,317.19,63.43Z" fill="#838bc5"/>
    <path class="AntennaEyeColor" d="M308.38,14.9a6.22,6.22,0,0,0-.77-3,2.73,2.73,0,0,0-2.3-1.28,5.22,5.22,0,0,0-3.65-1.14,6.7,6.7,0,0,0-5.75,7.3.9.9,0,0,0,1.19.67,5.08,5.08,0,0,0,.15.52,5.19,5.19,0,0,0,3.13,3,4.85,4.85,0,0,0,4.87-.89,1,1,0,0,0,.58-.12A5.19,5.19,0,0,0,308.38,14.9Z" fill="#f15a24"/>
    <path class="AntennaEyeColor" data-name="AntennaEyeColor" d="M185.72,26.32a3.56,3.56,0,0,0-2.92-1.7l-.16,0c-1.33-.58-2.83-1.18-4.14-.38a2.74,2.74,0,0,0-.58.49,3.75,3.75,0,0,0-2.13,1.69.93.93,0,0,0-1.11.67c-.42,1.42-.68,3,.13,4.29l.09.26c0,.13,0,.27,0,.4a4,4,0,0,0,1.34,2.82,7.7,7.7,0,0,0,3.13,1.43,5.14,5.14,0,0,0,3.53-.66,5.47,5.47,0,0,0,2.51-2.19,11.14,11.14,0,0,0,.93-3.41A5.28,5.28,0,0,0,185.72,26.32Z" fill="#f15a24"/>
  </g>
  <g id="Draw">
    <path d="M218.09,83.65a6.66,6.66,0,0,0,4.88.77,5.8,5.8,0,0,0,3.15-2.4,1,1,0,1,0-1.41-1.41,12.19,12.19,0,0,1-1.05,1.23l-.3.25c.15-.11-.13.08-.19.12l-.16.09c-.06,0-.18.08,0,0a3.38,3.38,0,0,1-.42.13,4.53,4.53,0,0,1-3.44-.54,1,1,0,0,0-1,1.73Z"/>
    <path d="M217.05,76.46c-2.37,1.4-4.79,3.15-5.11,6.1a5.68,5.68,0,0,0,4.71,6.14,1,1,0,0,0,1.23-.69,1,1,0,0,0-.7-1.23A3.73,3.73,0,0,1,214,82.49c.37-2.09,2.42-3.31,4.1-4.3a1,1,0,0,0-1-1.73Z"/>
    <path d="M225.43,76.88c1.69-.34,3,1.58,3.62,2.84a4.16,4.16,0,0,1,0,4.39,1,1,0,0,0,.35,1.36,1,1,0,0,0,1.37-.35c1.42-1.93,1-4.52,0-6.52-1.1-2.16-3.21-4.17-5.82-3.65a1,1,0,1,0,.53,1.93Z"/>
    <path d="M291.55,78.9c1.36,1.49,3.1,3.41,2.82,5.61-.24,1.82-2.12,3.78-4.08,3.5a1,1,0,0,0-1.23.7,1,1,0,0,0,.7,1.23,6,6,0,0,0,6.48-4.61c.7-3.08-1.32-5.71-3.28-7.85-.87-1-2.28.47-1.41,1.42Z"/>
    <path d="M285.41,74.38a9,9,0,0,0-6.27,2.3,6.11,6.11,0,0,0-1.67,6,1,1,0,0,0,1.23.7,1,1,0,0,0,.7-1.23,5,5,0,0,1-.15-.58c0,.06,0-.19,0-.23s0-.21,0-.31a3.08,3.08,0,0,1,.19-1.13A4.64,4.64,0,0,1,280.63,78a5.87,5.87,0,0,1,2.12-1.23,7.82,7.82,0,0,1,2.66-.41,1,1,0,0,0,1-1,1,1,0,0,0-1-1Z"/>
    <circle cx="180.68" cy="30.04" r="6.52" fill="none" stroke="#000" stroke-miterlimit="10" stroke-width="2"/>
    <path d="M226.32,81.41c-.25-3.28-.71-6.56-1.19-9.82-.24-1.56-.48-3.12-.77-4.68-.17-.86-.27-1.33-1-1.73-3.24-1.66-6.62-3.08-9.92-4.62l.36,1.37,15.3-24.39L231.28,34a1,1,0,0,0-.86-1.51L216,31l-23-2.4L187.71,28c-1.28-.14-1.27,1.87,0,2l14.39,1.51,23,2.4,5.33.56-.86-1.5L214.25,57.4,212,60.92a1,1,0,0,0,.36,1.37l10.3,4.8-.46-.6a119.24,119.24,0,0,1,2.08,14.92c.1,1.28,2.1,1.29,2,0Z"/>
    <path d="M219.59,82.37a80.49,80.49,0,0,0-1.28-10.27c-.25-1.26-1.19-1.46-2.24-2l-10.28-5.19-3-1.5.35,1.36,14.25-22.47,2.05-3.22a1,1,0,0,0-.6-1.47L191,33.42l-4-.6c-1.26-.19-1.81,1.73-.54,1.93L214.32,39l4,.6-.6-1.47L203.48,60.56l-2,3.21a1,1,0,0,0,.36,1.37l14.93,7.54-.46-.6a75.81,75.81,0,0,1,1.32,10.29c.09,1.28,2.09,1.29,2,0Z"/>
    <circle cx="302.42" cy="15.39" r="6.52" fill="none" stroke="#000" stroke-miterlimit="10" stroke-width="2"/>
    <path d="M295.16,17.26,278.82,33.55l-2.31,2.31a1,1,0,0,0,0,1.41l24,21.76,3.41,3.1.44-1.67-14.57,2.85a1,1,0,0,0-.7.7l-5.31,15.63c-.34,1-.56,1.5.06,2.52a5.48,5.48,0,0,0,5.6,2.81c.78-.09,1.35-.15,1.71-.91.15-.32.26-.67.39-1l1.6-4.12,3.25-8.37-.7.7L316,66.56l2.93-.68a1,1,0,0,0,.44-1.67l-27.6-24.85-3.88-3.5v1.41l11.78-15.1c.78-1-.63-2.43-1.42-1.42L286.46,35.86a1,1,0,0,0,0,1.41l27.6,24.85,3.89,3.5.44-1.67L302,67.74c-2.23.52-4.63.84-6.8,1.57-.73.25-.87.88-1.12,1.53L292.51,75l-3.34,8.6.7-.7c-2.26.45-3.61-.35-4.68-2.34l.1.77L291,64.54l-.7.7,14.57-2.85a1,1,0,0,0,.45-1.67L281.34,39l-3.42-3.1v1.41L294.26,21l2.31-2.3a1,1,0,0,0-1.41-1.42Z"/>
  </g>
</svg>
