<svg class="Antenna" xmlns="http://www.w3.org/2000/svg" viewBox="0 0 512 512">
  <title>antenna7</title>
  <g id="Color">
    <path class="AntennaEyeColor" d="M177.73,45.65a5.82,5.82,0,0,0-4.63-5.32,7.16,7.16,0,0,0-8.37,4,7.28,7.28,0,0,0-.35,4.74,7.65,7.65,0,0,0,3.14,4.22,5,5,0,0,0,3.85.5A5.3,5.3,0,0,0,174,52.09a5.89,5.89,0,0,0,1.92-1.32A7.12,7.12,0,0,0,177.73,45.65Z" fill="#f15a24"/>
    <path class="AntennaEyeColor" data-name="AntennaEyeColor" d="M226.79,13.16a6.86,6.86,0,0,0-5.59-3.11,6.63,6.63,0,0,0-5.56,3.19,6.44,6.44,0,0,0-.71,5.53,3.77,3.77,0,0,0,.89,1.7,3.75,3.75,0,0,0,1.4,1.28,5.15,5.15,0,0,0,3.73.54,3.71,3.71,0,0,0,.67.06h1.16a5.15,5.15,0,0,0,4.82-3.67A6.46,6.46,0,0,0,226.79,13.16Z" fill="#f15a24"/>
    <path class="AntennaEyeColor" data-name="AntennaEyeColor" d="M300.88,3.08a6.92,6.92,0,0,0-3.43-1A6.46,6.46,0,0,0,294,3a5.25,5.25,0,0,0-2.3,3,5.38,5.38,0,0,0,0,2.4,5,5,0,0,0,.58,3.35,6.26,6.26,0,0,0,6.92,2.81,6.43,6.43,0,0,0,4.66-4.47A6.41,6.41,0,0,0,300.88,3.08Z" fill="#f15a24"/>
    <path class="AntennaEyeColor" data-name="AntennaEyeColor" d="M341.78,67.16a6.35,6.35,0,0,0-9.11-3.87,4.35,4.35,0,0,0-1,.8c-.18.1-.36.19-.54.31a5.9,5.9,0,0,0-2.58,6.5c1,3.55,5.27,5.2,8.62,4.27A6.51,6.51,0,0,0,341.78,67.16Z" fill="#f15a24"/>
    <path class="AntennaColor" d="M225.51,80.12a49.81,49.81,0,0,0-2.59-5.73,45.92,45.92,0,0,0-4.11-10,.86.86,0,0,0-.81-.47l-4.93-10.47a.81.81,0,0,0-.64-.5c-.38-1.22-.75-2.45-1.12-3.67a.94.94,0,0,0,.09-.74A42.71,42.71,0,0,0,210,44.49c.12-.9.25-1.81.37-2.72a22.77,22.77,0,0,1,3.4-7.22l3-3.43a1,1,0,0,0,.23-.5,18.36,18.36,0,0,0,3.28-4.7,1,1,0,0,0,.67-1.18,1.71,1.71,0,0,0-.27-.56,2,2,0,0,0-1.07-1.81,1,1,0,0,0-1.51.86c0,.54-.07,1.07-.11,1.6a4,4,0,0,0-.09.48.86.86,0,0,0-1.06.45c-.28.57-.56,1.15-.85,1.73a13.45,13.45,0,0,1-3.19,2.71c-1.46,1-2.92,2.11-4.28,3.29a19.75,19.75,0,0,0-3.84,4.43c-2.88-1.63-6.25-.28-9,1a.81.81,0,0,0-.36.37,1,1,0,0,0-1.15.13,1,1,0,0,0-1.22.89.89.89,0,0,0-.82.46.93.93,0,0,0-1.06.36.86.86,0,0,0-1.07.69l-.09.66c-.61-.44-1.69-.19-1.61.74v.17a.8.8,0,0,0-.75.69.68.68,0,0,0,0,.14,10.91,10.91,0,0,0-1.89.74v.09a1,1,0,0,0-1.15.72l0,.15a1,1,0,0,0-1,.64,1,1,0,0,0-.51.13c-.54-.7-1.93-.61-1.81.5v0a4.21,4.21,0,0,0-.78-.12,1.64,1.64,0,0,0-1.91.49,1.26,1.26,0,0,0,.79,2.23,1,1,0,0,0,.93-.61,1.13,1.13,0,0,0,.31-.06,1,1,0,0,1,.79.28,8.56,8.56,0,0,0,2.75-.43.94.94,0,0,0,.8-.41A1,1,0,0,0,186,48l0-.13a1,1,0,0,0,.72-.07,1,1,0,0,0,1.33-.39,5.29,5.29,0,0,0,.3-.87,1,1,0,0,0,1.54-.34.82.82,0,0,0,.85-.7l.08-.46a.85.85,0,0,0,.59-.35,1,1,0,0,0,.51-.24c.55.37,1.39.31,1.53-.49l0-.13a1.18,1.18,0,0,0,.53,0,1,1,0,0,0,1.26-.4,3.82,3.82,0,0,0,2.54,1.8,1,1,0,0,0,1.15-.56,1.08,1.08,0,0,0,.3.26l1,.59a4.79,4.79,0,0,0,.53.34l.1,0,1.38.81a.93.93,0,0,0,0,.44,1,1,0,0,0,.46.6l.86.39a17.11,17.11,0,0,0,1.05,2,.92.92,0,0,0,.45.39c.13.33.27.66.42,1a57.37,57.37,0,0,0,2.89,5.76,1,1,0,0,0,.36.36l1.34,3a.91.91,0,0,0-.33,1.3c2.1,3.82,4.2,7.64,6,11.62a66.78,66.78,0,0,1,2.43,6.4,10.19,10.19,0,0,0,1.71,3.48.91.91,0,0,0,.13.44,2,2,0,0,0,1.29.9,2.78,2.78,0,0,0,.58,0,3.6,3.6,0,0,0,2.91-.11C226.42,83.84,226,81.52,225.51,80.12Z" fill="#838bc5"/>
    <path class="AntennaColor" data-name="AntennaColor" d="M330.32,61.57a2.2,2.2,0,0,0-1-.25,1.53,1.53,0,0,0-.18-.64,1.73,1.73,0,0,0-.43-.47,1,1,0,0,0,.37-1c-.62-3.35-.44-6.8-1.1-10.15a16.52,16.52,0,0,0-3.37-7.15,17.54,17.54,0,0,0-13.56-6.59.93.93,0,0,0-.71.31,16.27,16.27,0,0,0-1.86.19,12.91,12.91,0,0,0-4.35,1.23c-1.6-3.25-4.17-6-5.13-9.58-.74-2.7-.4-5.13-.06-7.85.25-1.95-.37-4.16-2.51-4.68a1,1,0,0,0-1.23.7c-.78,4.76-1.55,9.61-.77,14.44.53,3.34,2.38,6.45,3.19,9.74.15,1.23.28,2.47.36,3.72a1,1,0,0,0,1.1.94c-.15,2.78-.51,5.56-.84,8.32-.39.85-.77,1.71-1.16,2.56a.83.83,0,0,0-.64.46,37.41,37.41,0,0,0-2.65,6.42,1.05,1.05,0,0,0-1,.67c-.26.66-.49,1.32-.7,2a16.47,16.47,0,0,0-2.24,5.65,1,1,0,0,0,.12.71,1,1,0,0,0-.89.69l0,.17a1,1,0,0,0-.38.54q-1.56,5.44-2.67,11a1.07,1.07,0,0,0,1.49,1.16,2.66,2.66,0,0,0,.7.46c1.41.6,3-.07,4.25-.76a1,1,0,0,0,.46-1.13c-.12-.42-.24-.85-.37-1.27a1,1,0,0,0,.4-.48,22.88,22.88,0,0,0,1.24-4.42c1.19-4,2.49-8,3.9-12q1.65-3.71,3.05-7.53a.88.88,0,0,0,0-.48c.68-1.64,1.35-3.29,2-4.94a1,1,0,0,0,0-.24,1.06,1.06,0,0,0,.52-.39c1.52-2.07,3-4.14,4.57-6.22a.79.79,0,0,0,.06-.87,10,10,0,0,1,3.3-2.07,8.39,8.39,0,0,1,5.82.09,1,1,0,0,0,.77.48l.25,0a5.13,5.13,0,0,1,2,2.37,1,1,0,0,0,.81.64,9.19,9.19,0,0,0,.59,1.12A30.48,30.48,0,0,1,323.07,51c.41,1.84.38,3.95,1.5,5.53a1.09,1.09,0,0,0,.35.33,7.25,7.25,0,0,0,.51,2.24,11.16,11.16,0,0,0,1.89,3.39,1.11,1.11,0,0,0,.29.25c.05.13.08.26.14.4a.82.82,0,0,0,.65.46,1,1,0,0,0,1.34.33,1.87,1.87,0,0,0,.94-.94A1,1,0,0,0,330.32,61.57Z" fill="#838bc5"/>
  </g>
  <g id="Draw">
    <path d="M219.3,85.8a6.59,6.59,0,0,0,4.89.77,5.73,5.73,0,0,0,3.15-2.39,1,1,0,0,0,0-1.41,1,1,0,0,0-1.41,0A12.36,12.36,0,0,1,224.87,84l-.29.26c.15-.11-.13.08-.19.12l-.16.08c-.06,0-.18.09,0,0l-.42.13a4.66,4.66,0,0,1-3.45-.54,1,1,0,0,0-1,1.72Z"/>
    <path d="M284.91,84a4.8,4.8,0,0,0,3.17,2.61,8.75,8.75,0,0,0,4.78-.69,1,1,0,0,0,.7-1.23,1,1,0,0,0-1.23-.69,13.31,13.31,0,0,1-2.21.65l-.27,0c.14,0,0,0,0,0a3.71,3.71,0,0,1-.47,0,3.09,3.09,0,0,1-.43,0h-.2c.26,0,0,0,0,0l-.35-.08-.2-.07c-.23-.07.18.1,0,0l-.31-.16-.18-.12c-.17-.1.14.13,0,0a3.2,3.2,0,0,1-.27-.25l-.16-.17s-.15-.19-.07-.08,0-.07-.06-.09l-.14-.21c-.09-.14-.18-.3-.26-.45a1,1,0,1,0-1.72,1Z"/>
    <path d="M217.25,78.59a15,15,0,0,0-3.06,2.9,5.46,5.46,0,0,0-1,4A7.4,7.4,0,0,0,215,89.65a5,5,0,0,0,3.19,1.18c1.29,0,1.28-2,0-2,0,0-.28,0-.12,0l-.29-.06c-.22,0-.43-.11-.65-.18a3.49,3.49,0,0,1-.53-.22s-.24-.17-.16-.1-.11-.14-.13-.17a5.59,5.59,0,0,1-1.13-3,3.59,3.59,0,0,1,.79-2.65,12.19,12.19,0,0,1,2.32-2.16,1,1,0,0,0,.36-1.37,1,1,0,0,0-1.37-.36Z"/>
    <path d="M226.12,79a7,7,0,0,1,4,2.73,4.18,4.18,0,0,1,.12,4.53c-.71,1.08,1,2.08,1.73,1a6.15,6.15,0,0,0,0-6.43,9.09,9.09,0,0,0-5.28-3.77,1,1,0,0,0-.53,1.93Z"/>
    <path d="M294.21,80a4.19,4.19,0,0,1,2.33,2.16,5.53,5.53,0,0,1,.29,2.85,5.66,5.66,0,0,1-1.12,2.87,4.42,4.42,0,0,1-3.11,1.6c-1.28.07-1.29,2.07,0,2A6.45,6.45,0,0,0,297,89.39a7.37,7.37,0,0,0,1.75-4c.43-3-.68-5.87-3.55-7.14a1,1,0,0,0-1.37.36,1,1,0,0,0,.36,1.37Z"/>
    <path d="M286.62,76.53a8.88,8.88,0,0,0-6.26,2.31,6.12,6.12,0,0,0-1.68,6,1,1,0,0,0,1.23.7,1,1,0,0,0,.7-1.23c-.05-.17-.13-.5-.14-.58s0-.18,0-.23,0-.2,0-.31a3.09,3.09,0,0,1,.2-1.12,4.48,4.48,0,0,1,1.21-1.91A5.52,5.52,0,0,1,284,79a8,8,0,0,1,2.65-.42,1,1,0,0,0,0-2Z"/>
    <path d="M204.91,40.34a16.53,16.53,0,0,1,4.12-6.9,20.94,20.94,0,0,1,4-3.12c3-2,6.08-4.65,6.15-8.58a1,1,0,0,0-2,0c-.07,3.6-3.47,5.76-6.17,7.51a19.12,19.12,0,0,0-8,10.55,1,1,0,0,0,1.93.54Z"/>
    <path d="M204.49,36a20.05,20.05,0,0,0-13.13,3.23,20.3,20.3,0,0,0-2.52,2,14.71,14.71,0,0,1-3.06,2.57,24.74,24.74,0,0,1-8.23,2c-1.27.14-1.28,2.14,0,2a35.43,35.43,0,0,0,7.62-1.62c2.46-.85,3.89-2.6,5.82-4.21a18.16,18.16,0,0,1,13.5-4c1.28.14,1.27-1.86,0-2Z"/>
    <circle cx="221.66" cy="16.15" r="6.52" fill="none" stroke="#000" stroke-miterlimit="10" stroke-width="2"/>
    <circle cx="171.01" cy="46.83" r="6.52" fill="none" stroke="#000" stroke-miterlimit="10" stroke-width="2"/>
    <path d="M220.77,84.67a65.41,65.41,0,0,0-6.18-16.57c-1.14-2.09-2.53-4-3.66-6.1-.82-1.49-1.51-3-2.22-4.6-2.52-5.47-6.38-15.2-14-14.29-3,.36-5,2.45-7.46,3.88a15.55,15.55,0,0,1-10.09,1.84c-1.25-.2-1.8,1.73-.53,1.93a17.77,17.77,0,0,0,8.35-.6c2.63-.86,4.62-2.47,6.93-3.91,3.3-2.07,6.5-1.13,9,1.62s4.06,6.25,5.59,9.56c.71,1.54,1.4,3.09,2.16,4.6.92,1.83,2.1,3.49,3.14,5.25a63.49,63.49,0,0,1,7,17.93c.3,1.25,2.23.72,1.93-.54Z"/>
    <path d="M227.6,83.21a82.14,82.14,0,0,0-4-12.82,90.09,90.09,0,0,0-6.13-11.62c-2.23-3.71-4.49-7.58-5.29-11.89a14.45,14.45,0,0,1,3.72-12.5c3-3.39,6.65-6.82,6.5-11.71,0-1.28-2-1.29-2,0,.15,4.67-3.89,7.82-6.6,11.1A16,16,0,0,0,210,45.55c.81,8.73,7.3,15.74,10.83,23.45a77.88,77.88,0,0,1,4.87,14.74c.29,1.25,2.22.72,1.93-.53Z"/>
    <path d="M306.59,38.27c-.69-3.71-3.95-6.06-5.25-9.49-1.54-4.05-1.43-8.85-1.32-13.11a1,1,0,0,0-2,0c-.11,4.33-.17,9.13,1.26,13.27a18.71,18.71,0,0,0,2.82,4.95,12.31,12.31,0,0,1,2.57,4.92c.23,1.26,2.16.72,1.92-.54Z"/>
    <path d="M305.9,36.5a16.7,16.7,0,0,1,19.56,8.44c1.73,3.41,1.69,7.12,2.29,10.81a22,22,0,0,0,.78,4A10.33,10.33,0,0,0,331,63.32c.88.94,2.29-.48,1.41-1.41a7.63,7.63,0,0,1-2.22-3.81,53.21,53.21,0,0,1-.8-5.46C329,48.81,328.23,45.22,326,42a18.73,18.73,0,0,0-20.67-7.41,1,1,0,0,0,.53,1.93Z"/>
    <circle cx="297.88" cy="8.62" r="6.52" fill="none" stroke="#000" stroke-miterlimit="10" stroke-width="2"/>
    <circle cx="335.16" cy="68.75" r="6.52" fill="none" stroke="#000" stroke-miterlimit="10" stroke-width="2"/>
    <path d="M293.56,85.2c1.55-6.69,3.2-13.32,6.16-19.54,1.85-3.86,3.12-8,4.89-11.88,1.6-3.54,3.72-8.07,7.49-9.76a6.46,6.46,0,0,1,7,1.42c2.22,2.07,3.19,5.49,3.82,8.37.55,2.51.43,5.34,1.46,7.73.83,1.91,2.66,3.19,4.21,4.48,1,.81,2.41-.6,1.42-1.42-1.42-1.17-3.3-2.37-3.93-4.2-.88-2.53-.78-5.38-1.43-8-.71-2.85-1.79-6-3.89-8.15a8.83,8.83,0,0,0-7.27-2.7c-4.4.57-7.28,4.75-9.21,8.37-2.27,4.26-3.73,8.87-5.63,13.3-1.34,3.14-2.79,6.17-3.85,9.42-1.27,3.93-2.22,8-3.15,12-.29,1.26,1.64,1.79,1.93.54Z"/>
    <path d="M286.73,83.73a126,126,0,0,1,3.88-14c1.59-4.44,3.91-8.51,5.86-12.78a28.62,28.62,0,0,0,3.08-11.76c0-4.86-2.14-9.25-3.49-13.83-1.59-5.42-2.18-10.85-.46-16.32.39-1.23-1.54-1.76-1.92-.53a26.79,26.79,0,0,0-.45,13.88,64,64,0,0,0,2,7.06,42,42,0,0,1,2.07,6.92c1.44,9.16-4.87,17-8,25.13a112.79,112.79,0,0,0-4.5,15.72c-.29,1.25,1.63,1.78,1.92.53Z"/>
  </g>
</svg>
