<svg class="Antenna" xmlns="http://www.w3.org/2000/svg" viewBox="0 0 512 512">
  <title>antenna8</title>
  <g id="Color">
    <path class="AntennaEyeColor" d="M202.86,126c-.28-3.82-3.08-7.1-6.46-8.68a13.86,13.86,0,0,0-17.52,5.38,5.1,5.1,0,0,0-.74,2.12c-2.23,3.59.16,7.17,2.35,10.05,4.92,6.48,13.59,7.66,18.75.81C201.29,133,203.12,129.48,202.86,126Z" fill="#f15a24"/>
    <path class="AntennaEyeColor" data-name="AntennaEyeColor" d="M333.73,121.25c-3-7.48-13.62-8.07-19.13-3a10.31,10.31,0,0,0-3.35,6.88,5.5,5.5,0,0,0-.38,5.6c2.65,6.11,9.58,9.8,16.1,7.9C334.59,136.45,336.39,128,333.73,121.25Z" fill="#f15a24"/>
    <path class="AntennaColor" d="M225.94,80.58a1,1,0,0,0-.71-.3l-.11,0a8.7,8.7,0,0,0-.08-1.7c-.31-2.2-.75-4.39-1.1-6.59a78.91,78.91,0,0,1-1.2-13.9c.08-3.93.5-7.72-1.93-11.09-4.78-6.62-13.62-6.52-20.13-2.74a1,1,0,0,0-1.57-.21,22.92,22.92,0,0,0-4.26,6.6,1.08,1.08,0,0,0-.1.51c-.07.05-.15.09-.22.15a2,2,0,0,0-.35.37.8.8,0,0,0-.69.71c-.08.45-.17.9-.25,1.35a21.23,21.23,0,0,0-1.9,10.33,1.41,1.41,0,0,0,.06.22c0,.79.09,1.58.17,2.37a.92.92,0,0,0-.53.88,60.55,60.55,0,0,0,2,15.21.88.88,0,0,0,.23.4,70.07,70.07,0,0,1,1.14,8.75l.19,4.16a.94.94,0,0,0,.74.91q0,.48.09,1a1.06,1.06,0,0,0-.1.37,33.15,33.15,0,0,0,0,6.06c0,.24-.06.48-.1.72a.94.94,0,0,0-.34.44,39,39,0,0,0-1.83,7.22,1,1,0,0,0,0,.3,6.3,6.3,0,0,0-1.57.47,1,1,0,0,0,0,1.73,2.84,2.84,0,0,0,2.49.09.34.34,0,0,0,.09.08l2.44,1.32a16.37,16.37,0,0,1,2.58,2.07,1,1,0,0,0,1.71-.71,56.47,56.47,0,0,0,.26-6,.92.92,0,0,0,.21-.61c0-.58,0-1.15,0-1.73a.74.74,0,0,0,.3-.5,19.88,19.88,0,0,0,.41-3s0-.08,0-.13l0-.21a.76.76,0,0,0-.09-.48c-.09-.62-.24-1.25-.36-1.86,0-.26,0-.51.07-.77a.87.87,0,0,0,.37-.75l-.12-2.81a1,1,0,0,0-.93-.95.9.9,0,0,0,.26-.93l-.69-2.21a16.87,16.87,0,0,0-.47-1.86l-.14-.61a.82.82,0,0,0-.11-.23.92.92,0,0,0,.5-1.11Q198.66,85,196.5,78.73a.9.9,0,0,0,.52-.88,25.48,25.48,0,0,0-.79-5.9.89.89,0,0,0-.85-.71c-.11-1.19-.24-2.39-.4-3.57v0h0l0-.21a1,1,0,0,0,.9-1l.09-1.81s0,0,0,0a2.48,2.48,0,0,0,0-.27h0a50.2,50.2,0,0,1,3-11.8.83.83,0,0,0-.06-.78c.06-.17.14-.32.21-.49a13.76,13.76,0,0,0,2.74-3.06c2.52-1.68,5.71-2.06,8.72-2,.5,0,1,0,1.52,0L217,51.14c.16.77.27,1.56.38,2.3a116.06,116.06,0,0,1,.81,13.7c.1,4.32.09,8.83,1,13.08a4.34,4.34,0,0,0,2.16,3.24,2.48,2.48,0,0,0,2,0,.7.7,0,0,0,.16.13l.12.07c.12.05.24.11.37.15a1.76,1.76,0,0,0,.79,0,1.48,1.48,0,0,0,.69-.36,2,2,0,0,0,.62-1,3.12,3.12,0,0,0,.11-.67,3.39,3.39,0,0,0,0-.45A1,1,0,0,0,225.94,80.58Zm-30.46,2.27a1,1,0,0,0,0,.34l.72,2.22a1.21,1.21,0,0,0-.28.18l-.67-2.68A1.39,1.39,0,0,0,195.48,82.85Z" fill="#838bc5"/>
    <path class="AntennaColor" data-name="AntennaColor" d="M322,112.08a48.89,48.89,0,0,1-5.28-18.78,1.2,1.2,0,0,0-.08-.27l.81-5.67a88.68,88.68,0,0,0,2.9-14.61c.15-.9.26-1.81.35-2.73a.8.8,0,0,0,.45-.58,25.27,25.27,0,0,0-.7-11,19.78,19.78,0,0,0-1-3.46c-.85-2.87-1.92-5.75-4.22-7.7-5.12-4.34-12.44-8.34-19-4.74a3.84,3.84,0,0,0-.59.33,1,1,0,0,0-.35.43,10.36,10.36,0,0,0-4.95,4.37,1,1,0,0,0,.21,1.23c-1.66,3.36-1.44,7.23-1.21,10.92a46.86,46.86,0,0,1-.11,7.12c-.37,2.57-.73,5.13-1.1,7.69a1,1,0,0,0,.07.53,2.14,2.14,0,0,0-.57.46,2.54,2.54,0,0,0,.06,3.28v0a.33.33,0,0,0,0,.1,1,1,0,0,0-.33.64,1.76,1.76,0,0,0-.37.52,1.92,1.92,0,0,0-.2.9,1,1,0,0,0-.43,1.67,3,3,0,0,0,2.57.77,3.09,3.09,0,0,0,2.54.26,1,1,0,0,0,.11-1.87l0-.29a4.59,4.59,0,0,0,.31-.77l0-.06a2.85,2.85,0,0,0,.21-1.69c0-.11,0-.22,0-.33a3.5,3.5,0,0,0,.07-.45,1.06,1.06,0,0,0,.81-.92c.14-1.07.27-2.14.41-3.21a.83.83,0,0,0,.12-.27,12.16,12.16,0,0,0,.19-1.58c.74-1.42.51-3.32.5-4.9v-.34s0,0,0-.07a2.48,2.48,0,0,0,0-.27h0v0a30.58,30.58,0,0,0-.1-8.91h0c0-.09,0-.18,0-.27a.81.81,0,0,0-.29-.5l0-.14a.76.76,0,0,0,.5-.64l.84-5.89,3.89-2.07A26.58,26.58,0,0,0,303,46.14a2.58,2.58,0,0,0,.59-.6l2.84.86a.92.92,0,0,0,.52,0c3.58,1.83,5.87,5.57,7.29,9.23.93,2.41,1.63,4.9,2.41,7.36-.57,12.64-5.16,24.75-5.81,37.36a1.19,1.19,0,0,0-.17.49c0,.41,0,.82,0,1.22a.89.89,0,0,0-.3.66,29.34,29.34,0,0,0,.11,3.51,1,1,0,0,0-.63,1.14l1.9,11.16c.31,1.27,2.14.71,1.93-.53a1.42,1.42,0,0,1,0-.82.88.88,0,0,0,.54-.14,25.48,25.48,0,0,1,5.52-2.58,1.13,1.13,0,0,0,.24-.08l.1,0h0a2.34,2.34,0,0,0,.24-.09,1.05,1.05,0,0,0,.27-.24l.51,0a.9.9,0,0,0,.75-.12A1,1,0,0,0,322,112.08Z" fill="#838bc5"/>
  </g>
  <g id="Draw">
    <path d="M219.29,84.54a6.59,6.59,0,0,0,4.89.77,5.73,5.73,0,0,0,3.15-2.39,1,1,0,0,0,0-1.41,1,1,0,0,0-1.41,0,12.36,12.36,0,0,1-1.06,1.22l-.29.26c.15-.11-.13.08-.19.12l-.16.08c-.06,0-.18.09-.05,0l-.42.13a4.66,4.66,0,0,1-3.45-.54,1,1,0,1,0-1,1.72Z"/>
    <path d="M284.9,82.71a4.78,4.78,0,0,0,3.17,2.61,8.76,8.76,0,0,0,4.78-.69,1,1,0,0,0,.7-1.23,1,1,0,0,0-1.23-.69,13.31,13.31,0,0,1-2.21.65l-.27,0c.14,0,.05,0,0,0a3.71,3.71,0,0,1-.47,0,3.09,3.09,0,0,1-.43,0h-.2c.26,0,0,0,0,0l-.35-.08-.2-.07c-.23-.07.18.1,0,0l-.31-.16L287.6,83c-.17-.1.14.13,0,0a3.2,3.2,0,0,1-.27-.25l-.16-.17s-.15-.19-.07-.08-.05-.07-.06-.09l-.14-.21c-.09-.14-.18-.3-.26-.45a1,1,0,1,0-1.72,1Z"/>
    <path d="M217.24,77.33a15,15,0,0,0-3.06,2.9,5.46,5.46,0,0,0-1,4A7.4,7.4,0,0,0,215,88.39a5,5,0,0,0,3.19,1.18c1.29.05,1.28-1.95,0-2,0,0-.28,0-.12,0l-.29-.06c-.22-.05-.43-.11-.65-.18a3.49,3.49,0,0,1-.53-.22s-.24-.17-.16-.1-.11-.14-.13-.17a5.59,5.59,0,0,1-1.13-3,3.59,3.59,0,0,1,.79-2.65,12.19,12.19,0,0,1,2.32-2.16,1,1,0,0,0,.36-1.37,1,1,0,0,0-1.37-.36Z"/>
    <path d="M226.11,77.76a7,7,0,0,1,4,2.73,4.18,4.18,0,0,1,.12,4.53c-.71,1.08,1,2.08,1.73,1a6.15,6.15,0,0,0-.05-6.43,9.09,9.09,0,0,0-5.28-3.77,1,1,0,0,0-.53,1.93Z"/>
    <path d="M294.2,78.71a4.22,4.22,0,0,1,2.33,2.16,5.53,5.53,0,0,1,.29,2.85,5.73,5.73,0,0,1-1.12,2.88,4.45,4.45,0,0,1-3.12,1.59c-1.28.07-1.28,2.07,0,2A6.46,6.46,0,0,0,297,88.13a7.37,7.37,0,0,0,1.75-4c.43-3-.68-5.87-3.55-7.14a1,1,0,0,0-1.37.36,1,1,0,0,0,.36,1.37Z"/>
    <path d="M286.61,75.27a8.88,8.88,0,0,0-6.26,2.31,6.12,6.12,0,0,0-1.68,6,1,1,0,1,0,1.93-.53c-.05-.17-.13-.5-.14-.58,0,.07,0-.18,0-.23s0-.2,0-.31a3.09,3.09,0,0,1,.2-1.12,4.48,4.48,0,0,1,1.21-1.91A5.52,5.52,0,0,1,284,77.69a8,8,0,0,1,2.65-.42,1,1,0,0,0,0-2Z"/>
    <circle cx="322.99" cy="127.09" r="12.5" fill="none" stroke="#000" stroke-miterlimit="10" stroke-width="2"/>
    <path d="M293.5,83.48a95.5,95.5,0,0,0,2.12-13.13,110.34,110.34,0,0,0,.07-12.2c-.06-2.58,0-5.48,1.46-7.73,1.82-2.8,5.7-3.45,8.65-2.24,7.35,3,9.48,12.5,9.36,19.6-.15,8.53-3.19,16.6-5.07,24.82a56.51,56.51,0,0,0,.62,28.84,1,1,0,0,0,1.93-.53,54.59,54.59,0,0,1-.57-28c2-8.65,5.18-17.16,5.09-26.15-.07-7.43-2.59-16.46-9.77-20.05a9,9,0,0,0-13.51,7.35c-.56,4.1.11,8.31,0,12.44A87,87,0,0,1,291.57,83c-.29,1.25,1.64,1.79,1.93.53Z"/>
    <path d="M286.67,82a132,132,0,0,0,2.92-15.28,50,50,0,0,0,.29-7.64c-.08-1.9-.19-3.8-.1-5.7.18-3.93,1.5-7.59,5-9.75s8-2.28,11.87-1.22a16.87,16.87,0,0,1,9.59,6.8,26,26,0,0,1,3.84,11.19,52.57,52.57,0,0,1,.11,13.38c-.67,5.07-2.12,10-2.86,15.06C316,98,317,108.4,323.76,115.3c.9.92,2.32-.5,1.42-1.42-6.55-6.71-7.2-17.09-5.72-25.88.88-5.21,2.35-10.31,2.86-15.59A53.53,53.53,0,0,0,321.87,59c-1.28-8.16-5.61-15.61-13.82-18.27-7.55-2.45-17.25-.23-19.63,8.24-1.27,4.53-.35,9.31-.54,13.92-.25,6.3-1.72,12.45-3.14,18.56-.29,1.26,1.64,1.79,1.93.53Z"/>
    <circle cx="190.09" cy="128.1" r="12.5" fill="none" stroke="#000" stroke-miterlimit="10" stroke-width="2"/>
    <path d="M220.51,83a90.27,90.27,0,0,1-2.19-14.52c-.24-4,.19-8,.07-12.07-.08-2.69-.54-5.54-2.28-7.69a9.08,9.08,0,0,0-8.5-3C199.76,47.09,196,56.09,195.14,63.1c-1,8.7,1.59,17.18,3.79,25.49a70.22,70.22,0,0,1,2.68,15.68,49.72,49.72,0,0,1-2.17,15.65,1,1,0,0,0,1.93.53,52.57,52.57,0,0,0,1.16-25.32c-1.63-8.32-4.84-16.36-5.49-24.87-.55-7.27.71-16.39,7.17-20.91,2.78-2,6.61-2.54,9.45-.31,2.11,1.66,2.62,4.51,2.72,7,.17,4.2-.31,8.38,0,12.6a93.74,93.74,0,0,0,2.24,14.81c.29,1.25,2.22.72,1.93-.53Z"/>
    <path d="M227.34,81.49a113.35,113.35,0,0,1-3-16.65c-.35-4.47.39-9-.18-13.43a12.71,12.71,0,0,0-5.8-9.49c-3.53-2.2-8-2.53-12-1.75a18.89,18.89,0,0,0-10.66,6A23.81,23.81,0,0,0,190.58,57a54.07,54.07,0,0,0-1,13.07c.19,5.38,1.62,10.59,2.64,15.84a69.21,69.21,0,0,1,1.2,15.67c-.18,4.75-1.12,9.74-4.54,13.27-.89.93.52,2.34,1.42,1.42,5.69-5.89,5.41-14.88,4.94-22.48a102.66,102.66,0,0,0-2.38-14.57,57.92,57.92,0,0,1-1.22-14.68c.39-8,2.6-16.82,10.29-20.8,7-3.64,17.88-2.53,19.94,6.4,1.08,4.68.06,9.67.4,14.42A114.38,114.38,0,0,0,225.41,82c.29,1.26,2.22.73,1.93-.53Z"/>
  </g>
</svg>
