<svg class="Antenna" xmlns="http://www.w3.org/2000/svg" viewBox="0 0 512 512">
  <title>antenna6</title>
  <g id="Color">
    <path class="AntennaEyeColor" d="M222.43,55.61a7.11,7.11,0,0,0-4.87-.67,6.19,6.19,0,0,0-1.82.7,5.8,5.8,0,0,0-1.51,1.19,5.3,5.3,0,0,0-1.46,3.54,4.84,4.84,0,0,0,0,.53,3.11,3.11,0,0,0,0,.61,7.41,7.41,0,0,0,.81,3A7.12,7.12,0,0,0,214.72,66a6.69,6.69,0,0,0,4.42,1.87A6.41,6.41,0,0,0,225.49,63,6.61,6.61,0,0,0,222.43,55.61Z" fill="#f15a24"/>
    <path class="AntennaEyeColor" data-name="AntennaEyeColor" d="M298.82,57.44a6.2,6.2,0,0,0-4.17-3.16,7.07,7.07,0,0,0-5.31.94,6.71,6.71,0,0,0-3.13,5.63,5.22,5.22,0,0,0,1,2.95,6,6,0,0,0,1.09,1.68,6.54,6.54,0,0,0,10.45-1.57A6.89,6.89,0,0,0,298.82,57.44Z" fill="#f15a24"/>
    <path class="AntennaColor" d="M225.59,81.7a27.15,27.15,0,0,0-.63-2.92c-.08-.32-.17-.64-.28-1a1,1,0,0,0-.41-.5c-.08-.36-.17-.72-.23-1.08a.89.89,0,0,0,.22-.67,31.93,31.93,0,0,0-.75-5.16.88.88,0,0,0-.66-.68v0a1,1,0,0,0,.32-1.79l-1.37-.66a1,1,0,0,0-1.18.21,8.51,8.51,0,0,0-1.82,0,1,1,0,0,0-.93,1.23,1,1,0,0,0-.54,1.67,2.19,2.19,0,0,1,.25.37.85.85,0,0,0,0,.42c0,.3.09.6.14.9a1,1,0,0,0-.46.76,13,13,0,0,0,1.11,5.93.33.33,0,0,0,0,.1,29.63,29.63,0,0,0,2,6,.93.93,0,0,0,1.45.25c.1.06.21.1.31.15a1.15,1.15,0,0,0,.35.18l.77.23a.93.93,0,0,0,1.06-.41,2.2,2.2,0,0,0,1.52-1.33A3.09,3.09,0,0,0,225.59,81.7Z" fill="#838bc5"/>
    <path class="AntennaColor" data-name="AntennaColor" d="M294.21,67.93a1.09,1.09,0,0,0-1.53.11c-.16-.08-.37-.14-.51-.21L291,67.27a1.11,1.11,0,0,0-1.34.37l-.46-.19a1,1,0,0,0-1.23.7.93.93,0,0,0,.35,1,2.68,2.68,0,0,0-.2.88,10.32,10.32,0,0,1,.05,1.84.9.9,0,0,0,.21.86c-.15.93-.25,1.86-.32,2.79-.17.73-.33,1.46-.52,2.19a.87.87,0,0,0-.48.63,27.56,27.56,0,0,0-.62,3.36v0h0l0,.27a.79.79,0,0,0,.09.49c0,.06,0,.11,0,.17h0a2.45,2.45,0,0,0,0,.27h0l0,.25s0,.06,0,.1v.11a1,1,0,0,0,0,.19,3,3,0,0,0,.39,1.31,1,1,0,0,0,1.61.09,3.12,3.12,0,0,0,1.2.1,2.78,2.78,0,0,0,1.36.09,1,1,0,0,0,.69-.7c.1-.45.19-.89.28-1.34a1,1,0,0,0,.29-.45,17,17,0,0,0,.47-2.23c.05-.28.08-.57.13-.85s.15-.38.21-.57c.3-1,.53-2,.73-3.08a29.48,29.48,0,0,0,.45-3.11,2.35,2.35,0,0,0-.45-1.74c0-.07,0-.14,0-.21a1.06,1.06,0,0,0,.62-.85,2,2,0,0,0,0-.49A1.31,1.31,0,0,0,294.21,67.93Z" fill="#838bc5"/>
  </g>
  <g id="Draw">
    <path d="M219.13,86.12a6.63,6.63,0,0,0,4.89.77,5.85,5.85,0,0,0,3.15-2.39,1,1,0,0,0,0-1.42,1,1,0,0,0-1.42,0,10.32,10.32,0,0,1-1.05,1.23,3.73,3.73,0,0,1-.3.26c.15-.12-.13.08-.19.11l-.16.09c-.06,0-.18.09-.05,0a3,3,0,0,1-.42.14,4.58,4.58,0,0,1-3.44-.55,1,1,0,1,0-1,1.73Z"/>
    <path d="M284.73,84.28a4.74,4.74,0,0,0,3.17,2.61,8.78,8.78,0,0,0,4.79-.68,1,1,0,0,0-.54-1.93,13,13,0,0,1-2.21.65l-.27,0c.14,0,.05,0,0,0l-.46,0h-.44l-.19,0h0a2.37,2.37,0,0,1-.36-.09l-.2-.06c-.22-.07.19.1,0,0l-.31-.16-.18-.12c-.17-.1.14.13,0,0l-.27-.25-.15-.16-.07-.08-.07-.09-.14-.21c-.09-.15-.17-.3-.25-.45a1,1,0,0,0-1.73,1Z"/>
    <path d="M217.07,78.91a14.48,14.48,0,0,0-3,2.9,5.4,5.4,0,0,0-1,4A7.33,7.33,0,0,0,214.79,90,5,5,0,0,0,218,91.15c1.29,0,1.29-2,0-2h-.11a1.59,1.59,0,0,1-.3-.06,4.64,4.64,0,0,1-.64-.17,3.25,3.25,0,0,1-.54-.23s-.23-.16-.15-.09-.12-.14-.14-.17a5.64,5.64,0,0,1-1.12-3,3.52,3.52,0,0,1,.78-2.65,12.9,12.9,0,0,1,2.32-2.17,1,1,0,0,0,.36-1.36,1,1,0,0,0-1.37-.36Z"/>
    <path d="M225.94,79.34a7,7,0,0,1,4,2.73,4.16,4.16,0,0,1,.13,4.53c-.71,1.07,1,2.08,1.72,1a6.13,6.13,0,0,0-.05-6.43,9,9,0,0,0-5.28-3.77,1,1,0,0,0-.53,1.93Z"/>
    <path d="M294,80.28a4.22,4.22,0,0,1,2.32,2.17,5.42,5.42,0,0,1,.29,2.85,5.66,5.66,0,0,1-1.12,2.87,4.46,4.46,0,0,1-3.11,1.6c-1.28.07-1.29,2.07,0,2a6.48,6.48,0,0,0,4.42-2.06,7.38,7.38,0,0,0,1.76-4c.42-3-.68-5.87-3.56-7.14a1,1,0,0,0-1.36.35,1,1,0,0,0,.36,1.37Z"/>
    <path d="M286.45,76.85a9,9,0,0,0-6.27,2.3,6.11,6.11,0,0,0-1.67,6,1,1,0,1,0,1.93-.53,5,5,0,0,1-.15-.58,1.49,1.49,0,0,0,0-.23v-.31a3,3,0,0,1,.19-1.12,4.67,4.67,0,0,1,1.21-1.92,5.87,5.87,0,0,1,2.12-1.23,7.82,7.82,0,0,1,2.66-.41,1,1,0,0,0,0-2Z"/>
    <path d="M220.6,85c-.66-2.85-1.46-5.71-1.89-8.61,0,0,0-.12,0-.35s0-.42-.07-.63c-.06-.51-.11-1-.16-1.55-.2-2-.44-4-.68-6-.16-1.26-2.16-1.28-2,0,.37,3,.59,6,1,9s1.23,5.82,1.9,8.69c.29,1.26,2.22.73,1.93-.53Z"/>
    <path d="M227.42,83.53c-.66-2.87-1.4-5.74-1.94-8.63s-1-5.82-1.47-8.72c-.22-1.27-2.15-.73-1.93.53.5,2.9.93,5.82,1.47,8.72s1.28,5.76,1.94,8.63c.29,1.25,2.22.72,1.93-.53Z"/>
    <circle cx="219.23" cy="61.28" r="6.52" fill="none" stroke="#000" stroke-miterlimit="10" stroke-width="2"/>
    <path d="M293.33,85.06c.67-2.88,1.48-5.77,1.9-8.7s.64-6,1-9c.16-1.27-1.84-1.26-2,0-.24,2-.47,4-.67,6-.06.53-.11,1-.16,1.57,0,.21-.05.43-.07.64s0,.21,0,.31,0-.15,0,.09c-.43,2.9-1.23,5.76-1.89,8.61-.29,1.25,1.64,1.78,1.93.53Z"/>
    <path d="M286.51,83.59c.66-2.87,1.4-5.73,1.94-8.62s1-5.82,1.47-8.73c.22-1.26-1.71-1.8-1.93-.53-.5,2.9-.93,5.83-1.47,8.72s-1.28,5.76-1.94,8.63c-.29,1.25,1.63,1.79,1.93.53Z"/>
    <circle cx="292.77" cy="60.82" r="6.52" fill="none" stroke="#000" stroke-miterlimit="10" stroke-width="2"/>
  </g>
</svg>
