<svg class="Antenna" xmlns="http://www.w3.org/2000/svg" viewBox="0 0 512 512">
  <title>antenna3</title>
  <g id="Color">
    <path class="AntennaColor" d="M271,32.55a.89.89,0,0,0,0-.46A35,35,0,0,0,270,28c-.11-.38-.23-.75-.36-1.13a1,1,0,0,0,.51-1.4,16.82,16.82,0,0,0-3.21-4.58,1,1,0,0,0-.67-.32.94.94,0,0,0-.25-.94,34.09,34.09,0,0,0-5.64-4.88.9.9,0,0,0-1.41.62l-1-.58a1,1,0,0,0-.94-.89,27,27,0,0,0-3-.21.79.79,0,0,0-.63-.21c-.47.06-.94.14-1.4.23a28.51,28.51,0,0,0-4.38.55c-3.12-.23-5.4,2.73-7.44,4.72a1,1,0,0,0-.16,1.21c-.36.45-.7.92-1,1.37a20.75,20.75,0,0,0-3,6.89c-.3,1.25,1.63,1.78,1.93.53a19.07,19.07,0,0,1,2.7-6.22,20,20,0,0,1,1.73-2.24,4.1,4.1,0,0,0,1.1-.6c.65-.51,1.15-1.2,1.85-1.66a1,1,0,0,0,.55-.09,19.81,19.81,0,0,1,4.05-1.87,11.16,11.16,0,0,0,2.68-.47.89.89,0,0,0,.69.81,20.44,20.44,0,0,0,3,.51,15.92,15.92,0,0,1,2.15.71c.29.18.59.34.9.51a1,1,0,0,0,.42.7c.35.26.68.54,1,.82a7.22,7.22,0,0,0,2.81,3c.1.13.21.25.31.37a1,1,0,0,0-.2.82,17.3,17.3,0,0,0,2.23,5.49l.87,4.62a.85.85,0,0,0,.4.6.84.84,0,0,0-.19.64,40.53,40.53,0,0,1,.11,6.79s0,0,0,0l-.4,3.72a.78.78,0,0,0,0,.31.13.13,0,0,0,0,.06.8.8,0,0,0-.62.66l-.81,4.32a1.11,1.11,0,0,0-.55.56,45.42,45.42,0,0,0-2,5.79.49.49,0,0,0,0,.17l-.14.24a.86.86,0,0,0-1,.45l-2,4.09a.9.9,0,0,0-1.29.36L255,69.84A9.92,9.92,0,0,0,253.62,74a.82.82,0,0,0-.78.7c-.44,2.42-.78,4.91.12,7.22a1,1,0,0,0,0,.39l.28,1.2a.92.92,0,0,0-.2.52c-.23,3.24,5.37,3.68,5.92,1.17a1,1,0,0,0,.62-1.16,26.52,26.52,0,0,1-.57-3.7,35.76,35.76,0,0,1,.4-7.15,30.71,30.71,0,0,1,2.76-7.92c1.47-2.89,3.17-5.71,4.57-8.65a1,1,0,0,0,1.14-.65c.33-.88.61-1.77.88-2.66a1,1,0,0,0,.46-.55,35.08,35.08,0,0,0,2-10.52c0-.4.06-.81.07-1.21A39.21,39.21,0,0,0,271,32.55Z" fill="#838bc5"/>
    <path class="AntennaEyeColor" d="M241.54,35l0-.16a.74.74,0,0,0-.14-.35.83.83,0,0,0-.27-.89l-.67-.58a6.89,6.89,0,0,0-.85-1.32.82.82,0,0,0-1-.25l-.25-.22a1,1,0,0,0-1.34,0,.83.83,0,0,0-.54,0,3.11,3.11,0,0,0-.55-.27,2,2,0,0,0-2.13.62,1.62,1.62,0,0,0-.62,0,3.09,3.09,0,0,0-1.54,1.25,7.93,7.93,0,0,0-1.16,1.91,3,3,0,0,0,.18,2.86,4.82,4.82,0,0,0,.14,1,3.69,3.69,0,0,0,.17.5,1,1,0,0,0-.41,1.05c.24,1,1.46,1.5,2.31,1.93A8,8,0,0,0,236,43a4.65,4.65,0,0,0,2.79-.73,13.87,13.87,0,0,0,1.68-1.75,1,1,0,0,0,.32-.31l0,0a.86.86,0,0,0,.27-.62l0-.11a.71.71,0,0,0,0-.45.62.62,0,0,0,.16-.3,1,1,0,0,0,.61-.9c0-.67,0-1.34,0-2A.92.92,0,0,0,241.54,35Z" fill="#f15a24"/>
  </g>
  <g id="Draw">
    <path d="M252.23,86.57a6.66,6.66,0,0,0,4.42,1.89c1.6.06,2.78-.81,4-1.75a1,1,0,0,0,0-1.41,1,1,0,0,0-1.41,0l-.33.26-.08.06-.16.11a6.07,6.07,0,0,1-.68.44s-.34.16-.19.1l-.4.13-.19,0c-.17,0,.13,0,0,0h-.49a4.72,4.72,0,0,1-3-1.3c-.91-.91-2.33.51-1.41,1.41Z"/>
    <path d="M251.51,79.81c-2.33,1-4.75,2.21-5.24,5s.93,5.7,3.67,6.42a1,1,0,0,0,.54-1.93c-1.79-.47-2.63-2.66-2.19-4.37.5-1.92,2.51-2.62,4.23-3.38a1,1,0,0,0,.36-1.37,1,1,0,0,0-1.37-.35Z"/>
    <path d="M259.91,81.67l.42,0c.13,0,.14,0,.05,0l.2,0a4,4,0,0,1,.67.21l.13.06.35.19.33.22c.16.11-.05,0,.11.09a5.26,5.26,0,0,1,1.51,2.15c.08.22.15.46.21.69s.06.27.08.4,0,.32,0,.15a6.45,6.45,0,0,1,0,.76c0,.12,0,.24,0,.36a1.23,1.23,0,0,0,0,.2c0-.1,0-.09,0,0a5,5,0,0,1-.16.69c0,.11-.07.22-.11.33s0,.06,0,0a1.11,1.11,0,0,1-.09.19,3.14,3.14,0,0,1-.83,1.1c-.94.88.48,2.3,1.42,1.42,3-2.84,2-8-1.2-10.31a5.52,5.52,0,0,0-3.12-1,1,1,0,0,0,0,2Z"/>
    <circle cx="236.15" cy="36.67" r="6.52" fill="none" stroke="#000" stroke-miterlimit="10" stroke-width="2"/>
    <path d="M253.9,85.6a19.54,19.54,0,0,1-.48-9.78,30.84,30.84,0,0,1,3.46-8.5c3.12-5.55,7-10.65,9.27-16.66a33.25,33.25,0,0,0-.07-23.4c-2.5-6.3-7.9-11.83-15.12-11.68-7.44.16-13.17,7.93-13.27,14.93a1,1,0,0,0,2,0c.09-6,5-12.9,11.45-12.93,7.26,0,12,6.3,13.85,12.67a31.86,31.86,0,0,1-1.64,22c-2.43,5.32-6,10-8.77,15.12C251.43,73.26,250,79.58,252,86.13a1,1,0,0,0,1.93-.53Z"/>
    <path d="M260.86,85.07c-2.57-8.7,1.33-16.85,5.73-24.19a42.66,42.66,0,0,0,6.57-23c-.17-7.92-2.45-16-8.68-21.29-5.22-4.42-12.7-6-19.1-3.3-6.76,2.86-10.38,9.77-11.25,16.77-.16,1.28,1.84,1.26,2,0,.73-5.88,3.7-11.74,9.15-14.52,5.92-3,13.35-1.52,18.19,2.83,6,5.37,7.85,13.44,7.69,21.21a37.68,37.68,0,0,1-1.9,11,55.46,55.46,0,0,1-5.17,10.55c-4.36,7.44-7.72,15.75-5.16,24.42a1,1,0,0,0,1.93-.53Z"/>
  </g>
</svg>
