<svg class="Antenna" xmlns="http://www.w3.org/2000/svg" viewBox="0 0 512 512">
  <title>antenna2</title>
  <g id="Color">
    <path class="AntennaEyeColor" d="M207.28,10.3a8.17,8.17,0,0,0-4-3,5,5,0,0,0-3.85.5,5.33,5.33,0,0,0-2.08,2.34,5.93,5.93,0,0,0-1.74,5.07,6.39,6.39,0,0,0,7.74,5.26,6.67,6.67,0,0,0,3.91-10.18Z" fill="#f15a24"/>
    <path class="AntennaEyeColor" data-name="AntennaEyeColor" d="M310.73,7a5.26,5.26,0,0,0-3.54,1.47A5.09,5.09,0,0,0,305.73,12a.59.59,0,0,0,0,.14,4.79,4.79,0,0,0-.51,1.41,5.55,5.55,0,0,0,.25,3.25,4.79,4.79,0,0,0,2.05,2.39,6.44,6.44,0,0,0,3.17.88,5.79,5.79,0,0,0,2.14-.34,6.71,6.71,0,0,0,2.66-1.59,6.52,6.52,0,0,0,1.66-2.77A6.67,6.67,0,0,0,310.73,7Z" fill="#f15a24"/>
    <path class="AntennaColor" d="M310.66,21.66a1,1,0,0,0-1.57-1.18l-.06,0a1.19,1.19,0,0,0-.53,0l-.24.11a.93.93,0,0,0-.36.35l0,0-.08,0a1,1,0,0,0-1.26,1l0,1a.91.91,0,0,0-.84.7c-.34,1.13-.7,2.26-1.05,3.39a.54.54,0,0,0-.09.12l-.06.14a1.08,1.08,0,0,0-.24.39l-3.07,7.79a.83.83,0,0,0,0,.58c-.54,1.66-1.06,3.34-1.52,5a.84.84,0,0,0-1.32.58c-.19,1.16-.38,2.32-.58,3.48-.17.89-.36,1.79-.56,2.68q-1.47,4.14-2.58,8.4a.85.85,0,0,0-.6.63l-.13.55a1,1,0,0,0-.37.53q-1.72,5.9-3.46,11.78a.94.94,0,0,0,0,.65l-.27.89a1,1,0,0,0-.26.44c-.24.88-.47,1.76-.71,2.64a39.82,39.82,0,0,1-1.34,3.85.79.79,0,0,0,.07.81v0c-.13.47-.25.94-.38,1.41,0,.17-.12.74-.18,1.06a1.55,1.55,0,0,0-.37.94,1,1,0,0,0,1.08,1,5.43,5.43,0,0,0,.45,1.4,1,1,0,0,0,1.57.2,4.78,4.78,0,0,1,2.75-1.2,1,1,0,0,0,1-1.26q-.13-.9-.18-1.8a.87.87,0,0,0,.35-.55c.5-2.43,1-4.87,1.51-7.3a1.07,1.07,0,0,0,0-.31c.18-.61.37-1.23.56-1.84a.86.86,0,0,0-.18-.87l.05-.29s.06,0,.08-.07a.85.85,0,0,0,.82-.94l0-.41a.89.89,0,0,0,.42-.12,1,1,0,0,0,.46-.6l.36-2.52a1,1,0,0,0,.34-.65c.19-1.47.37-2.94.56-4.42a.78.78,0,0,0-.21-.68l.51-2.22s0,0,0-.08c.17-.75.33-1.5.5-2.25a1.08,1.08,0,0,0,1.23-.93c.14-1.23.33-2.44.55-3.65.71.18,1.6-.33,1.26-1.17-.13-.33-.26-.66-.4-1a1.06,1.06,0,0,0,.35.05,1.51,1.51,0,0,0,.89-2.54l-.09-.08a10.28,10.28,0,0,1,1.15-4.06s0,0,0-.06a1,1,0,0,0,.76-.11.94.94,0,0,0,.46-.59l.33-2.36a.78.78,0,0,0,0-.4.61.61,0,0,0-.12-.37,1,1,0,0,0-.47-.41,1,1,0,0,0-.45-.07l.45-1.37a37.53,37.53,0,0,0,1.23-3.76,1,1,0,0,0,0-.45q1.82-4.23,3.9-8.35a1.1,1.1,0,0,0,0-1Z" fill="#838bc5"/>
    <path class="AntennaColor" data-name="AntennaColor" d="M226.45,79.15a11.84,11.84,0,0,1-.78-1.75.78.78,0,0,0,0-.22,4,4,0,0,0-.71-2.5,1.05,1.05,0,0,0-.65-.41,18,18,0,0,1-.7-1.9c0-.06-.06-.1-.08-.15a.93.93,0,0,0,.22-.91,21.12,21.12,0,0,0-2.06-5.21l-.12-.31a1,1,0,0,0,.06-.7c-.11-.44-.24-.88-.36-1.31a.86.86,0,0,0,0-.54l-.67-1.71c-.46-1.34-1-2.66-1.56-4a.82.82,0,0,0,.09-.74c-.34-1-.68-2-1-3.06a11,11,0,0,0-2-5.53l0,0a.9.9,0,0,0,0-.28,86.25,86.25,0,0,0-3.39-9.86,1.06,1.06,0,0,0-.58-.58q-.76-1.95-1.41-3.93a.81.81,0,0,0,.24-1q-1.49-3.91-3-7.85a.93.93,0,0,0,.18-1.18l-1.57-2.47a1.09,1.09,0,0,0-1.69-.08,1.13,1.13,0,0,0-.45,0l0-.13c-.2-1.27-2.12-.73-1.93.53A10.56,10.56,0,0,0,204,25.37a1,1,0,0,0,1,.45.84.84,0,0,0-.14.61.83.83,0,0,0-.5.85,9,9,0,0,0,2.93,6.24h0a.8.8,0,0,0-.39,1.06l3.46,8.29a1.53,1.53,0,0,0,.11.16.88.88,0,0,0-.23.92,84.76,84.76,0,0,0,3.06,9.2,42,42,0,0,0,2.09,6.56c.24.84.5,1.68.79,2.51a.89.89,0,0,0-.29,1c.79,2.72,1.67,5.42,2.61,8.09a.86.86,0,0,0-.36,1c.3,1,.65,2,1,2.92a1.37,1.37,0,0,0,0,.46,19.39,19.39,0,0,0,1.63,5.5c.06.26.13.51.2.75a.79.79,0,0,0,0,1l.57.77a1.86,1.86,0,0,0,.23.32l.2.28a1,1,0,0,0,.94.43l.27.07a.81.81,0,0,0,.53,0A2.85,2.85,0,0,0,226,80.55,1,1,0,0,0,226.45,79.15Z" fill="#838bc5"/>
  </g>
  <g id="Draw">
    <path d="M219.93,85.42a6.62,6.62,0,0,0,4.88.78A5.8,5.8,0,0,0,228,83.8a1,1,0,0,0,0-1.41,1,1,0,0,0-1.41,0,11.16,11.16,0,0,1-1.06,1.22l-.29.26c.15-.11-.13.08-.19.12l-.16.08c-.06,0-.18.09,0,0a3.38,3.38,0,0,1-.42.13,4.61,4.61,0,0,1-3.45-.54,1,1,0,1,0-1,1.72Z"/>
    <path d="M285.53,83.59a4.8,4.8,0,0,0,3.17,2.61,8.75,8.75,0,0,0,4.78-.69,1,1,0,0,0,.7-1.23,1,1,0,0,0-1.23-.69,13,13,0,0,1-2.21.65l-.27,0c.14,0,0,0,0,0l-.46,0a3.2,3.2,0,0,1-.44,0h-.19c.25,0,0,0,0,0L289,84.2l-.2-.07c-.23-.07.18.1,0,0l-.31-.17-.17-.11c-.17-.11.13.12,0,0l-.27-.25-.16-.17s-.15-.19-.07-.08,0-.07-.06-.09l-.14-.21c-.09-.14-.18-.3-.26-.45a1,1,0,0,0-1.36-.36,1,1,0,0,0-.36,1.37Z"/>
    <path d="M217.87,78.21a15,15,0,0,0-3.06,2.9,5.46,5.46,0,0,0-1,4,7.47,7.47,0,0,0,1.79,4.19,5,5,0,0,0,3.19,1.18c1.29,0,1.29-2,0-2,0,0-.28,0-.12,0l-.29-.06c-.22,0-.43-.11-.64-.18a3.21,3.21,0,0,1-.54-.22s-.24-.17-.16-.1-.11-.14-.13-.17a5.59,5.59,0,0,1-1.13-3,3.59,3.59,0,0,1,.79-2.65,12.19,12.19,0,0,1,2.32-2.16,1,1,0,0,0,.36-1.37,1,1,0,0,0-1.37-.36Z"/>
    <path d="M226.74,78.64a7,7,0,0,1,4,2.73,4.18,4.18,0,0,1,.12,4.53c-.71,1.08,1,2.08,1.73,1a6.15,6.15,0,0,0,0-6.43,9.06,9.06,0,0,0-5.28-3.77,1,1,0,0,0-.53,1.93Z"/>
    <path d="M294.83,79.59a4.22,4.22,0,0,1,2.33,2.16,5.53,5.53,0,0,1,.29,2.85,5.73,5.73,0,0,1-1.12,2.88,4.41,4.41,0,0,1-3.11,1.59c-1.28.07-1.29,2.07,0,2A6.45,6.45,0,0,0,297.64,89a7.37,7.37,0,0,0,1.75-4c.43-3-.68-5.87-3.55-7.14a1,1,0,0,0-1.37.36,1,1,0,0,0,.36,1.37Z"/>
    <path d="M287.25,76.15A8.89,8.89,0,0,0,281,78.46a6.09,6.09,0,0,0-1.67,6,1,1,0,1,0,1.92-.53,5.83,5.83,0,0,1-.14-.58c0,.07,0-.18,0-.23s0-.2,0-.31a3.32,3.32,0,0,1,.2-1.12,4.58,4.58,0,0,1,1.21-1.91,5.79,5.79,0,0,1,2.12-1.23,8.09,8.09,0,0,1,2.66-.42,1,1,0,0,0,0-2Z"/>
    <circle cx="202.02" cy="14.11" r="6.52" fill="none" stroke="#000" stroke-miterlimit="10" stroke-width="2"/>
    <circle cx="311.62" cy="14.1" r="6.52" fill="none" stroke="#000" stroke-miterlimit="10" stroke-width="2"/>
    <path d="M221.39,84.3c-3.87-16.73-7.83-33.48-13.36-49.75q-2.33-6.82-5-13.5c-.48-1.18-2.42-.66-1.93.53,6.51,15.9,11.06,32.52,15.1,49.2,1.13,4.67,2.22,9.36,3.31,14,.29,1.25,2.21.72,1.92-.53Z"/>
    <path d="M228.22,82.83a383.19,383.19,0,0,0-15.41-49.46q-2.58-6.82-5.37-13.58c-.48-1.17-2.41-.66-1.93.54a446.93,446.93,0,0,1,17.15,48.91q2,7,3.63,14.12c.29,1.25,2.22.72,1.93-.53Z"/>
    <path d="M294.18,84.82c3.87-16.73,7.84-33.48,13.37-49.75q2.31-6.83,5-13.5c.48-1.19-1.45-1.71-1.93-.53-6.52,15.9-11.06,32.52-15.1,49.19-1.13,4.68-2.22,9.37-3.31,14-.29,1.26,1.64,1.79,1.93.54Z"/>
    <path d="M287.35,83.35a385.24,385.24,0,0,1,15.41-49.46q2.6-6.83,5.37-13.58c.49-1.18-1.44-1.7-1.93-.53a450.47,450.47,0,0,0-17.14,48.91q-2,7-3.63,14.13c-.29,1.25,1.63,1.79,1.92.53Z"/>
  </g>
</svg>
