<svg class="Antenna" xmlns="http://www.w3.org/2000/svg" viewBox="0 0 512 512">
  <title>antenna1</title>
  <g id="AntennaColors">
    <path class="AntennaColor" d="M226,82.13a1,1,0,0,0,.23-.89,24.16,24.16,0,0,0-1.54-4.7.6.6,0,0,0-.09-.13,1.46,1.46,0,0,0,0-.35l-.12-.44a17.07,17.07,0,0,0-1.28-6.14v-.06h0a2.5,2.5,0,0,0-.09-.25,1.25,1.25,0,0,0-.08-.12.91.91,0,0,0,.27-.94c-.87-3-1.86-5.91-3-8.81a1.1,1.1,0,0,0-.09-.14,1,1,0,0,0,.61-1.13,50.76,50.76,0,0,0-4.26-11.76c-1.95-4-3.93-8.05-5.9-12.07a.85.85,0,0,0-1-.46l-.24-.38a1.06,1.06,0,0,0-.93-.45,1,1,0,0,0-1.16-.58,25,25,0,0,0-2.38.86,1.52,1.52,0,0,0-.42-.23c-1-.4-2.11.32-2.86.9a3.44,3.44,0,0,0-1,1.21c-1.4.49-2.8,1-4.16,1.57-2.29,1-6.55,3.08-6.42,6l-1,1-.48.46a12.45,12.45,0,0,0-3.13,2.68,1.11,1.11,0,0,0-.12,1.11l-.12.12c-1,1-2.72,2.23-2.08,3.83a1,1,0,0,0,1.47.6l.22-.12a2.88,2.88,0,0,0,1,.57,1,1,0,0,0,1.13-.46,33.26,33.26,0,0,1,2.42-3c2.45-.95,4.32-3.11,6.43-4.71h0c1.88-1,3.77-2,5.69-2.95a19.08,19.08,0,0,0,3.83-1.7,7.18,7.18,0,0,0,1.28,2.09.83.83,0,0,0,0,.22,6.9,6.9,0,0,0,2.14,3.85l.17.12c.26.5.52,1,.8,1.5a1,1,0,0,0-.11,1.09l0,.09a1,1,0,0,0-.13,1.14,58.73,58.73,0,0,0,3.35,5.94.94.94,0,0,0,.53.4s0,.05,0,.07a.8.8,0,0,0-.14.81q1.31,3.47,2.72,6.88.65,2.43,1.49,4.79a.85.85,0,0,0,0,.67q1,3,2.11,6.08a.81.81,0,0,0-.6.9,14.71,14.71,0,0,0,1.77,6.17.88.88,0,0,0,.12.62,3.28,3.28,0,0,0,.22.26,1,1,0,0,0,1,1.12,8.29,8.29,0,0,0,2.18-.25,4.84,4.84,0,0,0,2-.75A1,1,0,0,0,226,82.13Z" fill="#838bc5"/>
    <path class="AntennaColor" data-name="AntennaColor" d="M325.67,18.34a1,1,0,0,0-.45-1.41.94.94,0,0,0-.45-1,1,1,0,0,0-1.37.36,9.06,9.06,0,0,1-.82,1.5,1,1,0,0,0-.65.45c-.18.3-.37.6-.56.9h-.06a.91.91,0,0,0-1.15.14,9.84,9.84,0,0,0-1.81,2.67L316,24.59a1.41,1.41,0,0,0-.34.31c-.17.21-.33.43-.5.65l-.91,1a.79.79,0,0,0-.48.26,42.87,42.87,0,0,0-3.73,4.56.82.82,0,0,0,0,.89c-.13.25-.26.49-.41.73a1,1,0,0,0-.93.68,9.11,9.11,0,0,1-1.52,2.51,1.15,1.15,0,0,0-.5.37,13.14,13.14,0,0,0-.84,1.26,1,1,0,0,0-1.1.66,45,45,0,0,0-1.48,4.89q-1.92,5.06-3.83,10.1A35.45,35.45,0,0,0,298,56.81a1,1,0,0,0-.89.66q-2,4.78-3.54,9.71a1,1,0,0,0-.78.67c-.76,2.19-1.51,4.39-2.27,6.59a37.18,37.18,0,0,0-2.32,6.3.57.57,0,0,0,0,.13c-.1.24-.19.49-.29.74A1,1,0,0,0,286.77,83c.59,1.25,1.65,2.68,3.12,2.88,1.77.23,2.46-1.34,3-2.71a70.75,70.75,0,0,0,2.84-8.39,1,1,0,0,0,.35-.44L299,67.57a1,1,0,0,0,1-.67l2.94-7.76,4.5-9.86a1,1,0,0,0-.05-.94.87.87,0,0,0,.48-.45A42.74,42.74,0,0,0,310.86,40a.92.92,0,0,0-.42-1.06l.06-.13a.89.89,0,0,0,.59-.3.86.86,0,0,0,.62-.29,43.59,43.59,0,0,0,2.93-3.8,35.17,35.17,0,0,0,2.62-3.57.92.92,0,0,0,.07-.74c.23-.42.43-.85.65-1.28a1,1,0,0,0,1.24-.39c1.16-2.11,2.43-4.15,3.76-6.15a1.13,1.13,0,0,0,.52-.24,9.12,9.12,0,0,0,2.28-2.63A1,1,0,0,0,325.67,18.34Z" fill="#838bc5"/>
    <path class="AntennaEyeColor" d="M185.06,53.79a2,2,0,0,0-2-.95,1.38,1.38,0,0,0-.41.11,5.72,5.72,0,0,0-1.1-.58,1.47,1.47,0,0,0-.28-.08l-.17-.13c-1.94-1.31-4.5-.17-5.64,1.66a5,5,0,0,0-.43.69,5.47,5.47,0,0,0-.15,4.58,6.71,6.71,0,0,0,.3,1.11c.73,1.89,2.15,3.87,4.26,4.31a3.89,3.89,0,0,0,3.48-1l.15-.17a2.61,2.61,0,0,0,1.89-.83,2.68,2.68,0,0,0,.68-1.45,2.63,2.63,0,0,0,0-.48c-.09-.57-.1-.71,0-.41s0,.17.05,0,.06-.33.08-.5a1.7,1.7,0,0,0,.33-.69A6.49,6.49,0,0,0,185.06,53.79Z" fill="#f15a24"/>
    <path class="AntennaEyeColor" data-name="AntennaEyeColor" d="M335.68,9.45a5.67,5.67,0,0,0-5.05-3.16,6.1,6.1,0,0,0-2.59.5,5.24,5.24,0,0,0-3.69,4,6.3,6.3,0,0,0,0,2.37,4.25,4.25,0,0,0,.27,1.84,5.24,5.24,0,0,0,6.14,3l.24-.06a7.27,7.27,0,0,0,1-.18l.27-.05a5.25,5.25,0,0,0,3-2.2A6.21,6.21,0,0,0,335.68,9.45Z" fill="#f15a24"/>
  </g>
  <g id="Antenna_Draw">
    <path d="M219.93,85.42a6.62,6.62,0,0,0,4.88.78A5.8,5.8,0,0,0,228,83.8a1,1,0,0,0,0-1.41,1,1,0,0,0-1.41,0,11.16,11.16,0,0,1-1.06,1.22l-.29.26c.15-.11-.13.08-.19.12l-.16.08c-.06,0-.18.09,0,0a3.38,3.38,0,0,1-.42.13,4.61,4.61,0,0,1-3.45-.54,1,1,0,1,0-1,1.72Z"/>
    <path d="M207.79,30.34A38.65,38.65,0,0,0,193,37.66,64.9,64.9,0,0,0,181,50.92c-.74,1.06,1,2.06,1.73,1A65.12,65.12,0,0,1,194.1,39.3a36.39,36.39,0,0,1,14.22-7c1.25-.3.72-2.23-.53-1.92Z"/>
    <path d="M204.64,40.12c-7.1,3.07-14.6,6.86-18.76,13.69-.67,1.1,1.06,2.1,1.72,1,4-6.52,11.3-10,18.05-13,1.18-.51.16-2.23-1-1.72Z"/>
    <path d="M285.31,83.33a5.58,5.58,0,0,0,6.93,3.26,1,1,0,0,0,.7-1.23,1,1,0,0,0-1.23-.7l-.52.1s-.31,0-.06,0l-.24,0a6,6,0,0,1-.85,0,1.48,1.48,0,0,0-.21,0c-.09,0,.23,0,0,0l-.36-.07-.37-.12c-.2-.07,0,0,0,0l-.17-.09a2.79,2.79,0,0,1-.33-.19l-.13-.08c-.19-.13.06.06,0,0a7,7,0,0,1-.55-.54l-.14-.16c-.16-.18.12.18,0,0l-.26-.37c-.17-.27-.33-.55-.48-.83a1,1,0,0,0-1.37-.36,1,1,0,0,0-.35,1.37Z"/>
    <circle cx="180.22" cy="57.97" r="6.52" fill="none" stroke="#000" stroke-miterlimit="10" stroke-width="2"/>
    <circle cx="330.04" cy="12.08" r="6.52" fill="none" stroke="#000" stroke-miterlimit="10" stroke-width="2"/>
    <path d="M217.87,78.21a15,15,0,0,0-3.06,2.9,5.46,5.46,0,0,0-1,4,7.47,7.47,0,0,0,1.79,4.19,5,5,0,0,0,3.19,1.18c1.29,0,1.29-2,0-2,0,0-.28,0-.12,0l-.29-.06c-.22,0-.43-.11-.64-.18a3.21,3.21,0,0,1-.54-.22s-.24-.17-.16-.1-.11-.14-.13-.17a5.59,5.59,0,0,1-1.13-3,3.59,3.59,0,0,1,.79-2.65,12.19,12.19,0,0,1,2.32-2.16,1,1,0,0,0,.36-1.37,1,1,0,0,0-1.37-.36Z"/>
    <path d="M226.74,78.64a7,7,0,0,1,4,2.73,4.18,4.18,0,0,1,.12,4.53c-.71,1.08,1,2.08,1.73,1a6.15,6.15,0,0,0,0-6.43,9.06,9.06,0,0,0-5.28-3.77,1,1,0,0,0-.53,1.93Z"/>
    <path d="M294.28,81.41a13.19,13.19,0,0,1,1.86,2.89,3.35,3.35,0,0,1-.13,2.75,5.86,5.86,0,0,1-2,2.4s-.2.11-.1.06l-.18.06a4.54,4.54,0,0,1-.66.16,4.63,4.63,0,0,1-.55.06h-.33c-.22,0,.11,0-.08,0-1.25-.3-1.78,1.63-.53,1.93a5.21,5.21,0,0,0,3.38-.5,7.17,7.17,0,0,0,2.69-3,5.54,5.54,0,0,0,.52-4.08A12.5,12.5,0,0,0,296,80.4a1,1,0,0,0-1.37-.36,1,1,0,0,0-.36,1.37Z"/>
    <path d="M287.25,76.15A8.89,8.89,0,0,0,281,78.46a6.09,6.09,0,0,0-1.67,6,1,1,0,1,0,1.92-.53,5.83,5.83,0,0,1-.14-.58c0,.07,0-.18,0-.23s0-.2,0-.31a3.32,3.32,0,0,1,.2-1.12,4.58,4.58,0,0,1,1.21-1.91,5.79,5.79,0,0,1,2.12-1.23,8.09,8.09,0,0,1,2.66-.42,1,1,0,0,0,0-2Z"/>
    <path d="M204.36,41.46c6.72,13.75,12.61,28.19,15.11,43.37.2,1.26,2.13.73,1.92-.53-2.52-15.34-8.51-29.95-15.3-43.85-.56-1.15-2.29-.14-1.73,1Z"/>
    <path d="M228.22,82.83a183.25,183.25,0,0,0-7.61-27.49q-2.4-6.62-5.3-13-1.42-3.15-3-6.24c-.95-1.9-1.8-4.15-3.51-5.5-1-.79-2.42.62-1.41,1.41,1.66,1.32,2.47,3.65,3.39,5.51q1.55,3.09,3,6.25,2.86,6.39,5.22,13a183,183,0,0,1,7.3,26.62c.25,1.26,2.18.73,1.93-.53Z"/>
    <path d="M287.13,83.09c4.32-10.31,8.73-20.58,13-30.9,1-2.5,2.22-5,3-7.59a25.09,25.09,0,0,1,2.92-6.87,92.16,92.16,0,0,1,8.19-10.68c3.32-3.74,6.87-7.28,10.06-11.14.81-1-.6-2.41-1.42-1.42-2.88,3.5-6.07,6.73-9.11,10.09a117.4,117.4,0,0,0-8.33,10.53,23.19,23.19,0,0,0-3.51,6.44c-.8,2.51-1.61,4.93-2.61,7.37-2.21,5.39-4.47,10.77-6.74,16.14-2.46,5.83-4.94,11.66-7.39,17.5-.49,1.18,1.44,1.7,1.93.53Z"/>
    <path d="M326.07,17.88c-2.93,3.39-5.64,7-8.25,10.63-1.35,1.9-2.68,3.81-4,5.75a48.79,48.79,0,0,0-3.7,5.74c-1,2.1-1.54,4.43-2.46,6.58l-3.14,7.3-6.27,14.59-7.15,16.65c-.5,1.17,1.22,2.19,1.73,1l12.44-29c2-4.55,4.26-9.09,5.73-13.82a23.1,23.1,0,0,1,3.14-6q1.91-2.86,3.87-5.69a155.85,155.85,0,0,1,9.46-12.39c.84-1-.57-2.39-1.41-1.41Z"/>
  </g>
</svg>
