<svg class="Antenna" data-name="Antenna" xmlns="http://www.w3.org/2000/svg" viewBox="0 0 512 512">
  <title>antenna5</title>
  <g id="Layer_9" data-name="Layer 9">
    <path class="AntennaColor" d="M320.79,40.65a10,10,0,0,0-6.26-5.88c-3.16-.9-6.13.56-8.78,2.17a1.19,1.19,0,0,0-.45.15l-6.08,3.71a1,1,0,0,0-.42,1.06,13.24,13.24,0,0,0-2.8,3,.86.86,0,0,0-.11.68c-.19.48-.39.95-.61,1.41l-1.59,3a1,1,0,0,0-.09.74c-.21.57-.36,1-.44,1.33a.91.91,0,0,0-.24.41c-.18.62-.36,1.23-.55,1.85a.84.84,0,0,0-.56.66c-.34,1.58-.69,3.16-1,4.73a.48.48,0,0,0,0,.12l-.66,3.08a1.77,1.77,0,0,0,0,.23q-1,4.38-2.29,8.68a.85.85,0,0,0,.29,1l-.15.69a.77.77,0,0,0-.51.65c-.19,1.12-.38,2.25-.56,3.37l-.06.39-.27,1.7a.75.75,0,0,0,0,.15,4.56,4.56,0,0,1-.3,1A2.69,2.69,0,0,0,287.56,84a3.28,3.28,0,0,0,4.76-3.94,1,1,0,0,0-.13-.22.74.74,0,0,0,.14-.34.57.57,0,0,1,0-.13.8.8,0,0,0,.19-.39l1-5.85a.92.92,0,0,0,0-.29c.34-1.35.67-2.71,1-4.06a.93.93,0,0,0-.17-.83c.33-1.85.7-3.68,1.17-5.5a.89.89,0,0,0-.31-1c.19-.61.36-1.22.5-1.84,0,0,0-.09,0-.13a.91.91,0,0,0,.43-.55q1.23-4.18,2.08-8.46c.19-.21.4-.42.58-.65a.8.8,0,0,0,.94,0,5.44,5.44,0,0,0,2.37-3.35,1,1,0,0,0,0-.17,1,1,0,0,0,.23-.46,7.91,7.91,0,0,0,2.33.14,1.12,1.12,0,0,0,.74-.39l.06.13a3.43,3.43,0,0,0,.36.47,3.07,3.07,0,0,0,.26.25,5.22,5.22,0,0,0,.48.34,5.55,5.55,0,0,0,.56.24.77.77,0,0,0,.4,0,.64.64,0,0,0,.18-.06l.08,0a13.94,13.94,0,0,0,3.24.67,3,3,0,0,0,3,0,8.47,8.47,0,0,0,3.83-.3C320.87,46.34,321.9,43.47,320.79,40.65Z" fill="#838bc5"/>
    <path class="AntennaColor" data-name="AntennaColor" d="M224.56,78.39c-.21-.48-.43-1-.64-1.43q-1.48-5.52-3.45-10.9l-2-7.42a.79.79,0,0,0,.29-1l-.1-.24h0s0,0,0,0q-.61-1.43-1.26-2.85s0-.08,0-.12c-.21-1.21-.43-2.42-.64-3.62a.81.81,0,0,0-.48-.65q-.39-3.06-1-6.07c-.3-1.72-.64-3.44-1-5.14a.81.81,0,0,0-.26-.45l-.06-.52a1,1,0,0,0,0-.34l-.93-8.3a1,1,0,0,0-.2-.49c-.15-1.84-.27-3.69-.33-5.54a.92.92,0,0,0-.6-.88.82.82,0,0,0,.17-.64c0-.09,0-.17,0-.26h0v0a36.24,36.24,0,0,0-.67-3.72s0,0,0-.05l-.06-.28a.91.91,0,0,0,.65-1.42l-2.2-3.67a1,1,0,0,0-.93-.46l-1.23-1.62a1,1,0,0,0-1-.42L205.92,9a.82.82,0,0,0-1.16-.15l0,0-.46-.19-.84-.62A.77.77,0,0,0,202.5,8a2.83,2.83,0,0,0-.48-.08,4.59,4.59,0,0,0-2-.21,1,1,0,0,0-.3.08A1.59,1.59,0,0,0,198.1,7c-.63.15-1,.75-1.39,1.23a11.72,11.72,0,0,0-.93,1.4,8.33,8.33,0,0,0-1,3.14A5.45,5.45,0,0,0,195,15.1c0,.06-.09.11-.14.19-.56,1.1.11,2.7.72,3.64l0,0a9.23,9.23,0,0,0,2.46,5.13,1,1,0,0,0,.07.35l.1.24h0a21.79,21.79,0,0,0,4,6.53,1,1,0,0,0,.29.22,1.26,1.26,0,0,0,.11.53q2.37,5.22,4.73,10.43a52.35,52.35,0,0,0,2.22,4.81,4.64,4.64,0,0,0,.83,1.08q1.78,5.34,3.4,10.73c.06.3.13.61.19.91,0,0,0,0,0,.07a6.62,6.62,0,0,0,.57,2.61v0h0l.09.24a.88.88,0,0,0,.37.39q1.53,5.35,2.89,10.76a1,1,0,0,0,.15.32l.09.35a.94.94,0,0,0,.21.41s0,0,0,.05a16.79,16.79,0,0,0,.57,2,2.36,2.36,0,0,0,0,.28.83.83,0,0,0-.22.63c.12,1.72.33,3.74,1.82,4.87a3.31,3.31,0,0,0,3.86.13C226,81.84,225.23,79.89,224.56,78.39Z" fill="#838bc5"/>
  </g>
  <g id="Draw">
    <path d="M219,84.17a6.57,6.57,0,0,0,4.88.77,5.73,5.73,0,0,0,3.15-2.39,1,1,0,0,0,0-1.41,1,1,0,0,0-1.41,0,10.18,10.18,0,0,1-1.06,1.22l-.29.26c.15-.11-.13.08-.19.12l-.16.08c-.06,0-.18.09,0,0l-.42.13a4.62,4.62,0,0,1-3.44-.54,1,1,0,1,0-1,1.72Z"/>
    <path d="M284.63,82.34A4.8,4.8,0,0,0,287.8,85a8.75,8.75,0,0,0,4.78-.69,1,1,0,0,0,.7-1.23,1,1,0,0,0-1.23-.69,13,13,0,0,1-2.21.65l-.27,0c.14,0,.05,0,0,0l-.46,0a3.2,3.2,0,0,1-.44,0h-.19c.25,0,0,0,0,0l-.36-.08-.2-.07c-.23-.07.18.1,0,0l-.32-.16-.17-.12c-.17-.1.13.13,0,0l-.27-.25-.15-.17-.07-.08-.07-.09-.14-.21c-.09-.14-.17-.3-.26-.45A1,1,0,0,0,285,81a1,1,0,0,0-.36,1.37Z"/>
    <path d="M217,77a15,15,0,0,0-3.06,2.9,5.41,5.41,0,0,0-1,4A7.39,7.39,0,0,0,214.69,88a5,5,0,0,0,3.19,1.18c1.29,0,1.29-2,0-2,0,0-.28,0-.12,0l-.29-.06c-.22,0-.43-.11-.64-.18a3.21,3.21,0,0,1-.54-.22s-.24-.17-.16-.1-.11-.14-.13-.17a5.59,5.59,0,0,1-1.13-3,3.59,3.59,0,0,1,.79-2.65A12.19,12.19,0,0,1,218,78.69a1,1,0,0,0,.36-1.37A1,1,0,0,0,217,77Z"/>
    <path d="M224.82,77.39a6.5,6.5,0,0,1,1.46,0,5.58,5.58,0,0,1,.78.2l.3.11.15.07a5.46,5.46,0,0,1,1.77,1.52c.12.16.41.59.59.87a4.59,4.59,0,0,1,.61,1.48,3.79,3.79,0,0,1-.51,3c-.71,1.08,1,2.08,1.73,1a5.87,5.87,0,0,0,.75-4.37,7.75,7.75,0,0,0-1.6-3.22,6.42,6.42,0,0,0-6.56-2.61,1,1,0,0,0-.7,1.23,1,1,0,0,0,1.23.7Z"/>
    <path d="M293.93,78.34a4.19,4.19,0,0,1,2.33,2.16,5.53,5.53,0,0,1,.29,2.85,5.73,5.73,0,0,1-1.12,2.88,4.45,4.45,0,0,1-3.11,1.59c-1.28.07-1.29,2.07,0,2a6.45,6.45,0,0,0,4.42-2.06,7.37,7.37,0,0,0,1.75-4c.43-3-.68-5.87-3.55-7.14a1,1,0,0,0-1.37.36,1,1,0,0,0,.36,1.37Z"/>
    <path d="M286.35,74.9a8.89,8.89,0,0,0-6.27,2.31,6.09,6.09,0,0,0-1.67,6,1,1,0,1,0,1.92-.53c-.05-.17-.13-.5-.14-.58s0-.18,0-.23,0-.2,0-.31a3.32,3.32,0,0,1,.2-1.12,4.58,4.58,0,0,1,1.21-1.91,5.52,5.52,0,0,1,2.12-1.23,8.09,8.09,0,0,1,2.66-.42,1,1,0,0,0,0-2Z"/>
    <path d="M226.36,82.84a1,1,0,0,0,0-2,1,1,0,0,0,0,2Z"/>
    <path d="M220.36,82.72c-3-11.2-5.66-22.51-9.57-33.44a117.67,117.67,0,0,0-6.37-15c-2.32-4.4-5.55-8.3-7.68-12.79-1.76-3.7-2.75-8.75.53-12s8.4-1.07,10.94,2.06c3.38,4.15,3.62,9.65,4,14.74a166.38,166.38,0,0,0,2.4,16.92c2.44,13,6.39,25.64,10.47,38.2.39,1.22,2.33.7,1.93-.53-3.86-11.87-7.6-23.81-10.06-36.06a162.92,162.92,0,0,1-2.74-18.53c-.44-5.32-.75-10.91-4-15.38-2.47-3.37-6.81-6-11.1-4.75-3.86,1.09-6,5-6,8.85-.09,5,2.89,9.5,5.53,13.48a84.31,84.31,0,0,1,8,15.24c5.15,12.78,8.31,26.19,11.87,39.47a1,1,0,0,0,1.92-.53Z"/>
    <path d="M302.68,46.28c-1.69,1.48-3.59,2.79-4.85,4.67-1.63,2.45-2.12,5.58-2.61,8.42C293.84,67.24,293,75.21,291.35,83c-.27,1.26,1.66,1.79,1.93.54,1.63-7.59,2.45-15.31,3.74-23,.48-2.82.86-6,2.43-8.47,1.14-1.81,3.06-3.06,4.64-4.44,1-.85-.45-2.26-1.41-1.42Z"/>
    <path d="M286.46,82.1c1.51-6.86,2.86-13.76,4.35-20.63a86.28,86.28,0,0,1,2.83-10.72,21.49,21.49,0,0,1,4-7.44,24.58,24.58,0,0,1,12.77-7.55,9.21,9.21,0,0,1,6.39.67,7,7,0,0,1,3.53,6.35c-.35,3.8-4.93,5.48-8.24,4.86-3.59-.67-6.6-2.93-10.4-2.41-1.27.18-.73,2.11.53,1.93,3.66-.51,7,2.29,10.56,2.58,3.25.27,7.19-1.2,8.78-4.21,2.7-5.13-1.72-11.15-7-11.91s-10.92,2.07-15,5.25a21.59,21.59,0,0,0-5.15,5.38,38.57,38.57,0,0,0-4.2,11c-2.25,8.69-3.74,17.59-5.68,26.36-.28,1.25,1.65,1.79,1.93.53Z"/>
  </g>
</svg>
