<svg class="Mouth" xmlns="http://www.w3.org/2000/svg" viewBox="0 0 512 512">
  <title>mouth6</title>
  <g id="Color">
    <path d="M274.76,226a2.22,2.22,0,0,0-.68-.87l-.64-.6a1.1,1.1,0,0,0-.47-.77,1.12,1.12,0,0,0-.44-.17,1,1,0,0,0-.93-.66,1,1,0,0,0-1,1c0,.15,0,.3,0,.46a2.11,2.11,0,0,0,0,.26.86.86,0,0,0,0,.17.19.19,0,0,1,0,.08l0,.2c0,.15-.07.3-.11.44a6.92,6.92,0,0,1-.28.88.36.36,0,0,1,0,.09c0,.07,0,0,0-.09a.58.58,0,0,1-.11.24c-.06.14-.13.28-.2.41a1,1,0,0,0,1.12,1.47l1.59-.55.83-.29a4.28,4.28,0,0,0,.86-.34A1.18,1.18,0,0,0,274.76,226Z" fill="#fff"/>
    <path d="M243.49,227.84l-.17-1.31-.36-2.7a1.09,1.09,0,0,0-.3-.71,1,1,0,0,0-.7-.29c-.49,0-1.08.44-1,1l0,.2a1.13,1.13,0,0,0-.77.46c0-.05.11-.13,0,0l-.12.13-.21.23-.24.21-.11.07a4.27,4.27,0,0,1-.51.3l-.07,0,0,0-.33.11a1,1,0,0,0-.74,1,1,1,0,0,0,.74,1,3.65,3.65,0,0,1,.55.13,1.31,1.31,0,0,1,.28.09l.09,0a3.46,3.46,0,0,1,.94.52l.14.1.11.1c.14.12.26.26.4.38a1.65,1.65,0,0,0,1.51.5,1.24,1.24,0,0,0,.83-.82A1.47,1.47,0,0,0,243.49,227.84Z" fill="#fff"/>
  </g>
  <g id="Draw">
    <path d="M235.12,227.09c12.68,8.5,30.21,7.89,42.75-.57,1.06-.71.06-2.45-1-1.73-12,8.09-28.6,8.7-40.73.57-1.07-.72-2.07,1-1,1.73Z"/>
    <path d="M233.91,224.52a1.14,1.14,0,0,0,.41-1.54,1.19,1.19,0,0,0-1.34-.54,2.76,2.76,0,0,0-1.34,1.25,5.72,5.72,0,0,0-.93,2.77,1,1,0,0,0,1,1,1,1,0,0,0,1-1l0-.3,0,.27a4.62,4.62,0,0,1,.31-1.16l-.1.24a5,5,0,0,1,.6-1l-.15.2a2.79,2.79,0,0,1,.46-.51l-.2.16.08-.05-.24.1.09,0-.27,0h.05l-.27,0h0l-.24-.1h0l-.2-.16,0,0-.16-.2,0,0-.1-.24a.13.13,0,0,1,0,.06l0-.26v0l0-.26v0l.1-.23v0l.15-.2v0l.2-.16h0a1,1,0,0,0-.36,1.37,1,1,0,0,0,1.37.36Z"/>
    <path d="M278,222.86c.17.1.33.21.49.32l-.21-.15a4.6,4.6,0,0,1,.83.82l-.16-.2a4.73,4.73,0,0,1,.61,1l-.1-.24a4.52,4.52,0,0,1,.3,1,1,1,0,0,0,.46.59,1,1,0,0,0,.77.1.93.93,0,0,0,.6-.46,1.14,1.14,0,0,0,.1-.77,5.66,5.66,0,0,0-2.68-3.81,1,1,0,0,0-1,1.73Z"/>
    <path d="M238.45,227.45l4.88-4.95-1.67-.44,1.13,5.71.27,1.37a4.61,4.61,0,0,0,.35,1.37,1.13,1.13,0,0,0,1.43.48,1.09,1.09,0,0,0,.47-1.57,1,1,0,0,0-1.13-.46h0a1,1,0,0,0,.53,1.93h.05l-1.13-.46,0,0-.13-.51v-.15l.7-.7-.05,0h.53l-.07,0,.44.25c.14.27.18.29.11,0l-.05-.24-.09-.48-.21-1.05-.4-2-.81-4.1a1,1,0,0,0-1.67-.45L237,226c-.91.92.51,2.33,1.41,1.41Z"/>
    <path d="M270.06,229.46l1.54-8-1.67.44,5.5,5.33c.92.9,2.34-.51,1.41-1.41l-5.5-5.33a1,1,0,0,0-1.67.44l-1.54,8a1,1,0,0,0,.7,1.23,1,1,0,0,0,1.23-.7Z"/>
  </g>
</svg>
