<svg class="Mouth" xmlns="http://www.w3.org/2000/svg" viewBox="0 0 512 512">
  <title>mouth7</title>
  <g id="Color">
    <path class="AntennaColor" d="M270.93,233.62c-.5-1-1.05-1.87-1.62-2.77-2-3.12-4.28-3.93-7.82-4.67-6.28-1.33-9,8.31-2.66,9.64l2.07.43v0c.4.63.8,1.27,1.16,1.93a11.23,11.23,0,0,1,.93,2.4.73.73,0,0,1-.08.09,4.17,4.17,0,0,0-1.39,2.75,1.35,1.35,0,0,0-.65.09,12.3,12.3,0,0,1-3.89,1.38,8,8,0,0,1-4.05-.65,1,1,0,0,0-1.16.15l-.28-.23c-1-.84-2.39.57-1.41,1.41,4.07,3.54,10.09,6.31,15.48,4.32a1,1,0,0,0,.66-.74,5.7,5.7,0,0,0,3.76-1.41,9.25,9.25,0,0,0,2.94-4.42,17.21,17.21,0,0,0,.35-3c.08-.37.16-.75.23-1.13A4.81,4.81,0,0,0,270.93,233.62Z" fill="#838bc5"/>
    <path d="M253.42,232.77c-.78-.4-1.54,0-2.36-.1l-.2,0a1,1,0,0,0-.68-1.18,16.11,16.11,0,0,1-5.76-2.66.94.94,0,0,0-1.45.68.89.89,0,0,0-.35.74,6.3,6.3,0,0,1,0,1,.87.87,0,0,0-.65-.27,1,1,0,0,0-1,1,2,2,0,0,0,1.54,1.79l.33.07.05,0c2.7,2,6.4,1.76,9.58,1.87.82,0,1.91.16,2.19-.86C254.91,234,254.08,233.1,253.42,232.77Z" fill="#fff"/>
    <path d="M269.77,218.34l-1.84,1.09a11.59,11.59,0,0,0-2.67.53l-.15,0a.81.81,0,0,0-.94-.25l-1.53.62a1,1,0,0,0-1.15-.54,10.07,10.07,0,0,1-2.83.49,1,1,0,0,0-.88.62,8.25,8.25,0,0,0-3.22-.71,3.15,3.15,0,0,0-1.8.15h-.06l0,0a1.24,1.24,0,0,0-1.06-.37,3.25,3.25,0,0,0-1.49.65,7.85,7.85,0,0,0-4.15-1.18.92.92,0,0,0-.29,0,30,30,0,0,0-3-.91,1,1,0,0,0-1.93.41,31.54,31.54,0,0,0,.12,4.56c.08.88,1.4,1.5,1.86.51s.93-2,1.4-3l1.2.42c.34.72.68,1.43,1,2.15,0,.72.71,1.41,1.45.89s1.43-1,2.16-1.45a14.58,14.58,0,0,1,1.39-.92c.12.61.13,1.59.18,1.94.12.8,1.17.87,1.67.44a8.93,8.93,0,0,0,1.93-2.36,6.3,6.3,0,0,1,3.64,1.71,1,1,0,0,0,1.7-.71,2.68,2.68,0,0,0-.09-.72.92.92,0,0,0,.3-.44L261,222a1.05,1.05,0,0,0,.27.44,9.65,9.65,0,0,0,1,1.73,1,1,0,0,0,1.83-.24,13.46,13.46,0,0,1,.74-1.85l2.11-.47c.19,0,.41-.08.62-.13l.12.36c.28.83.56,1.65.83,2.48a1,1,0,0,0,2-.27c.18-1.54.42-3.07.72-4.6A1,1,0,0,0,269.77,218.34Z" fill="#fff"/>
  </g>
  <g id="Draw">
    <path d="M256.53,219.19c-5.37,0-11.22-.18-15.9-3.13-1.09-.69-2.1,1-1,1.73,5,3.14,11.19,3.4,16.91,3.4a1,1,0,0,0,0-2Z"/>
    <path d="M239.62,216.06a9.9,9.9,0,0,0-5.57,7.68,10.88,10.88,0,0,0,4,9c5.24,4.43,12.47,4.24,18.93,4.35a1,1,0,0,0,0-2c-5.46-.1-11.54.17-16.32-2.9a9.47,9.47,0,0,1-4.62-7.49c-.08-3.12,2-5.55,4.62-6.94,1.14-.61.13-2.33-1-1.73Z"/>
    <path d="M256.47,221.19c5.47,0,11.16-.4,15.91-3.4,1.09-.69.09-2.42-1-1.73-4.46,2.82-9.77,3.13-14.9,3.13a1,1,0,0,0,0,2Z"/>
    <path d="M271.37,217.79c2.66,1.39,4.69,3.82,4.62,6.94a9.47,9.47,0,0,1-4.62,7.49c-4.8,3.07-10.85,2.8-16.32,2.9a1,1,0,0,0,0,2c6.46-.11,13.69.08,18.93-4.35a10.88,10.88,0,0,0,4-9,9.91,9.91,0,0,0-5.57-7.68c-1.13-.6-2.15,1.12-1,1.73Z"/>
    <g class="AntennaColor" data-name="AntennaColor">
      <path d="M259.12,235.29a8.4,8.4,0,0,1-1.16-1.15l-1.21,1.57a10.35,10.35,0,0,0,4.52,1.87,2,2,0,0,0,1.66-.57c.11-.12.19-.26.31-.37s-.1.09-.13.07l.27.12.51-1.86a12.38,12.38,0,0,1-3.48-.53l-.27,2c1.71-.18,3.34.53,5,.94,1.06.26,1.83-1.32.78-1.83a6.7,6.7,0,0,1-1.14-.84l-.24,1.83c.35-.14.7-.3,1.06-.42a2.42,2.42,0,0,1,.38-.09s-.34-.4-.34-.2a1,1,0,0,0,2,.26,5.1,5.1,0,0,0,.25-1.6c0-1.08-1.78-1.42-2-.27a1.65,1.65,0,0,0,2.28,2.09,9.7,9.7,0,0,0,1.72-.74l.75-.37c.2-.09,0,0,.14-.06s0,0,0,0a1,1,0,0,0,.5-1.86,6.41,6.41,0,0,0-2.83-1c-1.07-.07-2.33.71-2,1.94.27.94,1.4,1.26,2.24,1.42a10,10,0,0,0,2.51.25,1,1,0,0,0,.5-1.86,4.94,4.94,0,0,0-2.22-.81c-1.18,0-1.46,1.13-.82,1.94a1,1,0,0,0,1.41,0,1,1,0,0,0,0-1.42l.08,1-.59.46c-.22.09-.33,0,0,.06l.41.14a3.38,3.38,0,0,1,.74.36l.51-1.87a7.47,7.47,0,0,1-2.87-.42c-.22-.09-.09,0-.09,0a.66.66,0,0,1,.14.6.37.37,0,0,1-.27.27c0-.07.53,0,.63.05a5.67,5.67,0,0,1,1.52.65l.51-1.86a5.94,5.94,0,0,0-2.27.9,4.59,4.59,0,0,1-1.06.42c-.16,0,0,0-.06,0s-.13-.1,0,0a2.36,2.36,0,0,1,.39.34c.05.05,0,.17,0,0l-2-.27a3.29,3.29,0,0,1-.18,1.07l2,.27a1.67,1.67,0,0,0-1.54-1.8,5.11,5.11,0,0,0-2.09.58,1,1,0,0,0-.24,1.83,6.65,6.65,0,0,0,1.14.83l.77-1.82c-1.8-.45-3.61-1.21-5.5-1a1,1,0,0,0-.26,2,14.32,14.32,0,0,0,4,.6c.93,0,1.44-1.44.5-1.86a2.41,2.41,0,0,0-2.12-.21,2.18,2.18,0,0,0-.53.42,1.73,1.73,0,0,0-.17.21c0,.05-.2.16-.05.08s.23,0-.07,0-.32,0-.48-.07a6.83,6.83,0,0,1-1.13-.38,16.88,16.88,0,0,1-2.08-1.15c-1-.64-1.9.74-1.22,1.57a10.5,10.5,0,0,0,1.16,1.15c1,.82,2.4-.59,1.42-1.42Z" fill="#838bc5"/>
    </g>
    <g class="AntennaColor" data-name="AntennaColor">
      <path d="M257.74,236.21a7.09,7.09,0,0,1,.93.26l.22.08.1,0s.17.07,0,0l.12.06.23.11a8.13,8.13,0,0,1,.81.47l.19.13.11.09s.14.11,0,0,.07.06.1.09l.2.17a1,1,0,0,0,1.42-1.42,8.8,8.8,0,0,0-3.94-2,1,1,0,1,0-.53,1.93Z" fill="#838bc5"/>
    </g>
    <path d="M257.18,235.7c.25-1.43,1.69-2.42,2.93-3s2.9-.78,3.88.09a1,1,0,0,0,1.42,0,1,1,0,0,0,0-1.42,5.7,5.7,0,0,0-6.05-.52c-1.76.78-3.76,2.34-4.11,4.35a1,1,0,0,0,.7,1.23,1,1,0,0,0,1.23-.7Z"/>
    <path d="M265.2,232.07c3.89-2.33,6.79,2.7,7.56,5.8.93,3.71,0,7.59-3.31,9.74a15.84,15.84,0,0,1-10.83,2.07c-3.58-.54-7.94-3-8.88-6.76-.31-1.24-2.24-.71-1.93.54.85,3.42,4.25,6.2,7.44,7.41a18.14,18.14,0,0,0,11.4.2c3.14-1,6.22-2.88,7.57-6,1.56-3.6.93-7.77-.85-11.17s-5.62-5.7-9.18-3.57a1,1,0,0,0,1,1.73Z"/>
    <path d="M248.51,244.15c4.24.88,10,2.88,13.61-.75a4.15,4.15,0,0,0,.35-5.58,7.12,7.12,0,0,0-2.43-2.33c-1.05-.53-2.28-.41-3.32-.92s-2.17,1.16-1,1.73a11.3,11.3,0,0,0,2.68.72,3.82,3.82,0,0,1,2.1,1.47,3.16,3.16,0,0,1,.94,2.16,2.74,2.74,0,0,1-1.16,1.72,7.65,7.65,0,0,1-5.13,1.07,50.48,50.48,0,0,1-6.09-1.22c-1.26-.26-1.8,1.67-.54,1.93Z"/>
    <path d="M239.44,217.79a15.6,15.6,0,0,0,2,9.36,1,1,0,0,0,1.83-.24,23.23,23.23,0,0,1,3.26-6.29,1,1,0,0,0-.36-1.37,1,1,0,0,0-1.37.36,25.34,25.34,0,0,0-3.46,6.77l1.83-.24a13.8,13.8,0,0,1-1.69-8.35,1,1,0,0,0-1-1,1,1,0,0,0-1,1Z"/>
    <path d="M249.49,220.52a17,17,0,0,0,1.94,6,1,1,0,0,0,1.58.2,12.91,12.91,0,0,0,3.63-5.91,1,1,0,0,0-.69-1.23,1,1,0,0,0-1.23.69c-.07.25-.15.5-.24.74s-.09.25-.14.38-.05.11-.07.17c.07-.18,0,0,0,.05a14.37,14.37,0,0,1-.74,1.4c-.14.22-.28.43-.43.64l-.24.33c.06-.08,0,0,0,0l-.12.14a11.33,11.33,0,0,1-1.12,1.18l1.57.2c-.22-.4-.43-.81-.62-1.23l-.07-.19c0,.09,0,.08,0,0s-.07-.18-.11-.28-.17-.46-.24-.69c-.15-.44-.27-.88-.38-1.33-.05-.23-.1-.45-.14-.68l-.06-.34s-.06-.42,0-.22a1,1,0,0,0-1-1c-.48,0-1.07.44-1,1Z"/>
    <path d="M255.26,221a14.33,14.33,0,0,0,3.59,5.22,1,1,0,0,0,1.57-.2,12.69,12.69,0,0,0,1.81-5.4,1,1,0,0,0-1-1,1,1,0,0,0-1,1s-.05.41,0,.17c0,.09,0,.18,0,.26l-.12.61a10.89,10.89,0,0,1-.35,1.24c-.07.19-.14.38-.22.58s0,.05,0,0c0,.06-.05.11-.07.16s-.09.19-.13.29a10.23,10.23,0,0,1-.62,1.12l1.57-.2c-.33-.35-.66-.7-1-1.06-.16-.17-.32-.36-.48-.54l-.21-.26-.11-.13c-.09-.12.14.18,0,0a12.7,12.7,0,0,1-.76-1.15c-.12-.21-.22-.42-.32-.63s0-.07,0,0-.05-.13-.08-.19l-.12-.36a1,1,0,0,0-1.93.53Z"/>
    <path d="M265.09,221.26a11.07,11.07,0,0,1,2.72,5.4,1,1,0,0,0,1.23.7c1.62-.64,2.37-2.14,2.84-3.72a21.16,21.16,0,0,0,.88-5.76,1,1,0,0,0-2,0,19.6,19.6,0,0,1-.67,4.76,8.72,8.72,0,0,1-.63,1.76,2.18,2.18,0,0,1-.95,1l1.23.7a13.07,13.07,0,0,0-3.24-6.29c-.87-.94-2.28.47-1.41,1.42Z"/>
    <path d="M260.3,222.39a22.27,22.27,0,0,0,1.93,4.32,1,1,0,0,0,1.57.2,12.58,12.58,0,0,0,2.77-5.16,1,1,0,0,0-1.93-.53,11.34,11.34,0,0,1-.4,1.25,1.21,1.21,0,0,0-.05.14l0,.07c0-.12,0,0,0,.06l-.06.15-.3.6a10.74,10.74,0,0,1-.66,1.08l-.18.26-.12.16c-.09.12.1-.12,0,0s-.28.35-.43.52l1.57.2a20,20,0,0,1-1-1.95l-.11-.24,0-.12-.19-.48c-.14-.34-.26-.7-.38-1a1,1,0,1,0-1.92.53Z"/>
    <path d="M244.28,222.49l1.87,3.49a1,1,0,0,0,1.37.36,16.08,16.08,0,0,0,3.52-3.42,1,1,0,0,0-1.41-1.41c-.51.58-1,1.16-1.54,1.72-.27.28-.55.57-.85.83l-.22.2c-.06,0-.26.26-.08.06a1.8,1.8,0,0,1-.43.29l1.37.36L246,221.48a1,1,0,0,0-1.37-.36,1,1,0,0,0-.35,1.37Z"/>
    <path d="M242.66,232.64a.38.38,0,0,1,0,.43c0,.05,0,0,0-.07s.11-.18.17-.26.26-.42.4-.62l.78-1.18c.55-.79,1.11-1.58,1.68-2.35H244c.06.13.13.27.19.41s.05.12,0,0l.09.23c.11.28.21.57.31.85.22.64.42,1.28.64,1.92a13.71,13.71,0,0,0,1.6,3.58,1,1,0,0,0,1.37.35,1,1,0,0,0,.36-1.36,7.17,7.17,0,0,1-.46-.75c-.07-.13-.14-.26-.2-.39s-.07-.16-.1-.23l-.05-.11c-.08-.19-.23-.59-.33-.86s-.23-.64-.33-1a28.46,28.46,0,0,0-1.38-3.71,1,1,0,0,0-.86-.5,1,1,0,0,0-.86.5c-.69.92-1.35,1.85-2,2.8q-.48.69-.93,1.41a1.73,1.73,0,0,0-.19,1.86,1,1,0,0,0,1.73-1Z"/>
    <path d="M255.8,234.53a21.57,21.57,0,0,0-1.79-3.72,1,1,0,0,0-.86-.49,1.05,1.05,0,0,0-.87.49c-.44.63-.89,1.26-1.35,1.88l-.68.9-.08.1c.07-.08.07-.08,0,0l-.16.2-.38.48a1.1,1.1,0,0,0-.29.71,1,1,0,0,0,.29.71,1,1,0,0,0,1.41,0c1-1.3,2-2.62,3-4h-1.73c.33.54.64,1.1.92,1.66l.38.83c.11.25-.08-.19,0,.06,0,.08.07.16.1.23l.18.47a1,1,0,0,0,1.23.69,1,1,0,0,0,.69-1.23Z"/>
    <path d="M247.72,233.3l1-1,.52-.5a3.45,3.45,0,0,0,.28-.26l.05,0-.87.11,0,0,0,0a12.85,12.85,0,0,1,1.88,1.88,1,1,0,0,0,1.42,0,1,1,0,0,0,0-1.41,11.36,11.36,0,0,0-1-1.15q-.28-.27-.57-.51a3.29,3.29,0,0,0-.87-.62,1.27,1.27,0,0,0-1.39.3l-.61.58-1.26,1.2a1,1,0,0,0,0,1.41,1,1,0,0,0,1.42,0Z"/>
    <path d="M238.43,218.47a7.73,7.73,0,0,0-2.56,7.06,10.8,10.8,0,0,0,4.4,6.79,1,1,0,0,0,1.37-.36,6.21,6.21,0,0,0,1.34-2.55,3.73,3.73,0,0,0-.93-2.61,12.44,12.44,0,0,1-2-6.4,1,1,0,0,0-2-.27,11,11,0,0,0-.41,5.16c.24,1.47.82,3.65,2,4.67s2.73-.46,3.54-1.42a11.11,11.11,0,0,0,2.32-4.56l-1.83.24c.58,1.3-.72,2.54-1.54,3.38-.55.56-.2,1.81.71,1.7a2.19,2.19,0,0,0,1.57-.76c.35-.38.68-1.52,1.17-1.67l-1.23-.7a21.52,21.52,0,0,0,2.44,4.47c.39.55,1.38.75,1.72,0a11.32,11.32,0,0,0,1.09-4.39,1,1,0,0,0-1-1,7.05,7.05,0,0,0-1.84.17,1,1,0,0,0-.7.7,16.8,16.8,0,0,0,.25,4.35,1,1,0,0,0,1.86.5,29,29,0,0,0,2.63-6.55l-1.83.24a4.07,4.07,0,0,1,.69,2.18c0,.7-.56,1.21-.61,1.92-.07,1.28,1,2.16,2,2.78l.77-1.83a3.47,3.47,0,0,1-2-1l-.44,1.67a4,4,0,0,1,3.85.85c.73.68,1.68,2,2.79,1,.89-.79.44-2.17-.2-3-.92-1.12-2.67-1.32-3.44-2.53l-.86,1.51c2.65-.19,3.23-2.65,5-4.11L255,224a11,11,0,0,0,1.2,1.52c.49.52,1.16.87,1.64,1.38.29.31.49-.27.08.43a8.18,8.18,0,0,1-.74,1,15.57,15.57,0,0,1-1.65,1.7l1.67.44c-.57-1.51,2.53-3.56.58-5a2,2,0,0,0-1.85-.28c-.87.27-1.6,1.54-2.44,1.6a1,1,0,0,0-.26,2l2,.63a1,1,0,0,0,1.23-.7,6.23,6.23,0,0,0-.15-3.15l-.69,1.23c.28-.11,1,1.61,1.17,1.84a8.23,8.23,0,0,0,1.58,1.54l-.16-1.21-.36.63a1,1,0,0,0,.36,1.36,1.63,1.63,0,0,0,.89.24c1.3,0,1.26-1.89,0-2l-1-.08v2a18.4,18.4,0,0,0,5.29-1.09,1,1,0,0,0,.6-1.46l-2.11-3.6a1,1,0,0,0-1.73,0l-1.7,3.09a1,1,0,0,0,.86,1.51c1.08.07,2.06-.48,3.17-.36a5,5,0,0,1,3.09,1.56l1-1.67c-.33-.09-2.15-.38-2.27-.68s.95-1.13,1.16-1.38a8.73,8.73,0,0,0,1.77-3.35l-1.82.24a4.57,4.57,0,0,1,.77,2.05c0,.35.1,1.63-.18,1.81l.77-.1c-.1,0,0-.72.05-.77l-1.23.7c2.16.68,4.7,2.08,6.35-.2s1.91-5.45,2.07-8l-1.71.71a5.81,5.81,0,0,1,1.95,5.22c-.33,2-1.66,3.7-2.85,5.28l1.57-.2a14.9,14.9,0,0,1-1.7-2l-.6,1.47c3-1.14,3.72-4.18,4.07-7.09h-2a24.85,24.85,0,0,1-1.09,5.53l1.67-.44-.29-.37c-.79-1-2.2.42-1.41,1.42l.29.36c.49.63,1.46.21,1.67-.44a26.5,26.5,0,0,0,1.16-6.06c.09-1.3-1.85-1.24-2,0-.23,1.88-.55,4.4-2.6,5.16a1,1,0,0,0-.6,1.47,18.73,18.73,0,0,0,2,2.43,1,1,0,0,0,1.57-.21c1.51-2,3-4.14,3.17-6.73a7.76,7.76,0,0,0-2.59-6.19,1,1,0,0,0-1.7.7,18.6,18.6,0,0,1-1.31,6.16c-.39.9-.72,1.31-1.7,1.06s-1.93-.61-2.88-.91a1,1,0,0,0-1.23.7,2.77,2.77,0,0,0,.45,2.66,1.37,1.37,0,0,0,2.08.18c1.51-1.55.72-4.75-.29-6.31a1,1,0,0,0-1.83.24,6.64,6.64,0,0,1-1.65,2.9c-.57.58-1.3,1.1-1.47,2-.41,2.17,2.4,2.59,3.86,3a1,1,0,0,0,1-1.67,6.88,6.88,0,0,0-5.58-2.15,15.5,15.5,0,0,1-2.09.36l.87,1.5,1.7-3.09h-1.73l2.11,3.59.6-1.46a16.93,16.93,0,0,1-4.76,1,1,1,0,0,0,0,2l1,.08v-2l.12,0,.36,1.36.36-.62a1,1,0,0,0-.16-1.21,6.83,6.83,0,0,1-1.49-1.45c-.34-.51-.46-1.13-.82-1.63a2,2,0,0,0-2.39-.82,1,1,0,0,0-.69,1.23,4.12,4.12,0,0,1,.14,2.09l1.23-.7-2-.63-.27,2a3,3,0,0,0,1.61-.56c.24-.18.45-.39.68-.59a1.43,1.43,0,0,1,.44-.37c.24-.18.23-.15,0,.09-.16.57-.68,1.08-.89,1.65a2.79,2.79,0,0,0,0,2,1,1,0,0,0,1.67.44,15.77,15.77,0,0,0,2.21-2.41,3.91,3.91,0,0,0,1.05-2,2,2,0,0,0-.93-1.56,10.68,10.68,0,0,1-2.55-2.47,1,1,0,0,0-1.57-.2c-1.15.94-2,3.41-3.61,3.53a1,1,0,0,0-.87,1.5,4.8,4.8,0,0,0,1.67,1.56c.59.34,2.42.92,2.13,1.86l.46-.6-.24.12.78-.1c-.46-.13-1-1-1.41-1.28a5.8,5.8,0,0,0-1.6-.83,5.87,5.87,0,0,0-3.59,0,1,1,0,0,0-.45,1.67,5.33,5.33,0,0,0,2.91,1.51,1,1,0,0,0,.77-1.83c-.69-.43-1-.64-.72-1.4a3.88,3.88,0,0,0,.36-1.57,6.33,6.33,0,0,0-1-3.19,1,1,0,0,0-1.83.24,26.56,26.56,0,0,1-2.43,6.07l1.87.51-.17-1.93a8.08,8.08,0,0,1-.15-1.89l-.7.7a5.7,5.7,0,0,1,1.31-.1l-1-1a8.74,8.74,0,0,1-.81,3.38h1.72a19.5,19.5,0,0,1-2.23-4,1,1,0,0,0-1.23-.7,2.46,2.46,0,0,0-1.32.92c-.17.22-.61,1.41-.89,1.44l.7,1.71c1.59-1.62,2.88-3.51,1.86-5.8a1,1,0,0,0-1.83.24,9.22,9.22,0,0,1-1.16,2.79c-.39.62-1.26,2-2.05,2.18l.77.1c-1-.48-1.46-2.9-1.58-3.88a9.44,9.44,0,0,1,.42-4l-2-.26a18.8,18.8,0,0,0,1.1,5.46,13.15,13.15,0,0,0,1.35,2.25c.34.5.59.84.3,1.45a12.47,12.47,0,0,1-.93,1.39l1.37-.36c-3.28-2.53-5.14-7.65-1.43-10.7,1-.82-.43-2.23-1.42-1.42Z"/>
    <path d="M265.87,237.07a5.32,5.32,0,0,1-.08,7.67c-.31.28.28.27.44.25a2.5,2.5,0,0,0,1.3-.44,5.74,5.74,0,0,0,1.89-4,5.51,5.51,0,0,0-1.72-4.07c-.23-.22-1,.05-1.24.14s-.8.28-.59.49Z"/>
    <path d="M251.72,240.24a29.84,29.84,0,0,0,9-.07,1,1,0,0,0,.7-1.23,1,1,0,0,0-1.23-.69,26.75,26.75,0,0,1-7.94.06,1,1,0,0,0-1.23.7,1,1,0,0,0,.7,1.23Z"/>
    <path d="M254.78,232.6l.13-.28,1.67,1c.29-1.18,2-1.54,3-1.79a13,13,0,0,1,2.41-.35,8.79,8.79,0,0,0,2.23-.21,12.25,12.25,0,0,0,1.85-1,6.81,6.81,0,0,1,2.07-.68,7.12,7.12,0,0,1,1.14-.08,2.19,2.19,0,0,0,.51,0l.25,0-.24-.54c-.11.06-.16.74-.17.81a1.75,1.75,0,0,0,.22.84l1.13-1.47a15.12,15.12,0,0,1-3.22-.84l-.26,2,.73,0c1.29.06,1.29-1.94,0-2l-.73,0c-1.2-.05-1.26,1.59-.27,2a16.23,16.23,0,0,0,3.22.84,1,1,0,0,0,1.13-1.47c.14.25.08.17.15-.11a2.63,2.63,0,0,0,.06-.49,1.39,1.39,0,0,0-.39-1,3.34,3.34,0,0,0-2.38-.52,8.76,8.76,0,0,0-2.78.51c-.88.32-1.59.88-2.43,1.25a9.76,9.76,0,0,1-2.82.28,15.3,15.3,0,0,0-2.9.62c-1.48.48-3,1.27-3.45,2.91a1,1,0,0,0,1.67,1,1.51,1.51,0,0,0,.39-1.66,1,1,0,0,0-1.23-.7,1,1,0,0,0-.7,1.23Z"/>
  </g>
</svg>
