<svg class="Mouth" xmlns="http://www.w3.org/2000/svg" viewBox="0 0 512 512">
  <title>mouth1</title>
  <g id="Mouth_Color">
    <path d="M241.84,227.41a5.5,5.5,0,0,1-.54-.79l0,0c0-.05,0-.11,0-.16v0a.35.35,0,0,1,0-.06,1,1,0,0,0-.7-1.23h-.06v0a1,1,0,0,0-1-1c-.49,0-1.07.45-1,1a10.66,10.66,0,0,1,.08,1.26q0,.32,0,.63a2.45,2.45,0,0,1,0,.27c0,.05,0,.1,0,.14a12,12,0,0,1-.25,1.19c-.06.2-.13.4-.2.6a2.6,2.6,0,0,1-.1.25l0,.06a.61.61,0,0,1-.05.12,1,1,0,0,0,.16,1.21,1,1,0,0,0,1.21.16l.31-.16,0,0h0l.17-.06a4.23,4.23,0,0,1,.72-.19l.13,0h0l.35,0a5.11,5.11,0,0,1,.78.05,1,1,0,0,0,1-1A3.9,3.9,0,0,0,241.84,227.41Z" fill="#fff"/>
    <path d="M273.78,227.62a5.34,5.34,0,0,1-.09-.53s0-.16,0-.19,0-.2,0-.31a8.7,8.7,0,0,1,0-1.25l0-.27s0-.17,0-.19c0-.2.08-.41.13-.61a1.06,1.06,0,0,0-.31-1,.91.91,0,0,0-.61-.52,1,1,0,0,0-1.23.69c-.12.45-.26.9-.41,1.33-.08.21-.16.42-.25.62,0,0-.06.14-.06.15l-.15.32a15.44,15.44,0,0,1-1.39,2.35,1,1,0,0,0,.36,1.36,4.15,4.15,0,0,0,2.23.88,1.77,1.77,0,0,0,2-1.54A3.73,3.73,0,0,0,273.78,227.62Z" fill="#fff"/>
  </g>
  <g id="Mouth_Draw">
    <path d="M237.27,232.35a112,112,0,0,1,36.9-.48c1.26.2,1.81-1.73.54-1.93a115,115,0,0,0-38,.48c-1.26.23-.73,2.16.53,1.93Z"/>
    <path d="M233.63,228.93a7.39,7.39,0,0,0-.68,3.36,3.68,3.68,0,0,0,1.59,2.81,1,1,0,0,0,1.37-.35,1,1,0,0,0-.36-1.37l-.12-.08c.11.08.12.09,0,0s-.19-.14-.2-.21q.12.16,0,0l-.08-.12a.69.69,0,0,1-.14-.25c0,.13.06.14,0,0a.78.78,0,0,1,0-.14l-.06-.21a1,1,0,0,1-.06-.29c0,.14,0,.16,0,.05s0-.1,0-.15v-.31s0-.42,0-.21c0-.22.08-.43.13-.65.13-.49.31-1,.49-1.44a1,1,0,0,0-.7-1.23,1,1,0,0,0-1.23.7Z"/>
    <path d="M253.9,234.77a10.08,10.08,0,0,1,1.09-.24c.08,0,.26-.05.08,0l.3,0,.56,0a10.51,10.51,0,0,1,1.12,0,2.94,2.94,0,0,1,.51,0c-.22-.06,0,0,.08,0l.34.06a1,1,0,0,0,1.23-.7,1,1,0,0,0-.7-1.23,11.44,11.44,0,0,0-5.14.19,1,1,0,1,0,.53,1.93Z"/>
    <path d="M238.38,231.27a32.24,32.24,0,0,1,1.65-8l-1.67.44a9.28,9.28,0,0,1,2.28,3.24,27.4,27.4,0,0,1,1.47,3.78c.39,1.23,2.32.7,1.93-.53a31.1,31.1,0,0,0-1.67-4.26,11.1,11.1,0,0,0-2.59-3.65,1,1,0,0,0-1.67.45,34.55,34.55,0,0,0-1.73,8.54,1,1,0,0,0,1,1,1,1,0,0,0,1-1Z"/>
    <path d="M269.37,230.41a33.26,33.26,0,0,1,4.32-8.19l-1.68-.44a40.4,40.4,0,0,1,1,8.91c.06,1.28,2.06,1.29,2,0a42.8,42.8,0,0,0-1-9.44,1,1,0,0,0-1.67-.44,36.58,36.58,0,0,0-4.83,9.07,1,1,0,0,0,.7,1.23,1,1,0,0,0,1.23-.7Z"/>
    <path d="M276.91,229.55l.12.21s0,.07.05.1c.09.19-.06-.16,0,0a3.88,3.88,0,0,1,.14.45,1.18,1.18,0,0,0,.06.27s0-.24,0-.09a.49.49,0,0,1,0,.12,2.8,2.8,0,0,1,0,.5c0,.05,0,.31,0,.14s0,.08,0,.13a3.92,3.92,0,0,1-.13.49.54.54,0,0,0,0,.11s.09-.19,0-.07l-.11.21a1.76,1.76,0,0,1-.14.23c0,.07-.22.3,0,.07a1,1,0,0,0-.3.7,1,1,0,0,0,1.71.71,4.7,4.7,0,0,0,1-2.66,4.45,4.45,0,0,0-.61-2.59,1,1,0,0,0-1.37-.36,1,1,0,0,0-.36,1.37Z"/>
  </g>
</svg>
