<svg class="Mouth" xmlns="http://www.w3.org/2000/svg" viewBox="0 0 512 512">
  <title>mouth8</title>
  <g id="Color">
    <path d="M275.71,226.18a2.78,2.78,0,0,0-1.33-2.36,1,1,0,0,0-1.07.08c-1.51-.28-3.34.83-4.67,1.31-5,1.81-10.37,2-15.63,2.26a6.42,6.42,0,0,0-3.58-1.6c-1.1-.14-2.19-.27-3.29-.39l-1.65-.15h-.09a5.14,5.14,0,0,0-2.15-.31c-2.86-2.82-8.16-.35-8.39,3.78a21.27,21.27,0,0,0,.56,5.9,5.05,5.05,0,0,0,6.15,3.49,7.68,7.68,0,0,0,1.67-.64c.34-.25.67-.51,1-.77l.19-.06c.32-.06.63-.11.95-.15,1.68-.27,3.36-.48,5.05-.69a5.91,5.91,0,0,0,4-2.07.84.84,0,0,0,.45.11h.41l.17,0a1,1,0,0,0,1.07-.06,37.1,37.1,0,0,1,12.78,2c1.34.45,2.78,1.35,4.23,1.36,2.25,0,2.83-2.06,3-4a1,1,0,0,0,.24-.4A10.25,10.25,0,0,0,275.71,226.18Z" fill="#fff"/>
  </g>
  <g id="Draw">
    <path d="M254.89,225.74a38.38,38.38,0,0,1-10.13-1.15c-2.33-.65-4.79-1.93-7.21-2.06-2.14-.12-3.16,2-3.88,3.7a14.56,14.56,0,0,0-1.13,6.22,7.86,7.86,0,0,0,1.66,5,5.55,5.55,0,0,0,5,1.49c4.77-.59,9.33-2.49,14.07-3.3s9.34-.54,13.62,1.67c1.79.94,3.68,1.86,5.76,1.64a5,5,0,0,0,4.08-3.13,14.33,14.33,0,0,0,1-5.83,13,13,0,0,0-1.39-6.32c-1.84-3-6.14-.38-8.38.66-3.95,1.84-8.79,1.68-13.07,1.46-1.29-.07-1.28,1.93,0,2a46.82,46.82,0,0,0,11.09-.61c2.38-.45,4.41-2,6.73-2.68a2.86,2.86,0,0,1,1.38-.19c.77.21,1,1.38,1.14,2a15,15,0,0,1,.32,6.21c-.28,1.66-.78,3.83-2.64,4.32s-3.8-.67-5.43-1.5c-7.29-3.72-15.22-1.79-22.71.22a41,41,0,0,1-5.85,1.37c-2.1.24-3.58-.59-4.13-2.68a11.3,11.3,0,0,1,.16-5.6,12.42,12.42,0,0,1,1.1-2.76,3.32,3.32,0,0,1,.75-1.09c.5-.37,1-.21,1.59-.06,2.2.56,4.31,1.41,6.5,2a42,42,0,0,0,10,1,1,1,0,0,0,0-2Z"/>
    <path d="M233.88,228.45l4.18,4.93a1,1,0,0,0,1.41,0,46.78,46.78,0,0,0,3.38-4l-1.57.2a30.74,30.74,0,0,0,3.63,3.85,1,1,0,0,0,1.41,0l1.41-1.4.71-.7.28-.28c.24-.18.17-.21-.19-.08a31.1,31.1,0,0,0,3.1,2.3,1,1,0,0,0,1.21-.16l3.41-2.75c1-.8-.42-2.21-1.42-1.41s-2.26,1.84-3.4,2.75l1.21-.16-2.17-1.61c-.52-.39-1.12-1-1.82-1s-1.28.65-1.77,1.14l-2,2h1.41a33,33,0,0,1-3.63-3.85c-.44-.56-1.23-.25-1.57.2a42.82,42.82,0,0,1-3.06,3.65h1.41L235.3,227c-.83-1-2.24.43-1.42,1.41Z"/>
    <path d="M275.87,226.43l-4.17,4.93h1.41a42.39,42.39,0,0,1-3.06-3.64c-.34-.46-1.13-.76-1.57-.21a32.28,32.28,0,0,1-3.63,3.85h1.41l-2-2c-.49-.49-1-1.14-1.77-1.13s-1.29.62-1.82,1l-2.17,1.62h1c-1.1-.83-2.4-1.33-3.5-2.15s-2,1-1,1.73,2.4,1.32,3.5,2.14a1,1,0,0,0,1,0,35,35,0,0,0,3.1-2.3c-.21.19-.45-.28-.05.22a7.82,7.82,0,0,0,.71.7l1.55,1.54a1,1,0,0,0,1.41,0,31.37,31.37,0,0,0,3.63-3.84l-1.57-.2a46.48,46.48,0,0,0,3.38,4.05,1,1,0,0,0,1.41,0l4.17-4.93c.83-1-.58-2.4-1.41-1.42Z"/>
    <path d="M234.3,219.14a6.15,6.15,0,0,0-3,3.48,1,1,0,0,0,.1.77,1.07,1.07,0,0,0,.6.46,1,1,0,0,0,1.23-.7c0-.1.07-.19.11-.29l-.1.24a5.14,5.14,0,0,1,.66-1.13l-.16.2a5.46,5.46,0,0,1,.93-.93l-.21.16a5.75,5.75,0,0,1,.85-.53,1,1,0,0,0-1-1.73Z"/>
    <path d="M275.1,220a5.62,5.62,0,0,1,.55.15l.27.1c.06,0,.24.12,0,0l.11.05a5.34,5.34,0,0,1,1,.59l.12.09-.05,0,.22.19a5.29,5.29,0,0,1,.41.41l.19.21.09.11c-.05-.05-.13-.17,0,0s.23.33.34.51a1,1,0,1,0,1.72-1,7,7,0,0,0-4.38-3.24,1,1,0,1,0-.53,1.93Z"/>
    <path d="M252.87,240.28a11.8,11.8,0,0,1,6-.86,1,1,0,0,0,1-1,1,1,0,0,0-1-1,13.35,13.35,0,0,0-6.55.93,1,1,0,0,0,.54,1.93Z"/>
  </g>
</svg>
