<svg class="Mouth" xmlns="http://www.w3.org/2000/svg" viewBox="0 0 512 512">
  <title>mouth5</title>
  <g id="Color">
    <path d="M277.36,220.11c-.08-.16-.15-.33-.23-.49l0-.07v0l-.09-.21a12,12,0,0,1-.59-2.13,1,1,0,0,0-1-.73,1,1,0,0,0-1,.73c-.52,1.3-1,2.6-1.55,3.89a1,1,0,0,0,.7,1.23h.08a1.56,1.56,0,0,0,1.35,0,3.71,3.71,0,0,0,.56.29,1.59,1.59,0,0,0,2.11-1A2.15,2.15,0,0,0,277.36,220.11Z" fill="#fff"/>
  </g>
  <g id="Draw">
    <path d="M278.4,221.78a127.16,127.16,0,0,0-24.52.52c-7.2,1-14.33,3-20.35,7.18-1.05.73-.05,2.46,1,1.72,6-4.14,13-6.13,20.18-7a129.19,129.19,0,0,1,23.68-.42c1.29.08,1.28-1.92,0-2Z"/>
    <path d="M229.08,228.69a6.8,6.8,0,0,0,3.39,7.2,1,1,0,0,0,1-1.73,6.24,6.24,0,0,1-.73-.45c.12.08,0,0,0,0l-.16-.14-.31-.3L232,233l0,0-.12-.17a6.26,6.26,0,0,1-.44-.74l-.09-.2h0c0-.13-.1-.26-.14-.4a5.72,5.72,0,0,1-.2-.84c0-.19,0,.1,0,0a1.49,1.49,0,0,0,0-.21c0-.14,0-.29,0-.43s0-.25,0-.38,0-.18,0,0c0-.08,0-.16,0-.25a1,1,0,1,0-1.93-.53Z"/>
    <path d="M281.07,220.79c0,.12.05.24.07.36s0,.12,0,0c0,.06,0,.13,0,.19,0,.25,0,.49,0,.74s0,.5-.05.75c0-.22,0,.15,0,.19a3,3,0,0,1-.07.32,5.86,5.86,0,0,1-1.18,2.48,1,1,0,0,0,.36,1.37,1,1,0,0,0,1.36-.36,8.08,8.08,0,0,0,1.42-6.59,1,1,0,0,0-1.23-.69,1,1,0,0,0-.7,1.23Z"/>
    <path d="M254.9,230.44l.54-.27.09,0a2.83,2.83,0,0,1,.31-.11,6.64,6.64,0,0,1,1.08-.3l.28-.05.12,0c-.13,0-.14,0,0,0a5.09,5.09,0,0,1,.56,0,7,7,0,0,1,1.21,0,1,1,0,0,0,1-1,1,1,0,0,0-1-1,8.66,8.66,0,0,0-5.18,1.06,1,1,0,0,0-.36,1.36,1,1,0,0,0,1.37.36Z"/>
    <path d="M272.72,222.62a36.82,36.82,0,0,0,2-3.92c.53-1.31,1-2.66,1.39-4l-1.83.23a17.15,17.15,0,0,1,2.67,7.31,1,1,0,0,0,1,1,1,1,0,0,0,1-1,19.18,19.18,0,0,0-2.95-8.31,1,1,0,0,0-1.82.23c-.42,1.3-.83,2.6-1.34,3.87a32.45,32.45,0,0,1-1.81,3.58c-.63,1.12,1.1,2.13,1.72,1Z"/>
  </g>
</svg>
