<svg class="Mouth" xmlns="http://www.w3.org/2000/svg" viewBox="0 0 512 512">
  <title>mouth3</title>
  <g id="Color">
    <path d="M268.3,225.09l-7,0a.69.69,0,0,0-.24.05l-.34-.27c-.81-.62-1.89.57-1.37,1.37a12,12,0,0,1,1.82,8c-.12,1,1.44,1.36,1.86.51l.08-.15c0,.06.11-.08,0,0s.05,0,.11-.07l.13,0h0c.06,0,.22,0,.08,0,.23,0,.12,0,.31.15.65.48,1.44-.17,1.5-.85a1,1,0,0,0,1-1l0-1.58a1,1,0,0,0-.29-.71,1,1,0,0,0-.3-.2l3.24-3.42A1,1,0,0,0,268.3,225.09Z" fill="#fff"/>
    <path d="M273.05,231.61a2.14,2.14,0,0,0-.08-.44l0-.11a1.09,1.09,0,0,0-.1-.77,1,1,0,0,0-1.37-.36,1.57,1.57,0,0,0-.24.21,2.07,2.07,0,0,0-.41.07,1.74,1.74,0,0,0-1.07.84,1.88,1.88,0,0,0-.21.92,2.52,2.52,0,0,0,.25.94,2.6,2.6,0,0,0,.5.68,3.1,3.1,0,0,0,.68.51,1,1,0,0,0,.89.05,1,1,0,0,0,.58-.65l.24-1.16A.94.94,0,0,0,273.05,231.61Z" fill="#fff"/>
  </g>
  <g id="Draw">
    <path d="M237.43,235.83a12.63,12.63,0,0,1,8.36-3.08c3.21,0,6.18,1.47,9.26,2.17a53,53,0,0,0,10.14.79L276,236a1,1,0,0,0,0-2l-11.27-.31c-3.82-.11-7.56-.18-11.25-1.29-3.11-.92-6.15-1.95-9.44-1.56a14.93,14.93,0,0,0-8,3.56c-1,.85.44,2.26,1.42,1.42Z"/>
    <path d="M234.61,232.56a5.46,5.46,0,0,0,2.55,5.14,1,1,0,0,0,1-1.73l-.26-.17.05,0a.58.58,0,0,0-.12-.1,4.16,4.16,0,0,1-.42-.42l-.1-.11s-.12-.14,0,0,0,0,0-.05l-.09-.13a3.2,3.2,0,0,1-.29-.51l-.06-.12c-.09-.19.06.16,0,0a2.67,2.67,0,0,1-.09-.26,3.8,3.8,0,0,1-.15-.58.66.66,0,0,0,0-.15c0,.07,0,.22,0,.05s0-.19,0-.28a3.33,3.33,0,0,1,0-.63,1,1,0,0,0-.3-.7,1,1,0,0,0-.7-.3,1,1,0,0,0-1,1Z"/>
    <path d="M276.24,233.67c0,.12,0,.1,0,0,0,0,0,.09,0,.14a1.49,1.49,0,0,1,0,.21,4.26,4.26,0,0,1,0,.5,4.18,4.18,0,0,1,0,.5,1.49,1.49,0,0,1,0,.21s0,.1,0,.14c0-.13,0-.16,0-.09-.06.32-.12.63-.21.94s-.11.32-.17.47-.06.26,0,0a2.06,2.06,0,0,1-.12.26,1,1,0,0,0,.36,1.37,1,1,0,0,0,1.36-.36,8,8,0,0,0,.7-4.79,1,1,0,0,0-.46-.59,1,1,0,0,0-.77-.11,1.06,1.06,0,0,0-.6.46,1.21,1.21,0,0,0-.1.77Z"/>
    <path d="M261.58,234.68a4.46,4.46,0,0,0,.83-4.27,9.47,9.47,0,0,0-1-2.21l-.64-1c-.11-.16-.63-.83-.54-1s.41-.25.52-.31a5,5,0,0,1,1-.37,7.23,7.23,0,0,1,2.32-.15,12.08,12.08,0,0,1,2.44.53c.41.13.83.27,1.24.42l.61.23.35.14q-.09,0-.15-.09l-.14-.5c.14-.26.13-.29,0-.09l-.24.26c-.12.12-.25.24-.37.37-.3.28-.6.56-.89.85a7.2,7.2,0,0,0-1.32,1.87,7.54,7.54,0,0,0-.62,4.58,1,1,0,0,0,1.23.7,1,1,0,0,0,.7-1.23,5.4,5.4,0,0,1,1.74-4.81c.67-.66,1.84-1.46,1.79-2.5-.06-1.23-1.65-1.54-2.58-1.86a11.88,11.88,0,0,0-6.45-.69,5.19,5.19,0,0,0-2.68,1.32c-.9,1-.42,2.2.19,3.22a12.56,12.56,0,0,1,1.56,2.91,2.48,2.48,0,0,1-.31,2.33c-.86.95.55,2.37,1.41,1.41Z"/>
    <path d="M270.91,233.54l-.39-2.55c0-.1,0-.2,0-.3s0,0,0,0v-.14l-.08.3a.62.62,0,0,1-.18.18c.1-.07.06,0,0,0s.09,0,.12,0l.59-.14.34-.06.13,0c.05,0,.23-.06,0,0a3,3,0,0,1,.6-.05c.2,0,.41,0,.61,0a1.93,1.93,0,0,0,.24,0s-.22,0-.06,0l.1,0c.13,0-.16-.1-.05,0s.08.06.09.05-.14-.17,0,0,0-.07,0-.07a.93.93,0,0,1,.05.1s-.06-.24,0-.08l0,.08c0,.08,0-.1,0-.12a1,1,0,0,0,0,.24s0,.14,0,0,0,0,0,.05l-.06.21,0,.09c-.06.18,0-.06,0-.05s-.21.39-.22.42a3.24,3.24,0,0,0-.64,2.84,1.07,1.07,0,0,0,.46.6,1,1,0,0,0,.77.1,1,1,0,0,0,.7-1.23s-.11-.24-.08-.27,0,.23,0,.06.05-.22,0-.07,0,0,0,0a2.27,2.27,0,0,1,.09-.28c0-.12-.08.16,0,0,.19-.36.42-.7.59-1.07a2.55,2.55,0,0,0-.14-2.87c-.74-.8-2-.71-2.94-.6a11.43,11.43,0,0,0-1.65.31,1.59,1.59,0,0,0-1.25,1.49,5.16,5.16,0,0,0,.13,1l.13.82.26,1.68a1,1,0,0,0,1.23.7,1,1,0,0,0,.69-1.23Z"/>
    <path d="M251.36,239.11a11.08,11.08,0,0,0,5.13.66,1,1,0,0,0,1-1c0-.5-.45-1.07-1-1a11.61,11.61,0,0,1-2.43,0h.05l-.17,0-.26-.05-.61-.13a10.12,10.12,0,0,1-1.18-.38,1,1,0,0,0-1.23.7,1,1,0,0,0,.7,1.23Z"/>
  </g>
</svg>
