<svg class="Mouth" xmlns="http://www.w3.org/2000/svg" viewBox="0 0 512 512">
  <title>mouth4</title>
  <g id="Color">
    <path class="AntennaColor" d="M267.75,242.54a.48.48,0,0,0,0-.12c0-.18-.08-.34-.11-.52s-.05-.22-.07-.33c-.08-.35-.14-.7-.23-1a.74.74,0,0,0,.06-.4c0-.09,0-.17,0-.26h0a1.06,1.06,0,0,0,0-.19,8.86,8.86,0,0,0-2-4.47h0c-.06-.07-.1-.14-.15-.21a1.25,1.25,0,0,0-.24-.18.91.91,0,0,0,.08-1.08,8.31,8.31,0,0,0-5.52-3.88,1,1,0,0,0-.95.28,4.52,4.52,0,0,0-.53.06,1,1,0,0,0-1.23-.23,6.23,6.23,0,0,0-1.66,1.34s0-.07-.07-.1a3.68,3.68,0,0,0-1-.82,1,1,0,0,0-.83-.55l-2.17-.21a.92.92,0,0,0-.85.49,1,1,0,0,0-1.65.74,2.08,2.08,0,0,1-.05.36l-.05,0-.22.3a2.49,2.49,0,0,0-1.36,1.17,1,1,0,0,0,.29,1.31c0,.1-.05.19-.06.29a.78.78,0,0,0,.55.87c.08,2.51.24,5,.54,7.51a16,16,0,0,0,2,6.68,7.84,7.84,0,0,0,4.57,3.54,6.72,6.72,0,0,0,2,.15.89.89,0,0,0,.76.39c4.26,0,8.81-2.36,10-6.73A10.06,10.06,0,0,0,267.75,242.54Z" fill="#838bc5"/>
    <path d="M273.86,221.48q-2-1.28-4.14-2.36a.84.84,0,0,0-.48-.93,23.27,23.27,0,0,0-5.11-1.71A16.84,16.84,0,0,0,255,215.3c-.44,0-.87,0-1.31,0a22.33,22.33,0,0,0-9.86,2.86,42.86,42.86,0,0,0-4.55,3.15A6.29,6.29,0,0,0,237,224a1,1,0,0,0-.29.41c-.33.82-.65,1.63-1,2.45-.12.27-.24.54-.37.81a1,1,0,0,0-.11.47c-.27,1.11,1.5,1.54,1.95.4v0a1.1,1.1,0,0,0,.78,0,1,1,0,0,0,1.46-.26l.65-1.25a.81.81,0,0,0,.88-1c0-.2-.05-.4-.08-.6a.86.86,0,0,0,.87-.07,11.85,11.85,0,0,0,2.35-2h0a1,1,0,0,0,1.83-.24c.19-.7.34-1.42.46-2.14l.8-.25a2.76,2.76,0,0,0-.14,1.56c.21,1.22,1.5,2.15,2.6,1.29a2.14,2.14,0,0,0,.68-1,.66.66,0,0,0,.08-.21,1,1,0,0,0,1.26-.37c.19-.29.36-.58.54-.87a1.08,1.08,0,0,0,1.27.39,1,1,0,0,0,1.4-.25,1,1,0,0,0,1.84.28.86.86,0,0,0,1-.16,1,1,0,0,0,1,0,1,1,0,0,0,1.51-.22l.17-.27c.41.53,1.27.72,1.62,0a1.16,1.16,0,0,0,1-.12h0a1,1,0,0,0,1.7.42,1,1,0,0,0,1.07.08l.18.95a34.18,34.18,0,0,1,2.12.46l0,.21a1,1,0,0,0,1.14.71,1,1,0,0,0,1.81.2l0,0,.06,0a2.61,2.61,0,0,0,.32.68c.71,1.06,2.44.06,1.73-1l-.05-.19A1,1,0,0,0,273.86,221.48Z" fill="#fff"/>
    <path d="M247.46,238.11h0l0-.11c-.06-.44-.14-.86-.24-1.29l-.16-.87a.87.87,0,0,0-.18-.36c-.15-.45-.31-.9-.5-1.34-.4-.9-1.94-.45-1.87.51l.05.59A1.64,1.64,0,0,0,244,235a1,1,0,0,0-.73.09l-.34-.09-.19-.13a.91.91,0,0,0-.63-.11l-.18,0h0a.84.84,0,0,0-.41.08h0a1,1,0,0,0-.47.39l-.06.1a1.88,1.88,0,0,0-1.8,1.29,2.19,2.19,0,0,0,.61,1.34,1,1,0,0,0,1.09.21,1.26,1.26,0,0,0,.31-.22c1.11.34,2.22.68,3.34,1a5.86,5.86,0,0,0,1.42.28,1.1,1.1,0,0,0,.72.18,1,1,0,0,0,.87-1C247.49,238.29,247.47,238.2,247.46,238.11Z" fill="#fff"/>
    <path d="M275.5,234.73a2.66,2.66,0,0,0-1.53-.32,1,1,0,0,0-.83-.49,11.13,11.13,0,0,1-3-.24l-.65-.29a.82.82,0,0,0-.87.18,1,1,0,0,0-.48-.14,1,1,0,0,0-.55.19,1,1,0,0,0-.22.08,1,1,0,0,0-.46,1.13,9.68,9.68,0,0,0,1.61,3.42,1.18,1.18,0,0,0,1,.48,3.7,3.7,0,0,0,.93-.08,9.47,9.47,0,0,0,1.05-.26,4.67,4.67,0,0,0,.95-.47,1.84,1.84,0,0,0,1.77-.46,1.56,1.56,0,0,0,.36-.64l.69-.26a1,1,0,0,0,.72-.84A1,1,0,0,0,275.5,234.73Z" fill="#fff"/>
  </g>
  <g id="Draw">
    <path d="M278.56,231.25c0,7.28-9.53,9.41-22.49,9.41s-21.85-2.38-21.85-9.66,8.88-16.71,21.85-16.71S278.56,224,278.56,231.25Z" fill="none" stroke="#000" stroke-miterlimit="10" stroke-width="2"/>
    <path d="M246.15,216a26.79,26.79,0,0,0,0,3.47,12.75,12.75,0,0,0,.46,3,3.05,3.05,0,0,0,1.69,2,3.4,3.4,0,0,0,2.86-.33c.78-.41,1.49-1.23,2.38-1.38a4.06,4.06,0,0,1,2.11.68,3.72,3.72,0,0,0,2.53.38,2.89,2.89,0,0,0,1.85-1.65,9.67,9.67,0,0,0,.65-3.15c.12-1.29.2-2.59.23-3.9a1,1,0,0,0-2,0q0,1.83-.21,3.66a6.42,6.42,0,0,1-.54,2.68c-.42.67-1.05.45-1.66.18a7.22,7.22,0,0,0-2.66-.89,4.81,4.81,0,0,0-2.83,1.11c-.54.38-1.67,1.28-2.26.53a5.47,5.47,0,0,1-.58-2.68,27.18,27.18,0,0,1-.06-3.72c.07-1.29-1.93-1.28-2,0Z"/>
    <path d="M238.87,221.53a24.36,24.36,0,0,1,.61,3.06q.11.78.15,1.56a3.75,3.75,0,0,1,0,.58c0-.17-.06.15,0,0s.15-.05,0,0h-1.05a11.76,11.76,0,0,0-1.57,0,4.15,4.15,0,0,0-2.74,1.26,1,1,0,0,0,1.41,1.41,3,3,0,0,1,2.4-.72c1.12,0,2.52.17,3.24-.9.6-.9.3-2.24.17-3.24a27.21,27.21,0,0,0-.68-3.6,1,1,0,0,0-1.93.53Z"/>
    <path d="M246.67,221.41a7.53,7.53,0,0,1-.56.57,3.88,3.88,0,0,1-.31.26c.09-.07,0,0,0,0l-.17.11-.34.19s-.12.05,0,0l-.19.06a2.49,2.49,0,0,1-.37.09c.12,0,0,0-.05,0h-.3a6.45,6.45,0,0,0-2,0,6.28,6.28,0,0,0-1.74.86,1,1,0,1,0,1,1.72c.26-.16.52-.33.8-.47a1.23,1.23,0,0,1,.26-.12l.2-.06.14,0h.45l.47,0a4.26,4.26,0,0,0,1.07,0,5.31,5.31,0,0,0,3.11-1.86,1,1,0,0,0-1.42-1.42Z"/>
    <path d="M266,217.8l-.63,2.22a8.67,8.67,0,0,0-.44,2,2.26,2.26,0,0,0,.7,1.84,3.7,3.7,0,0,0,1.09.54,7.1,7.1,0,0,1,.83.41,6,6,0,0,0,4.29.94,3.41,3.41,0,0,0,2.6-2.94,1,1,0,0,0-1-1,1,1,0,0,0-1,1c0-.16-.05.15-.06.19h0l-.11.19a1.42,1.42,0,0,1-.33.35c.1-.08-.15.09-.15.09s-.28.15-.14.09a2.38,2.38,0,0,1-.63.15,5.57,5.57,0,0,1-2.81-1c-.27-.13-.55-.26-.84-.37l-.34-.13s-.11,0-.09,0h0c0,.1,0,.1,0,0l0-.09c0,.11,0,.1,0,0s0-.2,0-.31c0,.17,0-.11,0-.15.24-1.16.65-2.31,1-3.45a1,1,0,0,0-.7-1.23,1,1,0,0,0-1.23.7Z"/>
    <path d="M259.55,222.35a4.53,4.53,0,0,0,3.17-.36c.23-.09.46-.18.69-.25l.31-.08.2,0h.69a6.88,6.88,0,0,1,.79.15,1,1,0,0,0,1.23-.7,1,1,0,0,0-.7-1.23,8.4,8.4,0,0,0-1.73-.25,5,5,0,0,0-1.62.3c-.46.17-.91.37-1.38.5a1.57,1.57,0,0,1-1.11,0,1,1,0,0,0-1.23.7,1,1,0,0,0,.69,1.23Z"/>
    <path d="M267.53,234.52a3.19,3.19,0,0,1,.42-.3l.22-.13c-.2.1.1,0,.14,0s.06,0,0,0h.32c-.11,0,.16,0,.19,0l.28.07c.19.06.39.14.58.22l.09,0,.22.11c.15.06,0-.05-.07-.1l0-.09c0,.11,0,.1,0,0a4.87,4.87,0,0,1,0,.54l-.12,2.44a3,3,0,0,0,.1,1.49,1.06,1.06,0,0,0,2-.22,1,1,0,1,0-1.93-.53v0l.69-.7,0,0H271l.59.46,0-.07.14.51c0-.41,0-.84.05-1.25l.07-1.26c0-.88.26-2-.43-2.66a3.42,3.42,0,0,0-1.21-.67,5.09,5.09,0,0,0-1.09-.33,3.14,3.14,0,0,0-1.43,0,3.39,3.39,0,0,0-1.13.63,1.09,1.09,0,0,0-.46.6,1,1,0,0,0,.1.77,1,1,0,0,0,1.37.36Z"/>
    <path d="M271.52,236.05a3.15,3.15,0,0,0,1.33.13,7.5,7.5,0,0,0,.81-.11L274,236l.2,0,.19,0c.1,0,.21,0,.32,0h.08l.21.06c.24.08-.14-.09,0,0l.1.06c.09.06.07,0-.05-.05l.09.08c.07.08.06.06,0-.06a1.13,1.13,0,0,0,.12.21,1,1,0,0,0,1.37.36,1,1,0,0,0,.36-1.37,2.59,2.59,0,0,0-2.47-1.3,11.33,11.33,0,0,0-1.52.21.39.39,0,0,1-.15,0c.06,0,.16,0,0,0l-.31,0h-.19s-.2,0-.06,0h-.05l-.19-.06a1,1,0,1,0-.53,1.93Z"/>
    <path d="M247.14,233.9a4.93,4.93,0,0,1,3.78-3.8,4.15,4.15,0,0,1,4.31,2.1c.62,1.12,2.35.11,1.72-1a6.21,6.21,0,0,0-6.4-3.05,6.88,6.88,0,0,0-5.34,5.23c-.28,1.26,1.65,1.79,1.93.53Z"/>
    <path d="M235.18,229.74a8.28,8.28,0,0,0,2.71,6.66l1-1.67a2.68,2.68,0,0,1-2.2-2.73c.21-1.48,1.54-1.63,2.75-1.86a3.21,3.21,0,0,0,2.9-2.43c.14-.6,0-1.38.67-1.69a22.19,22.19,0,0,1,2.68-.9c.44-.14,1.72-.8,2.16-.44s.17,1.21.07,1.59a14.31,14.31,0,0,1-2.27,4.45,6.25,6.25,0,0,1-1.39,1.75,4.48,4.48,0,0,1-2.16.56,9.55,9.55,0,0,0-2.25.45,1.49,1.49,0,0,1-.89.19,1.72,1.72,0,0,1-.9-.92.61.61,0,0,1,.05-.64.37.37,0,0,1,.23-.14c.08,0-.08,0,0,0,.27.16.48.75.68,1a2.33,2.33,0,0,0,.89.69,3.15,3.15,0,0,0,2.63-.17,6.45,6.45,0,0,0,.95-.62,3,3,0,0,1,.48-.31.62.62,0,0,1,.25-.11c-.2-.06-.21,0,0,.07v-1.73a12.89,12.89,0,0,1-3.6,1c-.3,0-.6.06-.9.07-.13,0-.42-.09-.38,0-.09-.29.52-.53.69-.6a6,6,0,0,0,2.62-1.56,4.4,4.4,0,0,0,.81-1.45,4.57,4.57,0,0,0,.16-.82s.1-.59,0-.41c.12-.16.61-.28.79-.35l.93-.4c.29-.13.58-.26.87-.37.12,0,.56-.09.64-.17s.1,0-.06-.11-.06,0-.07.15a2.48,2.48,0,0,0-.24.49,5.88,5.88,0,0,0-.59,1.47c-.1.48-.12,1-.26,1.45s-.48.64-.94.82c-.64.25-1.29.47-1.93.71l-1,.35-.48.18c-.29,0-.32.09-.09.14l.46.6c-.14-.44.92-1.17,1.2-1.36.63-.41,1.31-.75,1.92-1.21a3.64,3.64,0,0,0,1.59-4,1,1,0,0,0-1.47-.6,3.84,3.84,0,0,0-1.22,5.49,1,1,0,0,0,1.37.36A4.68,4.68,0,0,0,247,226c-.19-1-1.65-.86-1.93,0a7.77,7.77,0,0,1-2.81,3.86,1,1,0,0,0-.36,1.37,1,1,0,0,0,1.37.36,10.13,10.13,0,0,0,3.73-5.05h-1.93a2.58,2.58,0,0,1-1,2.48l1.37.36a1.85,1.85,0,0,1,.5-2.75l-1.47-.6c.54,1.55-1.8,2.39-2.76,3.06s-2.93,2.64-1.7,3.94c.59.61,1.39.38,2.08.13l2.9-1.06a4.15,4.15,0,0,0,2.09-1.29,4.24,4.24,0,0,0,.66-1.92,6.56,6.56,0,0,1,.66-1.91,2.38,2.38,0,0,0,.17-2.21c-.93-1.74-3.05-.65-4.34-.1a5.35,5.35,0,0,0-2.07,1.09c-.56.64-.33,1.43-.64,2.16-.62,1.48-2.41,1.29-3.43,2.34a2.36,2.36,0,0,0-.64,2.21,2.13,2.13,0,0,0,2.12,1.41,13.42,13.42,0,0,0,5.7-1.3c.77-.33.53-1.34,0-1.73a2.31,2.31,0,0,0-2.73.35c-.51.37-1.44,1.17-2,.48s-1-1.66-2.14-1.68a2.43,2.43,0,0,0-2.22,1.56,3.27,3.27,0,0,0,3.63,4.09c.47-.12.9-.34,1.37-.45s1-.14,1.55-.21a5.49,5.49,0,0,0,2.93-1,11.44,11.44,0,0,0,2-2.58,18.44,18.44,0,0,0,1.67-3c.68-1.6,1.39-4.21-.42-5.37-1.07-.68-2.27-.25-3.36.1a29.1,29.1,0,0,0-3.44,1.19,2.9,2.9,0,0,0-1.59,2.43,2,2,0,0,1-.34,1.08,1.87,1.87,0,0,1-1,.39,7.71,7.71,0,0,0-2.8.84,3.9,3.9,0,0,0-1.63,2.64,4.63,4.63,0,0,0,3.62,5,1,1,0,0,0,1-1.67,6.32,6.32,0,0,1-2.13-5.24c.09-1.28-1.91-1.28-2,0Z"/>
    <path d="M250.62,226.16l2.54-1.33a2.49,2.49,0,0,1,1.81-.49c.35.06.69.17,1,.21a9.09,9.09,0,0,0,4.19-.89,11.84,11.84,0,0,1,2.39-.75c1.14-.18,1.11.16,1.74.88.95,1.08,2.94,1.63,4.3,1.92a8.05,8.05,0,0,0,4.56-.3c.62-.22.63-.35,1.09.25.24.33.47.68.68,1a11.94,11.94,0,0,1,1.17,2.57c.42,1.34.91,3.42-1.11,3.37-1.42,0-2.6-.28-3.75.73-.84.73.09,1.79,1,1.67l1.93-.28,1-.14c.47.09.65-.11.56-.58l1.26-1a24,24,0,0,0-7.64-1.73,11.51,11.51,0,0,0-1.85.13,1.62,1.62,0,0,1-1.65-.49,20.2,20.2,0,0,0-2.93-2.2,7.82,7.82,0,0,0-6.6-.86,3,3,0,0,1-1.87.23c-.51-.13-1-.37-1.5-.48a12.6,12.6,0,0,0-4.11,0l.86,1.5,1.47-2.85-1.83-.77-.54,1.44a1,1,0,0,0,1.47,1.13,7.73,7.73,0,0,0,2.2-2.25l-1.57.2.06.36c-.09,1.08,1.35,1.23,1.86.5l1.25-1.74-1.83-.77-.42,2a1,1,0,0,0,1.93.53l.5-1.33c.32-.87-.76-1.52-1.47-1.13a6.79,6.79,0,0,0-2.2,1.93c-.6.79.58,2,1.37,1.37l1.24-.92-1.37-1.37-.87,1.13,1.73,1a16.79,16.79,0,0,1,2.14-2.47l-1.71-.71-.14,2a1,1,0,0,0,1.71.7,8.14,8.14,0,0,0,1.26-1.95l-1.83-.77-.76,2.31c-.36,1.11,1.24,1.71,1.83.77l1.23-2-1.83-.77a8.29,8.29,0,0,1-.65,1.91l1.73,1a7.58,7.58,0,0,1,1.1-1.73l-1.67-1a1.82,1.82,0,0,1-1.45,1.7c-1.27.32-.71,2.14.53,1.93a5.65,5.65,0,0,0,4.46-4c.24-.78-.75-1.66-1.47-1.13a3.63,3.63,0,0,0-1.51,3.8,1,1,0,0,0,1.67.44,13.92,13.92,0,0,0,2-2.72l-1.72-1-1.24,2.81c-.41.94.8,2.18,1.57,1.21l3.17-4-1.67-1a16.41,16.41,0,0,1-1.1,2.68c-.5,1,.76,2.08,1.57,1.21l2.61-2.78L260.89,223l-3.13,4.1a1,1,0,0,0,1.13,1.47,13.2,13.2,0,0,0,5.42-3.81,1,1,0,0,0-1.41-1.42,9.88,9.88,0,0,0-1.71,1.94c-.64.92.84,2.09,1.57,1.21a4,4,0,0,0,1-3,1,1,0,0,0-1.71-.71c-1.06.91-2,2.88-.33,3.8s2.92-1.18,3.45-2.41a1,1,0,0,0-1.57-1.21,8,8,0,0,0-2.37,3.87,1,1,0,0,0,1.23,1.23,2.35,2.35,0,0,0,1.39-.74,1,1,0,0,0-1.41-1.42l-.51.23,1.23,1.23a6.16,6.16,0,0,1,1.85-3l-1.57-1.21a9.73,9.73,0,0,0-.64,1.24c-.19.78.32.09.67-.21l-1.71-.7a2,2,0,0,1-.41,1.62l1.57,1.22a8.14,8.14,0,0,1,1.4-1.53l-1.41-1.42a11.12,11.12,0,0,1-4.54,3.3l1.13,1.47,3.12-4.1c.69-.9-.8-2-1.57-1.21l-2.6,2.79,1.57,1.21a20.08,20.08,0,0,0,1.3-3.15c.29-.91-1-1.78-1.67-1l-3.17,4,1.57,1.21,1.23-2.81c.51-1.15-1.09-2.16-1.72-1a11.59,11.59,0,0,1-1.67,2.32l1.67.44a1.51,1.51,0,0,1,.59-1.54l-1.47-1.13a3.67,3.67,0,0,1-3.06,2.58l.53,1.93a3.73,3.73,0,0,0,2.85-3.1c.12-.86-.94-1.82-1.67-1a9.59,9.59,0,0,0-1.42,2.14c-.55,1.15,1.17,2.17,1.73,1a10.81,10.81,0,0,0,.85-2.39,1,1,0,0,0-1.83-.77l-1.23,2,1.83.77L256,225c.35-1.06-1.35-1.81-1.82-.77a6.65,6.65,0,0,1-.95,1.55l1.7.71.14-2a1,1,0,0,0-1.71-.71,21,21,0,0,0-2.45,2.88c-.75,1.07,1,2,1.73,1l.86-1.13c.6-.78-.58-2-1.36-1.37l-1.24.93,1.37,1.36a4.49,4.49,0,0,1,1.48-1.22l-1.47-1.13-.5,1.34,1.93.53.42-2a1,1,0,0,0-1.83-.77l-1.24,1.74,1.86.51a2.2,2.2,0,0,0-.65-1.77,1,1,0,0,0-1.57.2,5.26,5.26,0,0,1-1.48,1.53l1.47,1.13.54-1.44c.4-1.06-1.31-1.77-1.83-.77l-1.47,2.85c-.31.6.06,1.61.87,1.51a10.46,10.46,0,0,1,4,0,5.92,5.92,0,0,0,2.87.47c1.25-.24,2.25-.81,3.56-.64a8.21,8.21,0,0,1,3.69,1.67,28.76,28.76,0,0,0,2.6,2.1c.91.51,1.9.13,2.87.05,2.74-.23,5.46.75,8,1.64a1,1,0,0,0,1.27-1c.35-2.62-4.87-1.09-6-.93l1,1.67c.63-.55,1.92-.11,2.67-.13a3.34,3.34,0,0,0,2-.62c1.23-.93,1.33-2.6,1.07-4a13.35,13.35,0,0,0-2.39-5.37c-.49-.66-1-1.41-1.86-1.54s-1.81.61-2.75.76a7.15,7.15,0,0,1-3.24-.35,8.38,8.38,0,0,1-1.7-.68,3.51,3.51,0,0,1-1-1c-1.22-1.37-2.93-1.14-4.56-.62-2,.64-3.51,1.53-5.62,1.09s-4,1.18-5.69,2.08c-1.13.6-.12,2.32,1,1.72Z"/>
    <path d="M262.32,225.22a10.3,10.3,0,0,1-1.2,1,2.23,2.23,0,0,0-.77,1.53,1.77,1.77,0,0,0,.63,1.45,2,2,0,0,0,1.76.25c2-.5,3.37-2.38,4-4.27.31-.89-.74-1.48-1.47-1.13a3.57,3.57,0,0,0-1.89,2.49,1.82,1.82,0,0,0,.26,1.65c.62.61,1.34.27,2-.05,1-.48,1.94-1.28,1.65-2.52a1.56,1.56,0,0,0-1.41-1.18,2.1,2.1,0,0,0-1.56.66,4.49,4.49,0,0,0-1.14,3.15,1.91,1.91,0,0,0,2.24,2.13,3.4,3.4,0,0,0,2.66-1.63c.58-1,.59-2.49-.64-3a2.9,2.9,0,0,0-3.33,4.14,2.69,2.69,0,0,0,2.73,1.38,2.65,2.65,0,0,0,2.09-2.09,2.16,2.16,0,0,0-.27-1.57,1.43,1.43,0,0,0-2-.51,2.76,2.76,0,0,0-.93,3.07,2.83,2.83,0,0,0,2.6,1.92c1.52,0,1.72-1.79,1.59-3-.07-.7-.22-1.71-.89-2.11a1.87,1.87,0,0,0-1.93.28,2.72,2.72,0,0,0-1.06,3.18,2.75,2.75,0,0,0,3,1.75,2.8,2.8,0,0,0,2.27-2.6,1,1,0,0,0-1-1,1,1,0,0,0-1,1,.73.73,0,0,1-1.17.47.65.65,0,0,1-.24-.69.78.78,0,0,1,.23-.39c.09-.07.11-.05.19-.13s.2,0-.05,0l-.44-.26c-.08-.11-.08-.09,0,.09s.06.21.08.31a2.57,2.57,0,0,1,.06.55,2.81,2.81,0,0,1-.07.82,0,0,0,0,0,0-.05l.44-.25c-.2.08-.56-.22-.66-.44a.77.77,0,0,1-.07-.45,2.58,2.58,0,0,1,.08-.26c.12-.24.2-.13,0-.07h-.53c.31,0-.25-.17-.15-.16s0,.23,0,.16a1,1,0,0,1-.32.41.45.45,0,0,1-.39,0,.89.89,0,0,1-.48-.51.88.88,0,0,1,.31-.9c.08-.06.65-.37.68-.26a.39.39,0,0,1-.29-.26v.07c.07-.1-.09.24-.07.19a1.4,1.4,0,0,1-1,.74h-.35v0c.14.26.18.29.11.09s0-.6.05-.9a2.48,2.48,0,0,1,.41-1c.28-.36.15,0-.19-.32s0-.33-.35-.13a4.3,4.3,0,0,1-.48.24c-.07,0-.39.1-.2.12l.51.14-.08,0,.36.35,0-.07.14.51a1.6,1.6,0,0,1,1-1.63l-1.47-1.13a4.66,4.66,0,0,1-2,2.66,1.69,1.69,0,0,1-.28.12,2.89,2.89,0,0,0-.49.13c0-.07.32.22.3.19.12.14-.12.16,0,.06s.27-.24.41-.34a5,5,0,0,0,1-.8,1,1,0,0,0-1.42-1.41Z"/>
    <path d="M267.68,230.11a7.57,7.57,0,0,1,.15.84,1.92,1.92,0,0,0,.55,1,1.48,1.48,0,0,0,2.21-.27,1.68,1.68,0,0,0-.27-2.21,2.84,2.84,0,0,0-2-.65c-1.29,0-2.72.63-2.85,2.06a2,2,0,0,0,3,1.94,1.51,1.51,0,0,0,.55-2.4,3.1,3.1,0,0,0-2.27-.88,1,1,0,0,0-.7,1.7,3.55,3.55,0,0,0,4.44.16,5.24,5.24,0,0,0,.84-.72,2.56,2.56,0,0,1,.66-.62.43.43,0,0,1,.45,0s.13.14.14.16,0-.08,0,.07,0,.23,0,.12a1,1,0,0,0,1.86.51,1.48,1.48,0,0,0-.33-1.95,2.57,2.57,0,0,0-1.85-.45,1.89,1.89,0,0,0-1.74,2.56,2.55,2.55,0,0,0,3.18,1.38c.73-.17,1.52-.54,1.56-1.4a1.59,1.59,0,0,0-1.37-1.54,1,1,0,1,0-.54,1.93l.21.05c-.22-.07-.33-.27-.31-.61l.26-.44c.18-.07.21-.09.1-.05l-.19.07-.25.07a1.72,1.72,0,0,1-.5,0l-.12,0c-.09-.06-.11-.06-.06,0h0s-.15-.14-.05-.05c-.05-.09-.06-.11,0-.05s0,.05,0,0,0,0,0,0,0,.06,0,0l0,.08c-.2.12-.08.06.07,0-.14,0,.18,0,.17,0h.21s.1.05.1,0l-.15-.14a1,1,0,0,1,0-.5l1.87.5a2.46,2.46,0,0,0-4.12-1.78c-.56.45-.91,1-1.57,1.32a1.45,1.45,0,0,1-1.5-.15l-.71,1.71c.28,0,.73.06.83.3l-.14-.51v.12l.14-.5-.06.12c.08,0,.06,0-.05,0,.09,0,.07,0-.05,0a.12.12,0,0,1,.1,0l0,0a.09.09,0,0,1,0,.08l0-.1c0,.09,0,.08,0-.05a.16.16,0,0,1,0,.13c.07-.1.06-.11,0,0l.13-.13c-.2.15.27-.1.05,0,.11,0,.22-.06.33-.09l.15,0c-.1,0-.09,0,0,0h.39a1.76,1.76,0,0,1,.41.06c.23.08,0,0,.06,0s-.39,0,.09-.45c.18-.15.82,0,.75.08a1.48,1.48,0,0,0,0-.32,2.52,2.52,0,0,0-.12-.62,1,1,0,1,0-1.93.53Z"/>
    <path d="M272.69,231.55c.41.19.73.51,1.12.72a2.22,2.22,0,0,0,1.81.23,1.7,1.7,0,0,0,1.12-1.5,1.37,1.37,0,0,0-1.3-1.49,1.15,1.15,0,0,0-1.12,1,6.77,6.77,0,0,0,0,.78,1.89,1.89,0,0,0,.23,1.17,1.15,1.15,0,0,0,1.47.27,1.69,1.69,0,0,0,.71-1.67,4.63,4.63,0,0,0-.27-1.33,4.82,4.82,0,0,0-2-2.45,1,1,0,1,0-1,1.73l.24.15s0,0,.09.06-.18-.14-.05,0a3.73,3.73,0,0,1,.35.34l.09.1s.13.17,0,0,0,0,0,0a.83.83,0,0,1,.08.12,3.3,3.3,0,0,1,.26.45l.05.1c.05.11-.09-.22,0-.06s.05.16.08.24a1.81,1.81,0,0,1,.12.51s0-.24,0-.1a.57.57,0,0,1,0,.13,2.18,2.18,0,0,1,0,.25s0,.22,0,0,0,0,0,0,.11-.23,0-.11a.81.81,0,0,1,1.07-.25l.49.86v-1a.65.65,0,0,0,0-.14c0-.08,0-.06,0,0a.55.55,0,0,1-.07.25l-.36.36c-.5.17-.85.09-1.05-.25.05.08,0,0-.05-.13,0,.16,0-.28,0-.11s0,.05,0-.14a.24.24,0,0,1,0,.08s.13-.28,0-.08,0,.05.08-.1l-.07.06.14-.1.1,0-.11,0,.12,0c-.25,0,.19.06,0,0l-.18-.05.07,0-.11-.06a2.92,2.92,0,0,1-.37-.24,4.79,4.79,0,0,0-.75-.48,1.14,1.14,0,0,0-.77-.1,1.06,1.06,0,0,0-.6.46,1,1,0,0,0,.36,1.37Z"/>
    <path d="M274.32,227.52c0-.11-.1.28,0,0a1.21,1.21,0,0,1,.18-.28,2.3,2.3,0,0,0,.34-.66,1.6,1.6,0,0,0-.34-1.59c-.74-.84-2.25.29-1.58,1.21a18.24,18.24,0,0,1,1.75,2.94l1.37-1.36-2-1.44a4.67,4.67,0,0,0-1.12-.7,3.15,3.15,0,0,0-1.18-.15,10.9,10.9,0,0,1-4.32-1.06c-.79-.32-1.61.78-1.13,1.47A7.41,7.41,0,0,0,273,229a1,1,0,0,0,.27-2,6.91,6.91,0,0,0-2.67-.33,1,1,0,0,0-1,1,1,1,0,0,0,1,1h.26c1.29,0,1.29-2,0-2h-.26v2a5.11,5.11,0,0,1,2.13.26l.27-2a5.39,5.39,0,0,1-4.94-2.14l-1.13,1.47a12.89,12.89,0,0,0,4.39,1.14,3.15,3.15,0,0,1,1,0,3.85,3.85,0,0,1,.78.56l1.95,1.43a1,1,0,0,0,1.21-.15,1,1,0,0,0,.16-1.21,18.1,18.1,0,0,0-1.75-2.94l-1.57,1.21c-.05-.51-.11-.63-.16-.36,0-.06,0,0-.07.08s-.16.21-.23.32a1.87,1.87,0,0,0-.3,1.1,1,1,0,0,0,1,1,1,1,0,0,0,1-1Z"/>
    <path d="M274,226.75l.05-.05-1.57-1.21c-.08.12-.17.23-.25.34l.15-.2a11.24,11.24,0,0,1-2,2l.2-.16c-.29.23-.6.44-.91.64a1,1,0,0,0-.36,1.37,1,1,0,0,0,1.37.36,12.62,12.62,0,0,0,3.51-3.32,1,1,0,0,0,.1-.77,1,1,0,0,0-.36-.52,1,1,0,0,0-1.31.08l-.06,0a1,1,0,0,0,0,1.42,1,1,0,0,0,1.42,0Z"/>
    <path class="AntennaColor" data-name="AntennaColor" d="M267.68,240l-.27-.51a.84.84,0,0,0-.86-.49.81.81,0,0,0-.22-.07,1,1,0,0,0-1.65,0,.89.89,0,0,0-.58.08c-.38-.7-1.28.44-1.67,1-.11,0-.22-1-.33-1-.07-.12-.13-.23-.21-.35-.46-.62-1.64-.69-1.83.24,0,.12-2.06.23-2.08.34h1.73a1,1,0,0,0-1.51-.08,1,1,0,0,0-.62.17.84.84,0,0,0-1-.05l-.08,0a1.07,1.07,0,0,0-1.59-.27l-.12,0a1,1,0,0,0-1.45-.14,1.09,1.09,0,0,0-.71,0,1.06,1.06,0,0,0-1.52.05,1.84,1.84,0,0,0-.22-.17.38.38,0,0,0,0-.1,1.22,1.22,0,0,0-2.08-.07,1.74,1.74,0,0,0-.2,1.16,1,1,0,0,0-.26.85l.34,2.25c.18.89,1.1.88,1.61.39a4.26,4.26,0,0,1,1.7-.91.93.93,0,0,0,.29,0,1.11,1.11,0,0,0,.54,0,1,1,0,0,0,.66.3,1,1,0,0,0,1.75.07,1.32,1.32,0,0,0,.34,0,1.09,1.09,0,0,0,.44.1.84.84,0,0,0,.89.25A3.09,3.09,0,0,0,260,242c0-.06,0-.11,0-.17h0a1,1,0,0,0,1.23-.05.94.94,0,0,0,1.08.13l0,.06a1,1,0,0,0,1.61.12,1.1,1.1,0,0,0,.82-.21.94.94,0,0,0,1.11-.11l.16,0a1,1,0,0,0,.83-.18.93.93,0,0,0,.37-.26A1.08,1.08,0,0,0,267.68,240Z" fill="#838bc5"/>
    <path d="M248.58,239.08c-.12-1.12-.22-2.24-.36-3.37a2.35,2.35,0,0,0-1.83-2.33c-1.1-.19-2,.38-3,.51a8.07,8.07,0,0,1-3.12-.38,1,1,0,0,0-1.23.69l-.87,2.73c-.39,1.23,1.54,1.76,1.93.53l.87-2.72-1.23.69a11.21,11.21,0,0,0,2.88.49,7.44,7.44,0,0,0,1.49-.13c.49-.09.94-.28,1.42-.41a1.38,1.38,0,0,1,.46-.06c-.07,0,.22.1.15,0,.11.1.14.53.16.74l.32,3a1,1,0,0,0,2,0Z"/>
    <path class="AntennaColor" data-name="AntennaColor" d="M262.52,235.79c-6.44,0-6.45,10,0,10S269,235.79,262.52,235.79Z" fill="#838bc5"/>
    <path d="M256.18,231.05c1.36-1.57,3.9-1.07,5.46-.09a10.57,10.57,0,0,1,3.19,3.33,17.25,17.25,0,0,1,2.66,9.12c0,3.47-1.65,7.15-4.94,8.64-3.12,1.43-7.55,1.67-10.38-.53a9.8,9.8,0,0,1-3.21-5.6c-.53-2.41,0-4.87-.42-7.29-.24-1.27-2.16-.73-1.93.53a24,24,0,0,1,.1,4.32,13.36,13.36,0,0,0,.53,3.77,11.46,11.46,0,0,0,3.48,5.65c3.34,2.78,8.36,2.7,12.23,1.14,8.41-3.38,7.64-14.88,3.33-21.18a11.35,11.35,0,0,0-4.77-4.21c-2.15-.9-5.11-.9-6.74,1-.84,1,.57,2.39,1.41,1.42Z"/>
    <path d="M256.15,237.58a13.27,13.27,0,0,1,1.26,5.67,1,1,0,0,0,2,0,15.31,15.31,0,0,0-1.53-6.68,1,1,0,0,0-1.37-.35,1,1,0,0,0-.36,1.36Z"/>
  </g>
</svg>
