<svg class="Mouth" xmlns="http://www.w3.org/2000/svg" viewBox="0 0 512 512">
  <title>mouth2</title>
  <g id="Color">
    <path d="M248.33,228.92,247,228c-.3-.2-.61-.43-.93-.62A1,1,0,0,0,245,227a.45.45,0,0,0-.12.06,1.94,1.94,0,0,0-1.72,2.37,1,1,0,0,0,.15.29,1.14,1.14,0,0,0,.55,1,1.67,1.67,0,0,0,1,.17l3-.12a1,1,0,0,0,1-.73A1,1,0,0,0,248.33,228.92Z" fill="#fff"/>
  </g>
  <g id="Draw">
    <path d="M240.76,232.72,266.47,231c1.28-.08,1.29-2.09,0-2l-25.71,1.68c-1.28.08-1.28,2.08,0,2Z"/>
    <path d="M269.43,227.19s.17.38.09.18a2.77,2.77,0,0,0,.1.26l.21.61a9.54,9.54,0,0,1,.29,1.2c0,.1,0,.21.05.32,0-.22,0,.07,0,.09,0,.22,0,.43.05.64a9.26,9.26,0,0,1,0,1.29,1,1,0,0,0,1,1,1,1,0,0,0,1-1,11.15,11.15,0,0,0-1-5.6,1,1,0,0,0-1.37-.35,1,1,0,0,0-.36,1.36Z"/>
    <path d="M243.51,231.07a15.31,15.31,0,0,1,1.42-4.48l-1.37.36a30.74,30.74,0,0,1,5.29,4.37,1,1,0,1,0,1.41-1.41,33.25,33.25,0,0,0-5.69-4.69,1,1,0,0,0-1.37.36,17.08,17.08,0,0,0-1.62,5,1,1,0,0,0,.7,1.23,1,1,0,0,0,1.23-.7Z"/>
  </g>
</svg>
