<svg class="Body" xmlns="http://www.w3.org/2000/svg" viewBox="0 0 512 512">
  <title>body2</title>
  <path class="PrimaryColor" d="M364.75,310.9c-2.78-5.69-7.76-10.43-12.45-15-6.76-3.53-12.94-10.12-18.26-15.28-2.43-2.36-8.2-7.51-9.36-12.1A72,72,0,0,0,307.87,258c-6.37-2.79-13.29-4.84-19.08-8.74a14.9,14.9,0,0,0,.41-4.9c.63-.61,1.24-1.25,1.85-1.89a4.82,4.82,0,0,1,.6-2.09c2.64-9,4.42-18.88,9.69-26.77,4.64-7,11-12.33,17.12-17.91,2.46-2.23,4.91-4.3,6.69-7.1a44.21,44.21,0,0,1,4.82-6.77,10.89,10.89,0,0,1,2.26-1.81c.67-1.66,1.29-3.33,1.88-5a5.2,5.2,0,0,0,1.22-1.48c12.82-22.84,17.23-50.93,7.6-75.78a77.09,77.09,0,0,0-19.21-28.88A80.13,80.13,0,0,0,308.5,58c-3.5-2-6.84-3.82-10.47-4.6a3.82,3.82,0,0,0-1.27-1,15.14,15.14,0,0,0-8.25-1.61c-7.09-3-14.52-4.15-22.24-4.6-1.91-.11-3.81-.22-5.67-.21a6.15,6.15,0,0,0-.81-.15,89.15,89.15,0,0,0-46,7.54,4,4,0,0,0-4.68,1.43c-.27.32-.52.61-.77.87a5.07,5.07,0,0,0-1.95.47A61.32,61.32,0,0,0,187.1,70.5a5,5,0,0,0-2.53,2l-3.07,4.61A4.24,4.24,0,0,0,179.7,79l-1.88,3.68s0,.11-.08.17a4,4,0,0,0-2.47,2.3c-.17.39-.33.79-.5,1.19h0a142,142,0,0,0-6.59,19,5.41,5.41,0,0,0-.6.94,13.62,13.62,0,0,0-1.64,8.13c-.4,3-.7,6-.83,9.06-.1,2.46-.1,4.93,0,7.39.05,1.54.15,3.08.29,4.61,0,.28.05.55.08.82a5.32,5.32,0,0,0-.3,5.52c.06.13.13.26.2.38q.82,3.56,1.84,7a4.94,4.94,0,0,0,0,2.71,66.5,66.5,0,0,0,11.53,23.93c.43,1.19.88,2.37,1.33,3.55a4.62,4.62,0,0,1,1.91,2.05c.92,1.84,1.85,3.56,2.83,5.2a4.09,4.09,0,0,1,2.3,1.4,56.27,56.27,0,0,0,4.23,4.23,4.83,4.83,0,0,1,1.5,2.5c4.08,4.16,8.57,7.84,12.45,12a5.39,5.39,0,0,1,.86.67,18.6,18.6,0,0,1,3.62,5,31.53,31.53,0,0,1,1.85,3.21l.08.11c3.32,5,5.09,11,7.29,16.63,1.53,3.89,4.3,9,3.24,13.31a5.76,5.76,0,0,1-.36,1q.12,1.26.33,2.52c-6.1,5.65-14.74,7.54-22.18,11a53,53,0,0,0-10.81,6.95c-.89,5.71-6,11.1-10.06,14.78-6.46,5.8-15.41,10.19-20.79,17a4.2,4.2,0,0,1-2.84,1.72c-2.39,2.62-4.7,5.29-6.87,8a16,16,0,0,0-2.83,5.5,3.91,3.91,0,0,0-1.31,3.68c.22,1.67.43,3.33.64,5a5.22,5.22,0,0,0,.27,1.05,6.66,6.66,0,0,0-.59,1.23,8.41,8.41,0,0,1,2.71,3,10.19,10.19,0,0,1,1.06,4.37,5.13,5.13,0,0,1-.12,1.12,8.79,8.79,0,0,0,1.42.48l.81,1.6a6,6,0,0,0,.56,2c1.91,4,3.79,8,5.6,12.07.77,1.74,1.54,3.48,2.29,5.22.4.92,1.22,2.32,1.81,3.66l-.07.11a24.42,24.42,0,0,0-3.5,11.85,7.08,7.08,0,0,0-.65.9,5.22,5.22,0,0,1,1.38,3c.89,6.93,4.87,13.23,8.88,19l.13.07a4.44,4.44,0,0,0,1.73,1.71,5.59,5.59,0,0,0,6.47-.49,4.66,4.66,0,0,0,3.43-3.42,6.25,6.25,0,0,0-.17-3.44v0a10.28,10.28,0,0,0,2,.38,4.38,4.38,0,0,0,1.33,1.15,5.06,5.06,0,0,0,3.86.5,5.75,5.75,0,0,0,2.91-2.21h0l-.58.74a10,10,0,0,1,1-1,9.34,9.34,0,0,1,1.16-.65,4.69,4.69,0,0,0,2.39-3.65,4.9,4.9,0,0,0-.73-3.38,5.89,5.89,0,0,0,3.62-.29,4.14,4.14,0,0,0,.79.05l1.33-.18a4.91,4.91,0,0,0,2.2-1.28,5.2,5.2,0,0,0,1.47-3.54v-1.27a3.84,3.84,0,0,0-.43-1.92,4.56,4.56,0,0,0-2.65-2.65,3.84,3.84,0,0,0-1.92-.43l-.72.1a4,4,0,0,0-.75-.14c.14-.28.27-.53.39-.72a10.26,10.26,0,0,1,1.31-1.37c4.83-1,5-8.34.42-9.68a8.53,8.53,0,0,0-2.73-2.22,4.78,4.78,0,0,0-.54-.65l-1-.79a5,5,0,0,0-2.52-.68h-.43a3.84,3.84,0,0,0-1.92.43,4.14,4.14,0,0,0-.85.4h0a4.63,4.63,0,0,0-3.21-1.16,5.07,5.07,0,0,0-2.14.45c-.66-.47-1.35-.9-2-1.3-3.22-1.93-4.53-2.81-5.41-6.62-1.43-6.15-2.55-12.38-3.49-18.63.15-.09.3-.2.46-.29s0-.27.06-.41a4.77,4.77,0,0,1,1.8-2.6,3.72,3.72,0,0,1,1.7-.89l1.33-.18.22,0a4.66,4.66,0,0,1,3.51-2q2.79-2.16,5.41-4.51,2.25-1.64,4.34-3.41a21.62,21.62,0,0,1,1.21-3.23,6.24,6.24,0,0,1-.07-1c1.64-1,3.2-2.18,4.73-3.37a3.69,3.69,0,0,0,1-1.48c3.5.58,4.65,4.43,3.45,7.16a5.79,5.79,0,0,1,.06,1.61c1.8,4.71,3.93,9.33,5.82,13.9,2.13,5.13,3.9,11.4,6.94,16.49.19.42.36.83.56,1.23.2.68.39,1.36.59,2a5.12,5.12,0,0,1,.6,2.08c.17.59.34,1.19.52,1.79a23.77,23.77,0,0,0,2.92,3.63,20,20,0,0,1,4.19,7.21c2,2,4.2,3.83,6.21,5.86l.08,0a9,9,0,0,1,1.74.75,5.15,5.15,0,0,1,2.35,5.76,5.27,5.27,0,0,1-2,2.81c-6.83,10.37-13.37,21.38-15.73,33.72a4.23,4.23,0,0,1-2.18,3.13,115.72,115.72,0,0,0-1.34,14.69,6.41,6.41,0,0,0-1,2.91,5.26,5.26,0,0,0,1.92,4.59l.08.06a9.68,9.68,0,0,0,1,4.55c2.09,4.58,4.59,9.06,7,13.46a22.5,22.5,0,0,0,2.16,3.2,4,4,0,0,0,0,3.44L221,459.69c-1.31,1-2.7,1.91-4.09,2.78-1.78,1.1-3.62,2.11-5.49,3a4.6,4.6,0,0,0-2.43.34,75.32,75.32,0,0,1-21.53,5.5,5.87,5.87,0,0,0-.89.16l-.08-.05a5.06,5.06,0,0,0-3.86-.5,4.91,4.91,0,0,0-3,2.29l-.22.44a8.37,8.37,0,0,0-5.54,6.89,9.14,9.14,0,0,0,6.63,10c1.8.5,5-.3,6.45.91s.44,3.62,1.08,5.32a6.39,6.39,0,0,0,4,3.78,7.68,7.68,0,0,0,2.93.44l1.33-.18h0a2.88,2.88,0,0,0,.42.11l.38.06c.3,0,.63.06.95.07v.05c5.61,0,9.52-3.32,12.23-8,3.36-5.79,6.56-10.24,11.74-14.62,4.91-4.16,9.74-8.19,15.95-10.17,5.71-1.82,10.35-4.2,12.37-10.17,1.14-3.41-2.63-7.52-6.15-6.15-.56.21-1.8.82-3,1.17,0,0,0-.08,0-.13a11.06,11.06,0,0,0-2.36-4,5,5,0,0,0-.65-.59c0-2-.16-4-.3-5.95a20.84,20.84,0,0,1-1.73-6.92c-.13-1.6.06-3.39-.49-4.92-.74-2.11.53-4.54,2.3-5.65l.07,0a3.77,3.77,0,0,1,.89-.41,3.7,3.7,0,0,1,.29-.47c1.46-1.94,3-3.85,4.23-5.92a5,5,0,0,1,2.86-2.21,78.18,78.18,0,0,0,4.93-11.83l.25.06c2.82.51,5-.52,7.5-1.49a5,5,0,0,0,1.31,2.72c.19.2.35.4.5.59a5,5,0,0,0,.35,2c.53,1.37,1.08,2.73,1.68,4.07a10.45,10.45,0,0,1,1.59,1.23,4.7,4.7,0,0,1,1.43,2.32,91,91,0,0,1,9.92,11.8,4.17,4.17,0,0,1,.41,4.44,10,10,0,0,1-.8,7.79,8.65,8.65,0,0,1-1.12,1.6c0,.2-.07.4-.1.6a3.6,3.6,0,0,1-.6,1.47c-.56,5.77-2.11,10.85-5.92,8.85-5.12-2.69-9.79,3.57-6.06,7.86a18,18,0,0,0,2.47,2.33A5,5,0,0,0,267,464.9a63.4,63.4,0,0,1,21.69,12.4c4.74,4.17,8.11,9,11.6,13.92.22.59.42,1.19.65,1.78,1.8,4.73,4.7,8.56,10.2,8.58.23,0,.45,0,.66,0A9.82,9.82,0,0,0,320.2,500c2.88-2,3.36-4.94,5.19-7.65,1.39-2.07,1.41-1.46,3.95-1.82A9.73,9.73,0,0,0,333.8,489c5.52-3.94,3.89-12.38-1.39-15.73-2.94-1.86-6.39-2.07-9.75-2.25a55.43,55.43,0,0,1-14.1-2.49A88,88,0,0,1,295,462.63c-3.34-1.74-6.5-2.89-4.79-7.22,1.59-4,4.55-7.24,5.88-11.49.05-.16.1-.32.14-.48,2.94-3,4.55-8.09,4.61-12.45a9.44,9.44,0,0,0,1.89-2.75c-.93-4.5-1.53-9.07-2.17-13.62-2.47-5.43-3.59-11.31-5.8-17.08-3-8-7.67-16.52-14.08-22.27-2-1.85-1.78-5.19,0-7.07,5.07-5.35,11-9.95,14.87-16.33a5.79,5.79,0,0,1,.52-.72,4.06,4.06,0,0,1,2-3.73c.64-2.27,1.28-4.55,1.9-6.82.53-1.9,1.11-3.82,1.72-5.76q3.24-8,6.5-15.95c1.07-2.63,2.31-5.31,3.41-8a5.47,5.47,0,0,1,.85-3.9,4.63,4.63,0,0,1,4.76-4.08,5.15,5.15,0,0,1,1.21.14,5.31,5.31,0,0,0,.77,2.05l0,.18a5,5,0,0,0,3.21,3.35,5.92,5.92,0,0,1-.28,1.51c5.7,3.78,10.95,8.21,16.33,12.42a4.26,4.26,0,0,1,1.44,3.73c.22.28.5.65.53.7a.05.05,0,0,1,0,0,8,8,0,0,1,.53,1.24l0,.06c0,.13.06.39.08.56s.09.67.1.81v0a5,5,0,0,1-.68,2.52l-.63.81a16.51,16.51,0,0,1-.51,3.16,3.7,3.7,0,0,1,.24,1.75c-.78,6.31-4.86,12-11,13.57-.58.42-1.16.79-1.75,1.14a4.85,4.85,0,0,0-2.46-.7h-1.7a5.19,5.19,0,0,0-3,1,15.78,15.78,0,0,0-3.27.88c0,.1-.06.21-.1.31-.7,1.67-2.42,2.89-3.43,4.41-1.18,1.77-1.4,1.68-.89,3.63.16.62.45,1.13.66,1.72a1.33,1.33,0,0,0,.1.24l.21.17a1.26,1.26,0,0,1,.44.39,5.65,5.65,0,0,1,1.56,4.55,1.54,1.54,0,0,0,.19.17,3.75,3.75,0,0,0-.47.17,5.12,5.12,0,0,0-2.83,8.23,3.56,3.56,0,0,1,.4-.61,4.88,4.88,0,0,0,.52.62l.42.42a3.69,3.69,0,0,0,1.61,1,4.52,4.52,0,0,0,3.85,0,3.69,3.69,0,0,0,1.61-1l.42-.55a4.62,4.62,0,0,1,.36.85,4.12,4.12,0,0,0-.35.37,3.65,3.65,0,0,0-.67.89,5.23,5.23,0,0,0-.26,4.41,4.32,4.32,0,0,1-.83.59,19.53,19.53,0,0,0,4,4.13c.56.43,1.13.82,1.72,1.19a6,6,0,0,1,.46-.42,5.58,5.58,0,0,0,.59.1h.05a4.68,4.68,0,0,0,.66,0h.42a6.13,6.13,0,0,0,.62,0l.17,0,.4-.06.18-.05.36-.11.16-.06.33-.14.14-.07.32-.19a4.31,4.31,0,0,0,1.64-1.1,3.85,3.85,0,0,0,.3-.27,4.62,4.62,0,0,1,1.75,1.11c-.78,2.88.75,6.5,4.63,6.5a5.17,5.17,0,0,0,.57,0,4.18,4.18,0,0,0,4.66-.18,27.86,27.86,0,0,0,3.34-2.56,4.89,4.89,0,0,1,.65-2.64c.94-1.61,2-3.18,2.88-4.81a21.29,21.29,0,0,0,1.12-2.11c.05-.11.39-2,.57-1.07a5.05,5.05,0,0,1,1.28-4.86,18.18,18.18,0,0,0,2.12-2.54,3.59,3.59,0,0,1,.32-.35,26.09,26.09,0,0,0-.4-6.36c-.64-3.32-2.81-6.29-2.42-9.69.51-4.46,3.62-9,5.78-12.8a95.92,95.92,0,0,0,6-11.82C367.23,326.33,368.26,318.06,364.75,310.9Z" fill="#22b573"/>
  <g id="Draw">
    <path d="M250.79,373.27a37.74,37.74,0,0,0,14.88-1.08,1,1,0,0,0-.53-1.92,36.75,36.75,0,0,1-14.35,1c-.54-.07-1,.51-1,1a1,1,0,0,0,1,1Z"/>
    <path d="M230.23,337.46a80.65,80.65,0,0,1,22.19-6.93,78.91,78.91,0,0,1,11.69-1c1.06,0,11.07,0,11,1,0,1.29,2,1.29,2,0,.06-1.59-1.47-2.23-2.82-2.41-2.2-.29-4.43-.43-6.65-.51a82.25,82.25,0,0,0-38.45,8.15c-1.16.56-.14,2.28,1,1.72Z"/>
    <path d="M236.06,325.67A37.93,37.93,0,0,1,257.15,321c1.29.09,1.28-1.91,0-2a39.9,39.9,0,0,0-22.1,4.95c-1.12.63-.11,2.35,1,1.73Z"/>
  </g>
  <g id="Mirror">
    <g>
      <path d="M255.57,44.9a143.25,143.25,0,0,1,26.78,2.54A98.8,98.8,0,0,1,311,57.19a61,61,0,0,1,12.22,8.62,71.07,71.07,0,0,1,9.73,11.47,86.14,86.14,0,0,1,12.66,27.25,92,92,0,0,1-4.16,59.32,89.3,89.3,0,0,1-18.55,27.58c-4.27,4.39-8.8,8.51-13.17,12.8a50.05,50.05,0,0,0-10.39,13.67c-5,10.3-6.34,21.89-10.45,32.53-1.95,5-4.87,9.51-9.6,12.3-4.47,2.65-9.73,3.61-14.84,4-2.68.22-5.37.26-8.05.28a1,1,0,0,1,0-2c10.27-.06,22.43-.66,28.33-10.48,2.9-4.83,4.25-10.58,5.73-16s2.75-10.57,4.63-15.7A50.06,50.06,0,0,1,302.53,209c3.6-4.57,8.11-8.46,12.3-12.46a158.77,158.77,0,0,0,12.28-12.74,80.44,80.44,0,0,0,9.08-13.61,89.77,89.77,0,0,0,9-58.18,86.11,86.11,0,0,0-10-27.38C330.35,76.13,324,68.14,315.9,62.55s-17.67-9.28-27.29-11.69A137,137,0,0,0,261.2,47c-1.87-.07-3.75-.11-5.63-.11a1,1,0,0,1,0-2Z"/>
      <path d="M313.18,294.54a63.2,63.2,0,0,0,12.87,17.79,50.13,50.13,0,0,0,18.82,11c1.22.4.7,2.33-.53,1.93A52.57,52.57,0,0,1,324.89,314a64.64,64.64,0,0,1-13.44-18.43c-.58-1.15,1.14-2.16,1.73-1Z"/>
      <path d="M316.89,369.13a12.37,12.37,0,0,1-5.3-4.36c-.52-.72-1.4-1.92-1.24-2.87a9.91,9.91,0,0,1,.58-1.63,16,16,0,0,1,9.9-9.83c1.06-.33,1.73,0,2.8.29a12.37,12.37,0,0,0,5,.07,9.84,9.84,0,0,0,5.51-3c2.73-2.95,3.89-7.16,4.63-11A89.74,89.74,0,0,0,340,323.54c0-1.29,2-1.29,2,0-.31,7.54-.53,15.92-4.29,22.69a12.42,12.42,0,0,1-9,6.57,14.38,14.38,0,0,1-4.09.11,14,14,0,0,1-1.93-.36c-.77-.2-.64-.39-1.33-.18a12.54,12.54,0,0,0-5.54,3.63,15.6,15.6,0,0,0-2.38,3.47,9.81,9.81,0,0,0-1.11,2.81c0,.3,0-.19,0-.11a4.81,4.81,0,0,0,.56,1,11,11,0,0,0,1.26,1.6,9.35,9.35,0,0,0,3.24,2.41c1.18.46.67,2.39-.54,1.93Z"/>
      <path d="M323,378.78l-5.28,1.72c-.72.23-1.88.88-2.64.69a5.3,5.3,0,0,1-1.75-1.31,12.79,12.79,0,0,1-4.07-7.59,1,1,0,0,1,.7-1.23,11.14,11.14,0,0,0,2.81-1.43c1.37-.8,2.74-1.58,4.06-2.44,2-1.32,5.21-3.37,5.13-6.14,0-1.28,2-1.28,2,0,.1,3.35-3,5.76-5.5,7.46-1.45,1-3,1.85-4.49,2.73a13.86,13.86,0,0,1-3.48,1.75l.7-1.23a11.22,11.22,0,0,0,4.66,7.6l-.77-.1,7.39-2.41c1.22-.39,1.75,1.54.53,1.93Z"/>
      <path d="M323.44,378.53c-1.54,1.63-2.93,3.39-4.47,5a1,1,0,0,1-1.42,0,1,1,0,0,1,0-1.42c1.54-1.63,2.93-3.39,4.48-5a1,1,0,0,1,1.41,0,1,1,0,0,1,0,1.42Z"/>
      <path d="M289.3,247.52c7.28,7.39,18.56,7.12,26.87,12.8,7,4.78,10.58,12.61,16.15,18.73,7.18,7.87,16.19,13.72,24.07,20.82,3.78,3.41,7.69,7.19,10.3,11.6a14.45,14.45,0,0,1,2.15,6.89,20.58,20.58,0,0,1-1.74,7.91c-4.73,12.41-10.58,24.37-16.17,36.4l-1.73-1,2.28-3.65a1,1,0,0,1,1.83.23,46.59,46.59,0,0,1,1.94,6.76c.27,1.09.53,2.19.79,3.28a5.34,5.34,0,0,1,0,2.42,53.16,53.16,0,0,1-8,19.95c-1.52,2.33-3.2,4.53-4.9,6.72-.78,1-2.19-.41-1.41-1.41a71.4,71.4,0,0,0,8.56-13.45,48.6,48.6,0,0,0,3.53-10.63,6.61,6.61,0,0,0,.36-2.86c-.22-.95-.45-1.89-.68-2.83a48.22,48.22,0,0,0-2.1-7.41l1.83.24-2.28,3.65a1,1,0,0,1-1.73-1c4.93-10.6,10-21.14,14.4-32,2-5,4.63-10.41,2.13-15.76-2.13-4.57-6.16-8.39-9.81-11.77-7.58-7-16.32-12.73-23.55-20.15a82.39,82.39,0,0,1-8-10,42.26,42.26,0,0,0-7.72-8.83c-8.57-6.87-20.86-6.19-28.76-14.2-.9-.92.51-2.34,1.42-1.42Z"/>
      <path d="M319.12,382.34a15,15,0,0,0,9.49,7.78,1,1,0,0,1-.53,1.93,16.93,16.93,0,0,1-10.68-8.7,1,1,0,0,1,.36-1.37,1,1,0,0,1,1.36.36Z"/>
      <path d="M334.32,387.84a30.11,30.11,0,0,1-5.47,4.11,1,1,0,1,1-1-1.73,21.63,21.63,0,0,0,2.74-1.81h0l.14-.11.31-.25.62-.51,1.26-1.12a1,1,0,0,1,1.41,1.42Z"/>
      <path d="M334.62,387.13c.1,1.84.08,4-1.26,5.44a1,1,0,1,1-1.41-1.41l.1-.12c.09-.08-.11.16-.05.06l.16-.23.14-.27c.07-.13,0,0,0,.06s0-.12.05-.14a4.11,4.11,0,0,0,.17-.57l.06-.29,0-.17c0-.07,0-.22,0,0,0-.4.07-.8.07-1.21s0-.79,0-1.18a1,1,0,0,1,1-1,1,1,0,0,1,1,1Z"/>
      <path d="M333.59,391.7a11.5,11.5,0,0,0,8.83,4,1,1,0,0,1,0,2,13.39,13.39,0,0,1-10.24-4.55,1,1,0,1,1,1.41-1.41Z"/>
      <path d="M315.9,301.13c-3.88,11.54-7.87,23.1-12.47,34.38-3.71,9.08-8.07,18.07-14.51,25.56a45.42,45.42,0,0,1-12.62,10.34c-1.13.62-2.14-1.11-1-1.72,17.89-9.76,25.06-31,31.63-49q3.66-10,7.05-20.11c.4-1.22,2.34-.7,1.93.53Z"/>
      <path d="M280.66,369.21a37.37,37.37,0,0,1-4.32,14.62c-.61,1.13-2.34.12-1.73-1a35,35,0,0,0,4.05-13.61c.11-1.28,2.11-1.29,2,0Z"/>
      <path d="M279.77,372.87a105.49,105.49,0,0,1,20.78,41.57,104.13,104.13,0,0,1,2.32,13.12c.15,1.27-1.85,1.26-2,0a103,103,0,0,0-22.51-53.28c-.81-1,.6-2.41,1.41-1.41Z"/>
      <path d="M302.84,427.82c-2.35,10.54-6.9,20.45-12.38,29.71a1,1,0,0,1-1.73-1c5.4-9.12,9.87-18.85,12.18-29.23.28-1.25,2.21-.72,1.93.53Z"/>
      <path d="M261.75,401.87a24.48,24.48,0,0,0-2.34,1.44,17.88,17.88,0,0,1-3.14,1.68,1,1,0,0,1-1.23-.7,1,1,0,0,1,.69-1.23l.11,0,.1,0,.37-.18c.26-.13.51-.26.75-.4.48-.27.95-.56,1.41-.86a23.07,23.07,0,0,1,2.27-1.4,1,1,0,1,1,1,1.73Z"/>
      <path d="M259.69,402.25a80.45,80.45,0,0,0,19.88,26.65c1,.85-.45,2.26-1.42,1.41A81.92,81.92,0,0,1,258,403.26c-.54-1.16,1.19-2.17,1.73-1Z"/>
      <path d="M277.74,427.68c.42,9-2.14,18.37-6.32,26.31-.6,1.14-2.32.13-1.72-1a50.54,50.54,0,0,0,6-25.3c-.06-1.29,1.94-1.28,2,0Z"/>
      <path d="M271.05,453c-3.28-.87-8.34.44-9.18,4.24-1.07,4.83,5.42,6.68,8.73,8.16,7.77,3.48,15.36,7.67,21.58,13.57A46.82,46.82,0,0,1,300.25,489c2.37,4,3.59,9.35,8.56,10.78,3.93,1.13,10,1.13,13.12-1.86,3.47-3.28,2.55-9.12.39-12.85a14.79,14.79,0,0,0-5-5.21c-2.47-1.52-5.31-2.11-8.08-2.84-2.45-.65-4.91-1.26-7.37-1.87a11.67,11.67,0,0,1-5.69-3.19,1,1,0,0,1,1.42-1.41,11.15,11.15,0,0,0,6.08,3c2.64.56,5.2,1.35,7.8,2a23.07,23.07,0,0,1,7.46,3,17.23,17.23,0,0,1,4.75,4.91c2.49,3.9,3.53,9.29,1.39,13.57-2.25,4.5-7.7,5.51-12.28,5.34a14.65,14.65,0,0,1-7.31-1.86c-2.17-1.39-3.44-3.6-4.54-5.85a48.33,48.33,0,0,0-8.38-12.49c-6.74-7.09-15.5-11.79-24.37-15.66-2.54-1.11-5.29-2.13-7-4.39a6.41,6.41,0,0,1-1-6.11c1.59-4.39,7.27-6.05,11.43-4.94a1,1,0,0,1-.53,1.93Z"/>
      <path d="M290.3,456.31c2.8,3.58,7.32,5.74,11.39,7.51A72.76,72.76,0,0,0,316,468.34c5.34,1.08,11.16.54,16.17,2.94a11.39,11.39,0,0,1,6.14,13.14c-1.48,5.26-8.11,7.69-13.07,7.77a1,1,0,0,1,0-2c4.19-.07,10.14-2.07,11.23-6.65a9.3,9.3,0,0,0-1.37-7.23,10.81,10.81,0,0,0-6.57-4.22c-4.81-1.25-9.89-1-14.74-2.19a77.87,77.87,0,0,1-13.06-4.35c-4.22-1.83-8.9-4.12-11.79-7.82-.79-1,.62-2.43,1.41-1.42Z"/>
      <path d="M296.87,266.5a18.86,18.86,0,0,1-8.63,6.36c-3.22,1.15-7.45.76-10.05,3.24-.94.89-2.35-.52-1.42-1.41,2.62-2.49,6.26-2.47,9.56-3.34a16.36,16.36,0,0,0,8.81-5.86c.77-1,2.51,0,1.73,1Z"/>
    </g>
    <g>
      <path d="M256.43,44.9a143.25,143.25,0,0,0-26.78,2.54A98.8,98.8,0,0,0,201,57.19a61,61,0,0,0-12.22,8.62,71.07,71.07,0,0,0-9.73,11.47,86.14,86.14,0,0,0-12.66,27.25,92,92,0,0,0,4.16,59.32,89.3,89.3,0,0,0,18.55,27.58c4.27,4.39,8.8,8.51,13.17,12.8a50.05,50.05,0,0,1,10.39,13.67c5,10.3,6.34,21.89,10.45,32.53,2,5,4.87,9.51,9.6,12.3,4.47,2.65,9.73,3.61,14.84,4,2.68.22,5.37.26,8,.28a1,1,0,0,0,0-2c-10.27-.06-22.43-.66-28.33-10.48-2.9-4.83-4.25-10.58-5.73-16s-2.75-10.57-4.63-15.7A50.06,50.06,0,0,0,209.47,209c-3.6-4.57-8.11-8.46-12.3-12.46a158.77,158.77,0,0,1-12.28-12.74,80.44,80.44,0,0,1-9.08-13.61,89.77,89.77,0,0,1-9-58.18,86.11,86.11,0,0,1,10-27.38c4.88-8.49,11.22-16.48,19.33-22.07s17.67-9.28,27.29-11.69A137,137,0,0,1,250.8,47c1.87-.07,3.75-.11,5.63-.11a1,1,0,0,0,0-2Z"/>
      <path d="M198.82,294.54A63.2,63.2,0,0,1,186,312.33a50.13,50.13,0,0,1-18.82,11c-1.22.4-.7,2.33.53,1.93A52.57,52.57,0,0,0,187.11,314a64.64,64.64,0,0,0,13.44-18.43c.58-1.15-1.14-2.16-1.73-1Z"/>
      <path d="M195.11,369.13a12.37,12.37,0,0,0,5.3-4.36c.52-.72,1.4-1.92,1.24-2.87a9.91,9.91,0,0,0-.58-1.63,16,16,0,0,0-9.9-9.83c-1.06-.33-1.73,0-2.8.29a12.37,12.37,0,0,1-5,.07,9.84,9.84,0,0,1-5.51-3c-2.73-2.95-3.89-7.16-4.63-11A89.74,89.74,0,0,1,172,323.54c-.05-1.29-2.05-1.29-2,0,.31,7.54.53,15.92,4.29,22.69a12.42,12.42,0,0,0,9,6.57,14.38,14.38,0,0,0,4.09.11,14,14,0,0,0,1.93-.36c.77-.2.64-.39,1.33-.18a12.54,12.54,0,0,1,5.54,3.63,15.6,15.6,0,0,1,2.38,3.47,9.81,9.81,0,0,1,1.11,2.81c0,.3,0-.19,0-.11a4.81,4.81,0,0,1-.56,1,11,11,0,0,1-1.26,1.6,9.35,9.35,0,0,1-3.24,2.41c-1.18.46-.67,2.39.54,1.93Z"/>
      <path d="M189,378.78l5.28,1.72c.72.23,1.88.88,2.64.69a5.3,5.3,0,0,0,1.75-1.31,12.79,12.79,0,0,0,4.07-7.59,1,1,0,0,0-.7-1.23,11.14,11.14,0,0,1-2.81-1.43c-1.37-.8-2.74-1.58-4.06-2.44-2-1.32-5.21-3.37-5.13-6.14,0-1.28-2-1.28-2,0-.1,3.35,3,5.76,5.5,7.46,1.45,1,3,1.85,4.49,2.73a13.86,13.86,0,0,0,3.48,1.75l-.7-1.23a11.22,11.22,0,0,1-4.66,7.6l.77-.1-7.39-2.41c-1.22-.39-1.75,1.54-.53,1.93Z"/>
      <path d="M188.56,378.53c1.54,1.63,2.93,3.39,4.47,5a1,1,0,0,0,1.42,0,1,1,0,0,0,0-1.42c-1.54-1.63-2.93-3.39-4.48-5a1,1,0,0,0-1.41,0,1,1,0,0,0,0,1.42Z"/>
      <path d="M222.7,247.52c-7.28,7.39-18.56,7.12-26.87,12.8-7,4.78-10.58,12.61-16.15,18.73-7.18,7.87-16.19,13.72-24.07,20.82-3.78,3.41-7.69,7.19-10.3,11.6a14.45,14.45,0,0,0-2.15,6.89,20.58,20.58,0,0,0,1.74,7.91c4.73,12.41,10.58,24.37,16.17,36.4l1.73-1L160.52,358a1,1,0,0,0-1.83.23,46.59,46.59,0,0,0-1.94,6.76c-.27,1.09-.53,2.19-.79,3.28a5.34,5.34,0,0,0,0,2.42,53.16,53.16,0,0,0,8,19.95c1.52,2.33,3.2,4.53,4.9,6.72.78,1,2.19-.41,1.41-1.41a71.4,71.4,0,0,1-8.56-13.45,48.6,48.6,0,0,1-3.53-10.63,6.61,6.61,0,0,1-.36-2.86c.22-.95.45-1.89.68-2.83a48.22,48.22,0,0,1,2.1-7.41l-1.83.24,2.28,3.65a1,1,0,0,0,1.73-1c-4.93-10.6-10-21.14-14.4-32-2.05-5-4.63-10.41-2.13-15.76,2.13-4.57,6.16-8.39,9.81-11.77,7.58-7,16.32-12.73,23.55-20.15a82.39,82.39,0,0,0,8-10,42.26,42.26,0,0,1,7.72-8.83c8.57-6.87,20.86-6.19,28.76-14.2.9-.92-.51-2.34-1.42-1.42Z"/>
      <path d="M192.88,382.34a15,15,0,0,1-9.49,7.78,1,1,0,0,0,.53,1.93,16.93,16.93,0,0,0,10.68-8.7,1,1,0,0,0-.36-1.37,1,1,0,0,0-1.36.36Z"/>
      <path d="M177.68,387.84a30.11,30.11,0,0,0,5.47,4.11,1,1,0,1,0,1-1.73,21.63,21.63,0,0,1-2.74-1.81h0l-.14-.11-.31-.25-.62-.51-1.26-1.12a1,1,0,1,0-1.41,1.42Z"/>
      <path d="M177.38,387.13c-.1,1.84-.08,4,1.26,5.44a1,1,0,1,0,1.41-1.41L180,391c-.09-.08.11.16.05.06l-.16-.23-.14-.27c-.07-.13,0,0,0,.06s0-.12-.05-.14a4.11,4.11,0,0,1-.17-.57l-.06-.29,0-.17c0-.07,0-.22,0,0,0-.4-.07-.8-.07-1.21s0-.79,0-1.18a1,1,0,0,0-1-1,1,1,0,0,0-1,1Z"/>
      <path d="M178.41,391.7a11.5,11.5,0,0,1-8.83,4,1,1,0,0,0,0,2,13.39,13.39,0,0,0,10.24-4.55,1,1,0,1,0-1.41-1.41Z"/>
      <path d="M196.1,301.13c3.88,11.54,7.87,23.1,12.47,34.38,3.71,9.08,8.07,18.07,14.51,25.56a45.42,45.42,0,0,0,12.62,10.34c1.13.62,2.14-1.11,1-1.72-17.89-9.76-25.06-31-31.63-49q-3.66-10-7.05-20.11c-.4-1.22-2.34-.7-1.93.53Z"/>
      <path d="M231.34,369.21a37.37,37.37,0,0,0,4.32,14.62c.61,1.13,2.34.12,1.73-1a35,35,0,0,1-4-13.61c-.11-1.28-2.11-1.29-2,0Z"/>
      <path d="M232.23,372.87a105.49,105.49,0,0,0-20.78,41.57,104.13,104.13,0,0,0-2.32,13.12c-.15,1.27,1.85,1.26,2,0a103,103,0,0,1,22.51-53.28c.81-1-.6-2.41-1.41-1.41Z"/>
      <path d="M209.16,427.82c2.35,10.54,6.9,20.45,12.38,29.71a1,1,0,0,0,1.73-1c-5.4-9.12-9.87-18.85-12.18-29.23-.28-1.25-2.21-.72-1.93.53Z"/>
      <path d="M250.25,401.87a24.48,24.48,0,0,1,2.34,1.44,17.88,17.88,0,0,0,3.14,1.68,1,1,0,0,0,1.23-.7,1,1,0,0,0-.69-1.23l-.11,0-.1,0-.37-.18c-.26-.13-.51-.26-.75-.4-.48-.27-.95-.56-1.41-.86a23.07,23.07,0,0,0-2.27-1.4,1,1,0,0,0-1,1.73Z"/>
      <path d="M252.31,402.25a80.45,80.45,0,0,1-19.88,26.65c-1,.85.45,2.26,1.42,1.41A81.92,81.92,0,0,0,254,403.26c.54-1.16-1.19-2.17-1.73-1Z"/>
      <path d="M234.26,427.68c-.42,9,2.14,18.37,6.32,26.31.6,1.14,2.32.13,1.72-1a50.54,50.54,0,0,1-6-25.3c.06-1.29-1.94-1.28-2,0Z"/>
      <path d="M241,453c3.28-.87,8.34.44,9.18,4.24,1.07,4.83-5.42,6.68-8.73,8.16-7.77,3.48-15.36,7.67-21.58,13.57A46.82,46.82,0,0,0,211.75,489c-2.37,4-3.59,9.35-8.56,10.78-3.93,1.13-10,1.13-13.12-1.86-3.47-3.28-2.55-9.12-.39-12.85a14.79,14.79,0,0,1,5-5.21c2.47-1.52,5.31-2.11,8.08-2.84,2.45-.65,4.91-1.26,7.37-1.87a11.67,11.67,0,0,0,5.69-3.19,1,1,0,0,0-1.42-1.41,11.15,11.15,0,0,1-6.08,3c-2.64.56-5.2,1.35-7.8,2a23.07,23.07,0,0,0-7.46,3,17.23,17.23,0,0,0-4.75,4.91c-2.49,3.9-3.53,9.29-1.39,13.57,2.25,4.5,7.7,5.51,12.28,5.34a14.65,14.65,0,0,0,7.31-1.86c2.17-1.39,3.44-3.6,4.54-5.85a48.33,48.33,0,0,1,8.38-12.49c6.74-7.09,15.5-11.79,24.37-15.66,2.54-1.11,5.29-2.13,7-4.39a6.41,6.41,0,0,0,1-6.11c-1.59-4.39-7.27-6.05-11.43-4.94A1,1,0,0,0,241,453Z"/>
      <path d="M221.7,456.31c-2.8,3.58-7.32,5.74-11.39,7.51a72.76,72.76,0,0,1-14.26,4.52c-5.34,1.08-11.16.54-16.17,2.94a11.39,11.39,0,0,0-6.14,13.14c1.48,5.26,8.11,7.69,13.07,7.77a1,1,0,0,0,0-2c-4.19-.07-10.14-2.07-11.23-6.65a9.3,9.3,0,0,1,1.37-7.23,10.81,10.81,0,0,1,6.57-4.22c4.81-1.25,9.89-1,14.74-2.19a77.87,77.87,0,0,0,13.06-4.35c4.22-1.83,8.9-4.12,11.79-7.82.79-1-.62-2.43-1.41-1.42Z"/>
      <path d="M215.13,266.5a18.86,18.86,0,0,0,8.63,6.36c3.22,1.15,7.45.76,10.05,3.24.94.89,2.35-.52,1.42-1.41-2.62-2.49-6.26-2.47-9.56-3.34a16.36,16.36,0,0,1-8.81-5.86c-.77-1-2.51,0-1.73,1Z"/>
    </g>
  </g>
</svg>
