<svg class="Body" xmlns="http://www.w3.org/2000/svg" viewBox="0 0 512 512">
  <title>body7</title>
  <path class="PrimaryColor" d="M369,311.39a14.85,14.85,0,0,1-4-3.31,4.7,4.7,0,0,0-2.27-1.48c-1.6-2.15-3-4.58-4.25-5.92a150.67,150.67,0,0,0-11.66-11.22,3.47,3.47,0,0,0-.38-.29,4.31,4.31,0,0,0-1.58-3.63,179.84,179.84,0,0,1-13.88-13.87,4.44,4.44,0,0,0-1.17-.94c-4-6.92-10.77-10.52-18-13.38a146.25,146.25,0,0,1-25.13-12.47,4.15,4.15,0,0,0-1.8-.61l.08-.18.61-.71a5,5,0,0,0,1.25-3.4,9.73,9.73,0,0,0,3.63-4.08,4.84,4.84,0,0,0,.37-1.09l.42-.74c5.86-7.78,11.33-15.75,16.54-23.89a5,5,0,0,0,3.06-3.05c.72-1.9,1.51-3.76,2.34-5.6q1.78-2.92,3.53-5.88a16.2,16.2,0,0,0,5-7.25,4.54,4.54,0,0,0,1.72-1.66q2.94-5,5.6-10.09a4.81,4.81,0,0,0,.5-1.59c2.1-3.33,4.35-6.58,6.41-9.92a97.2,97.2,0,0,0,6.41-12.26,5.86,5.86,0,0,0,1.18-.4c3.35-1.63,3.6-5.5,2.69-8.79,4.56-7.07,1.71-16.26-1.66-23.51a19.29,19.29,0,0,0-5.38-6.79,11,11,0,0,0-1.16-2.46c-1.6-2.42-4-4.38-6.09-6.39q-3.63-3.54-7.25-7.09a5.24,5.24,0,0,0-.88-1.65c-.21-.26-.42-.51-.64-.76a4.42,4.42,0,0,0-1.17-1.75q-1.77-1.68-3.68-3.16a10,10,0,0,0-1.88-1.59c-1.13-1.38-2.29-2.75-3.48-4.08a4.28,4.28,0,0,0-1.35-1,27.21,27.21,0,0,0-4.48-5.16A182.5,182.5,0,0,0,292.2,65.85a170.81,170.81,0,0,0-18.34-12.1,4.53,4.53,0,0,0-.95-1.47,8.87,8.87,0,0,0-6.25-2.7h-.51c-1.9-1-3.83-1.89-5.77-2.79a4.84,4.84,0,0,0-8.7-.65l-.31.23a4.37,4.37,0,0,0-3.52.67l-5.39,3.48a20.81,20.81,0,0,0-4.15,2.69h0l-1.22.79a4.83,4.83,0,0,0-3,.77,35.89,35.89,0,0,0-7.83,6.57,4.17,4.17,0,0,0-2.26.83,18,18,0,0,0-1.6,1.29L220.62,65a5.24,5.24,0,0,0-.84.65l-.92.89-2.24,2a4.25,4.25,0,0,0-.94,1.12l-.23.21A5.24,5.24,0,0,0,213.56,71c-5.94,5.6-13.13,11-18.26,17.65a5.16,5.16,0,0,0-3.14,2.16c-.95,1.35-1.83,2.71-2.66,4.1a5.35,5.35,0,0,0-4.9,3.35c-.25.62-.5,1.24-.74,1.86a4.48,4.48,0,0,0-3.19,1.5l-2,2.11c-.42.41-.83.84-1.23,1.31a5.1,5.1,0,0,0-1.23,3.81l-.6,1c-.07.12-.13.24-.19.36-27.22,19.7.69,55.69,13.38,75.59a25.86,25.86,0,0,0,4.53,6.78,5.15,5.15,0,0,0,.67,1.54,26.37,26.37,0,0,0,1.76,2.39,5.27,5.27,0,0,0,.81,2,32.52,32.52,0,0,0,3.06,4.07l.77,1a6.31,6.31,0,0,0,3,5c.08.06.16.1.24.15a12.47,12.47,0,0,0,2.59,4.08q4.62,7.23,9.63,14.19a1,1,0,0,0,.12.51l2.33,4.2a20.07,20.07,0,0,0,2.26,3.52,13.72,13.72,0,0,1,1.34,1.41c.37.57.54,1.26.92,1.83a2.94,2.94,0,0,0,2,1.33,6.32,6.32,0,0,0,.33.92,22.58,22.58,0,0,0,2.35,4,5.06,5.06,0,0,0-1.52.84c-5.59,4.5-12.91,6.15-19.41,8.89A92.92,92.92,0,0,0,189.29,264a98.54,98.54,0,0,0-27,28.54c-.08.14-.14.27-.21.41q-6.54,7-12.95,14.14a4.66,4.66,0,0,0-1.62.7,27.26,27.26,0,0,0-4.25,3.51,5.1,5.1,0,0,0-2.43,4.27,6,6,0,0,0,3.63,5.81,4.8,4.8,0,0,0,1.85,2.89c1,4.18,3.24,8.18,5,12.09q2.38,5.3,4.75,10.58c.71,1.6,2.62,7.48,4.55,9.78a5,5,0,0,0-1.07,2c-.23.8-.46,1.61-.7,2.42a4.66,4.66,0,0,0-.17,1.38,4,4,0,0,0-.87,3A52.12,52.12,0,0,0,170.05,395c3.57,4.23,9.07-.49,8.36-4.86l-.27-1.62a4.7,4.7,0,0,0,3.25-1.66,4.54,4.54,0,0,0,1.41.47c1.22.32,2.41.69,3.61,1.09,3.43,1.15,7.48-2.62,6.15-6.15-.24-.64-.75-1.75-1.06-2.79a17,17,0,0,1,4.39-.54,5.2,5.2,0,0,1,3.66-1.64h2.33c2.15-2.79.88-8.16-3.81-8.34h-.36a4.23,4.23,0,0,0-1-1.5,4.87,4.87,0,0,0-.89-.66,5.75,5.75,0,0,0-.52-1.47l-.1-.14a5.32,5.32,0,0,0,3.68-2.73,4.42,4.42,0,0,0,.78-2.68,5.47,5.47,0,0,0-1.05-3,4.77,4.77,0,0,0-.62-1,9.51,9.51,0,0,0-6-5.49,12.38,12.38,0,0,0-4-.39,5,5,0,0,0-3-1,5.28,5.28,0,0,0-3.12,1.12c-.15-.13-.29-.25-.45-.37a4,4,0,0,0-2.86-.86c-.78-1.24-1.6-2.47-2.4-3.71a43,43,0,0,1-2.5-4.17,14.72,14.72,0,0,1-1.33-3.3c.17-1.09.12-1.68-.16-1.79a5.44,5.44,0,0,0,.19-.57l.07-.29a5.62,5.62,0,0,0-.68-4.15,36.45,36.45,0,0,1-1.79-9.61c0-.18-.05-.34-.07-.5a49.39,49.39,0,0,0,11.49-7.51c2.57-2.18,5.64-3.74,8-6.18a109.24,109.24,0,0,0,6.91-8.69,5,5,0,0,0,.9-1.85c.54-.54,1.08-1.07,1.65-1.58,2.14,6.86,5.54,13.57,8.49,19.88a121,121,0,0,0,8.91,16.05L211.35,337c-1.73,2.21-2,4.87,0,7.08,4.32,4.74,8.42,10.14,13.31,14.32,1.81,1.55,4.16,2.25,6,3.71,2.35,1.91,1.59,4.86,1.92,7.77.15,1.29.33,2.61.6,3.87a4.32,4.32,0,0,0-.93.6,5,5,0,0,0-1.15,1.18c-.25.36-.5.72-.74,1.09a114.19,114.19,0,0,0-19.86,38c-1,3.38-2.22,7-1.88,10.54.31,3.29,1.84,6.51,3.09,9.54a93.88,93.88,0,0,0,11.49,20.14l.1.12a93.63,93.63,0,0,1-11.49,8A8.67,8.67,0,0,0,206.7,464c-1.76.85-3.49,1.74-5.23,2.64a10.39,10.39,0,0,0-2.59.8,4.55,4.55,0,0,0-5.51-.48,28,28,0,0,1-3.05,1.69,5.11,5.11,0,0,0-1.71-.28h-2.12a4.84,4.84,0,0,0-2-.06l-1.33.23a4.14,4.14,0,0,0-3,2A24.49,24.49,0,0,0,170.67,483c-3.3,2.46-2.33,9.09,2.92,9.09a4.68,4.68,0,0,0,3.2-1.14c2.78-.78,5.49-1.69,8.18-2.73a5,5,0,0,0,2.3,1.39c.07.14.16.27.24.41l-1.32,2.22c-.25.41-.47.84-.72,1.26l-.94.52a5.31,5.31,0,0,0-1.7,1.48,5,5,0,0,0-1.2,4.71c.78,2.82,3.48,3.95,6.15,3.49a6.12,6.12,0,0,0,1.22-.35l.61-.17a5,5,0,0,0,2.76-2c.56-.33,1.13-.66,1.68-1,3.23.77,7-.26,9.82-2.1,5.13-3.3,6.93-8.88,10.24-13.68,6.94-10,19.62-17.14,30.7-22a3.68,3.68,0,0,0,2.13-.69l.17-.12a5,5,0,0,0,3.09-3.5,4.69,4.69,0,0,0,1.21-1.33,5.18,5.18,0,0,0,1.51-5.06,5.07,5.07,0,0,0-6.15-3.49l-2.67.63c-.22,0-.42-.06-.65-.07a5.7,5.7,0,0,0-3.56,0c-.08-.14-.14-.28-.23-.42-2.9-4.62-3.09-10.68-3.91-15.95-.23-1.41-1.31-4.68-1.39-6.51a4.67,4.67,0,0,0,3.78-4.24,15.55,15.55,0,0,0,3-2.75l.06-.05h0c.27-.32.53-.65.8-1a4.37,4.37,0,0,0,.91-2.22c4.26-4.66,8.21-9.72,9.65-15.74a5.86,5.86,0,0,0,2.19.56l2.64.08a4.77,4.77,0,0,0,2.35-.49,4.45,4.45,0,0,0,.78,2.79c1.07,1.6,2.17,3.16,3.29,4.72a5.09,5.09,0,0,0,1.24,4.39l5.94,6A5.9,5.9,0,0,0,273,421l1.55,1.18a7.11,7.11,0,0,0,.45,1.32c.43.92,1.84,2.3,1.93,2.82.2,1.25-.73,4.44-.92,5.92-.31,2.59-.63,5.17-.94,7.75a4.49,4.49,0,0,0,.16,1.94,6.5,6.5,0,0,0-1.15,1.92c-.75,2-1.58,3.91-2.46,5.83l-.32-.16c-.06-.07-.1-.14-.16-.2a5.52,5.52,0,0,0-3.54-1.47l-1.33.18a4.47,4.47,0,0,0-.93.39,3.82,3.82,0,0,0-1.12,0,4.95,4.95,0,0,0-4.68,7.71,4.75,4.75,0,0,0,1.1,1.74,4.83,4.83,0,0,0,1.67,1.07,5.91,5.91,0,0,0,2.87,2.27,5.27,5.27,0,0,0,3.19,2.63A45.34,45.34,0,0,1,283,471c4.31,3.13,9.62,6.17,12.94,10.39,3.12,4,4,8.89,7.54,12.77,1.33,1.46,2.82,3,4.79,3.53a6.75,6.75,0,0,0,2.12.2,11.12,11.12,0,0,0,6.28,1.58,2.3,2.3,0,0,0,.26,0l5.71,3.76a5.06,5.06,0,0,0,6.84-1.8,4.81,4.81,0,0,0,.25-4.4c0-.08,0-.16,0-.25a5.42,5.42,0,0,0-3.94-4.53l-.35-.08a7.23,7.23,0,0,0,.66-2.23l.15-1.14,1.27.29,8.84,2.14c6.14,1.48,8.81-7.77,3-9.54a13.75,13.75,0,0,0-3.68-7.48c-4.35-4.48-10.29-5.15-16.18-5.84a60.39,60.39,0,0,1-19.29-6.13,74.56,74.56,0,0,1-8-4.12c-4-2.57-1.94-5.44.1-8.8a4.13,4.13,0,0,0,2.53-2.13l5.88-12.79a5.8,5.8,0,0,0,.55-3l.15-.25a14.76,14.76,0,0,0,1.67-8.3,5.07,5.07,0,0,0-1.2-2.76c-.18-2.35-.27-4.7-.29-7.05a4.59,4.59,0,0,0-2.39-4.18,4.39,4.39,0,0,0-.24-1.86l-2.58-7.28a5.28,5.28,0,0,0-1.65-2.39c0-.12,0-.23,0-.35a4.85,4.85,0,0,0-2.37-4.24c-.27-.72-.54-1.41-.85-2.05A65,65,0,0,0,285,380.28a12.06,12.06,0,0,0-1.32-1.91c.22-2.65-1.38-5.49-4.81-5.49l-.4,0a4.25,4.25,0,0,0-.43-.31,7.45,7.45,0,0,0,.71-1.49,9.56,9.56,0,0,0,.09-6c1.72-1.37,3.49-2.69,5.16-4.06,5.55-4.54,9.35-12.24,15.94-15.19,3.84-1.72,2.6-6.63,0-8.64,1.89,1.47,0-1.83-.47-2.45a7.66,7.66,0,0,0-2.65-2.4c5.74-11.29,11.39-22.65,16.47-34.23a6.06,6.06,0,0,0,.5-2.44c1,1.39,2.08,2.72,3.18,4a5.42,5.42,0,0,0,.17.8,5.28,5.28,0,0,0,2.37,3,7.06,7.06,0,0,0,1.85,2.63,6.75,6.75,0,0,0,2.91,1.52,10.16,10.16,0,0,0,1.66,1.68c4.72,4.61,10.86,6.92,16,11.06a86.5,86.5,0,0,1-4.35,23.34,4.63,4.63,0,0,0-1.09.88l-.08.09a5.54,5.54,0,0,0-2.2,2.57,3.43,3.43,0,0,0-.87.75q-.63.74-1.17,1.5h0a4.56,4.56,0,0,0-2.74.6c-.72,0-1.46.06-2.19.05a4.88,4.88,0,0,0-1.94-.09c-.45,0-.89-.08-1.33-.14a5.31,5.31,0,0,0-5.34,1.89,14.14,14.14,0,0,0-5.75,5,4.11,4.11,0,0,0-.33,4.4,4.26,4.26,0,0,1,1.21.89c1.17,1.25,2.09,3.28,1.38,5a5.82,5.82,0,0,1-2.3,3,4.78,4.78,0,0,1-3.2.59,5.41,5.41,0,0,0,.94,7.51l.21,0a3.35,3.35,0,0,1,.38-.14,9,9,0,0,1,2.49-.24,4.71,4.71,0,0,1,2.31.61h0a5.66,5.66,0,0,0,.87-.36h0a5.57,5.57,0,0,0,1.29,0,4.76,4.76,0,0,0,1.38,1.52c.3,2,.61,3.95.92,5.93a4.21,4.21,0,0,0,4,3.52l.32-.26a5.28,5.28,0,0,1,6.76.49,5.36,5.36,0,0,1,1.19,5.55,1,1,0,0,0,0,.1,7,7,0,0,0,3,1.92c4.23,1.27,8.56-1.34,10.81-4.8a45.6,45.6,0,0,0,5.74-14.73,4.68,4.68,0,0,0,2.08-2.88c.83-3.08-.12-6-.23-8.91q.19-2,.36-3.93a4.44,4.44,0,0,0-3.7-4.69c1.44-3.33,2.77-6.73,4.22-9.83l9.66-20.62a5.78,5.78,0,0,0,.6-2.5,11.23,11.23,0,0,1,2-1.6,4.85,4.85,0,0,0,2.2-3.11C371.92,317.18,372.5,313.4,369,311.39Z" fill="#22b573"/>
  <g id="Mirror">
    <g>
      <path d="M312.18,291.54a60.23,60.23,0,0,0,34.69,29.77c1.22.4.7,2.33-.53,1.93a62.28,62.28,0,0,1-35.89-30.69c-.58-1.15,1.14-2.16,1.73-1Z"/>
      <path d="M317.38,366.81a14,14,0,0,1-5.71-4.1c-.57-.7-1.49-1.84-1.32-2.81a9.33,9.33,0,0,1,.65-1.81c1.67-4.29,5.51-8.86,10.27-9.78,1.06-.21,2.13.41,3.2.57a12.31,12.31,0,0,0,5.36-.38,9.45,9.45,0,0,0,4.76-3.31c2.56-3.27,3.66-7.59,4.4-11.6a94.69,94.69,0,0,0,1.26-13.34c.06-1.28,2.06-1.29,2,0-.32,7.75-.72,16.17-4.26,23.23-1.76,3.53-4.52,6.27-8.45,7.16a14.29,14.29,0,0,1-4.07.35,16,16,0,0,1-2-.25,4.78,4.78,0,0,1-1.24-.3c-.29-.15-.34-.2-.48-.2a6.11,6.11,0,0,0-2.54,1,13.44,13.44,0,0,0-3.19,2.47,15.49,15.49,0,0,0-2.63,3.74,9,9,0,0,0-1.11,2.81c0,.37,0-.16.06-.1a4.73,4.73,0,0,0,.7,1.11,10.83,10.83,0,0,0,1.46,1.49,11.65,11.65,0,0,0,3.36,2.1c1.19.45.68,2.39-.53,1.93Z"/>
      <path d="M310.64,368.93c2.3-1.53,4.79-2.75,7.06-4.33a15.49,15.49,0,0,0,3.14-2.74,4.11,4.11,0,0,0,1.12-2.81c0-1.28,2-1.28,2,0,.12,3-2.53,5.31-4.76,6.93-2.4,1.75-5.09,3-7.55,4.67-1.08.72-2.08-1-1-1.72Z"/>
      <path d="M286.71,243.52c3.72,3.78,8.7,6.07,13.57,8s9.79,3.47,14.51,5.63A46.23,46.23,0,0,1,326,264.25a119.15,119.15,0,0,1,9.84,10.13q13.27,14.55,26.34,29.27c2.84,3.18,7.07,4.9,9.59,8.39a5.35,5.35,0,0,1,.87,5.17c-.81,2.06-2.48,3.71-3.9,5.35a14,14,0,0,0-2,2.75c-.82,1.64-1.4,3.45-2.1,5.14q-2.07,5-4.28,9.88c-3.06,6.82-6.26,13.57-9.41,20.34l-1.73-1,2.28-3.65a1,1,0,0,1,1.83.23,46.59,46.59,0,0,1,1.94,6.76c.45,1.82,1.14,3.62.84,5.49a58.19,58.19,0,0,1-7.91,20.62,79.34,79.34,0,0,1-4.9,7.06c-.78,1-2.51,0-1.73-1A70.38,70.38,0,0,0,350.19,381a53.34,53.34,0,0,0,3.56-10.91,7.29,7.29,0,0,0,.42-3c-.21-.93-.43-1.85-.66-2.78a50.11,50.11,0,0,0-2.13-7.53l1.83.24-2.28,3.65a1,1,0,0,1-1.73-1c2.75-5.91,5.54-11.8,8.24-17.73,1.31-2.9,2.61-5.8,3.86-8.72s2.26-5.85,3.58-8.67c.9-1.93,2.56-3.47,3.92-5.06s2.8-3.27,1.95-5.26-2.66-3.24-4.21-4.41a51.85,51.85,0,0,1-4.89-3.83c-2.1-2-3.95-4.39-5.9-6.57l-6.55-7.32q-6.42-7.14-12.88-14.25c-3.35-3.68-6.63-7.47-10.27-10.87a43.83,43.83,0,0,0-10.31-7.18c-9.94-5-22.37-6.64-30.44-14.85-.91-.92.51-2.34,1.41-1.42Z"/>
      <path d="M281.34,364.42a43.14,43.14,0,0,1-5,16.41c-.61,1.13-2.33.12-1.73-1a40.62,40.62,0,0,0,4.73-15.4c.11-1.27,2.11-1.28,2,0Z"/>
      <path d="M279.77,370.87c10,12.24,18.24,26.27,22.53,41.57a83.6,83.6,0,0,1,2.57,13.12c.15,1.27-1.85,1.26-2,0-1.77-15.37-8.18-29.91-16.68-42.7q-3.65-5.49-7.83-10.58c-.81-1,.6-2.41,1.41-1.41Z"/>
      <path d="M304.84,425.82c-2.44,10.84-8.78,20.29-14.38,29.71a1,1,0,0,1-1.73-1c5.52-9.27,11.78-18.55,14.18-29.23.28-1.25,2.21-.72,1.93.53Z"/>
      <path d="M261.51,400l-1.2.4-.64.24-.34.14c-.18.07.11-.05,0,0l-.17.07c-.42.19-.83.39-1.23.62l-.57.37s-.09.08-.1.07.17-.13,0,0l-.24.22a1,1,0,0,1-1.42-1.41,8.47,8.47,0,0,1,2.52-1.57A29.42,29.42,0,0,1,261,398a1,1,0,0,1,1.23.7,1,1,0,0,1-.7,1.23Z"/>
      <path d="M259.69,400.25a80.45,80.45,0,0,0,19.88,26.65c1,.85-.45,2.26-1.42,1.41A81.92,81.92,0,0,1,258,401.26c-.54-1.16,1.19-2.17,1.73-1Z"/>
      <path d="M277.35,425.31A53.17,53.17,0,0,1,271.42,452c-.59,1.14-2.32.13-1.72-1a51.16,51.16,0,0,0,5.65-25.67c-.06-1.28,1.94-1.28,2,0Z"/>
      <path d="M263.64,459.86c1.93,1.79,4.4,2.64,6.82,3.56a64.58,64.58,0,0,1,7.39,3.47,67.11,67.11,0,0,1,13.2,9,47.1,47.1,0,0,1,10,12.53c1.2,2.19,2.05,4.67,3.61,6.64,1.74,2.2,4.39,3,7.09,3.2a20.82,20.82,0,0,1,4.5.73c1.68.5,3.33,1.08,5,1.62a34.81,34.81,0,0,0,5,1.33c.66.1,2.57.45,3-.32s-.6-2.45-.88-3.08c-.69-1.54-1.5-3-2.28-4.54a20.62,20.62,0,0,1-1.76-3.89,16.39,16.39,0,0,1-.28-2.09,14.08,14.08,0,0,0-1-3.54,14.91,14.91,0,0,0-4.65-5.9c-2.4-1.81-5.25-2.58-8.11-3.32-2.66-.68-5.29-1.41-8-2a12.07,12.07,0,0,1-6.16-3.3,1,1,0,0,1,1.42-1.41,11.15,11.15,0,0,0,6.08,3c2.64.56,5.2,1.35,7.8,2a23,23,0,0,1,7.46,3,17,17,0,0,1,4.84,5.06,16.21,16.21,0,0,1,2.33,6.55,11,11,0,0,0,1.21,3.83c.82,1.63,1.7,3.23,2.49,4.88a12.94,12.94,0,0,1,1.46,4.21c.6,6.66-13.88.3-16.46-.37-1.88-.49-3.83-.36-5.73-.78a10.27,10.27,0,0,1-6.2-3.91c-1.56-2.11-2.46-4.65-3.74-6.93a43.66,43.66,0,0,0-5.16-7.36,57,57,0,0,0-15.07-11.94,65.35,65.35,0,0,0-9-4.4c-2.76-1.05-5.51-2-7.71-4.08-.94-.88.47-2.29,1.42-1.41Z"/>
      <path d="M290.3,454.31a21.48,21.48,0,0,0,6.77,5.26,62.44,62.44,0,0,0,9.64,4.19,74,74,0,0,0,9.24,2.58c3.56.72,7.19.78,10.76,1.35,3.23.52,6.51,1.61,8.81,4a33.48,33.48,0,0,1,4.63,6.62,28.65,28.65,0,0,1,3.3,8c.39,1.88.46,4.18-1.46,5.25-2.32,1.29-5.63.56-8.08.12-2.86-.51-5.8-1.47-8.72-1.5a1,1,0,0,1,0-2c4.88.05,9.7,2.64,14.61,2a2.05,2.05,0,0,0,1.75-.92,4.66,4.66,0,0,0-.08-2.64,36.61,36.61,0,0,0-7.65-13.75c-2.42-2.42-6.07-3.1-9.34-3.47s-6.43-.56-9.61-1.24a73.87,73.87,0,0,1-8.86-2.52,65.52,65.52,0,0,1-9.95-4.33,23,23,0,0,1-7.17-5.57c-.79-1,.62-2.43,1.41-1.42Z"/>
      <path d="M256.27,42.87c17.69,7,33.42,17.74,47.5,30.44C310.57,79.44,317,86,323.28,92.65q4.67,5,9.26,10c3.2,3.5,6.45,7,9.29,10.76A39.06,39.06,0,0,1,348.42,126a31.14,31.14,0,0,1,.33,14.68c-2.08,10.32-8,19.45-13.33,28.33-11.2,18.56-22.48,37.11-34.72,55-6.07,8.88-12.39,17.6-19,26.07-3.21,4.08-6.38,8.31-9.94,12.1A32.93,32.93,0,0,1,261.23,270a13.15,13.15,0,0,1-5.12,1.2,1,1,0,0,1,0-2c4,0,7.95-2.77,10.92-5.25,3.63-3,6.52-6.82,9.48-10.48,6.65-8.23,13-16.74,19-25.41,12-17.21,23.08-35.07,33.95-53,5.33-8.8,11.31-17.55,15.05-27.18a38.24,38.24,0,0,0,2.93-14.69,28.87,28.87,0,0,0-4.14-13.85,68.44,68.44,0,0,0-8.72-11.4c-3-3.29-6-6.55-9-9.81-6-6.47-12.08-12.85-18.47-18.92-13.24-12.59-27.91-23.73-44.56-31.42q-3.37-1.56-6.83-2.92c-1.18-.47-.66-2.4.54-1.93Z"/>
      <path d="M314.5,297.92q-9.27,19.89-20,39.09c-.63,1.13-2.36.12-1.73-1q10.68-19.17,20-39.09c.55-1.17,2.27-.15,1.73,1Z"/>
      <path d="M297.35,331.06a81.52,81.52,0,0,1,6.23,10.24c.59,1.14-1.14,2.15-1.73,1a80.35,80.35,0,0,0-6.23-10.24,1,1,0,0,1,.36-1.37,1,1,0,0,1,1.37.36Z"/>
      <path d="M303.66,342.83c-9.3,9.38-18.06,19.58-29,27.1-1.07.73-2.07-1-1-1.73,10.81-7.41,19.45-17.54,28.62-26.79a1,1,0,0,1,1.41,1.42Z"/>
      <path d="M297.72,267l0,2.48a3.48,3.48,0,0,1-.26,1.89,2.18,2.18,0,0,1-1.63.9l-2.43.45-9.59,1.77c-1.26.23-1.8-1.7-.53-1.93l8.31-1.54c1.33-.24,2.7-.62,4-.75.18,0,.21-.13.17,0s-.07-.09-.07-.08a4.75,4.75,0,0,1,0-1l0-2.21a1,1,0,0,1,2,0Z"/>
      <path d="M277.57,324.31c-6.82-4.4-13.7-8.84-21.32-11.74-1.19-.46-.68-2.39.53-1.93,7.79,3,14.83,7.44,21.8,11.94,1.08.7.08,2.43-1,1.73Z"/>
      <path d="M311.78,370.43c-.28,1.92-1.47,3.58-1.76,5.5a1,1,0,0,1-1.23.7,1,1,0,0,1-.69-1.23c.28-1.92,1.47-3.58,1.76-5.51a1,1,0,0,1,1.23-.69,1,1,0,0,1,.69,1.23Z"/>
      <path d="M310,376.34c0-.12-.06-.22-.06-.31h0l.09.05s.16.08.12.07a2.71,2.71,0,0,0,.71.14l2.25.21c1.53.14,3.06.27,4.58.43a1,1,0,0,1,1,1,1,1,0,0,1-1,1c-1.84-.2-3.7-.34-5.55-.52a10.86,10.86,0,0,1-2.54-.34,2,2,0,0,1-1.53-2.26,1,1,0,0,1,1.23-.7,1,1,0,0,1,.7,1.23Z"/>
      <path d="M321.12,379.74a54.26,54.26,0,0,0,.26,8.36l-1-1c3.14,0,6.2-.84,9.34-.79a1,1,0,0,1,0,2c-3.14-.05-6.2.84-9.34.79a1,1,0,0,1-1-1,54.26,54.26,0,0,1-.26-8.36c.06-1.28,2.06-1.29,2,0Z"/>
      <path d="M318.15,377.07a19.32,19.32,0,0,1,1.92,1.45l-.2-.15q.36.27.75.51a1,1,0,0,1,.36,1.37,1,1,0,0,1-1.37.36,19,19,0,0,1-1.92-1.46l.21.16a7.21,7.21,0,0,0-.76-.51,1.06,1.06,0,0,1-.46-.6,1,1,0,0,1,.1-.77,1,1,0,0,1,1.37-.36Z"/>
      <path d="M333,389.73c-.66-.24-1.3-.53-1.94-.81l-.95-.41-.06,0,.13.05-.1,0-.21-.09-.37-.14a1.06,1.06,0,0,1-.6-.46,1.08,1.08,0,0,1-.1-.77,1,1,0,0,1,1.23-.7c.66.25,1.3.54,1.94.81l.95.41.06,0-.13-.06.1,0,.21.09.37.15a1.06,1.06,0,0,1,.6.46,1.08,1.08,0,0,1,.1.77,1,1,0,0,1-1.23.69Z"/>
      <path d="M334.21,388.77a38.78,38.78,0,0,0,.4,6.63l-1-.74a59.15,59.15,0,0,0,8.83.06,1,1,0,0,1,1,1,1,1,0,0,1-1,1,59.15,59.15,0,0,1-8.83-.06,1,1,0,0,1-1-.73,40.84,40.84,0,0,1-.47-7.16,1,1,0,0,1,2,0Z"/>
      <path d="M270.57,449.57c-1.8-.75-3.73-.2-5.54.25a24.92,24.92,0,0,1-3,.59c-.62.07-1.83-.21-2.13.5s.35,1.49.58,2.1a25.06,25.06,0,0,1,.79,2.55c.4,1.48.82,3.2,2.14,4.14a1,1,0,0,1,.36,1.37,1,1,0,0,1-1.37.36,7.37,7.37,0,0,1-2.65-3.92,31.56,31.56,0,0,0-1.46-4.57,3.29,3.29,0,0,1-.34-2.51,2.69,2.69,0,0,1,1.83-1.84,23.13,23.13,0,0,1,2.52-.22c.92-.15,1.82-.4,2.73-.62,2-.48,4.11-.92,6.05-.11a1,1,0,0,1,.7,1.23,1,1,0,0,1-1.23.7Z"/>
    </g>
    <g>
      <path d="M199.82,291.54a60.23,60.23,0,0,1-34.69,29.77c-1.22.4-.7,2.33.53,1.93a62.28,62.28,0,0,0,35.89-30.69c.58-1.15-1.14-2.16-1.73-1Z"/>
      <path d="M194.62,366.81a14,14,0,0,0,5.71-4.1c.57-.7,1.49-1.84,1.32-2.81a9.33,9.33,0,0,0-.65-1.81c-1.67-4.29-5.51-8.86-10.27-9.78-1.06-.21-2.13.41-3.2.57a12.31,12.31,0,0,1-5.36-.38,9.45,9.45,0,0,1-4.76-3.31c-2.56-3.27-3.66-7.59-4.4-11.6a94.69,94.69,0,0,1-1.26-13.34c-.06-1.28-2.06-1.29-2,0,.32,7.75.72,16.17,4.26,23.23,1.76,3.53,4.52,6.27,8.45,7.16a14.29,14.29,0,0,0,4.07.35,16,16,0,0,0,1.95-.25,4.78,4.78,0,0,0,1.24-.3c.29-.15.34-.2.48-.2a6.11,6.11,0,0,1,2.54,1,13.44,13.44,0,0,1,3.19,2.47,15.49,15.49,0,0,1,2.63,3.74,9,9,0,0,1,1.11,2.81c0,.37,0-.16-.06-.1a4.73,4.73,0,0,1-.7,1.11,10.83,10.83,0,0,1-1.46,1.49,11.65,11.65,0,0,1-3.36,2.1c-1.19.45-.68,2.39.53,1.93Z"/>
      <path d="M201.36,368.93c-2.3-1.53-4.79-2.75-7.06-4.33a15.49,15.49,0,0,1-3.14-2.74,4.11,4.11,0,0,1-1.12-2.81c.05-1.28-1.95-1.28-2,0-.12,3,2.53,5.31,4.76,6.93,2.4,1.75,5.09,3,7.55,4.67,1.08.72,2.08-1,1-1.72Z"/>
      <path d="M225.29,243.52c-3.72,3.78-8.7,6.07-13.57,8s-9.79,3.47-14.51,5.63A46.23,46.23,0,0,0,186,264.25a119.15,119.15,0,0,0-9.84,10.13q-13.27,14.55-26.34,29.27c-2.84,3.18-7.07,4.9-9.59,8.39a5.35,5.35,0,0,0-.87,5.17c.81,2.06,2.48,3.71,3.9,5.35a14,14,0,0,1,2,2.75c.82,1.64,1.4,3.45,2.1,5.14q2.07,5,4.28,9.88c3.06,6.82,6.26,13.57,9.41,20.34l1.73-1L160.52,356a1,1,0,0,0-1.83.23,46.59,46.59,0,0,0-1.94,6.76c-.45,1.82-1.14,3.62-.84,5.49a58.19,58.19,0,0,0,7.91,20.62,79.34,79.34,0,0,0,4.9,7.06c.78,1,2.51,0,1.73-1A70.38,70.38,0,0,1,161.81,381a53.34,53.34,0,0,1-3.56-10.91,7.29,7.29,0,0,1-.42-3c.21-.93.43-1.85.66-2.78a50.11,50.11,0,0,1,2.13-7.53l-1.83.24,2.28,3.65a1,1,0,0,0,1.73-1c-2.75-5.91-5.54-11.8-8.24-17.73-1.31-2.9-2.61-5.8-3.86-8.72s-2.26-5.85-3.58-8.67c-.9-1.93-2.56-3.47-3.92-5.06s-2.8-3.27-1.95-5.26,2.66-3.24,4.21-4.41a51.85,51.85,0,0,0,4.89-3.83c2.1-2,4-4.39,5.9-6.57l6.55-7.32q6.42-7.14,12.88-14.25c3.35-3.68,6.63-7.47,10.27-10.87a43.83,43.83,0,0,1,10.31-7.18c9.94-5,22.37-6.64,30.44-14.85.91-.92-.51-2.34-1.41-1.42Z"/>
      <path d="M230.66,364.42a43.14,43.14,0,0,0,5,16.41c.61,1.13,2.33.12,1.73-1a40.62,40.62,0,0,1-4.73-15.4c-.11-1.27-2.11-1.28-2,0Z"/>
      <path d="M232.23,370.87c-10,12.24-18.24,26.27-22.53,41.57a83.6,83.6,0,0,0-2.57,13.12c-.15,1.27,1.85,1.26,2,0,1.77-15.37,8.18-29.91,16.68-42.7q3.65-5.49,7.83-10.58c.81-1-.6-2.41-1.41-1.41Z"/>
      <path d="M207.16,425.82c2.44,10.84,8.78,20.29,14.38,29.71a1,1,0,0,0,1.73-1c-5.52-9.27-11.78-18.55-14.18-29.23-.28-1.25-2.21-.72-1.93.53Z"/>
      <path d="M250.49,400l1.2.4.64.24.34.14c.18.07-.11-.05,0,0l.17.07c.42.19.83.39,1.23.62l.57.37s.09.08.1.07-.17-.13,0,0l.24.22a1,1,0,1,0,1.42-1.41,8.47,8.47,0,0,0-2.52-1.57A29.42,29.42,0,0,0,251,398a1,1,0,0,0-1.23.7,1,1,0,0,0,.7,1.23Z"/>
      <path d="M252.31,400.25a80.45,80.45,0,0,1-19.88,26.65c-1,.85.45,2.26,1.42,1.41A81.92,81.92,0,0,0,254,401.26c.54-1.16-1.19-2.17-1.73-1Z"/>
      <path d="M234.65,425.31A53.17,53.17,0,0,0,240.58,452c.59,1.14,2.32.13,1.72-1a51.16,51.16,0,0,1-5.65-25.67c.06-1.28-1.94-1.28-2,0Z"/>
      <path d="M248.36,459.86c-1.93,1.79-4.4,2.64-6.82,3.56a64.58,64.58,0,0,0-7.39,3.47,67.11,67.11,0,0,0-13.2,9,47.1,47.1,0,0,0-10,12.53c-1.2,2.19-2.05,4.67-3.61,6.64-1.74,2.2-4.39,3-7.09,3.2a20.82,20.82,0,0,0-4.5.73c-1.68.5-3.33,1.08-5,1.62a34.81,34.81,0,0,1-5,1.33c-.66.1-2.57.45-3-.32s.6-2.45.88-3.08c.69-1.54,1.5-3,2.28-4.54a20.62,20.62,0,0,0,1.76-3.89,16.39,16.39,0,0,0,.28-2.09,14.08,14.08,0,0,1,1-3.54,14.91,14.91,0,0,1,4.65-5.9c2.4-1.81,5.25-2.58,8.11-3.32,2.66-.68,5.29-1.41,8-2a12.07,12.07,0,0,0,6.16-3.3,1,1,0,0,0-1.42-1.41,11.15,11.15,0,0,1-6.08,3c-2.64.56-5.2,1.35-7.8,2a23,23,0,0,0-7.46,3,17,17,0,0,0-4.84,5.06,16.21,16.21,0,0,0-2.33,6.55,11,11,0,0,1-1.21,3.83c-.82,1.63-1.7,3.23-2.49,4.88a12.94,12.94,0,0,0-1.46,4.21c-.6,6.66,13.88.3,16.46-.37,1.88-.49,3.83-.36,5.73-.78a10.27,10.27,0,0,0,6.2-3.91c1.56-2.11,2.46-4.65,3.74-6.93a43.66,43.66,0,0,1,5.16-7.36,57,57,0,0,1,15.07-11.94,65.35,65.35,0,0,1,9-4.4c2.76-1.05,5.51-2,7.71-4.08.94-.88-.47-2.29-1.42-1.41Z"/>
      <path d="M221.7,454.31a21.48,21.48,0,0,1-6.77,5.26,62.44,62.44,0,0,1-9.64,4.19,74,74,0,0,1-9.24,2.58c-3.56.72-7.19.78-10.76,1.35-3.23.52-6.51,1.61-8.81,4a33.48,33.48,0,0,0-4.63,6.62,28.65,28.65,0,0,0-3.3,8c-.39,1.88-.46,4.18,1.46,5.25,2.32,1.29,5.63.56,8.08.12,2.86-.51,5.8-1.47,8.72-1.5a1,1,0,0,0,0-2c-4.88.05-9.7,2.64-14.61,2a2.05,2.05,0,0,1-1.75-.92,4.66,4.66,0,0,1,.08-2.64,36.61,36.61,0,0,1,7.65-13.75c2.42-2.42,6.07-3.1,9.34-3.47s6.43-.56,9.61-1.24a73.87,73.87,0,0,0,8.86-2.52,65.52,65.52,0,0,0,9.95-4.33,23,23,0,0,0,7.17-5.57c.79-1-.62-2.43-1.41-1.42Z"/>
      <path d="M255.73,42.87c-17.69,7-33.42,17.74-47.5,30.44C201.43,79.44,195,86,188.72,92.65q-4.66,5-9.26,10c-3.2,3.5-6.45,7-9.29,10.76A39.06,39.06,0,0,0,163.58,126a31.14,31.14,0,0,0-.33,14.68c2.08,10.32,8,19.45,13.33,28.33,11.2,18.56,22.48,37.11,34.72,55,6.07,8.88,12.39,17.6,19,26.07,3.21,4.08,6.38,8.31,9.94,12.1A32.93,32.93,0,0,0,250.77,270a13.15,13.15,0,0,0,5.12,1.2,1,1,0,0,0,0-2c-4,0-7.95-2.77-10.92-5.25-3.63-3-6.52-6.82-9.48-10.48-6.65-8.23-13-16.74-19-25.41-12-17.21-23.08-35.07-34-53-5.33-8.8-11.31-17.55-15-27.18a38.24,38.24,0,0,1-2.93-14.69,28.87,28.87,0,0,1,4.14-13.85,68.44,68.44,0,0,1,8.72-11.4c3-3.29,6-6.55,9-9.81,6-6.47,12.08-12.85,18.47-18.92,13.24-12.59,27.91-23.73,44.56-31.42q3.38-1.56,6.83-2.92c1.18-.47.66-2.4-.54-1.93Z"/>
      <path d="M197.5,297.92q9.27,19.89,20,39.09c.63,1.13,2.36.12,1.73-1q-10.68-19.17-20-39.09c-.55-1.17-2.27-.15-1.73,1Z"/>
      <path d="M214.65,331.06a81.52,81.52,0,0,0-6.23,10.24c-.59,1.14,1.14,2.15,1.73,1a80.35,80.35,0,0,1,6.23-10.24,1,1,0,0,0-.36-1.37,1,1,0,0,0-1.37.36Z"/>
      <path d="M208.34,342.83c9.3,9.38,18.06,19.58,29,27.1,1.07.73,2.07-1,1-1.73-10.81-7.41-19.45-17.54-28.62-26.79a1,1,0,0,0-1.41,1.42Z"/>
      <path d="M214.28,267l-.05,2.48a3.48,3.48,0,0,0,.26,1.89,2.18,2.18,0,0,0,1.63.9l2.43.45,9.59,1.77c1.26.23,1.8-1.7.53-1.93L220.36,271c-1.33-.24-2.7-.62-4-.75-.18,0-.21-.13-.17,0s.07-.09.07-.08a4.75,4.75,0,0,0,0-1l0-2.21a1,1,0,0,0-2,0Z"/>
      <path d="M234.43,324.31c6.82-4.4,13.7-8.84,21.32-11.74,1.19-.46.68-2.39-.53-1.93-7.79,3-14.83,7.44-21.8,11.94-1.08.7-.08,2.43,1,1.73Z"/>
      <path d="M200.22,370.43c.28,1.92,1.47,3.58,1.76,5.5a1,1,0,0,0,1.23.7,1,1,0,0,0,.69-1.23c-.28-1.92-1.47-3.58-1.76-5.51a1,1,0,0,0-1.23-.69,1,1,0,0,0-.69,1.23Z"/>
      <path d="M202.05,376.34c0-.12.06-.22.06-.31h0l-.09.05s-.16.08-.12.07a2.71,2.71,0,0,1-.71.14l-2.25.21c-1.53.14-3.06.27-4.58.43a1,1,0,0,0-1,1,1,1,0,0,0,1,1c1.84-.2,3.7-.34,5.55-.52a10.86,10.86,0,0,0,2.54-.34,2,2,0,0,0,1.53-2.26,1,1,0,0,0-1.23-.7,1,1,0,0,0-.7,1.23Z"/>
      <path d="M190.88,379.74a54.26,54.26,0,0,1-.26,8.36l1-1c-3.14,0-6.2-.84-9.34-.79a1,1,0,0,0,0,2c3.14-.05,6.2.84,9.34.79a1,1,0,0,0,1-1,54.26,54.26,0,0,0,.26-8.36c-.06-1.28-2.06-1.29-2,0Z"/>
      <path d="M193.85,377.07a19.32,19.32,0,0,0-1.92,1.45l.2-.15q-.36.27-.75.51a1,1,0,0,0-.36,1.37,1,1,0,0,0,1.37.36,19,19,0,0,0,1.92-1.46l-.21.16a7.21,7.21,0,0,1,.76-.51,1.06,1.06,0,0,0,.46-.6,1,1,0,0,0-.1-.77,1,1,0,0,0-1.37-.36Z"/>
      <path d="M179.05,389.73c.66-.24,1.3-.53,1.94-.81l.95-.41.06,0-.13.05.1,0,.21-.09.37-.14a1.06,1.06,0,0,0,.6-.46,1.08,1.08,0,0,0,.1-.77,1,1,0,0,0-1.23-.7c-.66.25-1.3.54-1.94.81l-1,.41-.06,0,.13-.06-.1,0-.21.09-.37.15a1.06,1.06,0,0,0-.6.46,1.08,1.08,0,0,0-.1.77,1,1,0,0,0,1.23.69Z"/>
      <path d="M177.79,388.77a38.78,38.78,0,0,1-.4,6.63l1-.74a59.15,59.15,0,0,1-8.83.06,1,1,0,0,0-1,1,1,1,0,0,0,1,1,59.15,59.15,0,0,0,8.83-.06,1,1,0,0,0,1-.73,40.84,40.84,0,0,0,.47-7.16,1,1,0,0,0-2,0Z"/>
      <path d="M241.43,449.57c1.8-.75,3.73-.2,5.54.25a24.92,24.92,0,0,0,3,.59c.62.07,1.83-.21,2.13.5s-.35,1.49-.58,2.1a25.06,25.06,0,0,0-.79,2.55c-.4,1.48-.82,3.2-2.14,4.14a1,1,0,0,0-.36,1.37,1,1,0,0,0,1.37.36,7.37,7.37,0,0,0,2.65-3.92,31.56,31.56,0,0,1,1.46-4.57,3.29,3.29,0,0,0,.34-2.51,2.69,2.69,0,0,0-1.83-1.84,23.13,23.13,0,0,0-2.52-.22c-.92-.15-1.82-.4-2.73-.62-2-.48-4.11-.92-6-.11a1,1,0,0,0-.7,1.23,1,1,0,0,0,1.23.7Z"/>
    </g>
  </g>
</svg>
