<svg class="Body" xmlns="http://www.w3.org/2000/svg" viewBox="0 0 512 512">
  <title>body8</title>
  <path class="PrimaryColor" d="M370.7,314.66c-.77-9.13-6.15-15.77-12.32-22.14a5.83,5.83,0,0,0-1.29-1,9.88,9.88,0,0,0-.78-1.24,14.93,14.93,0,0,0-3.55-3.27,24.54,24.54,0,0,0-7.84-3.15c-.65-.77-1.3-1.54-2-2.3a4.28,4.28,0,0,0-2.65-1.58,4.69,4.69,0,0,0-.11-.54,5.28,5.28,0,0,0-4.16-3.84c-3.35-6.08-9.73-10.68-15.78-13.83-4.78-2.48-9.78-4.61-14.74-6.69-2.84-1.2-6.22-3.08-9.53-3.64a33.47,33.47,0,0,0-3.86-3.14,5.25,5.25,0,0,0-4.51-3.27,12.83,12.83,0,0,1-.46-1.49q3.82-4.29,7.43-8.76.21-.15.42-.33c10.36-8.89,16.34-21.53,27-30.2,11.65-9.47,25.05-17.22,38.22-24.37l0,0a11.68,11.68,0,0,0,3.34-.39,4,4,0,0,1,1-.72l1.88-.94a5.78,5.78,0,0,1,1-.39,4.85,4.85,0,0,0,1.11-4.64c0-.1-.08-.19-.12-.29a5.8,5.8,0,0,1-1.63-1,7.88,7.88,0,0,1-1.85-2.22,4.74,4.74,0,0,0-1.6-.16c-.12,0-.24-.1-.37-.13l-1.78-.44a4.92,4.92,0,0,0-1-1.2c-6.95-6.06-14.11-12-20.81-18.29l-.4-.4a4.83,4.83,0,0,1-2.93-3.07L333.79,143a149.54,149.54,0,0,0-4.18-40.38,140.28,140.28,0,0,0-4.21-13.92c1-5.6-3.86-12.06-6.8-16.51a55.14,55.14,0,0,0-19.69-18.43c-14.35-7.8-30.56-9.19-46.55-8.07a5,5,0,0,0-2.7-1,16.64,16.64,0,0,0-9.43,1.8,5,5,0,0,0-4.53.16l-.15.07a17.24,17.24,0,0,0-8.38,1.44c-1.32.56-2.56,1.22-3.81,1.85l-.57.11a4.29,4.29,0,0,0-1.06.38,5.83,5.83,0,0,0-3.89.08,5.05,5.05,0,0,0-2.21,1.29c-.88,1.17-1,1.35-.44.55a5,5,0,0,0-1.76,1.57l-1.23.42a5,5,0,0,0-2.51,1.8h-.09a6.39,6.39,0,0,0-6.2,5.14,38.82,38.82,0,0,0-6.49,6.33,5.46,5.46,0,0,0-1,2l-4.8,5a4.67,4.67,0,0,0-1,5.18q-2.79,4.74-5.59,9.49a4.46,4.46,0,0,0,.25,5.35c-.93,3.59-1.63,7.27-2.27,11l-4.71,27.25a5.33,5.33,0,0,0,1,4.36c-.36,2.82-.71,5.64-1.07,8.47a40.45,40.45,0,0,0-5.87,5.08,4.67,4.67,0,0,0-.89,1.29l-7,5.68a4.32,4.32,0,0,0-1.15,1.42,6.06,6.06,0,0,0-1.16.63c-2.26,1.6-4.56,3.17-6.8,4.8-.57.41-2.64,3.22-3.1,3.7a23.22,23.22,0,0,0-2.54.45l-1,.15a3.65,3.65,0,0,1-.59.71,26.94,26.94,0,0,1-2.11,1.73l-.34.25-.38.38a5,5,0,0,1-2.71,1.34,4.73,4.73,0,0,0-.16,1.26l.13,1a6,6,0,0,1,.79.35,8.57,8.57,0,0,1,2.05,1.21,3.63,3.63,0,0,1,1.59.43,5.11,5.11,0,0,1,2.45,2.22l.26-.11a4.8,4.8,0,0,0,3.78,1.81l1.39-.05a258.56,258.56,0,0,1,22.94,13,7.22,7.22,0,0,0,1,.46,5.15,5.15,0,0,0,1.89,2.5A142.16,142.16,0,0,1,203.67,219a131.57,131.57,0,0,1,9.66,12.52,24.1,24.1,0,0,0,4.47,5.43,5.42,5.42,0,0,0,1.46,3,5.05,5.05,0,0,0,3.54,1.46,3.05,3.05,0,0,0,.41-.05c.68.84,1.35,1.68,2,2.52a23,23,0,0,1-5,4.24,18.52,18.52,0,0,0-2.56,1.42,5.88,5.88,0,0,0-1.37,1.29A75,75,0,0,0,204.59,257a4.8,4.8,0,0,0-3,.47c-5.65,3-11.72,5.69-17.07,9.22-3.3,2.18-4.79,5.39-7,8.22a4.6,4.6,0,0,0-1,.79A70.64,70.64,0,0,1,165.45,285a7.1,7.1,0,0,0-.76.23,21.57,21.57,0,0,0-6.54,3.76,4.23,4.23,0,0,0-4.06,1.43,62.64,62.64,0,0,0-8.55,12.56,4.42,4.42,0,0,0-1.77,1.12,5.35,5.35,0,0,0-1.46,3.54c0,.55,0,1.1-.05,1.65a2.8,2.8,0,0,0,0,.29c-.12.31-.23.61-.32.91a10.94,10.94,0,0,0-.54,3.32,5,5,0,0,0,.17,1.49c.7,4.59,4.27,8.58,7.37,12.67,1.11,5.72,4.07,10.44,7.28,15.06a4.92,4.92,0,0,0,1.27,3.45l0,.05a6,6,0,0,0,.55,2,38.17,38.17,0,0,0,2.94,5.19c.25.58.47,1.16.68,1.76a4.07,4.07,0,0,0-1.2,1.6c-.18.41-.33.81-.48,1.2h0l-.18.49a4.26,4.26,0,0,0-.28.76c-.42,1.13-.83,2.27-1.25,3.4a4.1,4.1,0,0,0-.24,1.77,6.1,6.1,0,0,0-.28,1.5,9.75,9.75,0,0,0,.69,3.07,5.46,5.46,0,0,0,.93,2.57,27.16,27.16,0,0,0,2.33,6.71,15.4,15.4,0,0,0,.71,2.22,5.39,5.39,0,0,0,1.13,1.69c.19.6.37,1.2.55,1.79a5.65,5.65,0,0,0,.67,1.42,10.79,10.79,0,0,0,.18,2.19,8.39,8.39,0,0,0,4.45,5.84,4.41,4.41,0,0,0,.39.49,3.78,3.78,0,0,0,1.61,1c.09.05.19.08.28.12a6.55,6.55,0,0,1,3.45-.72,4.85,4.85,0,0,1,1.9.39,5,5,0,0,0,1.09-.82l.78-1a5.27,5.27,0,0,0,.24-4.7l0-.06a15.37,15.37,0,0,0,1.15-1.54,7,7,0,0,0,.91-.18,7.56,7.56,0,0,0,1.87-.87,16.42,16.42,0,0,0,2.05,1.27,8.15,8.15,0,0,0,1,.41l.08,0a13.61,13.61,0,0,1,2.63-.42,4.22,4.22,0,0,1,2,.41,6.44,6.44,0,0,0,2-1.26,2.61,2.61,0,0,1,0-.28c0-.51.08-1,.15-1.47a4.76,4.76,0,0,1-.44-3.63,4.69,4.69,0,0,1,.6-1.33,5.27,5.27,0,0,0-.51-.55c.23-.15.47-.3.69-.47a7.32,7.32,0,0,0,1.39-1.32c.33.11.67.19,1,.28a4.88,4.88,0,0,1,.65-.2,4.37,4.37,0,0,1,3.52-.34.39.39,0,0,1,.1-.08,4.84,4.84,0,0,1,3.27-1,4.07,4.07,0,0,0,.52-.82,3,3,0,0,1-.39-.61,14.24,14.24,0,0,1-1-2.68,5.36,5.36,0,0,1-.15-1.17l-.07-.24a12,12,0,0,1-.29-1.57,4.9,4.9,0,0,0-2-.78,7,7,0,0,0-1.36-.72,25.44,25.44,0,0,1-4.44-2.41,7.09,7.09,0,0,0,4.7-3.3,5,5,0,0,0-1.52-8.92h0a5,5,0,0,0-4.71-3.49c-3.4-.11-8.74.43-11.88-.69l-.17-.08a10,10,0,0,0-2-1.9,4.45,4.45,0,0,0-1.25-.63,6.49,6.49,0,0,0-1.11-.69c-.6-1.56-1.18-3.13-1.71-4.72a38.14,38.14,0,0,1-2.2-12.6c0-3.37-.1-6.44-1.93-9.05.22-.12.46-.24.74-.36,2.69-1.15,5.21-1.19,7.68-3a5.33,5.33,0,0,0,1.79-2.31,5.13,5.13,0,0,0,2.32-1.24c1.53-1.39,3-2.82,4.44-4.28l2-1.88a5.18,5.18,0,0,0,.88-1.1q3.7-4,7.07-8.39l0,0h0l.69-.9,0,0a10.28,10.28,0,0,0,.07,2.92c.4,2.51,1.56,4.5,2.2,6.86a4.78,4.78,0,0,0-.3,1.65v3.11a9,9,0,0,0,0,1.37,5.73,5.73,0,0,0,.4,1.73,6,6,0,0,0,1.28,4.62l.12,1.29a5,5,0,0,0,4.12,4.73,5.07,5.07,0,0,0,1.89,2.2L213,329c-1,8.34,2.76,18,5,25.78,1.22,4.17,2.06,8.85,5.65,11.64a33.2,33.2,0,0,0,8,4.15,6.16,6.16,0,0,0,.08,1.65l1.44,7.35a3.43,3.43,0,0,0,.27.8,5.21,5.21,0,0,0-.56.73c-.69,1.13-1.42,2.21-2.16,3.28a4.45,4.45,0,0,0-1.13.94c-5.52,6.34-11,12.75-14.82,20.28-1.8,1.86-3.7,3.66-4.09,6.21l-.8,1.31a4.83,4.83,0,0,0-.73,2.48c-.09.16-.16.31-.25.48-.33.83-.36.86-.07.09a3.8,3.8,0,0,0-1,1.61c-.63,1.71-.39,3.52-.36,5.32,0,0,0,.07,0,.1a5.11,5.11,0,0,0,.86,3,4.42,4.42,0,0,0,.59,1.93c.73,1.23,1.44,2.48,2.13,3.73a4.85,4.85,0,0,0,.05,2.17,15.64,15.64,0,0,0,3.74,7L223,455.61l.09.13a5.22,5.22,0,0,0-2,1.18L218,459.8c-.84.48-1.67,1-2.48,1.52a25.15,25.15,0,0,0-8.91,4.42c-2.25,1-4.53,2-6.85,2.8a4.94,4.94,0,0,0-2-.05q-4.73.88-9.45,1.82a4.57,4.57,0,0,0-5.36-.29c-3.83,2.21-9.91,7.57-12,13.07a9.91,9.91,0,0,0-1.44,3.36c-.81,3.46,1.79,5.82,4.51,6.18a4.47,4.47,0,0,0,.61.14c.27-.4.23-.28.09-.08a6.4,6.4,0,0,1,.72-.82,5.21,5.21,0,0,0,6.95-1.72c.1-.07.21-.12.31-.2l.49-.36c1.4-.25,2.8-.52,4.19-.85a4.83,4.83,0,0,0-.24,1.87,3.75,3.75,0,0,1,.11.8l-2.36,3.25a1,1,0,0,1-.08.11,7.51,7.51,0,0,0-.85.43,4.32,4.32,0,0,1-.69,2.65c-.29.43-.6.83-.93,1.23a4.65,4.65,0,0,1-1,1.82h0a5,5,0,0,0,5.39,3.59h.11a4.7,4.7,0,0,0,3-.62A4.46,4.46,0,0,0,192.4,502a38.63,38.63,0,0,0,3.31-2.12l.41-.13a5.49,5.49,0,0,0,2.13.55,13.71,13.71,0,0,0,7.38-1.8,4.53,4.53,0,0,0,2.25-2.9,5,5,0,0,0,1.24-1.56,67,67,0,0,1,16.6-20.54,4.43,4.43,0,0,0,.83-.92,28.57,28.57,0,0,1,3-1.52c1.11-.33,2.18-.73,3.26-1.16l.08,0h0l1.2-.49a3.93,3.93,0,0,0,2.32-2.47,67.23,67.23,0,0,1,10.28-4.12,4.79,4.79,0,0,0,3.4-3.77,11.3,11.3,0,0,0,1.31-1.09,5,5,0,0,0,0-7.07,5.31,5.31,0,0,0-2.17-1.2,4.58,4.58,0,0,0-4.16.17,8.1,8.1,0,0,0-.86,0c-.93,0-2,.59-2.92.52-2.22-.17-.55.64-2.15-1.34s-2.11-6.27-2.66-8.72c-.8-3.58-1.33-7.22-1.88-10.85l-.06-.31a37.63,37.63,0,0,1,4.06-4.25,4.29,4.29,0,0,0,1.57-3.9,4.3,4.3,0,0,0,3.78-2.48c2-3.84,3.84-7.76,5.53-11.75a5.61,5.61,0,0,0,1.09-.79,8.37,8.37,0,0,0,.68-.89,4.3,4.3,0,0,0,1.79-2.25c2.25.85,5,.34,6.11-2l.16-.1c.77,3.34,2.43,6.42,4.14,9.76a4.54,4.54,0,0,0,1.93,2,6.45,6.45,0,0,0,.68,1l.8.95a3,3,0,0,0,.74.63,19.18,19.18,0,0,0,1.62,2.64c2.88,3.89,6.31,6.83,8.72,10.37a6.28,6.28,0,0,0-.68,3.13c-1.18,6.33-2.08,13.45-4.77,19.3,0,0,0,0,0,0a5,5,0,0,0-4.34-.3l-.23-.07a6.21,6.21,0,0,0-2.68-.88l-1.21-.12c-4.13-.41-6.87,5.9-3.54,8.53l0,0a6.07,6.07,0,0,0,.33.86,10.53,10.53,0,0,0,3.75,4.06,4.59,4.59,0,0,0,3.15.64l.66.24c.27.28.55.59.83.93a4.28,4.28,0,0,0,3.58,1.44l.36,0a25.67,25.67,0,0,1,9.39,5.63c2.12,2,3.84,4,6.37,5.19a7.35,7.35,0,0,0,1.23,2.21c2.14,2.64,5.47,4.05,7.66,6.76s3,6,4.77,8.92c1.61,2.67,4.22,4,7.19,4.61,2.69.56,5.25,1,7.78,1.71l.29.36a14.13,14.13,0,0,0,2.5,2.29,4.81,4.81,0,0,1,2.09.4q.69-.1,1.38-.24a4.91,4.91,0,0,1,3.63.58A5.15,5.15,0,0,0,330.1,500l0-.33a4.2,4.2,0,0,0-.94-2.91,4.15,4.15,0,0,0-2.49-2.94c-.48-.23-1-.44-1.45-.65a5.14,5.14,0,0,0,.11-.8l.06-1.72a4.41,4.41,0,0,0-.3-1.73,5.06,5.06,0,0,0,3.23,1.35,40.71,40.71,0,0,1,8.21,1.37c5.66,1.52,8.36-6.32,4.13-9a6.11,6.11,0,0,0-.33-.82,22.52,22.52,0,0,0-4.52-6.07,4.34,4.34,0,0,0-1.3-2.49,7.3,7.3,0,0,0-3-1.68,6.57,6.57,0,0,0-2.16-.18,30.28,30.28,0,0,0-13.5-2.66,6,6,0,0,0-1,.11,9.31,9.31,0,0,0-2.29-.33,4.41,4.41,0,0,0-3.7-1.79,10.59,10.59,0,0,0-1.56.15l-.51-.08a5.4,5.4,0,0,0-.46-.33,10.76,10.76,0,0,0-4.12-1.63,5.39,5.39,0,0,0-1.26-.07,4.38,4.38,0,0,0-1.32-.61h0a7.51,7.51,0,0,0-5.87-3.78,34.39,34.39,0,0,0-4.67-4.83c.06-.1.11-.21.17-.32a10.9,10.9,0,0,1,2.11-2.81,6.24,6.24,0,0,0,.75-2.73c.48-.84.94-1.7,1.35-2.59a6.14,6.14,0,0,0,1.73-1.87,6.49,6.49,0,0,0,.84-2.77,74.18,74.18,0,0,0,6.53-12.1c1.86-4.43,3.36-8.8,1.65-13.52-2.13-5.83-6.1-11.36-9.36-16.6a5.19,5.19,0,0,0-2.56-2.08c-.07-.21-.14-.42-.23-.64a40.82,40.82,0,0,0-6-9.78c-.81-1.05-6.52-6.47-7.58-7.66a11.36,11.36,0,0,0,1.73-8.74,12.22,12.22,0,0,0-.6-1.93c4-1.08,7.77-2.47,10.48-6.4s3.33-8.69,4.37-13.12l4.2-18a5.23,5.23,0,0,0-.14-3c4.87-3,10-6.7,12.39-11.09,1.7-3.08,1.23-6.83,1.29-10.2q.09-5.61.66-11.19l.4.22a5.32,5.32,0,0,1,2.79,2.75,20.5,20.5,0,0,0,2.37,3.67c4.41,4.68,10.83,8.17,16,11.91a62.54,62.54,0,0,0,5.5,3.6,103.66,103.66,0,0,0,.47,12.33,4.5,4.5,0,0,0-.86,3.15,6.68,6.68,0,0,0,.17.87q-2.37,4.88-4.72,9.76c-.14.29-.29.59-.45.89a5,5,0,0,0-1.49.73c-3.76,2.61-6.58,2.7-10.9,2.66-2.43,0-4.45.48-5.82,2.42a5.48,5.48,0,0,0-2.89,2.34,5.09,5.09,0,0,0-.61,1.82c-1.62,2.89-.57,7.2,2.43,7.89,0,.73,0,1.45,0,2.18,0,.14,0,.27,0,.41l-.64.27-1.17.42c-.13,0-.26,0-.39.06s-.46,0-.69.09l-.07,0h0l-1.2.5-.07,0-1,.79,0,0a6.09,6.09,0,0,0-.85,1.1,5.21,5.21,0,0,0-.7,2.61,5.14,5.14,0,0,0,.74,2.73,5.34,5.34,0,0,0,1.86,1.86l.06,0,.62.26.62.26.07,0h0l1.33.18H314l.69-.1a4.08,4.08,0,0,0,.69-.09l.19-.07a5,5,0,0,0,2.48-.59,13.57,13.57,0,0,0,1.13,1.49s0,0,0,0a12.19,12.19,0,0,0,.06,2c-.1.22-.19.45-.27.68a3.94,3.94,0,0,0-.24,1.5l.18,1.33a5,5,0,0,0,1.29,2.2l1,.78a5,5,0,0,0,2.52.69h.48a4.18,4.18,0,0,0,.5,0,4.25,4.25,0,0,0,4.07-1.37l.61-.75a5,5,0,0,0,4,2.13h.42a.11.11,0,0,1,0,.05l-.13.32c-1.06,2.48-.75,5.36,1.79,6.84,2.1,1.23,5.78.71,6.84-1.79l.11-.25.23-.2a5.07,5.07,0,0,0,1.94-1.67c3.17-4.44,7.12-8.9,8.66-14.25,1.34-4.66,1.07-10,.19-14.71a8.63,8.63,0,0,0-3.23-5.59c1.13-1.95,1.84-4.3,2.74-6.25q2.19-4.75,4.48-9.47c3.2-6.56,6.57-13,10.06-19.45a5.23,5.23,0,0,0,.58-1.61A4.06,4.06,0,0,0,370.7,314.66Z" fill="#22b573"/>
  <g id="Mirror">
    <g>
      <path d="M305.19,426.84c-2.22,5.64-4.6,11.21-7.35,16.61-2.28,4.46-4.82,8.77-7.38,13.08a1,1,0,0,1-1.73-1c2.5-4.21,5-8.43,7.23-12.78a179.67,179.67,0,0,0,7.3-16.43c.46-1.19,2.4-.67,1.93.53Z"/>
      <path d="M262,400.71a16.15,16.15,0,0,1-2.75,2,23,23,0,0,1-2.93,1.48,1,1,0,0,1-1.23-.7,1,1,0,0,1,.69-1.23c.2-.08-.15.07,0,0l.15-.07.31-.14.66-.33c.47-.24.93-.49,1.38-.76s.91-.55,1.35-.86l.31-.22.13-.09c.2-.16-.17.13,0,0s.36-.29.53-.45a1,1,0,0,1,1.41,1.42Z"/>
      <path d="M259.69,401.25a80.45,80.45,0,0,0,19.88,26.65c1,.85-.45,2.26-1.42,1.41A81.92,81.92,0,0,1,258,402.26c-.54-1.16,1.19-2.17,1.73-1Z"/>
      <path d="M277.35,426.31A53.17,53.17,0,0,1,271.42,453c-.59,1.14-2.32.13-1.72-1a51.16,51.16,0,0,0,5.65-25.67c-.06-1.28,1.94-1.28,2,0Z"/>
      <path d="M297.72,268l0,2.48a3.48,3.48,0,0,1-.26,1.89,2.18,2.18,0,0,1-1.63.9l-2.43.45-9.59,1.77c-1.26.23-1.8-1.7-.53-1.93l8.31-1.54c1.33-.24,2.7-.62,4-.75.18,0,.21-.13.17,0s-.07-.09-.07-.08a4.75,4.75,0,0,1,0-1l0-2.21a1,1,0,0,1,2,0Z"/>
      <path d="M311.81,290.23A60.27,60.27,0,0,0,346.51,320c1.21.39.69,2.33-.54,1.92a62.21,62.21,0,0,1-35.89-30.69c-.58-1.14,1.15-2.16,1.73-1Z"/>
      <path d="M317,365.51a14.08,14.08,0,0,1-5.7-4.11c-.58-.7-1.5-1.83-1.33-2.8a10,10,0,0,1,.65-1.81c1.67-4.3,5.51-8.86,10.28-9.79,1-.2,2.13.42,3.19.58a12.46,12.46,0,0,0,5.36-.39,9.16,9.16,0,0,0,4.74-3.32c2.53-3.3,3.56-7.64,4.25-11.66a103.38,103.38,0,0,0,1.15-13.39c.06-1.28,2.06-1.29,2,0-.32,7.78-.56,16.2-4,23.33-1.73,3.55-4.47,6.29-8.4,7.19a14.63,14.63,0,0,1-4.07.34,16,16,0,0,1-2-.25,5.13,5.13,0,0,1-1.23-.29c-.29-.15-.35-.2-.48-.21a6.15,6.15,0,0,0-2.55,1,13.68,13.68,0,0,0-3.19,2.48,15.26,15.26,0,0,0-2.62,3.74A8.8,8.8,0,0,0,312,359c0,.37,0-.16.06-.1a5.26,5.26,0,0,0,.7,1.1,10.35,10.35,0,0,0,1.47,1.49,11.5,11.5,0,0,0,3.35,2.11c1.2.45.68,2.38-.53,1.93Z"/>
      <path d="M310.27,367.62c2.3-1.53,4.79-2.74,7.06-4.32a15.23,15.23,0,0,0,3.14-2.74,4.14,4.14,0,0,0,1.12-2.81c0-1.29,2-1.29,2,0,.12,3-2.52,5.31-4.75,6.92-2.41,1.75-5.09,3-7.56,4.68-1.08.71-2.08-1-1-1.73Z"/>
      <path d="M288.51,243.22c8.48,8.68,20.54,12.34,31.27,17.37,3.94,1.85,7.92,3.81,11.09,6.86,2.28,2.19,4.08,4.82,6.18,7.18a46.89,46.89,0,0,0,10.67,8.72c2.53,1.56,5.31,2.77,7.74,4.48a37.28,37.28,0,0,1,5.39,4.72,51.68,51.68,0,0,1,9.35,13.31,25.58,25.58,0,0,1,2.24,6.47,6.94,6.94,0,0,1-1.49,5.88c-1.73,2.32-4,4.19-5.06,6.92q-2.28,5.69-4.76,11.28c-3.39,7.71-7,15.32-10.57,22.95l-1.73-1,2.28-3.65a1,1,0,0,1,1.83.24,45,45,0,0,1,1.94,6.76c.45,1.81,1.15,3.62.84,5.48a58.12,58.12,0,0,1-7.91,20.62,75.94,75.94,0,0,1-4.9,7.06c-.77,1-2.51,0-1.72-1a70.74,70.74,0,0,0,8.64-14.14,53.55,53.55,0,0,0,3.56-10.91,7.64,7.64,0,0,0,.42-3l-.66-2.77a50.27,50.27,0,0,0-2.14-7.54l1.83.24-2.28,3.65a1,1,0,0,1-1.73-1c3.09-6.63,6.22-13.23,9.22-19.9,1.53-3.41,3-6.83,4.46-10.28,1.11-2.69,1.94-5.31,3.82-7.57,1.43-1.73,3.58-3.51,4.22-5.73.53-1.87-.6-4.48-1.28-6.18a46.25,46.25,0,0,0-8.67-13.46,39.72,39.72,0,0,0-5.45-5.16,62.87,62.87,0,0,0-6.82-4,52.12,52.12,0,0,1-11.59-8.81c-2.2-2.3-4-4.91-6.17-7.24a31.27,31.27,0,0,0-9.44-6.54c-11.55-5.77-24.78-9.34-34-18.83-.9-.92.51-2.34,1.42-1.41Z"/>
      <path d="M311.42,369.12c-.28,1.93-1.48,3.58-1.76,5.51a1,1,0,0,1-1.23.7,1,1,0,0,1-.7-1.23c.28-1.93,1.48-3.59,1.76-5.51a1,1,0,0,1,1.23-.7,1,1,0,0,1,.7,1.23Z"/>
      <path d="M309.58,375c0-.12-.06-.21-.05-.31s-.07,0,0,0l.09,0,.13.07a2.29,2.29,0,0,0,.7.14l2.25.22c1.53.13,3.06.26,4.59.43a1,1,0,0,1,1,1,1,1,0,0,1-1,1c-1.85-.21-3.7-.35-5.55-.52a10.73,10.73,0,0,1-2.54-.35,2,2,0,0,1-1.54-2.26,1,1,0,1,1,1.93.53Z"/>
      <path d="M320.75,378.44a54.3,54.3,0,0,0,.26,8.36l-1-1c3.14.05,6.2-.85,9.34-.8a1,1,0,0,1,0,2c-3.14-.05-6.2.85-9.34.8a1,1,0,0,1-1-1,54.3,54.3,0,0,1-.26-8.36c.06-1.29,2.06-1.29,2,0Z"/>
      <path d="M317.78,375.76a17,17,0,0,1,1.92,1.46l-.2-.16a5.6,5.6,0,0,0,.76.51,1.1,1.1,0,0,1,.46.6,1.08,1.08,0,0,1-.1.77,1,1,0,0,1-1.37.36,18.22,18.22,0,0,1-1.92-1.45l.2.15a8.38,8.38,0,0,0-.76-.51,1.07,1.07,0,0,1-.46-.6,1.09,1.09,0,0,1,.1-.77,1,1,0,0,1,1.37-.36Z"/>
      <path d="M332.58,388.43c-.66-.25-1.3-.54-1.94-.82l-.95-.4-.06,0,.14.06-.11,0-.21-.09-.36-.15a1.06,1.06,0,0,1-.6-.46,1,1,0,0,1-.1-.77,1,1,0,0,1,1.23-.7c.65.25,1.29.54,1.94.82l.94.41.07,0-.14,0,.1,0,.21.08.37.15a1.06,1.06,0,0,1,.6.46,1,1,0,0,1,.1.77,1,1,0,0,1-1.23.7Z"/>
      <path d="M333.85,387.46a37.67,37.67,0,0,0,.39,6.63l-1-.73a57.71,57.71,0,0,0,8.82.05,1,1,0,0,1,1,1,1,1,0,0,1-1,1,57.71,57.71,0,0,1-8.82-.05,1,1,0,0,1-1-.74,40.83,40.83,0,0,1-.46-7.16,1,1,0,0,1,2,0Z"/>
      <path d="M255.5,267.11a110.3,110.3,0,0,0,24.24-16.72,171.83,171.83,0,0,0,16.32-17.27c6.44-7.69,12.31-15.86,19.17-23.2s15.19-13.37,23.89-18.69c10.11-6.18,20.7-11.55,31.06-17.3v1.73c-6.81-5-13.45-10.3-20-15.61L340,151.86a34,34,0,0,1-4.39-3.72,7.94,7.94,0,0,1-1.9-4.6c-.44-4.14-.42-8.35-.81-12.5s-.95-8.57-1.55-12.84a234.54,234.54,0,0,0-4-23.12c-2.72-11-7.35-21.66-15-30.09a55.68,55.68,0,0,0-23.52-15c-9.24-3.11-19-4.26-28.72-4.49-1.24,0-2.47,0-3.7,0a1,1,0,0,1,0-2c9.83,0,19.77.83,29.27,3.47A60.22,60.22,0,0,1,310.38,60.2c7.95,7.3,13.36,16.88,16.77,27a122.85,122.85,0,0,1,4.62,20.59c1.3,8.43,2.58,16.86,3.29,25.36.18,2.18.33,4.35.43,6.53.09,2-.13,4.27.85,6.06s2.67,2.77,4.1,3.91l5.09,4.09c6.77,5.46,13.53,10.94,20.44,16.23q2.59,2,5.22,3.92a1,1,0,0,1,0,1.73c-9.25,5.13-18.67,10-27.79,15.33-8.83,5.21-17.46,10.88-24.7,18.2-7.09,7.18-13,15.36-19.41,23.15a183.86,183.86,0,0,1-16.35,17.82,113.09,113.09,0,0,1-26.44,18.68c-1.14.58-2.16-1.15-1-1.73Z"/>
      <path d="M314.48,296.72c-.31,3.82-.56,7.65-.82,11.47-.14,1.89-.27,3.78-.42,5.68a13,13,0,0,1-1.17,5.25,19,19,0,0,1-3.86,4.29q-1.93,1.83-4,3.53a59.35,59.35,0,0,1-6.9,4.89c-3.26,2-6.62,3.82-9.92,5.75a1,1,0,0,1-1-1.72c5.1-3,10.46-5.7,15.15-9.33a65.24,65.24,0,0,0,7.47-6.72c2.64-2.79,2.29-7,2.54-10.59.3-4.17.56-8.34.9-12.5.1-1.27,2.1-1.28,2,0Z"/>
      <path d="M281.89,370.35a25.35,25.35,0,0,1-1.18,6.58,26.33,26.33,0,0,1-3.2,5.87c-.71,1.06-2.45.06-1.72-1a25,25,0,0,0,3-5.4,23.48,23.48,0,0,0,1.11-6c.11-1.27,2.11-1.28,2,0Z"/>
      <path d="M279.7,379.75a115.46,115.46,0,0,1,13.29,16c2.39,3.43,4.73,6.9,7.06,10.38a50.51,50.51,0,0,1,4.72,8.63,19.19,19.19,0,0,1,1.66,5.88,13,13,0,0,1-1.33,6.28c-.52,1.18-2.25.16-1.73-1a10.6,10.6,0,0,0,1-5.62,19.86,19.86,0,0,0-1.59-5.08,48.36,48.36,0,0,0-4.55-8.17c-4-5.91-7.87-11.93-12.35-17.48a104.16,104.16,0,0,0-7.62-8.37,1,1,0,0,1,1.41-1.42Z"/>
      <path d="M300.94,329.94q-2.9,13.89-6.87,27.52c-1.12,3.84-1.81,8-5.63,10-1.94,1-4.05,1.79-6.07,2.65L275.56,373c-1.17.5-2.19-1.22-1-1.73,4.11-1.73,8.34-3.31,12.35-5.25a6.84,6.84,0,0,0,3.82-4.37c.67-2,1.24-4.08,1.83-6.13q3.72-12.93,6.46-26.12c.26-1.26,2.19-.73,1.93.53Z"/>
      <path d="M267.44,345.18c-3.76,1.16-7.41,2.67-11.17,3.83-1.24.38-1.76-1.55-.54-1.93,3.77-1.16,7.41-2.67,11.18-3.83,1.23-.38,1.76,1.55.53,1.93Z"/>
      <path d="M287.09,358.17a15.44,15.44,0,0,0-1,2.45c-.16.49-.22,1.16-.64,1.5a9.65,9.65,0,0,1-1.38.75l-5.39,2.86a1,1,0,0,1-1-1.73l6.66-3.53-.46.59a18.31,18.31,0,0,1,1.51-3.9,1,1,0,1,1,1.72,1Z"/>
      <path d="M290.57,343.55l-1.28,3.57-.62,1.74a4.4,4.4,0,0,1-3.68,3.4l-3.69,1.51a1,1,0,0,1-1.23-.7,1,1,0,0,1,.7-1.23l3.25-1.33c.49-.2,1-.39,1.46-.6a1.77,1.77,0,0,0,.89-.67,7.89,7.89,0,0,0,.53-1.35l.56-1.56,1.18-3.31a1,1,0,1,1,1.93.53Z"/>
      <path d="M263.62,460.85c1.93,1.79,4.4,2.65,6.83,3.57a64.41,64.41,0,0,1,7.39,3.46,67.34,67.34,0,0,1,13.19,9,47.3,47.3,0,0,1,10,12.53c1.19,2.19,2,4.68,3.6,6.65,1.74,2.19,4.4,3,7.09,3.19a22.12,22.12,0,0,1,4.5.73c1.68.5,3.33,1.09,5,1.62a33.88,33.88,0,0,0,5,1.33c.66.1,2.58.46,3-.32s-.59-2.44-.87-3.07c-.69-1.55-1.51-3-2.29-4.55a21.27,21.27,0,0,1-1.76-3.89,18.1,18.1,0,0,1-.28-2.09,13.76,13.76,0,0,0-1-3.54,15,15,0,0,0-4.66-5.9c-2.4-1.81-5.24-2.58-8.11-3.31-2.66-.68-5.29-1.42-8-2a12.12,12.12,0,0,1-6.17-3.29c-.9-.92.51-2.34,1.42-1.42a11.11,11.11,0,0,0,6.09,3c2.63.56,5.19,1.35,7.79,2a23,23,0,0,1,7.46,3,17.33,17.33,0,0,1,4.85,5.06,16.19,16.19,0,0,1,2.32,6.55,10.94,10.94,0,0,0,1.21,3.84c.82,1.63,1.71,3.22,2.49,4.87a12.94,12.94,0,0,1,1.46,4.21c.6,6.66-13.87.3-16.45-.37-1.89-.49-3.84-.36-5.74-.78a10.17,10.17,0,0,1-6.19-3.91c-1.56-2.11-2.47-4.64-3.75-6.93a43.6,43.6,0,0,0-5.15-7.36,57.42,57.42,0,0,0-15.08-11.94,65.35,65.35,0,0,0-9-4.4c-2.75-1-5.5-2-7.71-4.08-.94-.87.48-2.29,1.42-1.41Z"/>
      <path d="M290.28,455.31a21.73,21.73,0,0,0,6.77,5.26,62.81,62.81,0,0,0,9.64,4.18,72,72,0,0,0,9.25,2.58c3.55.72,7.18.78,10.76,1.36,3.22.51,6.51,1.6,8.8,4a33.07,33.07,0,0,1,4.63,6.62,28.46,28.46,0,0,1,3.3,8c.39,1.88.46,4.18-1.46,5.25-2.31,1.3-5.63.56-8.07.12-2.87-.5-5.8-1.47-8.73-1.5a1,1,0,0,1,0-2c4.89.05,9.71,2.64,14.62,2a2.06,2.06,0,0,0,1.74-.93,4.46,4.46,0,0,0-.08-2.63,28.2,28.2,0,0,0-3.27-7.66,29,29,0,0,0-4.37-6.1c-2.43-2.42-6.08-3.09-9.35-3.46s-6.43-.57-9.6-1.25a73.5,73.5,0,0,1-8.87-2.52,64,64,0,0,1-9.94-4.33,23,23,0,0,1-7.18-5.57c-.78-1,.62-2.43,1.41-1.41Z"/>
      <path d="M270.55,450.56c-1.8-.75-3.73-.2-5.54.25a23.09,23.09,0,0,1-3,.59c-.62.07-1.82-.2-2.13.51s.35,1.48.59,2.09a25,25,0,0,1,.78,2.55c.4,1.48.82,3.2,2.15,4.14a1,1,0,0,1,.35,1.37,1,1,0,0,1-1.36.36,7.31,7.31,0,0,1-2.65-3.92,32.75,32.75,0,0,0-1.47-4.56,3.25,3.25,0,0,1-.33-2.51,2.64,2.64,0,0,1,1.82-1.84,23.36,23.36,0,0,1,2.52-.23c.92-.15,1.83-.39,2.74-.61,2-.48,4.11-.92,6-.12a1,1,0,0,1,.7,1.23,1,1,0,0,1-1.23.7Z"/>
    </g>
    <g>
      <path d="M206.81,426.84c2.22,5.64,4.6,11.21,7.35,16.61,2.28,4.46,4.82,8.77,7.38,13.08a1,1,0,0,0,1.73-1c-2.5-4.21-5-8.43-7.23-12.78a179.67,179.67,0,0,1-7.3-16.43c-.46-1.19-2.4-.67-1.93.53Z"/>
      <path d="M250.05,400.71a16.15,16.15,0,0,0,2.75,2,23,23,0,0,0,2.93,1.48,1,1,0,0,0,1.23-.7,1,1,0,0,0-.69-1.23c-.2-.08.15.07,0,0l-.15-.07-.31-.14-.66-.33c-.47-.24-.93-.49-1.38-.76s-.91-.55-1.35-.86l-.31-.22-.13-.09c-.2-.16.17.13,0,0s-.36-.29-.53-.45a1,1,0,1,0-1.41,1.42Z"/>
      <path d="M252.31,401.25a80.45,80.45,0,0,1-19.88,26.65c-1,.85.45,2.26,1.42,1.41A81.92,81.92,0,0,0,254,402.26c.54-1.16-1.19-2.17-1.73-1Z"/>
      <path d="M234.65,426.31A53.17,53.17,0,0,0,240.58,453c.59,1.14,2.32.13,1.72-1a51.16,51.16,0,0,1-5.65-25.67c.06-1.28-1.94-1.28-2,0Z"/>
      <path d="M214.28,268l-.05,2.48a3.48,3.48,0,0,0,.26,1.89,2.18,2.18,0,0,0,1.63.9l2.43.45,9.59,1.77c1.26.23,1.8-1.7.53-1.93L220.36,272c-1.33-.24-2.7-.62-4-.75-.18,0-.21-.13-.17,0s.07-.09.07-.08a4.75,4.75,0,0,0,0-1l0-2.21a1,1,0,0,0-2,0Z"/>
      <path d="M200.19,290.23A60.27,60.27,0,0,1,165.49,320c-1.21.39-.69,2.33.54,1.92a62.21,62.21,0,0,0,35.89-30.69c.58-1.14-1.15-2.16-1.73-1Z"/>
      <path d="M195,365.51a14.08,14.08,0,0,0,5.7-4.11c.58-.7,1.5-1.83,1.33-2.8a10,10,0,0,0-.65-1.81c-1.67-4.3-5.51-8.86-10.28-9.79-1.05-.2-2.13.42-3.19.58a12.46,12.46,0,0,1-5.36-.39,9.16,9.16,0,0,1-4.74-3.32c-2.53-3.3-3.56-7.64-4.25-11.66a103.38,103.38,0,0,1-1.15-13.39c-.06-1.28-2.06-1.29-2,0,.32,7.78.56,16.2,4,23.33,1.73,3.55,4.47,6.29,8.4,7.19a14.63,14.63,0,0,0,4.07.34,16,16,0,0,0,1.95-.25,5.13,5.13,0,0,0,1.23-.29c.29-.15.35-.2.48-.21a6.15,6.15,0,0,1,2.55,1,13.68,13.68,0,0,1,3.19,2.48,15.26,15.26,0,0,1,2.62,3.74A8.8,8.8,0,0,1,200,359c0,.37,0-.16-.06-.1a5.26,5.26,0,0,1-.7,1.1,10.35,10.35,0,0,1-1.47,1.49,11.5,11.5,0,0,1-3.35,2.11c-1.2.45-.68,2.38.53,1.93Z"/>
      <path d="M201.73,367.62c-2.3-1.53-4.79-2.74-7.06-4.32a15.23,15.23,0,0,1-3.14-2.74,4.14,4.14,0,0,1-1.12-2.81c.05-1.29-1.95-1.29-2,0-.12,3,2.52,5.31,4.75,6.92,2.41,1.75,5.09,3,7.56,4.68,1.08.71,2.08-1,1-1.73Z"/>
      <path d="M223.49,243.22C215,251.9,203,255.56,192.22,260.59c-3.94,1.85-7.92,3.81-11.09,6.86-2.28,2.19-4.08,4.82-6.18,7.18a46.89,46.89,0,0,1-10.67,8.72c-2.53,1.56-5.31,2.77-7.74,4.48a37.28,37.28,0,0,0-5.39,4.72,51.68,51.68,0,0,0-9.35,13.31,25.58,25.58,0,0,0-2.24,6.47,6.94,6.94,0,0,0,1.49,5.88c1.73,2.32,4,4.19,5.06,6.92q2.28,5.69,4.76,11.28c3.39,7.71,7,15.32,10.57,22.95l1.73-1-2.28-3.65a1,1,0,0,0-1.83.24,45,45,0,0,0-1.94,6.76c-.45,1.81-1.15,3.62-.84,5.48a58.12,58.12,0,0,0,7.91,20.62,75.94,75.94,0,0,0,4.9,7.06c.77,1,2.51,0,1.72-1a70.74,70.74,0,0,1-8.64-14.14,53.55,53.55,0,0,1-3.56-10.91,7.64,7.64,0,0,1-.42-3l.66-2.77a50.27,50.27,0,0,1,2.14-7.54l-1.83.24,2.28,3.65a1,1,0,0,0,1.73-1c-3.09-6.63-6.22-13.23-9.22-19.9-1.53-3.41-3-6.83-4.46-10.28-1.11-2.69-1.94-5.31-3.82-7.57-1.43-1.73-3.58-3.51-4.22-5.73-.53-1.87.6-4.48,1.28-6.18a46.25,46.25,0,0,1,8.67-13.46,39.72,39.72,0,0,1,5.45-5.16,62.87,62.87,0,0,1,6.82-4,52.12,52.12,0,0,0,11.59-8.81c2.2-2.3,4-4.91,6.17-7.24a31.27,31.27,0,0,1,9.44-6.54c11.55-5.77,24.78-9.34,34-18.83.9-.92-.51-2.34-1.42-1.41Z"/>
      <path d="M200.58,369.12c.28,1.93,1.48,3.58,1.76,5.51a1,1,0,0,0,1.23.7,1,1,0,0,0,.7-1.23c-.28-1.93-1.48-3.59-1.76-5.51a1,1,0,0,0-1.23-.7,1,1,0,0,0-.7,1.23Z"/>
      <path d="M202.42,375c0-.12.06-.21.05-.31s.07,0,0,0l-.09,0-.13.07a2.29,2.29,0,0,1-.7.14l-2.25.22c-1.53.13-3.06.26-4.59.43a1,1,0,0,0-1,1,1,1,0,0,0,1,1c1.85-.21,3.7-.35,5.55-.52a10.73,10.73,0,0,0,2.54-.35,2,2,0,0,0,1.54-2.26,1,1,0,0,0-1.93.53Z"/>
      <path d="M191.25,378.44a54.3,54.3,0,0,1-.26,8.36l1-1c-3.14.05-6.2-.85-9.34-.8a1,1,0,0,0,0,2c3.14-.05,6.2.85,9.34.8a1,1,0,0,0,1-1,54.3,54.3,0,0,0,.26-8.36c-.06-1.29-2.06-1.29-2,0Z"/>
      <path d="M194.22,375.76a17,17,0,0,0-1.92,1.46l.2-.16a5.6,5.6,0,0,1-.76.51,1.1,1.1,0,0,0-.46.6,1.08,1.08,0,0,0,.1.77,1,1,0,0,0,1.37.36,18.22,18.22,0,0,0,1.92-1.45l-.2.15a8.38,8.38,0,0,1,.76-.51,1.07,1.07,0,0,0,.46-.6,1.09,1.09,0,0,0-.1-.77,1,1,0,0,0-1.37-.36Z"/>
      <path d="M179.42,388.43c.66-.25,1.3-.54,1.94-.82l.95-.4.06,0-.14.06.11,0,.21-.09.36-.15a1.06,1.06,0,0,0,.6-.46,1,1,0,0,0,.1-.77,1,1,0,0,0-1.23-.7c-.65.25-1.29.54-1.94.82l-.94.41-.07,0,.14,0-.1,0-.21.08-.37.15a1.06,1.06,0,0,0-.6.46,1,1,0,0,0-.1.77,1,1,0,0,0,1.23.7Z"/>
      <path d="M178.15,387.46a37.67,37.67,0,0,1-.39,6.63l1-.73a57.71,57.71,0,0,1-8.82.05,1,1,0,0,0-1,1,1,1,0,0,0,1,1,57.71,57.71,0,0,0,8.82-.05,1,1,0,0,0,1-.74,40.83,40.83,0,0,0,.46-7.16,1,1,0,0,0-2,0Z"/>
      <path d="M256.5,267.11a110.3,110.3,0,0,1-24.24-16.72,171.83,171.83,0,0,1-16.32-17.27c-6.44-7.69-12.31-15.86-19.17-23.2s-15.19-13.37-23.89-18.69c-10.11-6.18-20.7-11.55-31.06-17.3v1.73c6.81-5,13.45-10.3,20-15.61q5.08-4.1,10.17-8.19a34,34,0,0,0,4.39-3.72,7.94,7.94,0,0,0,1.9-4.6c.44-4.14.42-8.35.81-12.5s1-8.57,1.55-12.84a234.54,234.54,0,0,1,4-23.12c2.72-11,7.35-21.66,15-30.09a55.68,55.68,0,0,1,23.52-15c9.24-3.11,19-4.26,28.72-4.49,1.24,0,2.47,0,3.7,0a1,1,0,0,0,0-2c-9.83,0-19.77.83-29.27,3.47A60.22,60.22,0,0,0,201.62,60.2c-8,7.3-13.36,16.88-16.77,27a122.85,122.85,0,0,0-4.62,20.59c-1.3,8.43-2.58,16.86-3.29,25.36-.18,2.18-.33,4.35-.43,6.53-.09,2,.13,4.27-.85,6.06s-2.67,2.77-4.1,3.91l-5.09,4.09C159.7,159.24,152.94,164.72,146,170q-2.59,2-5.22,3.92a1,1,0,0,0,0,1.73c9.25,5.13,18.67,10,27.79,15.33,8.83,5.21,17.46,10.88,24.7,18.2,7.09,7.18,13,15.36,19.41,23.15a183.86,183.86,0,0,0,16.35,17.82,113.09,113.09,0,0,0,26.44,18.68c1.14.58,2.16-1.15,1-1.73Z"/>
      <path d="M197.52,296.72c.31,3.82.56,7.65.82,11.47.14,1.89.27,3.78.42,5.68a13,13,0,0,0,1.17,5.25,19,19,0,0,0,3.86,4.29q1.94,1.83,4,3.53a59.35,59.35,0,0,0,6.9,4.89c3.26,2,6.62,3.82,9.92,5.75a1,1,0,0,0,1-1.72c-5.1-3-10.46-5.7-15.15-9.33a65.24,65.24,0,0,1-7.47-6.72c-2.64-2.79-2.29-7-2.54-10.59-.3-4.17-.56-8.34-.9-12.5-.1-1.27-2.1-1.28-2,0Z"/>
      <path d="M230.11,370.35a25.35,25.35,0,0,0,1.18,6.58,26.33,26.33,0,0,0,3.2,5.87c.71,1.06,2.45.06,1.72-1a25,25,0,0,1-3-5.4,23.48,23.48,0,0,1-1.11-6c-.11-1.27-2.11-1.28-2,0Z"/>
      <path d="M232.3,379.75a115.46,115.46,0,0,0-13.29,16c-2.39,3.43-4.73,6.9-7.06,10.38a50.51,50.51,0,0,0-4.72,8.63,19.19,19.19,0,0,0-1.66,5.88,13,13,0,0,0,1.33,6.28c.52,1.18,2.25.16,1.73-1a10.6,10.6,0,0,1-1-5.62,19.86,19.86,0,0,1,1.59-5.08,48.36,48.36,0,0,1,4.55-8.17c4-5.91,7.87-11.93,12.35-17.48a104.16,104.16,0,0,1,7.62-8.37,1,1,0,0,0-1.41-1.42Z"/>
      <path d="M211.06,329.94q2.9,13.89,6.87,27.52c1.12,3.84,1.81,8,5.63,10,1.94,1,4.05,1.79,6.07,2.65l6.81,2.88c1.17.5,2.19-1.22,1-1.73-4.11-1.73-8.34-3.31-12.35-5.25a6.84,6.84,0,0,1-3.82-4.37c-.67-2-1.24-4.08-1.83-6.13q-3.72-12.93-6.46-26.12c-.26-1.26-2.19-.73-1.93.53Z"/>
      <path d="M244.56,345.18c3.76,1.16,7.41,2.67,11.17,3.83,1.24.38,1.76-1.55.54-1.93-3.77-1.16-7.41-2.67-11.18-3.83-1.23-.38-1.76,1.55-.53,1.93Z"/>
      <path d="M224.91,358.17a15.44,15.44,0,0,1,1,2.45c.16.49.22,1.16.64,1.5a9.65,9.65,0,0,0,1.38.75l5.39,2.86a1,1,0,0,0,1-1.73l-6.66-3.53.46.59a18.31,18.31,0,0,0-1.51-3.9,1,1,0,1,0-1.72,1Z"/>
      <path d="M221.43,343.55l1.28,3.57.62,1.74a4.4,4.4,0,0,0,3.68,3.4l3.69,1.51a1,1,0,0,0,1.23-.7,1,1,0,0,0-.7-1.23L228,350.51c-.49-.2-1-.39-1.46-.6a1.77,1.77,0,0,1-.89-.67,7.89,7.89,0,0,1-.53-1.35l-.56-1.56L223.36,343a1,1,0,0,0-1.93.53Z"/>
      <path d="M248.38,460.85c-1.93,1.79-4.4,2.65-6.83,3.57a64.41,64.41,0,0,0-7.39,3.46,67.34,67.34,0,0,0-13.19,9,47.3,47.3,0,0,0-10,12.53c-1.19,2.19-2,4.68-3.6,6.65-1.74,2.19-4.4,3-7.09,3.19a22.12,22.12,0,0,0-4.5.73c-1.68.5-3.33,1.09-5,1.62a33.88,33.88,0,0,1-5,1.33c-.66.1-2.58.46-3-.32s.59-2.44.87-3.07c.69-1.55,1.51-3,2.29-4.55a21.27,21.27,0,0,0,1.76-3.89,18.1,18.1,0,0,0,.28-2.09,13.76,13.76,0,0,1,1-3.54,15,15,0,0,1,4.66-5.9c2.4-1.81,5.24-2.58,8.11-3.31,2.66-.68,5.29-1.42,8-2a12.12,12.12,0,0,0,6.17-3.29c.9-.92-.51-2.34-1.42-1.42a11.11,11.11,0,0,1-6.09,3c-2.63.56-5.19,1.35-7.79,2a23,23,0,0,0-7.46,3,17.33,17.33,0,0,0-4.85,5.06,16.19,16.19,0,0,0-2.32,6.55,10.94,10.94,0,0,1-1.21,3.84c-.82,1.63-1.71,3.22-2.49,4.87a12.94,12.94,0,0,0-1.46,4.21c-.6,6.66,13.87.3,16.45-.37,1.89-.49,3.84-.36,5.74-.78a10.17,10.17,0,0,0,6.19-3.91c1.56-2.11,2.47-4.64,3.75-6.93a43.6,43.6,0,0,1,5.15-7.36,57.42,57.42,0,0,1,15.08-11.94,65.35,65.35,0,0,1,9-4.4c2.75-1,5.5-2,7.71-4.08.94-.87-.48-2.29-1.42-1.41Z"/>
      <path d="M221.72,455.31a21.73,21.73,0,0,1-6.77,5.26,62.81,62.81,0,0,1-9.64,4.18,72,72,0,0,1-9.25,2.58c-3.55.72-7.18.78-10.76,1.36-3.22.51-6.51,1.6-8.8,4a33.07,33.07,0,0,0-4.63,6.62,28.46,28.46,0,0,0-3.3,8c-.39,1.88-.46,4.18,1.46,5.25,2.31,1.3,5.63.56,8.07.12,2.87-.5,5.8-1.47,8.73-1.5a1,1,0,0,0,0-2c-4.89.05-9.71,2.64-14.62,2a2.06,2.06,0,0,1-1.74-.93,4.46,4.46,0,0,1,.08-2.63,28.2,28.2,0,0,1,3.27-7.66,29,29,0,0,1,4.37-6.1c2.43-2.42,6.08-3.09,9.35-3.46s6.43-.57,9.6-1.25a73.5,73.5,0,0,0,8.87-2.52,64,64,0,0,0,9.94-4.33,23,23,0,0,0,7.18-5.57c.78-1-.62-2.43-1.41-1.41Z"/>
      <path d="M241.45,450.56c1.8-.75,3.73-.2,5.54.25a23.09,23.09,0,0,0,3,.59c.62.07,1.82-.2,2.13.51s-.35,1.48-.59,2.09a25,25,0,0,0-.78,2.55c-.4,1.48-.82,3.2-2.15,4.14a1,1,0,0,0-.35,1.37,1,1,0,0,0,1.36.36,7.31,7.31,0,0,0,2.65-3.92,32.75,32.75,0,0,1,1.47-4.56,3.25,3.25,0,0,0,.33-2.51,2.64,2.64,0,0,0-1.82-1.84,23.36,23.36,0,0,0-2.52-.23c-.92-.15-1.83-.39-2.74-.61-2-.48-4.11-.92-6-.12a1,1,0,0,0-.7,1.23,1,1,0,0,0,1.23.7Z"/>
    </g>
  </g>
</svg>
