<svg class="Body" xmlns="http://www.w3.org/2000/svg" viewBox="0 0 512 512">
  <title>body1</title>
  <g id="Color">
    <path class="PrimaryColor" d="M365,308.44c-3.55-7.25-10.68-13-16.2-18.71-6.61-6.87-13-14-20.12-20.41a76.21,76.21,0,0,0-20.56-13.79c-7.4-3.24-15.53-5.48-21.8-10.78a64.4,64.4,0,0,0,6.5-6.41A3.84,3.84,0,0,0,295,237l5.29-6.6a10.34,10.34,0,0,0,4.08-4.66,5.33,5.33,0,0,0,1.4-1.37c4.88-6.91,9.38-14.05,13.78-21.28,4-6.62,8.24-13.16,10.72-20.54,4-8.39,6.5-17.36,9-26.3a121.35,121.35,0,0,0,4.6-24.87,5,5,0,0,0,.4-2c.11-9.54-1.59-18.9-3.58-28.19-1.67-7.78-3.4-15.4-9-21.35a5.1,5.1,0,0,0-1.35-1q-1.75-2.27-3.58-4.47l-.08-.15c-.54-.9-1.12-1.76-1.72-2.6a5.42,5.42,0,0,0-1-1.46L322.83,69c-.77-.9-1.56-1.78-2.42-2.62a5.74,5.74,0,0,0-1.45-1q-1.81-1.65-3.69-3.2a4.66,4.66,0,0,0-.67-.88l-2.91-2.92a4.51,4.51,0,0,0-3.2-1.33c-.8-.56-1.61-1.11-2.43-1.64a4.57,4.57,0,0,0-3.38-.82,4.52,4.52,0,0,0-2.1-1.83l-1.68-.8A4.21,4.21,0,0,0,297,50a15.13,15.13,0,0,0-8.25-1.6c-7.1-3-14.52-4.16-22.24-4.61-1.91-.1-3.81-.22-5.67-.21a6.5,6.5,0,0,0-.81-.14,88.48,88.48,0,0,0-75.53,29.5,4.93,4.93,0,0,0-1.28,3.46c-.09.21-.17.43-.26.64a4.45,4.45,0,0,0-2.27,2,79.36,79.36,0,0,0-8,21,4.21,4.21,0,0,0-1.53,2.81l-.24,1.7c-.4,3-.68,5.93-.82,8.9a4.46,4.46,0,0,0-1.58,3.8,37.21,37.21,0,0,0,.75,6.36l.32,2.66a5.63,5.63,0,0,0-.49,2.31v3a5.92,5.92,0,0,0,.43,2.18,5.08,5.08,0,0,0,.05,2.22q1.47,6.48,2.95,12.94a6,6,0,0,0,.08,1.83,164,164,0,0,0,24.46,58.86,4.92,4.92,0,0,0,1.36,3.6l2.28,2.49a4.17,4.17,0,0,0,.89,2.66,42.86,42.86,0,0,0,6.29,6.85l0,0a4.34,4.34,0,0,0,1.71,3.1l1,.89a4.38,4.38,0,0,0,1.63,2.73l5.08,4.31a4.47,4.47,0,0,0,1.58,3.2c1.87,1.7,3.81,3.32,5.79,4.89-.06.07-.13.13-.19.21-6.07,7.55-16,9.44-24.38,13.39-10.36,4.87-18.46,13.88-26.38,21.9-8.46,8.56-17.53,17.17-25,26.62a16.28,16.28,0,0,0-2.83,5.5,3.93,3.93,0,0,0-1.3,3.68c.21,1.66.43,3.32.64,5a5.05,5.05,0,0,0,.27,1,7.5,7.5,0,0,0-.6,1.24,8.4,8.4,0,0,1,2.72,3,10.24,10.24,0,0,1,1.06,4.38,5.1,5.1,0,0,1-.12,1.11,7.81,7.81,0,0,0,1.41.48l.81,1.61a6.25,6.25,0,0,0,.57,2q2.86,6,5.59,12.08,1.17,2.6,2.3,5.21c.4.92,1.22,2.32,1.81,3.66l-.07.11a24.35,24.35,0,0,0-3.5,11.86,6.12,6.12,0,0,0-1.4,5.72,5.79,5.79,0,0,0,2,3.11,31.79,31.79,0,0,0,3.71,7.25,4.25,4.25,0,0,0,1,2.85c1.94,2.55,4,4.33,7.25,4.82,4.1.6,9.06-4.61,5.16-8.09a4.09,4.09,0,0,0,.49-.18,3.7,3.7,0,0,0,1.44,1.15c2.85,1.27,5.85,1.5,8.58-.28a5,5,0,0,0,1.68-6.87,5.24,5.24,0,0,0,.85-2.2c1.26,0,.88.4.23-1.42,1.45,4.08,6.35,4.2,8.69,2l.22-.12,1-.78a5.05,5.05,0,0,0,1.29-2.21l.18-1.33a5,5,0,0,0-.69-2.52l-.42-.85a5.58,5.58,0,0,0-3-2.29,3.48,3.48,0,0,0-.83-.16,6.37,6.37,0,0,1,.39-.72,10.22,10.22,0,0,1,1.31-1.38c4.83-1,5-8.33.42-9.68a8.78,8.78,0,0,0-2.73-2.22,4.78,4.78,0,0,0-.54-.65l-1-.78a5,5,0,0,0-2.52-.68h-.43a3.62,3.62,0,0,0-1.92.43,3.49,3.49,0,0,0-.85.4h0a4.68,4.68,0,0,0-3.21-1.15,5.07,5.07,0,0,0-2.14.44c-.66-.46-1.35-.9-2-1.3-3.23-1.93-4.53-2.81-5.41-6.61-1.43-6.16-2.56-12.38-3.49-18.63a100.39,100.39,0,0,0,14.48-10.86c6.06-4.39,11.29-9.41,15-16.1a4.07,4.07,0,0,0,.86-.32,16,16,0,0,0,.72,3.13c.19,1.24.39,2.48.59,3.72a29.55,29.55,0,0,0,1,6.24,5.63,5.63,0,0,0,.9,1.89,5.57,5.57,0,0,0,.09,1.21,30.4,30.4,0,0,0,3.37,8.82c1.76,6.46,2.49,13.26,5.59,19.34,1.82,6.32,3.64,12.65,5.54,18.95a52.69,52.69,0,0,0,1.89,5.29,4.47,4.47,0,0,1,1.17.84,18.08,18.08,0,0,1,3,4.5,5.2,5.2,0,0,1-.31,5.44l0,.07c-.12.81-.27,1.6-.44,2.39l-.15.13a3.88,3.88,0,0,0-3.21,2.44l-.5,1.2h0l-.14.38a118,118,0,0,0-9,41.86,6.22,6.22,0,0,0-1,2.91,5.25,5.25,0,0,0,1.92,4.58l.08.07a9.71,9.71,0,0,0,1,4.55c2.09,4.57,4.59,9.05,7,13.46a23.08,23.08,0,0,0,2.16,3.2,4,4,0,0,0,0,3.43l-1.32,1.07a49.19,49.19,0,0,1-4.1,2.78c-1.77,1.1-3.61,2.11-5.48,3a4.51,4.51,0,0,0-2.43.35,76.07,76.07,0,0,1-21.53,5.5,5.94,5.94,0,0,0-2,.54,5.25,5.25,0,0,0-1.28.3c-.62.24-1.2.48-1.75.74-4.27.55-7.88,3-8.51,7.64a9.13,9.13,0,0,0,6.62,10c1.81.51,5-.3,6.46.92s.43,3.62,1.08,5.31a6.36,6.36,0,0,0,4,3.79,7.43,7.43,0,0,0,2.92.43l1.33-.17h.05c.14,0,.26.08.42.11l.38,0a7.15,7.15,0,0,0,1,.08v0c5.62,0,9.53-3.31,12.24-8,3.36-5.8,6.56-10.24,11.74-14.63,4.91-4.16,9.74-8.19,15.95-10.17,5.71-1.82,10.35-4.19,12.36-10.17,1.15-3.4-2.62-7.52-6.15-6.15a29,29,0,0,1-3,1.17l0-.12a11,11,0,0,0-2.36-4,5.26,5.26,0,0,0-.66-.6c0-4.14-.75-8.56-.36-12a47.67,47.67,0,0,1,3.12-12.38,5.09,5.09,0,0,0,1.7-1.67,77.75,77.75,0,0,0,8.59-18.23,2.44,2.44,0,0,0,.26.06c2.82.51,5-.51,7.5-1.48a5,5,0,0,0,1.31,2.71c.18.2.35.4.5.6a5,5,0,0,0,.35,2,59.49,59.49,0,0,0,5.83,11.81c2.43,3.7,6.13,6.56,6.61,11.05.39,3.67,1.23,25.09-5.95,21.32a5,5,0,0,0-6.06,7.85,18.7,18.7,0,0,0,2.47,2.34,5,5,0,0,0,2.92,2.38,63.4,63.4,0,0,1,21.69,12.4c4.74,4.18,8.11,9,11.6,13.92.22.6.42,1.19.65,1.78,1.8,4.74,4.7,8.56,10.19,8.58.23,0,.45,0,.67,0a9.83,9.83,0,0,0,8.38-1.51c2.88-2,3.36-4.94,5.19-7.66,1.39-2.07,1.4-1.46,3.94-1.81a9.86,9.86,0,0,0,4.47-1.59c5.52-3.93,3.89-12.37-1.39-15.73-2.94-1.86-6.39-2.06-9.75-2.25a55.08,55.08,0,0,1-14.11-2.49,86.35,86.35,0,0,1-13.58-5.88c-3.34-1.74-6.5-2.88-4.79-7.22,1.59-4,4.55-7.24,5.88-11.48,0-.16.09-.33.14-.49,2.94-3,4.55-8.08,4.61-12.44a9.78,9.78,0,0,0,1.89-2.75c-2.53-12.26-2.66-25-7.49-36.66a4.54,4.54,0,0,1-.37-2.24A43.86,43.86,0,0,0,289,378.7a5.39,5.39,0,0,0-1.63-1.21c-.16-.94-.26-1.89-.34-2.76-.36-4,1.14-6.23,3-9.49,2-3.47,3.85-7,5.55-10.67.15-.57.3-1.15.46-1.72q2.07-7.35,4.1-14.71c2.61-9.44,6.73-19.54,7.46-29.32a5.15,5.15,0,0,1,.62-2.14,4.51,4.51,0,0,1,1.59-2c.35-1.94.7-3.87,1.06-5.81l.18-.91c.46.63.88,1.18,1,1.38,1.35,2,2.7,3.93,4.14,5.83a3.76,3.76,0,0,1,1,1.25c.45.57.91,1.13,1.39,1.68,4.62,5.33,10.43,7.53,16.06,11.42a13.43,13.43,0,0,1,2.86,2.61,5.14,5.14,0,0,1,2.36,1.37c.06.07.74.94.79,1l0,0a8.08,8.08,0,0,1,.53,1.25s0,0,0,.06.05.38.07.55.1.67.11.81v0a5,5,0,0,1-.68,2.52l-.63.81a16.74,16.74,0,0,1-.51,3.17,3.57,3.57,0,0,1,.23,1.75c-.77,6.31-4.85,12-11,13.57a21.52,21.52,0,0,1-2.44,1.54,17.49,17.49,0,0,0-9.69.77c0,.11-.06.21-.1.32-.71,1.66-2.43,2.88-3.44,4.4-1.17,1.77-1.4,1.69-.88,3.64.16.61.45,1.13.66,1.72l.09.23.22.17a1,1,0,0,1,.43.4,5.66,5.66,0,0,1,1.57,4.55c.17.14.32.3.49.44l-.17.12-.49.2a4.81,4.81,0,0,1-2.12,2.69,4.63,4.63,0,0,1-.75.41,5.28,5.28,0,0,0,1.15,5.05,8.62,8.62,0,0,0,2.14,1.8c.08-.14.17-.26.25-.39a5.22,5.22,0,0,0,1.3.58l.24.06a10.53,10.53,0,0,0,1.48.2,7.44,7.44,0,0,0,1.72-.18,5,5,0,0,0,2-.83,4.21,4.21,0,0,0,.55-.39,5.51,5.51,0,0,1,.94,5.91l-.17,1.29a2.68,2.68,0,0,1-.12.3,6.74,6.74,0,0,0,5.18,3.47c1.12.14,7.36-1.84,7.15-.48-.61,3.92,3.33,8.27,7.35,5.64a26.57,26.57,0,0,0,11.88-27.3c-.64-3.31-2.81-6.28-2.42-9.69.51-4.46,3.62-9,5.78-12.8a95.21,95.21,0,0,0,6-11.82C367.46,323.87,368.49,315.6,365,308.44Z" fill="#22b573"/>
  </g>
  <g id="Body_Draw">
    <path d="M274,318.22a54.41,54.41,0,0,0-38.76,2.63,51.05,51.05,0,0,0-9.84,5.95c-1,.77,0,2.51,1,1.72a52.34,52.34,0,0,1,47.06-8.37c1.23.39,1.75-1.54.53-1.93Z"/>
    <path d="M266.52,308.53a45.4,45.4,0,0,0-24.46,2c-1.2.44-.68,2.38.53,1.93a43.31,43.31,0,0,1,23.4-2c1.26.24,1.8-1.68.53-1.93Z"/>
  </g>
  <g id="Body_Mirror">
    <g>
      <path d="M311.18,293.54a60.23,60.23,0,0,0,34.69,29.77c1.22.4.7,2.33-.53,1.93a62.28,62.28,0,0,1-35.89-30.69c-.58-1.15,1.14-2.16,1.73-1Z"/>
      <path d="M317.19,366.89a10.46,10.46,0,0,1-5-4.6c-.66-1.17-1.65-3-1.11-4.37a16,16,0,0,1,9.39-9.37,2.89,2.89,0,0,1,2-.16,13.94,13.94,0,0,0,4.54.6,10.83,10.83,0,0,0,6.47-2.41c3-2.53,4.38-6.45,5.21-10.17A73.07,73.07,0,0,0,340,323.54c0-1.29,2-1.29,2,0-.29,7.15-.51,15.35-4.6,21.53a12.85,12.85,0,0,1-9.56,5.85,14,14,0,0,1-3.66-.08,6.65,6.65,0,0,1-1.87-.4c-.47-.22-.34-.25-.92-.07a12.49,12.49,0,0,0-5.29,3.36,15,15,0,0,0-2.45,3.41c-.12.22-.23.45-.34.67,0,0-.52,1.11-.48.68a3.11,3.11,0,0,0,.31.9c.75,2.24,2.32,4.67,4.62,5.57,1.18.47.66,2.41-.54,1.93Z"/>
      <path d="M324.81,377.07c-4.2,1.35-11.88,2.58-12.91-3.47a6.83,6.83,0,0,1,1.74-6.12,26.73,26.73,0,0,1,5.11-3.5c1.85-1.17,3.31-2.6,3.21-4.93,0-1.28,2-1.28,2,0a6.49,6.49,0,0,1-2.27,5.24,38,38,0,0,1-4.83,3.18c-1.44.93-2.82,2.13-3.07,3.92-.3,2.2.64,4.13,2.86,4.64,2.48.58,5.26-.13,7.63-.89,1.23-.39,1.75,1.54.53,1.93Z"/>
      <path d="M287.71,244.52c6.94,7,17.54,8.08,26.1,12.27s15.07,10.95,21.35,17.88c7,7.72,14.31,15.14,21.4,22.78q3,3.24,5.95,6.55a33.72,33.72,0,0,1,4.39,5.83,14,14,0,0,1,1.94,7,22.53,22.53,0,0,1-1.9,7.89c-4.74,12.24-10.48,24.07-16,36l-1.73-1,2.28-3.65a1,1,0,0,1,1.83.23,60.19,60.19,0,0,1,2.59,9.44,21.36,21.36,0,0,1,.21,9.28,31.24,31.24,0,0,1-5.33,12.16c-2.21,3-5.44,6.47-9.4,6.86a6.34,6.34,0,0,1-5.76-2.27c-1.67-2.29-1.21-5.59-.32-8.09.42-1.21,2.36-.69,1.92.53-.69,2-1.36,5,.26,6.68a4.9,4.9,0,0,0,5,.89c3.3-1.12,5.91-4.43,7.68-7.26a29.57,29.57,0,0,0,4.15-10.82,18.88,18.88,0,0,0-.4-7.63,58.63,58.63,0,0,0-2.54-9.23l1.83.24-2.28,3.65a1,1,0,0,1-1.73-1c4.86-10.45,9.86-20.85,14.22-31.52,2-5,4.79-10.47,2.48-15.85a24.85,24.85,0,0,0-4.26-6.26c-1.82-2.1-3.7-4.15-5.59-6.19-6.94-7.52-14.15-14.78-21-22.36-6.14-6.75-12.29-13.6-20.4-18-9.16-5-20.73-5.81-28.32-13.52-.91-.92.5-2.34,1.41-1.42Z"/>
      <path d="M312.46,296.56c-2.56,7.69-4.31,15.61-6.43,23.43-2,7.53-4.54,14.95-6.77,22.44-1.56,5.27-3,10.6-5,15.74a31.38,31.38,0,0,1-5.4,9.73,21.26,21.26,0,0,1-9.79,5.93c-1.23.39-1.76-1.54-.53-1.93a19.49,19.49,0,0,0,8.38-4.84,26.73,26.73,0,0,0,5.24-9c1.89-4.83,3.31-9.84,4.78-14.81,2.13-7.19,4.5-14.32,6.54-21.53,2.42-8.55,4.25-17.27,7.06-25.7.4-1.21,2.33-.69,1.93.53Z"/>
      <path d="M287,374.06a58.82,58.82,0,0,1,10.25,18.44,100.86,100.86,0,0,1,4.16,20.22c.53,4.27,1,8.56,1.44,12.84.15,1.28-1.85,1.27-2,0-1.51-13.5-2.36-27.59-8.61-39.92a57.4,57.4,0,0,0-6.65-10.17c-.81-1,.6-2.41,1.41-1.41Z"/>
      <path d="M302.84,425.82c-2.35,10.54-6.9,20.45-12.38,29.71a1,1,0,0,1-1.73-1c5.4-9.12,9.87-18.85,12.18-29.23.28-1.25,2.21-.72,1.93.53Z"/>
      <path d="M262.11,399.51a4.64,4.64,0,0,1-2.8,2c-1,.35-2,.51-3,.8a1,1,0,0,1-.54-1.93c1-.27,1.92-.43,2.85-.73l.35-.12.16-.06.1,0-.09,0c.06,0,.27-.12.32-.15l.31-.17.15-.1c.12-.08.09-.13,0,0,0-.07.15-.13.22-.2l.12-.12a.18.18,0,0,0,0-.07l-.07.09c0-.09.14-.21.18-.29a1,1,0,0,1,1.37-.36,1,1,0,0,1,.36,1.37Z"/>
      <path d="M259.69,400.25c4.52,9.86,8.57,20.29,16.88,27.65,1,.85-.46,2.26-1.42,1.41-8.44-7.48-12.6-18-17.19-28.05-.53-1.16,1.19-2.18,1.73-1Z"/>
      <path d="M274,425.85c.47,8.65,1.53,18.15-2.61,26.14-.59,1.14-2.32.13-1.72-1,3.94-7.61,2.78-16.89,2.33-25.13-.07-1.28,1.93-1.28,2,0Z"/>
      <path d="M271,451c-1.92-.52-4.11-1.34-6.07-.59a5.4,5.4,0,0,0-3.35,4.33c-.63,5,4.68,6.74,8.31,8.35,7.91,3.49,15.66,7.69,22,13.63a47.31,47.31,0,0,1,8.13,10c2.35,3.86,3.61,9.44,8.37,11a18.76,18.76,0,0,0,7.19.64A10.5,10.5,0,0,0,321.8,496c3.57-3.19,2.72-9.06.61-12.82a14.81,14.81,0,0,0-5.1-5.36c-2.46-1.53-5.31-2.11-8.08-2.84-2.4-.64-4.79-1.25-7.21-1.84a11.81,11.81,0,0,1-5.85-3.22,1,1,0,0,1,1.42-1.41,11.15,11.15,0,0,0,6.08,3c2.64.56,5.2,1.35,7.8,2a23,23,0,0,1,7.46,3,17,17,0,0,1,4.84,5.06c2.44,3.92,3.45,9.35,1.21,13.59-2.35,4.44-7.82,5.37-12.39,5.16a14,14,0,0,1-7.44-2.07c-2.1-1.47-3.29-3.73-4.38-6a46.75,46.75,0,0,0-8.46-12.4c-6.85-7.09-15.7-11.76-24.65-15.63-2.55-1.1-5.25-2.23-6.85-4.63a7.7,7.7,0,0,1-.95-6.35,7.32,7.32,0,0,1,4.27-4.7c2.44-1,5-.18,7.41.47A1,1,0,0,1,271,451Z"/>
      <path d="M290.3,454.31c2.8,3.58,7.32,5.74,11.39,7.51A72.76,72.76,0,0,0,316,466.34c5.34,1.08,11.16.54,16.17,2.94a11.39,11.39,0,0,1,6.14,13.14c-1.48,5.26-8.11,7.69-13.07,7.77a1,1,0,0,1,0-2c4.19-.07,10.14-2.07,11.23-6.65a9.3,9.3,0,0,0-1.37-7.23,10.81,10.81,0,0,0-6.57-4.22c-4.81-1.25-9.89-1-14.74-2.19a77.87,77.87,0,0,1-13.06-4.35c-4.22-1.83-8.9-4.12-11.79-7.82-.79-1,.62-2.43,1.41-1.42Z"/>
      <path d="M296.87,264.5a18.86,18.86,0,0,1-8.63,6.36c-3.22,1.15-7.45.76-10.05,3.24-.94.89-2.35-.52-1.42-1.41,2.62-2.49,6.26-2.47,9.56-3.34a16.36,16.36,0,0,0,8.81-5.86c.77-1,2.51,0,1.73,1Z"/>
      <path d="M256.12,41.8c19,0,38.51,3.89,54.59,14.44a73.37,73.37,0,0,1,30,41.16c6.61,22.62,3.24,46.78-3.58,68.95a185.08,185.08,0,0,1-28.36,56.34c-12.1,16.14-27.4,30.44-45.85,39q-3.21,1.47-6.52,2.72c-1.2.45-1.72-1.48-.53-1.93,18.59-7,34.3-20,46.83-35.25a178.51,178.51,0,0,0,30.05-54c7.63-21.55,12.43-45.55,7.77-68.26-3.5-17-12.13-32.65-25.9-43.48C300.2,50.15,281.9,45.07,263.88,44c-2.59-.15-5.17-.22-7.76-.22a1,1,0,0,1,0-2Z"/>
      <path d="M288.19,369.12a29.6,29.6,0,0,1-5.93,16.26c-.77,1-2.51,0-1.73-1a27.83,27.83,0,0,0,5.66-15.25c.07-1.28,2.07-1.29,2,0Z"/>
      <path d="M337,384.59a11.61,11.61,0,0,1-9.14,2.64,6.7,6.7,0,0,1-5.5-5.39,10.53,10.53,0,0,1,1.35-6.24c.57-1.15,2.3-.14,1.73,1a8.94,8.94,0,0,0-1.16,4.5,4.28,4.28,0,0,0,1.17,2.63,4.41,4.41,0,0,0,2.54,1.5,9.11,9.11,0,0,0,3.85-.24,8.3,8.3,0,0,0,3.74-1.82c.93-.89,2.35.52,1.42,1.41Z"/>
    </g>
    <g>
      <path d="M200.82,293.54a60.23,60.23,0,0,1-34.69,29.77c-1.22.4-.7,2.33.53,1.93a62.28,62.28,0,0,0,35.89-30.69c.58-1.15-1.14-2.16-1.73-1Z"/>
      <path d="M194.81,366.89a10.46,10.46,0,0,0,5-4.6c.66-1.17,1.65-3,1.11-4.37a16,16,0,0,0-9.39-9.37,2.89,2.89,0,0,0-2-.16,13.94,13.94,0,0,1-4.54.6,10.83,10.83,0,0,1-6.47-2.41c-3-2.53-4.38-6.45-5.21-10.17A73.07,73.07,0,0,1,172,323.54c-.05-1.29-2.05-1.29-2,0,.29,7.15.51,15.35,4.6,21.53a12.85,12.85,0,0,0,9.56,5.85,14,14,0,0,0,3.66-.08,6.65,6.65,0,0,0,1.87-.4c.47-.22.34-.25.92-.07a12.49,12.49,0,0,1,5.29,3.36,15,15,0,0,1,2.45,3.41c.12.22.23.45.34.67,0,0,.52,1.11.48.68a3.11,3.11,0,0,1-.31.9c-.75,2.24-2.32,4.67-4.62,5.57-1.18.47-.66,2.41.54,1.93Z"/>
      <path d="M187.19,377.07c4.2,1.35,11.88,2.58,12.91-3.47a6.83,6.83,0,0,0-1.74-6.12,26.73,26.73,0,0,0-5.11-3.5c-1.85-1.17-3.31-2.6-3.21-4.93.05-1.28-1.95-1.28-2,0a6.49,6.49,0,0,0,2.27,5.24,38,38,0,0,0,4.83,3.18c1.44.93,2.82,2.13,3.07,3.92.3,2.2-.64,4.13-2.86,4.64-2.48.58-5.26-.13-7.63-.89-1.23-.39-1.75,1.54-.53,1.93Z"/>
      <path d="M224.29,244.52c-6.94,7-17.54,8.08-26.1,12.27s-15.07,10.95-21.35,17.88c-7,7.72-14.31,15.14-21.4,22.78q-3,3.24-5.95,6.55a33.72,33.72,0,0,0-4.39,5.83,14,14,0,0,0-1.94,7,22.53,22.53,0,0,0,1.9,7.89c4.74,12.24,10.48,24.07,16,36l1.73-1L160.52,356a1,1,0,0,0-1.83.23,60.19,60.19,0,0,0-2.59,9.44,21.36,21.36,0,0,0-.21,9.28,31.24,31.24,0,0,0,5.33,12.16c2.21,3,5.44,6.47,9.4,6.86a6.34,6.34,0,0,0,5.76-2.27c1.67-2.29,1.21-5.59.32-8.09-.42-1.21-2.36-.69-1.92.53.69,2,1.36,5-.26,6.68a4.9,4.9,0,0,1-5,.89c-3.3-1.12-5.91-4.43-7.68-7.26a29.57,29.57,0,0,1-4.15-10.82,18.88,18.88,0,0,1,.4-7.63,58.63,58.63,0,0,1,2.54-9.23l-1.83.24,2.28,3.65a1,1,0,0,0,1.73-1c-4.86-10.45-9.86-20.85-14.22-31.52-2-5-4.79-10.47-2.48-15.85a24.85,24.85,0,0,1,4.26-6.26c1.82-2.1,3.7-4.15,5.59-6.19,6.94-7.52,14.15-14.78,21-22.36,6.14-6.75,12.29-13.6,20.4-18,9.16-5,20.73-5.81,28.32-13.52.91-.92-.5-2.34-1.41-1.42Z"/>
      <path d="M199.54,296.56c2.56,7.69,4.31,15.61,6.43,23.43,2,7.53,4.54,14.95,6.77,22.44,1.56,5.27,3,10.6,5,15.74a31.38,31.38,0,0,0,5.4,9.73,21.26,21.26,0,0,0,9.79,5.93c1.23.39,1.76-1.54.53-1.93a19.49,19.49,0,0,1-8.38-4.84,26.73,26.73,0,0,1-5.24-9c-1.89-4.83-3.31-9.84-4.78-14.81-2.13-7.19-4.5-14.32-6.54-21.53-2.42-8.55-4.25-17.27-7.06-25.7-.4-1.21-2.33-.69-1.93.53Z"/>
      <path d="M225,374.06a58.82,58.82,0,0,0-10.25,18.44,100.86,100.86,0,0,0-4.16,20.22c-.53,4.27-1,8.56-1.44,12.84-.15,1.28,1.85,1.27,2,0,1.51-13.5,2.36-27.59,8.61-39.92a57.4,57.4,0,0,1,6.65-10.17c.81-1-.6-2.41-1.41-1.41Z"/>
      <path d="M209.16,425.82c2.35,10.54,6.9,20.45,12.38,29.71a1,1,0,0,0,1.73-1c-5.4-9.12-9.87-18.85-12.18-29.23-.28-1.25-2.21-.72-1.93.53Z"/>
      <path d="M249.89,399.51a4.64,4.64,0,0,0,2.8,2c1,.35,2,.51,3,.8a1,1,0,0,0,.54-1.93c-.95-.27-1.92-.43-2.85-.73l-.35-.12-.16-.06-.1,0,.09,0c-.06,0-.27-.12-.32-.15l-.31-.17-.15-.1c-.12-.08-.09-.13,0,0,0-.07-.15-.13-.22-.2l-.12-.12a.18.18,0,0,1-.05-.07l.07.09c0-.09-.14-.21-.18-.29a1,1,0,0,0-1.37-.36,1,1,0,0,0-.36,1.37Z"/>
      <path d="M252.31,400.25c-4.52,9.86-8.57,20.29-16.88,27.65-1,.85.46,2.26,1.42,1.41,8.44-7.48,12.6-18,17.19-28.05.53-1.16-1.19-2.18-1.73-1Z"/>
      <path d="M238,425.85c-.47,8.65-1.53,18.15,2.61,26.14.59,1.14,2.32.13,1.72-1-3.94-7.61-2.78-16.89-2.33-25.13.07-1.28-1.93-1.28-2,0Z"/>
      <path d="M241,451c1.92-.52,4.11-1.34,6.07-.59a5.4,5.4,0,0,1,3.35,4.33c.63,5-4.68,6.74-8.31,8.35-7.91,3.49-15.66,7.69-22,13.63a47.31,47.31,0,0,0-8.13,10c-2.35,3.86-3.61,9.44-8.37,11a18.76,18.76,0,0,1-7.19.64A10.5,10.5,0,0,1,190.2,496c-3.57-3.19-2.72-9.06-.61-12.82a14.81,14.81,0,0,1,5.1-5.36c2.46-1.53,5.31-2.11,8.08-2.84,2.4-.64,4.79-1.25,7.21-1.84a11.81,11.81,0,0,0,5.85-3.22,1,1,0,0,0-1.42-1.41,11.15,11.15,0,0,1-6.08,3c-2.64.56-5.2,1.35-7.8,2a23,23,0,0,0-7.46,3,17,17,0,0,0-4.84,5.06c-2.44,3.92-3.45,9.35-1.21,13.59,2.35,4.44,7.82,5.37,12.39,5.16a14,14,0,0,0,7.44-2.07c2.1-1.47,3.29-3.73,4.38-6a46.75,46.75,0,0,1,8.46-12.4c6.85-7.09,15.7-11.76,24.65-15.63,2.55-1.1,5.25-2.23,6.85-4.63a7.7,7.7,0,0,0,.95-6.35,7.32,7.32,0,0,0-4.27-4.7c-2.44-1-5-.18-7.41.47A1,1,0,0,0,241,451Z"/>
      <path d="M221.7,454.31c-2.8,3.58-7.32,5.74-11.39,7.51a72.76,72.76,0,0,1-14.26,4.52c-5.34,1.08-11.16.54-16.17,2.94a11.39,11.39,0,0,0-6.14,13.14c1.48,5.26,8.11,7.69,13.07,7.77a1,1,0,0,0,0-2c-4.19-.07-10.14-2.07-11.23-6.65a9.3,9.3,0,0,1,1.37-7.23,10.81,10.81,0,0,1,6.57-4.22c4.81-1.25,9.89-1,14.74-2.19a77.87,77.87,0,0,0,13.06-4.35c4.22-1.83,8.9-4.12,11.79-7.82.79-1-.62-2.43-1.41-1.42Z"/>
      <path d="M215.13,264.5a18.86,18.86,0,0,0,8.63,6.36c3.22,1.15,7.45.76,10.05,3.24.94.89,2.35-.52,1.42-1.41-2.62-2.49-6.26-2.47-9.56-3.34a16.36,16.36,0,0,1-8.81-5.86c-.77-1-2.51,0-1.73,1Z"/>
      <path d="M255.88,41.8c-19,0-38.51,3.89-54.59,14.44A73.37,73.37,0,0,0,171.34,97.4c-6.61,22.62-3.24,46.78,3.58,68.95a185.08,185.08,0,0,0,28.36,56.34c12.1,16.14,27.4,30.44,45.85,39q3.21,1.47,6.52,2.72c1.2.45,1.72-1.48.53-1.93-18.59-7-34.3-20-46.83-35.25a178.51,178.51,0,0,1-30-54c-7.63-21.55-12.43-45.55-7.77-68.26,3.5-17,12.13-32.65,25.9-43.48C211.8,50.15,230.1,45.07,248.12,44c2.59-.15,5.17-.22,7.76-.22a1,1,0,0,0,0-2Z"/>
      <path d="M223.81,369.12a29.6,29.6,0,0,0,5.93,16.26c.77,1,2.51,0,1.73-1a27.83,27.83,0,0,1-5.66-15.25c-.07-1.28-2.07-1.29-2,0Z"/>
      <path d="M175,384.59a11.61,11.61,0,0,0,9.14,2.64,6.7,6.7,0,0,0,5.5-5.39,10.53,10.53,0,0,0-1.35-6.24c-.57-1.15-2.3-.14-1.73,1a8.94,8.94,0,0,1,1.16,4.5,4.28,4.28,0,0,1-1.17,2.63,4.41,4.41,0,0,1-2.54,1.5,9.11,9.11,0,0,1-3.85-.24,8.3,8.3,0,0,1-3.74-1.82c-.93-.89-2.35.52-1.42,1.41Z"/>
    </g>
  </g>
</svg>
