<svg class="Body" xmlns="http://www.w3.org/2000/svg" viewBox="0 0 512 512">
  <title>body4</title>
  <path class="PrimaryColor" d="M372.6,318.32c-.35-6.69-3.77-12.91-6.4-18.92-1.19-2.7-2.58-5.33-4.59-6.65a16.09,16.09,0,0,0-1.7-2.26,9,9,0,0,0-5.71-4.15c-2.14-2.36-4.39-4.62-6.72-6.81a5.46,5.46,0,0,0-2.05-1.26c-1.22-1.15-2.4-2.34-3.52-3.59a10.88,10.88,0,0,0-2.35-2.79,5.23,5.23,0,0,0-3.82-1.39c-2-1.61-4-3.17-6.07-4.65a16,16,0,0,0-6.77-4.26,4.51,4.51,0,0,0-2.16-.26l-.47-.29a41.91,41.91,0,0,0-5.58-3.23,45,45,0,0,0-12-3.75c-.22,0-.43,0-.64-.05a30.33,30.33,0,0,0-7.32-3.07c-.49-.33-1-.65-1.46-1a5,5,0,0,0-.62-.36c.07-.21.13-.42.2-.63s.22-.4.33-.6a3.82,3.82,0,0,0,1.22-1.32c2.59-3.11,3.83-8.28,4.61-12.74a3.81,3.81,0,0,0,2-2l3.93-9.11q2.91-3,5.85-5.88,3.93-2.79,7.74-5.74a4.17,4.17,0,0,0,1.31-.6,12.47,12.47,0,0,0,2.75-2.53,9.83,9.83,0,0,0,2.67-3.45,4.45,4.45,0,0,0,3.75-2.43,20.66,20.66,0,0,0,1.82-4.4A26.71,26.71,0,0,0,334,186.08a5.14,5.14,0,0,0-.18-1.56q.6-7.64,1.21-15.28a5.48,5.48,0,0,0-.06-1.36q1.25-17.53,2.48-35.06a4.21,4.21,0,0,0-1.52-3.78c-.13-2.67-.2-5.35-.24-8,.06-2.3.05-4.61,0-6.94a5.24,5.24,0,0,0-.36-1.88,52.25,52.25,0,0,0-1-14.5,4.67,4.67,0,0,0-.59-1.51,31.12,31.12,0,0,0-.39-3.61,50,50,0,0,0-.92-5.29,4,4,0,0,0,.22-3.73c-1.56-4-2.62-10.11-6.47-12.49a4,4,0,0,0-1.2-.5,4.66,4.66,0,0,0-.72-.56c-1.59-5.64-8.92-9.86-14.8-11.49l-.87-.69a5,5,0,0,0-2.84-2.1l-1.69-.44c-.13,0-.28,0-.42-.06a10.94,10.94,0,0,0-3.54-2.12,3.85,3.85,0,0,0-2.31-.17,4.89,4.89,0,0,0-4-1,30,30,0,0,0-7.36-2.18,6.92,6.92,0,0,0-3.89-.63,142.49,142.49,0,0,0-27.55-3,98.94,98.94,0,0,0-18,1.1,22.94,22.94,0,0,0-4.19,1.18,4,4,0,0,0-4-.27c-.41.16-.8.34-1.19.51h0l0,0c-.49.22-1,.45-1.43.68a3.91,3.91,0,0,0-3.57-.14l-1.45.63a6.84,6.84,0,0,0-2.32.56,17.82,17.82,0,0,0-2,1c-.54.19-1.08.38-1.62.59a4.31,4.31,0,0,0-2.56.7c-1.43.9-2.82,1.85-4.21,2.81C201.51,54.9,194,62,190,66.87A56.27,56.27,0,0,0,178.5,90c-3,12.58-3,25.86-2.2,39.07-2.26,12.3-1.08,24.7.06,37.12.62,6.77,1.19,13.54,1.87,20.3.61,6.06,1.63,11.54,6,16.06.37.38.76.74,1.15,1.1,1.13,5.45,9.53,9.3,13.63,11.94a5.08,5.08,0,0,0,2,.77,69.38,69.38,0,0,1,7.68,9.33c1.07,1.59,2.09,3.21,3,4.87q2.35,6.33,4.73,12.65a4.54,4.54,0,0,0,.72,1.25c.33,1.07.65,2.15,1,3.23a60.26,60.26,0,0,0-6.25,5.78,13.21,13.21,0,0,0-4.47,1.81,6.05,6.05,0,0,0-2.4.52,34.35,34.35,0,0,0-3.82,2,104.42,104.42,0,0,0-19.77,7.82c-7.5,3.89-16.52,8.58-19.78,16.79a5.45,5.45,0,0,0-1.56,1.17c-2.21,2.33-4.58,4.45-7,6.55a5.11,5.11,0,0,0-1.22,1.52,5.28,5.28,0,0,0-.85.68,33.36,33.36,0,0,0-8.21,13.44c-.5.93-1,1.85-1.48,2.8a5.06,5.06,0,0,0-.36,4,17.75,17.75,0,0,0,.07,10.26,7.18,7.18,0,0,0,.09,1,16.17,16.17,0,0,0,.45,3,5.45,5.45,0,0,0-.07,2.8,39.55,39.55,0,0,0,2.9,8.24,4.84,4.84,0,0,0,1.2,1.63c.76,1.67,1.53,3.33,2.35,5a4.8,4.8,0,0,0,.81,1.15c0,.25.05.49.08.73a6,6,0,0,0,.77,2.3,5.48,5.48,0,0,0,.13,1.55,15.74,15.74,0,0,0,6.75,9.31c-1.75,4.06-4.66,7-4,12,.82,5.95,4.2,12.16,6.69,17.58,1.77,3.87,4.07,10,9.55,8.75a4.4,4.4,0,0,0,.62-.18,4.55,4.55,0,0,0,2.87-1.39,5.35,5.35,0,0,0,1.36-4.46,5.67,5.67,0,0,0,.06-.71l-.17-1.27a11,11,0,0,0,1.19-.35c1,1.9,3.61,2.61,5.55,2.14a10.38,10.38,0,0,0,4.95-2.79,1.71,1.71,0,0,0,.11-.14c2.46-2.06,2.29-6.56-.53-8.27-.2-.48-.38-1-.54-1.45a27.44,27.44,0,0,0,5.81,2.18c2.44.61,5.65-.78,6.15-3.49.55-3-.71-6.43-4.1-7a6.6,6.6,0,0,0-2.08,0,16.33,16.33,0,0,1-1.64-.77,4.64,4.64,0,0,0-.27-1.4,5,5,0,0,0,5.24-1.18c2.25-2.7,2.34-5.71,0-8.37-.15-.17-.3-.31-.45-.45-1.27-2.52-2.76-4.26-6.29-4.82a28.47,28.47,0,0,0-5.72-.69c-1.58.08-3.11,1.08-4.61,1.17a34.55,34.55,0,0,0-3.28-4.34c-2-2.21-2.25-3.65-2.36-6.62-.09-2.4-.08-4.78,0-7.16a4.1,4.1,0,0,0,1.29-3.67,36.63,36.63,0,0,1,.11-9.18c0-.12,0-.25,0-.37,1.6-.58,3.19-1.27,4.71-1.9,7.84-3.24,15.5-7.48,18.62-15.64a57.88,57.88,0,0,1,2.78,13.54c.34,4.82,0,9.66.7,14.45a26.19,26.19,0,0,0,6.78,14.07,7.33,7.33,0,0,0,2.87,4.38,5.2,5.2,0,0,0,2,2.82,39.93,39.93,0,0,1,6.9,6.6c.92,2.48,3.21,4.89,5.12,6.93a5.71,5.71,0,0,0-.55,7,13.08,13.08,0,0,0,.41,2.89,5.34,5.34,0,0,0-1.42.93c-4.22,3.81-6.94,9-9.15,14.4-5.12,3.61-6.43,12.41-6.52,19.8a4.94,4.94,0,0,0-.61,1.9c-1,10,3.07,19.85,5.83,29.25a5.14,5.14,0,0,0,.55,1.21,15.46,15.46,0,0,0,3.16,6.95,20.38,20.38,0,0,1,2,2.81,26,26,0,0,1-4,6.06c-4.44,2.2-9,4.42-13.59,6.19a5,5,0,0,0-1.82.24,72,72,0,0,1-10.63,2.51,5.17,5.17,0,0,0-3.05-.16c-.34.08-.67.17-1,.27a4.61,4.61,0,0,0-.91,0,10.63,10.63,0,0,0-4.83,1.42,4.38,4.38,0,0,0-1.19,1,3.94,3.94,0,0,0-2.75,2.24,8.3,8.3,0,0,0-1,1.78,5.82,5.82,0,0,0-1,2.88,8.22,8.22,0,0,0,2.4,6.22,4.06,4.06,0,0,0,.87.69,11,11,0,0,0,8.06,3.11,5.64,5.64,0,0,0,1.15-.19,5.53,5.53,0,0,0,.34,2.93,5,5,0,0,0,1.39,4.42,10.89,10.89,0,0,0,7,2.76,13.22,13.22,0,0,0,5.4-.34,5.35,5.35,0,0,0,1.51-.66,12.67,12.67,0,0,0,6-4.14c2.35-3.24,3.75-7.08,6.09-10.36A46.38,46.38,0,0,1,221,473.79a5,5,0,0,0,.94-1,25,25,0,0,0,5.05-2.56,4.63,4.63,0,0,0,.42-.32,15.44,15.44,0,0,0,7.53-4.34l0-.05a12.79,12.79,0,0,0,3.34-1.49,5.66,5.66,0,0,0,.47-.34,9.33,9.33,0,0,0,7.2-5.29,5.25,5.25,0,0,0,0-5,5.07,5.07,0,0,0-4.32-2.48l-2.77,0a4.86,4.86,0,0,0-3.07,1.09,84.91,84.91,0,0,1-1.62-9.74c-.3-5.19,2.31-10.42-.29-15.44-.05-.1-.11-.19-.16-.28a70.07,70.07,0,0,0,18.46-25.42c.37,0,.75,0,1.12,0a5.16,5.16,0,0,0,3.22.29,5.61,5.61,0,0,0,1.43,1.45,45.81,45.81,0,0,1,4.56,3.74c1.36,5.22,6.44,10.72,9.19,14.15s5.54,5.92,5.68,10.36c.12,4.17-.92,7.78.46,11.89a4.4,4.4,0,0,0,.4.85,6.35,6.35,0,0,0-.15,3.78c0,.12-.09.23-.13.36l-.73.6a4.24,4.24,0,0,0-1.43,3.93c-.37,0-.74.06-1.11.1l-3.17-1.13c-2.54-.91-5.47,1-6.15,3.49a4.86,4.86,0,0,0,1.78,5.2,4.79,4.79,0,0,0,3.09,2.77l4.52,1.29a4.35,4.35,0,0,0,1.46,1.05,61.29,61.29,0,0,1,20.31,14,57,57,0,0,1,7.56,10c1.75,2.94,3.05,6.26,6,8.22,5.26,3.48,14.8,4.28,18.47-1.86a8.52,8.52,0,0,0,1.12-6.36,17,17,0,0,0,5.89-.2,4.17,4.17,0,0,0,3-2.29,8.77,8.77,0,0,0,3.23-9.09c-.8-4.24-4.26-5.5-7.94-6.69a30.91,30.91,0,0,0-4.55-1.23,43.18,43.18,0,0,0-5.85-.89,51,51,0,0,1-9.65-2.39,4.79,4.79,0,0,0-2.74-.1,103.2,103.2,0,0,1-10.36-3.88c-1.76-.8-3.14-1.9-4.68-2.66a5.18,5.18,0,0,0,.63-3.36,4.49,4.49,0,0,1,0-1.16,15.59,15.59,0,0,0,3.08-5.25,4.07,4.07,0,0,0-.17-3.47c.73-1.39,1.52-2.78,2.31-4.26,1.92-3.6,3.14-7.63,4.56-11.45a4.16,4.16,0,0,0-.32-3.92,59.48,59.48,0,0,0-16.29-49.89c0-2.22.05-4.45.07-6.67a4.7,4.7,0,0,0-1.15-3.35c.71-.76,1.44-1.51,2.19-2.24a7.51,7.51,0,0,0,3.61-1.53,5.3,5.3,0,0,0,1.82-2.65,6,6,0,0,0,.76-.6,5.73,5.73,0,0,0,1.42-3.3,9.14,9.14,0,0,0,4.88-4.47,15.37,15.37,0,0,0,2.86-2.95c2.53-3.35,3.85-7.59,5-11.55a90,90,0,0,0,2.94-14.26c.62-4.82-.35-11.22,1.65-15.66a5.22,5.22,0,0,0,.49-2.12c.56.56,1.13,1.11,1.72,1.63a7.94,7.94,0,0,0,2.55,3.18,3.89,3.89,0,0,0,.25.4,15.74,15.74,0,0,0,3.87,3.78,4.53,4.53,0,0,0,3.81,2.28,9.21,9.21,0,0,0,5.33,2.58h.17a12.56,12.56,0,0,0,5.86,2.34c-1.12,3-.56,7.22-.39,10.07.22,3.65.52,7.31.63,11,.08,2.46-.61,4.76-.9,7.08-.12.13-.24.26-.36.41-.31.4-.63.78-1,1.15a5.52,5.52,0,0,0-2.06.65,5.85,5.85,0,0,0-2.09,1.91q-.32.21-.63.45c-3.55-.44-7.38-1.34-10.77.19a7.76,7.76,0,0,0-3.45,2.89,18.5,18.5,0,0,0-.95,2.08,3.9,3.9,0,0,0-.32.9c-2.44,2.54-2.09,7.73,2,8.45l1.2.21a5.25,5.25,0,0,0-1,1.88l-1.05.22c-6.29,1.31-3.63,11,2.66,9.64,2.22-.46,4.6-.9,6.4-2.13,0,0,0,0,0,.07l-2.76,4.13a5,5,0,0,0,1.8,6.84c.89.44,1.77.89,2.68,1.27,1.77.75,3.33.3,5-.53a31.79,31.79,0,0,1,4.13-1.82l.07,0a2.18,2.18,0,0,1-.16.62c-.92,2.12-.89,4.3.78,6.06a9.28,9.28,0,0,0,2.43,1.87,5.09,5.09,0,0,0,6.05-.79,39.7,39.7,0,0,0,9.69-19.28,4.21,4.21,0,0,0,2.06-5.42,26.94,26.94,0,0,1-1.61-7.32h0c0-.44-.09-.88-.15-1.33a3.92,3.92,0,0,0-2.3-3.11v0a16.34,16.34,0,0,0,3-4.62,5.94,5.94,0,0,0,.3-3.31c1.43-2.22,3.06-4.36,4.31-6.63a66.92,66.92,0,0,0,5.63-13.95,4.42,4.42,0,0,0,.18-1.37C371.93,327.31,372.8,322,372.6,318.32Z" fill="#22b573"/>
  <g id="Mirror">
    <g>
      <path d="M314.18,300.54c2.9,5.73,6.61,11.07,11.91,14.83s11.62,5.94,17.78,7.94c1.22.4.7,2.33-.53,1.93-6.4-2.07-13-4.33-18.49-8.31s-9.37-9.41-12.4-15.38c-.58-1.15,1.14-2.16,1.73-1Z"/>
      <path d="M317.9,308.13a44.81,44.81,0,0,0-2.52,12.79c-.19,5.26-.37,10.55-1.68,15.68a36.43,36.43,0,0,1-5.35,11.74,82.65,82.65,0,0,1-8.48,9.93c-4.33,4.55-8.64,9.1-12.57,14-.8,1-2.21-.42-1.41-1.41,3.47-4.34,7.22-8.41,11.06-12.43a106.68,106.68,0,0,0,8.83-9.93,35.67,35.67,0,0,0,5.65-11.17c1.47-5.06,1.74-10.3,1.92-15.52a51.08,51.08,0,0,1,.48-6.3A49.56,49.56,0,0,1,316,307.6c.4-1.22,2.33-.7,1.93.53Z"/>
      <path d="M291.12,376.88a91.15,91.15,0,0,1,12.59,19.92c3,6.56,5.11,13.65,5.23,20.9a31.69,31.69,0,0,1-1.77,11.17c-.43,1.2-2.36.69-1.92-.53,4.73-13.27-1.05-28-8-39.41a94.3,94.3,0,0,0-7.56-10.63c-.8-1,.6-2.41,1.42-1.42Z"/>
      <path d="M307.17,428.87A96.76,96.76,0,0,1,296,457.52a1,1,0,0,1-1.72-1,95.35,95.35,0,0,0,11-28.17c.27-1.26,2.2-.73,1.92.53Z"/>
      <path d="M261.51,401l-1.2.4-.64.24-.34.14c-.18.07.11-.05,0,0l-.17.07c-.42.19-.83.39-1.23.62l-.57.37s-.09.08-.1.07.17-.13,0,0l-.24.22a1,1,0,0,1-1.42-1.41,8.47,8.47,0,0,1,2.52-1.57A29.42,29.42,0,0,1,261,399a1,1,0,0,1,1.23.7,1,1,0,0,1-.7,1.23Z"/>
      <path d="M259.69,401.25a80.45,80.45,0,0,0,19.88,26.65c1,.85-.45,2.26-1.42,1.41A81.92,81.92,0,0,1,258,402.26c-.54-1.16,1.19-2.17,1.73-1Z"/>
      <path d="M277.88,427.46c.47,8.45,2.63,17.61-1.46,25.53-.59,1.14-2.31.13-1.72-1,3.86-7.5,1.63-16.52,1.18-24.52-.07-1.28,1.93-1.28,2,0Z"/>
      <path d="M255.07,44.25a137.41,137.41,0,0,1,37.05,5.24c11,3.12,22.45,7.51,30.77,15.64,8.82,8.63,12,20.69,13.34,32.6a349.18,349.18,0,0,1,1.67,42.54q-.25,21.94-2.68,43.79c-.4,3.6-.77,7.22-1.34,10.8a15.52,15.52,0,0,1-1.89,5.26c-2.05,3.61-5.24,6.48-8.46,9-3.51,2.77-7.23,5.24-10.75,8-3.31,2.58-6.64,5.45-8.76,9.13a45.5,45.5,0,0,0-2.57,5.85q-1.17,3-2.29,6c-1.22,3.28-2.4,6.58-3.76,9.81-2.28,5.43-5.16,10.59-10,14.14-6.05,4.47-13.92,5.9-21.22,6.77-2.73.32-5.46.54-8.21.7-1.28.07-1.28-1.93,0-2,8.35-.5,17.45-1.21,25-5.09,5.08-2.61,8.54-6.81,11-11.87,3.15-6.4,5.22-13.32,7.88-19.93a39.11,39.11,0,0,1,2.52-5.6,25.17,25.17,0,0,1,3.67-4.68,74.29,74.29,0,0,1,10-8.14c6.17-4.47,14.46-9.59,15.84-17.74,1.19-7,1.75-14.15,2.36-21.2s1.06-14.26,1.33-21.4q.79-21.44-.49-42.89c-.73-12-1.66-25-8.12-35.51-6.18-10.09-17-15.79-27.82-19.62a137.36,137.36,0,0,0-35.88-7.28c-2.74-.2-5.49-.31-8.24-.31a1,1,0,0,1,0-2Z"/>
      <path d="M291.06,368.2a13.76,13.76,0,0,1,0,9,10.37,10.37,0,0,1-3.21,4.9,1,1,0,1,1-1-1.72c-.23.16.08-.08.14-.13l.31-.33a6,6,0,0,0,.6-.78,11.27,11.27,0,0,0,1.29-2.63,11.87,11.87,0,0,0,0-7.74c-.41-1.23,1.52-1.75,1.93-.53Z"/>
      <path d="M321.25,371a11.82,11.82,0,0,1-5.4-4.81,3.86,3.86,0,0,1-.91-2.68,13,13,0,0,1,.84-2.25,16.79,16.79,0,0,1,4.74-6.41A12,12,0,0,1,326,352a6.56,6.56,0,0,1,2.15.48,13.17,13.17,0,0,0,2.26.28,12.5,12.5,0,0,0,4.73-.77,6.35,6.35,0,0,0,3.53-3.41c1.66-3.62,1.29-8.09,1-11.94-.37-4.42-1.31-8.9-1.15-13.35,0-1.29,2-1.29,2,0-.28,7.77,2.5,15.51.9,23.28-.76,3.68-2.84,6.51-6.52,7.61a14.08,14.08,0,0,1-4,.58,14.39,14.39,0,0,1-2-.14c-.83-.11-1.65-.45-2.47-.55.09,0,.07-.08-.08-.08a2.74,2.74,0,0,0-.66.19,9.71,9.71,0,0,0-1.26.5,13.45,13.45,0,0,0-3.3,2.29,16.38,16.38,0,0,0-4.13,6.7,3.82,3.82,0,0,0-.13.36c-.06.18-.05.15.05-.09.09.21.2.43.31.63a10.08,10.08,0,0,0,1.3,1.87,8.86,8.86,0,0,0,3.26,2.63c1.18.46.67,2.4-.53,1.92Z"/>
      <path d="M327.53,380.54l-5.27,1.72c-.73.24-1.89.88-2.65.69a5.36,5.36,0,0,1-1.74-1.31,12.81,12.81,0,0,1-4.08-7.59,1,1,0,0,1,.7-1.23,11,11,0,0,0,2.82-1.43c1.36-.8,2.73-1.58,4.06-2.44,2-1.32,5.21-3.36,5.13-6.14,0-1.28,2-1.28,2,0,.09,3.35-3,5.76-5.51,7.46-1.45,1-3,1.86-4.48,2.73a13.44,13.44,0,0,1-3.49,1.75l.7-1.23a11.29,11.29,0,0,0,4.66,7.6l-.77-.1,7.39-2.4c1.23-.4,1.75,1.53.53,1.92Z"/>
      <path d="M328,380.29c-.18.2-.36.4-.53.61l-.15.18c.07-.08,0-.05,0,0l-.24.33c-.3.41-.57.84-.85,1.27a19.26,19.26,0,0,1-2,2.66,1,1,0,0,1-1.42,0,1,1,0,0,1,0-1.42,7.84,7.84,0,0,0,.54-.61l.15-.18c-.07.08,0,.05,0,0l.24-.33c.29-.41.57-.84.85-1.27a19.07,19.07,0,0,1,2-2.66,1,1,0,0,1,1.41,0,1,1,0,0,1,0,1.42Z"/>
      <path d="M295.65,248.79c8.86,5.2,18.85,8.11,28.18,12.31,9.81,4.41,18.23,11.06,26.07,18.33,4.05,3.75,8,7.64,11.74,11.68A46.31,46.31,0,0,1,370.41,304c4.14,9.46,3.06,19.63-.22,29.18-3.76,10.94-9.85,20.83-14.73,31.27l-1.73-1,2.28-3.65a1,1,0,0,1,1.83.24,45.06,45.06,0,0,1,2,6.76q.4,1.64.78,3.27a5.2,5.2,0,0,1,0,2.42,52.88,52.88,0,0,1-8,20c-1.52,2.32-3.19,4.52-4.89,6.71-.79,1-2.19-.41-1.42-1.41a71.88,71.88,0,0,0,8.57-13.44,48.83,48.83,0,0,0,3.52-10.64,6.46,6.46,0,0,0,.36-2.86c-.22-.94-.44-1.89-.67-2.83a49.41,49.41,0,0,0-2.11-7.41l1.83.24-2.28,3.65a1,1,0,0,1-1.73-1c4.23-9.05,9.39-17.65,13.1-26.94s6.06-19.4,2.78-29.07c-3.38-10-11.56-17.48-19-24.56-7.66-7.3-15.91-14.33-25.51-19-10-4.81-20.88-7.74-30.48-13.37a1,1,0,0,1,1-1.73Z"/>
      <path d="M324.34,384.14a16,16,0,0,0,3.32,4.84,12.27,12.27,0,0,0,5.16,2.94,1,1,0,0,1-.53,1.93,14.5,14.5,0,0,1-6-3.37,17.33,17.33,0,0,1-3.71-5.33,1,1,0,0,1,.36-1.37,1,1,0,0,1,1.36.36Z"/>
      <path d="M338.86,389.6a32.58,32.58,0,0,1-5.8,4.15,1,1,0,0,1-1-1.73,31.91,31.91,0,0,0,2.89-1.82l.65-.47.19-.15,0,0,.31-.25c.45-.36.89-.73,1.31-1.12a1,1,0,0,1,1.42,1.42Z"/>
      <path d="M339.15,388.89c.11,1.84.09,4-1.25,5.44a1,1,0,0,1-1.42-1.41l.1-.11c.09-.08-.1.16,0,.05l.15-.23c.05-.08.1-.18.15-.27s0,0,0,.07.05-.13.06-.15a4,4,0,0,0,.16-.57,1.36,1.36,0,0,0,.06-.29l0-.17c0-.07,0-.22,0,0,0-.41.07-.81.07-1.22s0-.79,0-1.18a1,1,0,0,1,1-1,1,1,0,0,1,1,1Z"/>
      <path d="M337.9,392.92a12.19,12.19,0,0,0,9.05,4.5,1,1,0,0,1,0,2,14.13,14.13,0,0,1-10.47-5.09,1,1,0,0,1,0-1.41,1,1,0,0,1,1.42,0Z"/>
      <path d="M274.85,452.44c-2.22-.43-4.92-.75-6.94.53-1.79,1.13-2.08,3.62-1.28,5.45.9,2.07,2.89,3.43,4.84,4.41s4,1.92,6,2.91c7.43,3.71,14.8,7.88,20.73,13.79a43.88,43.88,0,0,1,7.66,10.26,58.75,58.75,0,0,0,3.11,5.87,8.65,8.65,0,0,0,6,3.45c4,.65,9.75.49,12.35-3.14s1.45-9-.8-12.54a14.88,14.88,0,0,0-5.28-5c-2.43-1.34-5.21-1.86-7.87-2.58-2.31-.62-4.62-1.18-6.94-1.76a11.65,11.65,0,0,1-5.69-3.18c-.9-.92.51-2.33,1.41-1.41a11,11,0,0,0,5.93,2.92c2.54.55,5,1.3,7.53,1.95a25.4,25.4,0,0,1,7.27,2.71,17,17,0,0,1,5,4.7c2.6,3.7,3.88,8.89,2.21,13.23-1.81,4.71-6.72,6.24-11.37,6.3a17.85,17.85,0,0,1-7.21-1.15,10.54,10.54,0,0,1-5.07-4.84c-1.24-2.22-2.22-4.57-3.56-6.75a40.8,40.8,0,0,0-4.45-5.93C292,475.59,283.52,471,275.07,466.8c-4.32-2.13-10.44-4.28-10.84-9.93a6,6,0,0,1,3-5.82c2.53-1.29,5.42-1.06,8.12-.54,1.27.25.73,2.18-.53,1.93Z"/>
      <path d="M295.86,456.31c2.72,3.48,7.11,5.54,11.13,7.13a73.33,73.33,0,0,0,13.71,3.94c5.16,1,10.76.55,15.63,2.74a11.45,11.45,0,0,1,6.72,12.26c-.94,5.6-6.9,9.1-12.25,9.21a1,1,0,0,1,0-2c4.64-.1,9.89-3.21,10.37-8.18a9.43,9.43,0,0,0-2-6.72,11.47,11.47,0,0,0-6.5-3.7c-4.66-1.11-9.53-1-14.22-2a74.26,74.26,0,0,1-12.63-3.86c-4.1-1.68-8.57-3.81-11.37-7.38-.78-1,.63-2.43,1.42-1.42Z"/>
      <path d="M297.54,265A33.91,33.91,0,0,1,287,273.67a35.34,35.34,0,0,1-6.16,2.5c-1.91.56-5.1.59-6.36,2.33-.75,1-2.49,0-1.73-1,1.32-1.81,3.35-2.24,5.43-2.71a31.17,31.17,0,0,0,6.83-2.35,32.52,32.52,0,0,0,11.16-8.86c.81-1,2.21.42,1.41,1.41Z"/>
      <path d="M294.36,330.32a21.79,21.79,0,0,1-16.9,4.51c-1.27-.19-.73-2.12.53-1.92a19.63,19.63,0,0,0,15-4c1-.79,2.42.62,1.41,1.42Z"/>
      <path d="M302.84,314a36.42,36.42,0,0,1-19.16,9.45c-1.26.2-1.8-1.73-.53-1.93a34.5,34.5,0,0,0,18.27-8.94c.94-.88,2.36.53,1.42,1.42Z"/>
    </g>
    <g>
      <path d="M197.82,300.54c-2.9,5.73-6.61,11.07-11.91,14.83s-11.62,5.94-17.78,7.94c-1.22.4-.7,2.33.53,1.93,6.4-2.07,13-4.33,18.49-8.31s9.37-9.41,12.4-15.38c.58-1.15-1.14-2.16-1.73-1Z"/>
      <path d="M194.1,308.13a44.81,44.81,0,0,1,2.52,12.79c.19,5.26.37,10.55,1.68,15.68a36.43,36.43,0,0,0,5.35,11.74,82.65,82.65,0,0,0,8.48,9.93c4.33,4.55,8.64,9.1,12.57,14,.8,1,2.21-.42,1.41-1.41-3.47-4.34-7.22-8.41-11.06-12.43a106.68,106.68,0,0,1-8.83-9.93,35.67,35.67,0,0,1-5.65-11.17c-1.47-5.06-1.74-10.3-1.92-15.52a51.08,51.08,0,0,0-.48-6.3A49.56,49.56,0,0,0,196,307.6c-.4-1.22-2.33-.7-1.93.53Z"/>
      <path d="M220.88,376.88a91.15,91.15,0,0,0-12.59,19.92c-3,6.56-5.11,13.65-5.23,20.9a31.69,31.69,0,0,0,1.77,11.17c.43,1.2,2.36.69,1.92-.53-4.73-13.27,1.05-28,8-39.41a94.3,94.3,0,0,1,7.56-10.63c.8-1-.6-2.41-1.42-1.42Z"/>
      <path d="M204.83,428.87A96.76,96.76,0,0,0,216,457.52a1,1,0,0,0,1.72-1,95.35,95.35,0,0,1-11-28.17c-.27-1.26-2.2-.73-1.92.53Z"/>
      <path d="M250.49,401l1.2.4.64.24.34.14c.18.07-.11-.05,0,0l.17.07c.42.19.83.39,1.23.62l.57.37s.09.08.1.07-.17-.13,0,0l.24.22a1,1,0,1,0,1.42-1.41,8.47,8.47,0,0,0-2.52-1.57A29.42,29.42,0,0,0,251,399a1,1,0,0,0-1.23.7,1,1,0,0,0,.7,1.23Z"/>
      <path d="M252.31,401.25a80.45,80.45,0,0,1-19.88,26.65c-1,.85.45,2.26,1.42,1.41A81.92,81.92,0,0,0,254,402.26c.54-1.16-1.19-2.17-1.73-1Z"/>
      <path d="M234.12,427.46c-.47,8.45-2.63,17.61,1.46,25.53.59,1.14,2.31.13,1.72-1-3.86-7.5-1.63-16.52-1.18-24.52.07-1.28-1.93-1.28-2,0Z"/>
      <path d="M256.93,44.25a137.41,137.41,0,0,0-37.05,5.24c-11,3.12-22.45,7.51-30.77,15.64-8.82,8.63-12,20.69-13.34,32.6a349.18,349.18,0,0,0-1.67,42.54q.26,21.94,2.68,43.79c.4,3.6.77,7.22,1.34,10.8a15.52,15.52,0,0,0,1.89,5.26c2.05,3.61,5.24,6.48,8.46,9,3.51,2.77,7.23,5.24,10.75,8,3.31,2.58,6.64,5.45,8.76,9.13a45.5,45.5,0,0,1,2.57,5.85q1.17,3,2.29,6c1.22,3.28,2.4,6.58,3.76,9.81,2.28,5.43,5.16,10.59,10,14.14,6,4.47,13.92,5.9,21.22,6.77,2.73.32,5.46.54,8.21.7,1.28.07,1.28-1.93,0-2-8.35-.5-17.45-1.21-25-5.09-5.08-2.61-8.54-6.81-11-11.87-3.15-6.4-5.22-13.32-7.88-19.93a39.11,39.11,0,0,0-2.52-5.6,25.17,25.17,0,0,0-3.67-4.68,74.29,74.29,0,0,0-10-8.14c-6.17-4.47-14.46-9.59-15.84-17.74-1.19-7-1.75-14.15-2.36-21.2s-1.06-14.26-1.33-21.4q-.8-21.44.49-42.89c.73-12,1.66-25,8.12-35.51,6.18-10.09,17-15.79,27.82-19.62a137.36,137.36,0,0,1,35.88-7.28c2.74-.2,5.49-.31,8.24-.31a1,1,0,0,0,0-2Z"/>
      <path d="M220.94,368.2a13.76,13.76,0,0,0,0,9,10.37,10.37,0,0,0,3.21,4.9,1,1,0,1,0,1-1.72c.23.16-.08-.08-.14-.13l-.31-.33a6,6,0,0,1-.6-.78,11.27,11.27,0,0,1-1.29-2.63,11.87,11.87,0,0,1,0-7.74c.41-1.23-1.52-1.75-1.93-.53Z"/>
      <path d="M190.75,371a11.82,11.82,0,0,0,5.4-4.81,3.86,3.86,0,0,0,.91-2.68,13,13,0,0,0-.84-2.25,16.79,16.79,0,0,0-4.74-6.41A12,12,0,0,0,186,352a6.56,6.56,0,0,0-2.15.48,13.17,13.17,0,0,1-2.26.28,12.5,12.5,0,0,1-4.73-.77,6.35,6.35,0,0,1-3.53-3.41c-1.66-3.62-1.29-8.09-1-11.94.37-4.42,1.31-8.9,1.15-13.35,0-1.29-2-1.29-2,0,.28,7.77-2.5,15.51-.9,23.28.76,3.68,2.84,6.51,6.52,7.61a14.08,14.08,0,0,0,4,.58,14.39,14.39,0,0,0,2-.14c.83-.11,1.65-.45,2.47-.55-.09,0-.07-.08.08-.08a2.74,2.74,0,0,1,.66.19,9.71,9.71,0,0,1,1.26.5,13.45,13.45,0,0,1,3.3,2.29,16.38,16.38,0,0,1,4.13,6.7,3.82,3.82,0,0,1,.13.36c.06.18.05.15,0-.09-.09.21-.2.43-.31.63a10.08,10.08,0,0,1-1.3,1.87,8.86,8.86,0,0,1-3.26,2.63c-1.18.46-.67,2.4.53,1.92Z"/>
      <path d="M184.47,380.54l5.27,1.72c.73.24,1.89.88,2.65.69a5.36,5.36,0,0,0,1.74-1.31,12.81,12.81,0,0,0,4.08-7.59,1,1,0,0,0-.7-1.23,11,11,0,0,1-2.82-1.43c-1.36-.8-2.73-1.58-4.06-2.44-2-1.32-5.21-3.36-5.13-6.14,0-1.28-2-1.28-2,0-.09,3.35,3,5.76,5.51,7.46,1.45,1,3,1.86,4.48,2.73a13.44,13.44,0,0,0,3.49,1.75l-.7-1.23a11.29,11.29,0,0,1-4.66,7.6l.77-.1-7.39-2.4c-1.23-.4-1.75,1.53-.53,1.92Z"/>
      <path d="M184,380.29c.18.2.36.4.53.61l.15.18h0l.24.33c.3.41.57.84.85,1.27a19.26,19.26,0,0,0,2,2.66,1,1,0,0,0,1.42,0,1,1,0,0,0,0-1.42,7.84,7.84,0,0,1-.54-.61l-.15-.18h0l-.24-.33c-.29-.41-.57-.84-.85-1.27a19.07,19.07,0,0,0-2-2.66,1,1,0,0,0-1.41,0,1,1,0,0,0,0,1.42Z"/>
      <path d="M216.35,248.79c-8.86,5.2-18.85,8.11-28.18,12.31-9.81,4.41-18.23,11.06-26.07,18.33-4,3.75-8,7.64-11.74,11.68A46.31,46.31,0,0,0,141.59,304c-4.14,9.46-3.06,19.63.22,29.18,3.76,10.94,9.85,20.83,14.73,31.27l1.73-1L156,359.77a1,1,0,0,0-1.83.24,45.06,45.06,0,0,0-1.95,6.76q-.41,1.64-.78,3.27a5.2,5.2,0,0,0,0,2.42,52.88,52.88,0,0,0,8,20c1.52,2.32,3.19,4.52,4.89,6.71.79,1,2.19-.41,1.42-1.41a71.88,71.88,0,0,1-8.57-13.44,48.83,48.83,0,0,1-3.52-10.64,6.46,6.46,0,0,1-.36-2.86c.22-.94.44-1.89.67-2.83a49.41,49.41,0,0,1,2.11-7.41l-1.83.24,2.28,3.65a1,1,0,0,0,1.73-1c-4.23-9.05-9.39-17.65-13.1-26.94s-6.06-19.4-2.78-29.07c3.38-10,11.56-17.48,19-24.56,7.66-7.3,15.91-14.33,25.51-19,10-4.81,20.88-7.74,30.48-13.37a1,1,0,0,0-1-1.73Z"/>
      <path d="M187.66,384.14a16,16,0,0,1-3.32,4.84,12.27,12.27,0,0,1-5.16,2.94,1,1,0,0,0,.53,1.93,14.5,14.5,0,0,0,6-3.37,17.33,17.33,0,0,0,3.71-5.33,1,1,0,0,0-.36-1.37,1,1,0,0,0-1.36.36Z"/>
      <path d="M173.14,389.6a32.58,32.58,0,0,0,5.8,4.15,1,1,0,1,0,1-1.73,31.91,31.91,0,0,1-2.89-1.82l-.65-.47-.19-.15,0,0-.31-.25c-.45-.36-.89-.73-1.31-1.12a1,1,0,1,0-1.42,1.42Z"/>
      <path d="M172.85,388.89c-.11,1.84-.09,4,1.25,5.44a1,1,0,0,0,1.42-1.41l-.1-.11c-.09-.08.1.16,0,.05l-.15-.23c-.05-.08-.1-.18-.15-.27s0,0,0,.07-.05-.13-.06-.15a4,4,0,0,1-.16-.57,1.36,1.36,0,0,1-.06-.29l0-.17c0-.07,0-.22,0,0,0-.41-.07-.81-.07-1.22s0-.79,0-1.18a1,1,0,0,0-1-1,1,1,0,0,0-1,1Z"/>
      <path d="M174.1,392.92a12.19,12.19,0,0,1-9,4.5,1,1,0,0,0,0,2,14.13,14.13,0,0,0,10.47-5.09,1,1,0,0,0,0-1.41,1,1,0,0,0-1.42,0Z"/>
      <path d="M237.15,452.44c2.22-.43,4.92-.75,6.94.53,1.79,1.13,2.08,3.62,1.28,5.45-.9,2.07-2.89,3.43-4.84,4.41s-4,1.92-6,2.91c-7.43,3.71-14.8,7.88-20.73,13.79a43.88,43.88,0,0,0-7.66,10.26,58.75,58.75,0,0,1-3.11,5.87,8.65,8.65,0,0,1-6,3.45c-4,.65-9.75.49-12.35-3.14s-1.45-9,.8-12.54a14.88,14.88,0,0,1,5.28-5c2.43-1.34,5.21-1.86,7.87-2.58,2.31-.62,4.62-1.18,6.94-1.76a11.65,11.65,0,0,0,5.69-3.18c.9-.92-.51-2.33-1.41-1.41a11,11,0,0,1-5.93,2.92c-2.54.55-5,1.3-7.53,1.95a25.4,25.4,0,0,0-7.27,2.71,17,17,0,0,0-5,4.7c-2.6,3.7-3.88,8.89-2.21,13.23,1.81,4.71,6.72,6.24,11.37,6.3a17.85,17.85,0,0,0,7.21-1.15,10.54,10.54,0,0,0,5.07-4.84c1.24-2.22,2.22-4.57,3.56-6.75a40.8,40.8,0,0,1,4.45-5.93c6.39-7.08,14.86-11.71,23.31-15.87,4.32-2.13,10.44-4.28,10.84-9.93a6,6,0,0,0-3-5.82c-2.53-1.29-5.42-1.06-8.12-.54-1.27.25-.73,2.18.53,1.93Z"/>
      <path d="M216.14,456.31c-2.72,3.48-7.11,5.54-11.13,7.13a73.33,73.33,0,0,1-13.71,3.94c-5.16,1-10.76.55-15.63,2.74A11.45,11.45,0,0,0,169,482.38c.94,5.6,6.9,9.1,12.25,9.21a1,1,0,0,0,0-2c-4.64-.1-9.89-3.21-10.37-8.18a9.43,9.43,0,0,1,2-6.72,11.47,11.47,0,0,1,6.5-3.7c4.66-1.11,9.53-1,14.22-2a74.26,74.26,0,0,0,12.63-3.86c4.1-1.68,8.57-3.81,11.37-7.38.78-1-.63-2.43-1.42-1.42Z"/>
      <path d="M214.46,265A33.91,33.91,0,0,0,225,273.67a35.34,35.34,0,0,0,6.16,2.5c1.91.56,5.1.59,6.36,2.33.75,1,2.49,0,1.73-1-1.32-1.81-3.35-2.24-5.43-2.71a31.17,31.17,0,0,1-6.83-2.35,32.52,32.52,0,0,1-11.16-8.86c-.81-1-2.21.42-1.41,1.41Z"/>
      <path d="M217.64,330.32a21.79,21.79,0,0,0,16.9,4.51c1.27-.19.73-2.12-.53-1.92a19.63,19.63,0,0,1-15-4c-1-.79-2.42.62-1.41,1.42Z"/>
      <path d="M209.16,314a36.42,36.42,0,0,0,19.16,9.45c1.26.2,1.8-1.73.53-1.93a34.5,34.5,0,0,1-18.27-8.94c-.94-.88-2.36.53-1.42,1.42Z"/>
    </g>
  </g>
</svg>
