<svg class="Body" xmlns="http://www.w3.org/2000/svg" viewBox="0 0 512 512">
  <title>body3</title>
  <g class="PrimaryColor">
    <path d="M330.55,387.64l-.1.08C330.31,387.86,330.22,388,330.55,387.64Z" fill="#22b573"/>
    <path d="M367.1,316.3c-.39-1.75-1.38-3.27-1.15-5.13a3.84,3.84,0,0,0-3.43-4.64c-.07-.32-.15-.64-.25-.95a7.83,7.83,0,0,0-4.73-4.76c-1.47-.61-2.9-1-4-2.24a11,11,0,0,0-2.4-2.56,6.07,6.07,0,0,0-2.75-.7,4.22,4.22,0,0,0-2.45-2.91c-5-2.42-9-6.1-12.85-10.05-2.89-2.94-3.91-7.29-7.72-9.26l-.09-.05a4.65,4.65,0,0,0-2.59-3.55,21.36,21.36,0,0,0-2.1-5.92,4.9,4.9,0,0,0-4.78-2.41,4,4,0,0,0-2-1.17,4.05,4.05,0,0,0-3.29-2.92,30.66,30.66,0,0,0-3.17-.32,14.68,14.68,0,0,1-1.9.09c-.92-.38-2.05-2.11-3.07-2.74a7.38,7.38,0,0,0-5.24-1,30.64,30.64,0,0,0-2.06-2.74,4.07,4.07,0,0,0-3.24-1.55,4.72,4.72,0,0,0-2.37-1.49c4-8.58,5.32-18.94,6.93-28.11a12,12,0,0,0,.78-4.63c0-.12,0-.23,0-.34s.08-.24.1-.38c.56-3.09,1.23-6.16,2-9.21.06-.22.14-.43.2-.65s.06-.39.09-.58c.27-1.14.58-2.27.89-3.4a4.79,4.79,0,0,0,2-3.09c1.16-1.59,2.33-3.17,3.53-4.73,2.23-2.89,4-3.73,7.41-4.89,2-.68,4-1.32,6-1.93a4.77,4.77,0,0,0,1.53.26h2.85a5.15,5.15,0,0,0,3.26-1.23,4.69,4.69,0,0,0,2.43-.83l3.27-2.16a5.09,5.09,0,0,0,2.06-2.66,4,4,0,0,0,1.8-3c1.11-7.84,2-15.71,2.63-23.61.43-5.56,1-11.28.5-16.86a4.55,4.55,0,0,0,.43-1.73,27.66,27.66,0,0,0-.58-5.54,4.37,4.37,0,0,0,.25-.48,4.67,4.67,0,0,0-.35-4.43,4.15,4.15,0,0,0-.14-.61.64.64,0,0,1,0-.07,5.16,5.16,0,0,0,.57-2.17,12.11,12.11,0,0,0-.89-5.09,5.3,5.3,0,0,0,.42-3,44.1,44.1,0,0,0-1.65-7,3.85,3.85,0,0,0,0-.59,20.56,20.56,0,0,0-.4-2.67,5.4,5.4,0,0,0-.1-1.86,26.08,26.08,0,0,0-2.84-7.24,43.65,43.65,0,0,0-3.71-10.38,3.73,3.73,0,0,0-.78-1.06,23.77,23.77,0,0,0-3.14-6.19,30,30,0,0,0-6.14-5.92c-2.32-3.82-5.67-7.55-9.35-7.91l-.06-.06a5.46,5.46,0,0,0-2.55-2.14,3.86,3.86,0,0,0-.54-.19,8.28,8.28,0,0,0-1.1-1.45,4.34,4.34,0,0,0-3.82-1.52,4.69,4.69,0,0,0-1.89-1.93A62.13,62.13,0,0,0,286.84,49c-5.72-3.63-16.06-3.91-23.55-3.39A5,5,0,0,0,261,45a96.31,96.31,0,0,0-12.93.9,4.9,4.9,0,0,0-1.94-.11,188.75,188.75,0,0,0-23.49,4.54c-3.19.85-6.76,1.5-9.69,3a7,7,0,0,0-1.9,1.46,5.68,5.68,0,0,0-4.45,1.78c-20.31,8.25-31,32.57-33,53.11a5.34,5.34,0,0,0,0,1,5.11,5.11,0,0,0-.42,3.69,5,5,0,0,0-.42,1.39,112.47,112.47,0,0,0-.76,29.82,5.5,5.5,0,0,0,0,5.9,8.32,8.32,0,0,0-.54,2.71,4.81,4.81,0,0,0,1.35,3.37c-.2,1.67-.33,3.36-.38,5.08A4.5,4.5,0,0,0,173,165a4.52,4.52,0,0,0,.78,2.15l1.1,1.65a14.32,14.32,0,0,0,2,8.53,5.2,5.2,0,0,0,2.25,3.91l.15.09a4,4,0,0,0,2.1,2.46,12.31,12.31,0,0,0,3.35,1.15,14,14,0,0,0,4.29,0c.2.05.4.12.6.15,1.74.28,3.51-.09,5.2.47,1.34.44,2.55,1.6,3.81,2.23a13.65,13.65,0,0,0,3.9,1.43l.25,0a1.31,1.31,0,0,0,.1.21,5.38,5.38,0,0,0,3.37,2.74l3.48,5.65a6,6,0,0,0,1.06,1.28l1.14,7a4,4,0,0,0,2.28,3.23c.11.6.25,1.2.35,1.81.76,4.52.53,9.69,2.42,14a98.16,98.16,0,0,0,3.16,17.9,4.79,4.79,0,0,0,1.48,2.42.59.59,0,0,0,0,.14,5.79,5.79,0,0,0,.77,2.32,7.15,7.15,0,0,0-3.65,2c-.33.39-.61.82-.91,1.23a.59.59,0,0,0-.14.06l-4.46,2.24a4.21,4.21,0,0,0-1.57,1.42c-3.4-.87-6.2.55-8.59,2.92a4.52,4.52,0,0,0-5.06,1.19l-2.91,3.65a6,6,0,0,0-.68.33,12.11,12.11,0,0,0-4.86,5.49l-.09.22a5,5,0,0,0-1.81,3.5c-3.58,4-7.07,8.06-10.52,12.17-4.29-.45-6.91,3.59-9.37,6.91-.36.49-.74,1-1.1,1.46a5,5,0,0,0-1.59.79c-4,3-8.93,5.78-12.3,9.53a16.17,16.17,0,0,0-2.41,3.93,5.16,5.16,0,0,0-1.28,1.35,9.42,9.42,0,0,0-2.82,5l-.07.11c-2,3.17-2.59,7.54.09,10.53.17.19.35.36.53.53a59.42,59.42,0,0,0,3,7.53l3.15,8.65c1.47,4.05,2.72,8.29,5.49,11.58a6,6,0,0,0,2,4.07c0,.3.08.6.09.9a5.22,5.22,0,0,0-1.61,2.42,14.4,14.4,0,0,0-.78,5.27l-.16.24c-2.11,3.34-1.41,9.75,1.66,12.58a6.9,6.9,0,0,0,1.28,2.48,9.07,9.07,0,0,0,.29,2.1c.77,2.89,2.76,5.59,4.38,8.06,1.28,2,2.51,3.91,5,4.46a5.72,5.72,0,0,0,1.37.11,5.13,5.13,0,0,0,5.76-2.3,5,5,0,0,0,0-4.85,5.47,5.47,0,0,0,.45-.51,5,5,0,0,0,2,1.12l1.27.42a3.75,3.75,0,0,0,1.69.14,5.29,5.29,0,0,0,7.69-1.38,27.31,27.31,0,0,0,1.38-6.59,4.56,4.56,0,0,0-2.72-3.11,5.79,5.79,0,0,0-.25-.93,6.88,6.88,0,0,0,1.84.81,11.18,11.18,0,0,0,2.07.27c.93.05,2,.5.22-.31,2.46,1.11,5.38.71,6.85-1.79,1.25-2.14.67-5.73-1.8-6.84a10.68,10.68,0,0,0-3.71-1l-.23,0a12.37,12.37,0,0,0-2-1.41,5.53,5.53,0,0,0-.92-.37l-.11-.25a6,6,0,0,0-1-1.33,6.07,6.07,0,0,0,.19-1c3.26,5.44,11.81.44,8.58-5.12-1.68-2.89-3.62-5.6-6.74-7a10.12,10.12,0,0,0-4.57-1,8.55,8.55,0,0,0-2.39.49,5.84,5.84,0,0,0-.76-.34,23.51,23.51,0,0,0-7.1-2.09,30.27,30.27,0,0,1-3-6.22,6.18,6.18,0,0,0-1.73-2.49c-.1-6.41-.33-12.82-.73-19.22a5.1,5.1,0,0,0,5.86-3.34c.1-.29.22-.57.32-.86a1.76,1.76,0,0,0,.3-.1,5.65,5.65,0,0,0,2-1.49c2.35-.36,4-2.24,5.14-4.33a26,26,0,0,0,4.44-4.64c.17-.06.33-.13.51-.18a5.12,5.12,0,0,0,3.57-4l0-.05,4.76-7.29c-.05,3.51.67,6.59,3,7.94a9.25,9.25,0,0,0,1.44,3.48,13,13,0,0,0,1.87,2.15,5,5,0,0,0,2.15,3.59c.18,2.11.57,4.05,2.59,5.6a6.8,6.8,0,0,0,3.92,1.28,10.44,10.44,0,0,0,3.46,1.1,5,5,0,0,0,2.24,1c.33,3.17.69,6.34,1.1,9.51q2,15.78,5.15,31.38a4.26,4.26,0,0,0,2.32,3.18,5,5,0,0,0,2.76,3.54c.09.44.16.89.26,1.33a4.82,4.82,0,0,0,.9,2,4.49,4.49,0,0,0,.56,1.32c-.14.1-.27.21-.4.32-3.16,2.75-4.88,6.4-6.27,10.22a5.15,5.15,0,0,0-1.87,2.4l-1.55,3.87a4.66,4.66,0,0,0-2.32,3.7,9.75,9.75,0,0,0-1,2.27c-.22.83-.39,1.57-.63,2.32-.25.57-.49,1.15-.73,1.72a23.55,23.55,0,0,0-1.95,5,66,66,0,0,0-3.66,13.95,5.21,5.21,0,0,0-2.75,4.4,16.51,16.51,0,0,0,2,8.84,4.22,4.22,0,0,0,1,1.25,10.93,10.93,0,0,0,.89,2.83,25.79,25.79,0,0,0,1.79,7.53c.77,1.73,3.09,4.11,3.45,5,.57,1.36.24,3,.93,4.42a7.39,7.39,0,0,0,1.66,2.3,6.12,6.12,0,0,0,.87.69,6.1,6.1,0,0,0-.5,2.29,5.85,5.85,0,0,0-1.62,1.14l-.33.11a29.72,29.72,0,0,0-9.21,5.58,3.91,3.91,0,0,0-1.7.2,6.61,6.61,0,0,0-1.86.53c.7-.31-.75.25-.74.25-.49.16-1,.31-1.49.44s-1,.23-1.52.34l-.29.06-.44,0a6.19,6.19,0,0,0-3.29,1.33,5.56,5.56,0,0,0-3,.24,5.07,5.07,0,0,0-3.62.36c-5.76,2.93-12.95,1.07-16.52,7.95a8.45,8.45,0,0,0,0,8.16c1.77,2.79,4.69,2.44,7,4.17a4,4,0,0,0,4,.72,3.86,3.86,0,0,0,.35,1.09,5.19,5.19,0,0,0,1.95,5.21l.17.22c2.6,2.87,6.88,3.91,10.79,3.32a3.15,3.15,0,0,0,.92.05,9.68,9.68,0,0,0,6.15-2.67,4.41,4.41,0,0,0,.68-.88,5.07,5.07,0,0,0,2.16-4.15,6.9,6.9,0,0,0,.43-.91l.38-1a2,2,0,0,0,.27-.24,9.29,9.29,0,0,0,.77-1h0a30.93,30.93,0,0,0,2-2.63,5.94,5.94,0,0,0,.75-2.24c.59-.56,1.2-1.11,1.78-1.68l6.08-5.84a5.34,5.34,0,0,0,3.28-2.11,12.76,12.76,0,0,1,5-3.78,4.18,4.18,0,0,0,1.46-1.12,5,5,0,0,0,4.17-.36,8,8,0,0,0,3.25-3.8,28.8,28.8,0,0,0,7-3.32,6,6,0,0,0,.78-.64,7,7,0,0,0,1.53-1.17c2.8-2.83,1-9-3.54-8.53l-.36.05h-.07c-.65,0-1.28.08-1.92.12l-.1-.05a5,5,0,0,0-3-.6,4.68,4.68,0,0,0-.9-1.26,6.06,6.06,0,0,0-.76-2.68,4.79,4.79,0,0,0-.72-1L235,429.17a.3.3,0,0,0,0-.1,5.24,5.24,0,0,0-.56-3,5.1,5.1,0,0,0,5-2.22l.38-.53a4.6,4.6,0,0,0,.92-2.4c.24-.61.49-1.23.73-1.85a4.62,4.62,0,0,0,1.41-1.24c.27-.35.51-.69.77-1h0l.06-.1a41.26,41.26,0,0,0,4.29-7,5.21,5.21,0,0,0,.31-.83,5.48,5.48,0,0,0,1.91-2.48c.21-.53.4-1.05.59-1.58a4.45,4.45,0,0,0,2.29-2.1,5.51,5.51,0,0,0,6.78-.59,26.93,26.93,0,0,0,6,9.94,3,3,0,0,0,.26.24c.5.88,1,1.75,1.52,2.61a124.14,124.14,0,0,0,9.06,12.79l0,.05a70,70,0,0,1-1.26,14.5,4.38,4.38,0,0,0-.55.95c-.17.4-.32.81-.47,1.21l0,0a11,11,0,0,0-.74,2.72.13.13,0,0,1,0,.06,4.63,4.63,0,0,0-2,2.75c-.08.51-.17,1-.26,1.52-.64.1-1.28.18-1.9.3h-3.12a5.05,5.05,0,0,0-5,5,5.21,5.21,0,0,0,.15,1.05A4.34,4.34,0,0,0,264,462c4.56,2.38,9.1,4.81,13.7,7.11q3,1.51,6.1,2.87c.93.4,1.86.78,2.8,1.16a9.9,9.9,0,0,0,3.23,2.43,34,34,0,0,0,1.75,3c1.81,2.66,4.82,3.81,6.71,6.39a49,49,0,0,1,4,6.79,3.85,3.85,0,0,0-.34,1.71l.18,1.33a5,5,0,0,0,1.29,2.21,5.16,5.16,0,0,0,3.53,1.46h.21a7.9,7.9,0,0,0,1.47,1.19,5.89,5.89,0,0,0,6.43.15,4.48,4.48,0,0,0,5.39-1,20,20,0,0,0,1.48-2,5.28,5.28,0,0,0,3.56-4.58,7.89,7.89,0,0,0-.28-3l.48-.2h.3c3.17-.23,7-.58,9.47-2.86,2.75-2.57,2.77-6.53,1-9.68a11.79,11.79,0,0,0-6.83-5.29l-.12,0a3.83,3.83,0,0,0-2.49-1.53,41.73,41.73,0,0,0-10.7-.2c-2.88-1.21-5.62-3-8.81-3.47a7.89,7.89,0,0,0-1.28-.06c-2.31-1.1-4.88-1.68-7.61-2.83a35.77,35.77,0,0,1-6.9-4c-1.93-1.42-2.75-1.84-2.16-4.6a11.94,11.94,0,0,1,.4-1.34c3.47-2.17,5.18-7.64,6.85-11a38.15,38.15,0,0,0,4.5-17.32c0-12-5.27-23.8-11.09-34a5.36,5.36,0,0,0-.67-.91,1.72,1.72,0,0,0-.07-.21,38.54,38.54,0,0,0-2.9-7.5c-.74-1.27-4.88-4.32-4.86-5.34a4.52,4.52,0,0,0-3.94-4.75l.36-.6a5.1,5.1,0,0,0,2.91-2.09,42.22,42.22,0,0,0,3.18-6.2,5,5,0,0,0,.91-1.9c.14-.55.27-1.1.41-1.65a74.78,74.78,0,0,0,2.8-12.62c.12-.61.23-1.23.35-1.84a21.52,21.52,0,0,0,.59-3.23q1.79-10.08,2.8-20.29a4.71,4.71,0,0,0,1.41-1.05,8.27,8.27,0,0,1,1.9-1.48l.19.06c3.29.94,7.66-.76,8.22-4.52,0-.21,0-.42.05-.63a2.83,2.83,0,0,0,.2-.28,64.78,64.78,0,0,0,4.68-9.65,4.23,4.23,0,0,0,2.82-3.35,20,20,0,0,0,.35-2.22,15.93,15.93,0,0,0,1.22-1.1,6.42,6.42,0,0,0,2.88,1.11,6.8,6.8,0,0,0,1.32,3,6.93,6.93,0,0,0,2.41,2,80,80,0,0,0,5.28,6.49,15.05,15.05,0,0,0,3.84,3.46c.71.37,1.58.43,2.24.76l.21.08c.09.17.22.4.41.71,1.86,3,5.65,3.74,8.53,5.27a4.69,4.69,0,0,1,1.15.84,5,5,0,0,0-.42,1.38q-1.75,11.21-3.5,22.4a5.08,5.08,0,0,0-.06,1,4.68,4.68,0,0,0-3.28,2.33c-.34.66-.72,1.27-1.1,1.87a4.43,4.43,0,0,0-2,.12L327,351.57c-.18.06-.34.13-.51.2a22.87,22.87,0,0,0-3.58-1,6,6,0,0,0-4.2,1.93l-.32.12a6.5,6.5,0,0,0-2.82,2.47,5.85,5.85,0,0,0-1.61,1.19c-3.8,2.18-3,9.37,2.49,9.37a5.42,5.42,0,0,0,1.32-.16,5,5,0,0,0,2.54-.39,1.3,1.3,0,0,1,.18.15,4.93,4.93,0,0,0-2.8,2.24,2.85,2.85,0,0,0-.26.23,4.58,4.58,0,0,0-3.7.92c-4.6,1.64-4,9.7,1.77,9.7a5,5,0,0,0,1.92-.36,8.74,8.74,0,0,0,5-1.15l.1.09a4.3,4.3,0,0,0,0,.62h0c-4.2,1.59-4,8.59.72,9.56a5.36,5.36,0,0,0,1.85,1.37,5,5,0,0,0,5.36-.95l.16-.17a6.11,6.11,0,0,0,3.86-.91c-.05.24-.08.49-.12.74-1.92,2.92-.6,8,4,8l.41,0a4,4,0,0,0,2-.17,8,8,0,0,0,4.72-4.72,4.13,4.13,0,0,0,1.61-1.86c.74-1.61,1.47-3.23,2.21-4.84a7,7,0,0,0,.53-1.75,5.05,5.05,0,0,0,.83-1.18,16.61,16.61,0,0,0,.7-1.58,4.21,4.21,0,0,0,3-4.57c-.06-.94-.13-1.89-.21-2.83.09-.12.18-.24.26-.37l.07-.11c.16-.4.33-.8.5-1.19a.19.19,0,0,0,0-.07,5.42,5.42,0,0,0,.21-1.55,5.6,5.6,0,0,0-.81-2.93,4.17,4.17,0,0,0-.85-1.08l-.17-.13c-.17-1.38-.35-2.76-.55-4.13a3.62,3.62,0,0,0-.69-1.62c1.19-5.29,2.51-10.72,5.5-15.08,3.41-5,5.15-11,7-16.88a.54.54,0,0,1,.05-.11c.25-.78.49-1.57.74-2.35C368.44,322.93,369,318.7,367.1,316.3Z" fill="#22b573"/>
  </g>
  <g id="Mirror">
    <g>
      <path d="M312.18,292.54a60.23,60.23,0,0,0,34.69,29.77c1.22.4.7,2.33-.53,1.93a62.28,62.28,0,0,1-35.89-30.69c-.58-1.15,1.14-2.16,1.73-1Z"/>
      <path d="M316.64,367.08a10.93,10.93,0,0,1-5.78-4.48,2.41,2.41,0,0,1-.33-2.21c.31-.87.62-1.74,1-2.59a16.75,16.75,0,0,1,4.92-6.09,14.28,14.28,0,0,1,3-1.79,6.44,6.44,0,0,1,2.24-.71,12.2,12.2,0,0,1,2.09.56,12.19,12.19,0,0,0,2.48.24,11.69,11.69,0,0,0,4.67-.92,9.3,9.3,0,0,0,3.81-3.3c2.32-3.4,3.25-7.64,3.86-11.64a121,121,0,0,0,1-13.18c.05-1.28,2.05-1.29,2,0-.31,7.6-.41,15.68-3.47,22.78-1.47,3.4-3.8,6.34-7.41,7.55a14.21,14.21,0,0,1-8.07.25c-.66-.17-.61-.32-1.1-.25a5.58,5.58,0,0,0-1,.31,12.26,12.26,0,0,0-3.48,2.12,15.37,15.37,0,0,0-4.45,6.57c-.08.22-.45.85-.39,1.09-.07-.3.34.27.39.35a6,6,0,0,0,.83,1.05,10,10,0,0,0,3.66,2.37c1.19.44.68,2.38-.53,1.92Z"/>
      <path d="M323,377.78l-5.28,1.72c-.72.23-1.88.88-2.64.69a5.3,5.3,0,0,1-1.75-1.31,12.79,12.79,0,0,1-4.07-7.59,1,1,0,0,1,.7-1.23,11.14,11.14,0,0,0,2.81-1.43c1.37-.8,2.74-1.58,4.06-2.44,2-1.32,5.21-3.37,5.13-6.14,0-1.28,2-1.28,2,0,.1,3.35-3,5.76-5.5,7.46-1.45,1-3,1.85-4.49,2.73a13.86,13.86,0,0,1-3.48,1.75l.7-1.23a11.22,11.22,0,0,0,4.66,7.6l-.77-.1,7.39-2.41c1.22-.39,1.75,1.54.53,1.93Z"/>
      <path d="M323.41,377.57c-.19.2-.37.41-.54.62l-.15.18c.06-.08,0,0,0,0l-.22.29c-.29.41-.57.84-.85,1.27a18.82,18.82,0,0,1-2,2.64,1,1,0,0,1-1.41,0,1,1,0,0,1,0-1.42c.19-.2.37-.4.54-.61l.15-.19c-.06.08,0,.05,0,0l.21-.29c.3-.42.58-.85.86-1.27a17.72,17.72,0,0,1,2-2.64,1,1,0,1,1,1.41,1.41Z"/>
      <path d="M291.71,246.52a30.11,30.11,0,0,0,11.5,7.13c4.51,1.67,9.21,3,13.14,5.87,6.78,5,9.88,13.11,15.52,19.12,7.13,7.58,16.1,13.07,23.95,19.84a54.32,54.32,0,0,1,10.44,11.29,15.29,15.29,0,0,1,2.54,6.92,18.8,18.8,0,0,1-1.54,8.16c-4.69,12.57-10.68,24.66-16.33,36.82l-1.73-1,2.28-3.65a1,1,0,0,1,1.83.23,46.59,46.59,0,0,1,1.94,6.76c.27,1.09.53,2.19.79,3.28a5.34,5.34,0,0,1,0,2.42,53.16,53.16,0,0,1-8,19.95c-1.52,2.33-3.2,4.53-4.9,6.72-.78,1-2.19-.41-1.41-1.41a71.4,71.4,0,0,0,8.56-13.45,48.6,48.6,0,0,0,3.53-10.63,6.61,6.61,0,0,0,.36-2.86c-.22-.95-.45-1.89-.68-2.83a48.22,48.22,0,0,0-2.1-7.41l1.83.24-2.28,3.65a1,1,0,0,1-1.73-1c5-10.74,10.14-21.43,14.59-32.41a49.47,49.47,0,0,0,2.75-7.83,11.74,11.74,0,0,0-1.08-8c-2.31-4.47-6.25-8.22-10-11.53-7.61-6.77-16.39-12.15-23.63-19.35a61.57,61.57,0,0,1-8-10.12c-2.12-3.23-4.23-6.47-7.17-9-4-3.51-9.12-5-14-6.77a32.44,32.44,0,0,1-12.38-7.64c-.91-.92.51-2.34,1.41-1.42Z"/>
      <path d="M319.81,381.38a18.68,18.68,0,0,0,3,4.82,10.3,10.3,0,0,0,4.82,2.92,1,1,0,0,1-.53,1.93,12.49,12.49,0,0,1-5.63-3.35,19.93,19.93,0,0,1-3.37-5.31,1,1,0,0,1,.36-1.37,1,1,0,0,1,1.37.36Z"/>
      <path d="M334.32,386.84a32,32,0,0,1-5.8,4.14,1,1,0,0,1-1.36-.35,1,1,0,0,1,.36-1.37,33.37,33.37,0,0,0,2.89-1.82l.64-.48.2-.15c.13-.1-.1.08,0,0l.31-.25c.45-.36.89-.73,1.32-1.12a1,1,0,0,1,1.41,1.42Z"/>
      <path d="M335.21,385.79a8.8,8.8,0,0,1-.39,3,6.83,6.83,0,0,1-1.46,2.81,1,1,0,1,1-1.41-1.41,1.37,1.37,0,0,1,.19-.23c-.07,0-.12.17,0,0l.09-.13a4.88,4.88,0,0,0,.31-.55,1.75,1.75,0,0,1,.13-.28c-.13.2,0,.05,0,0a.78.78,0,0,0,.05-.14c.09-.22.16-.45.23-.68s.11-.45.16-.67l.06-.35,0-.17c0-.14,0,0,0,.06,0-.42.08-.82,0-1.24a1,1,0,0,1,2,0Z"/>
      <path d="M333.59,390.7a11.5,11.5,0,0,0,8.83,4,1,1,0,0,1,0,2,13.39,13.39,0,0,1-10.24-4.55,1,1,0,1,1,1.41-1.41Z"/>
      <path d="M279.77,371.87a105.49,105.49,0,0,1,20.78,41.57,104.13,104.13,0,0,1,2.32,13.12c.15,1.27-1.85,1.26-2,0a103,103,0,0,0-22.51-53.28c-.81-1,.6-2.41,1.41-1.41Z"/>
      <path d="M302.84,426.82c-2.35,10.54-6.9,20.45-12.38,29.71a1,1,0,0,1-1.73-1c5.4-9.12,9.87-18.85,12.18-29.23.28-1.25,2.21-.72,1.93.53Z"/>
      <path d="M261.51,401l-.34.11-.14.05c-.23.08.13-.06,0,0s-.43.21-.64.33a6.81,6.81,0,0,0-.63.41l-.3.21-.16.12c-.12.1.18-.14,0,0-.83.66-1.61,1.37-2.46,2a1,1,0,0,1-1.37-.36,1,1,0,0,1,.36-1.37l.07-.05.08-.06.29-.24.58-.48c.45-.38.9-.75,1.36-1.11A8.32,8.32,0,0,1,261,399a1,1,0,0,1,.53,1.93Z"/>
      <path d="M259.69,401.25a80.45,80.45,0,0,0,19.88,26.65c1,.85-.45,2.26-1.42,1.41A81.92,81.92,0,0,1,258,402.26c-.54-1.16,1.19-2.17,1.73-1Z"/>
      <path d="M277.11,426.08A53.57,53.57,0,0,1,271.42,453c-.59,1.14-2.32.13-1.72-1a51.71,51.71,0,0,0,5.41-25.9c-.06-1.28,1.94-1.28,2,0Z"/>
      <path d="M270.29,452.08c-3.66-.59-9.57,1.22-8.41,6.05.52,2.17,2.59,3.45,4.47,4.35s4.11,1.8,6.14,2.74c7.59,3.53,14.94,7.86,20.85,13.85a46.58,46.58,0,0,1,7.58,10.07c1.1,2,1.92,4.13,3.14,6A8.53,8.53,0,0,0,310,499c4,.77,9.84.64,12.59-2.86s1.67-9-.54-12.6a14.74,14.74,0,0,0-5.21-5c-2.48-1.41-5.31-1.94-8-2.67-2.32-.63-4.63-1.18-6.95-1.76a11.67,11.67,0,0,1-5.69-3.19,1,1,0,0,1,1.42-1.41,11.15,11.15,0,0,0,6.08,3c2.49.53,4.91,1.28,7.37,1.91a24.73,24.73,0,0,1,7.59,2.91,17.23,17.23,0,0,1,4.75,4.65c2.61,3.79,3.79,9.08,1.95,13.44-1.94,4.6-7,6-11.59,6a17.23,17.23,0,0,1-7.21-1.31,11.32,11.32,0,0,1-5.06-5.37c-1.13-2.18-2.14-4.4-3.44-6.49a42.83,42.83,0,0,0-4.49-6c-6.38-7.14-14.8-12-23.43-15.88-4.17-1.89-10.81-3.89-10.33-9.68.46-5.45,6.42-7.23,11.05-6.49,1.26.2.73,2.13-.54,1.93Z"/>
      <path d="M290.3,455.31c2.8,3.58,7.32,5.74,11.39,7.51A72.76,72.76,0,0,0,316,467.34c5.34,1.08,11.16.54,16.17,2.94a11.39,11.39,0,0,1,6.14,13.14c-1.48,5.26-8.11,7.69-13.07,7.77a1,1,0,0,1,0-2c4.19-.07,10.14-2.07,11.23-6.65a9.3,9.3,0,0,0-1.37-7.23,10.81,10.81,0,0,0-6.57-4.22c-4.81-1.25-9.89-1-14.74-2.19a77.87,77.87,0,0,1-13.06-4.35c-4.22-1.83-8.9-4.12-11.79-7.82-.79-1,.62-2.43,1.41-1.42Z"/>
      <path d="M296.87,265.5a18.86,18.86,0,0,1-8.63,6.36c-3.22,1.15-7.45.76-10.05,3.24-.94.89-2.35-.52-1.42-1.41,2.62-2.49,6.26-2.47,9.56-3.34a16.36,16.36,0,0,0,8.81-5.86c.77-1,2.51,0,1.73,1Z"/>
      <path d="M314.76,298.13c-2.07,3.32-4,6.73-5.88,10.14a105.63,105.63,0,0,1-5.75,9.75c-1.09,1.54-2.45,2-4.22,2.42-1.53.38-3.05.78-4.55,1.25a18.33,18.33,0,0,0-6.64,3.34,16.42,16.42,0,0,0-4.54,7.56c-.41,1.21-2.34.69-1.93-.53a20.71,20.71,0,0,1,3.74-7.14,15.85,15.85,0,0,1,5.86-4.07,65.56,65.56,0,0,1,8.67-2.62c2-.54,2.84-2.69,3.82-4.33s2-3.41,3-5.13c2.21-3.9,4.37-7.84,6.74-11.65.68-1.09,2.41-.08,1.73,1Z"/>
      <path d="M294.07,322.13c-1.38,9-2.63,18-4,27a50.2,50.2,0,0,1-1.17,6.55,34.12,34.12,0,0,1-2.58,5.84,88.63,88.63,0,0,1-6.48,10.73c-1.85,2.61-3.89,5.08-5.66,7.75-.71,1.07-2.44.07-1.73-1,1.55-2.34,3.3-4.51,5-6.76a89.68,89.68,0,0,0,6.14-9.75,57.12,57.12,0,0,0,3-6,28.26,28.26,0,0,0,1.42-6.5c.67-4.38,1.3-8.75,1.94-13.13.74-5.07,1.47-10.13,2.25-15.19.19-1.27,2.12-.73,1.93.53Z"/>
      <path d="M267.27,333.83c-3.86-.6-7.68-1.35-11.54-1.95a1,1,0,0,1-.69-1.23,1,1,0,0,1,1.23-.7c3.85.6,7.68,1.35,11.53,2a1,1,0,1,1-.53,1.92Z"/>
      <path d="M255.84,44c20.34.21,41.83,4.38,58.36,16.91A63,63,0,0,1,333.07,84c5.7,11.95,7.72,25.37,8.34,38.49.36,7.38.24,14.78,0,22.17-.14,4.22-.26,8.43-.69,12.64s-1,8.6-1.74,12.85c-.59,3.4-1.15,7.15-2.75,10.25-2.13,4.14-8.2,5.07-12.29,5.79-4.94.88-9.82,2.05-14,5-7.74,5.5-9.64,15.37-11.18,24.12-2,11.23-4,22.86-8.83,33.26-2.33,5-5.55,9.33-10.25,12.28s-10.06,4.25-15.44,4.93c-2.89.37-5.8.53-8.71.61-1.29,0-1.29-2,0-2,10.95-.3,23.38-2,29.95-11.91,3-4.55,4.89-9.83,6.42-15.05,1.62-5.52,2.81-11.15,3.87-16.8,1.69-9,2.53-19,8.35-26.56a23.82,23.82,0,0,1,9.87-7.35c5-2,10.33-2.15,15.37-3.84,1.79-.6,4-1.58,5-3.23a16.42,16.42,0,0,0,1.43-4.07,102.62,102.62,0,0,0,2.25-12.54,232.37,232.37,0,0,0,1.57-28.77c.09-14-.78-28.25-5.22-41.61A62.24,62.24,0,0,0,318.3,67c-14.64-13.87-35.16-19.49-54.84-20.71-2.54-.16-5.08-.24-7.62-.27a1,1,0,0,1,0-2Z"/>
      <path d="M264,384.11l-7.65,2.41a1,1,0,1,1-.53-1.93l7.65-2.4a1,1,0,1,1,.53,1.92Z"/>
    </g>
    <g>
      <path d="M199.82,292.54a60.23,60.23,0,0,1-34.69,29.77c-1.22.4-.7,2.33.53,1.93a62.28,62.28,0,0,0,35.89-30.69c.58-1.15-1.14-2.16-1.73-1Z"/>
      <path d="M195.36,367.08a10.93,10.93,0,0,0,5.78-4.48,2.41,2.41,0,0,0,.33-2.21c-.31-.87-.62-1.74-1-2.59a16.75,16.75,0,0,0-4.92-6.09,14.28,14.28,0,0,0-3-1.79,6.44,6.44,0,0,0-2.24-.71,12.2,12.2,0,0,0-2.09.56,12.19,12.19,0,0,1-2.48.24,11.69,11.69,0,0,1-4.67-.92,9.3,9.3,0,0,1-3.81-3.3c-2.32-3.4-3.25-7.64-3.86-11.64a121,121,0,0,1-1-13.18c-.05-1.28-2.05-1.29-2,0,.31,7.6.41,15.68,3.47,22.78,1.47,3.4,3.8,6.34,7.41,7.55a14.21,14.21,0,0,0,8.07.25c.66-.17.61-.32,1.1-.25a5.58,5.58,0,0,1,1,.31,12.26,12.26,0,0,1,3.48,2.12,15.37,15.37,0,0,1,4.45,6.57c.08.22.45.85.39,1.09.07-.3-.34.27-.39.35a6,6,0,0,1-.83,1.05,10,10,0,0,1-3.66,2.37c-1.19.44-.68,2.38.53,1.92Z"/>
      <path d="M189,377.78l5.28,1.72c.72.23,1.88.88,2.64.69a5.3,5.3,0,0,0,1.75-1.31,12.79,12.79,0,0,0,4.07-7.59,1,1,0,0,0-.7-1.23,11.14,11.14,0,0,1-2.81-1.43c-1.37-.8-2.74-1.58-4.06-2.44-2-1.32-5.21-3.37-5.13-6.14,0-1.28-2-1.28-2,0-.1,3.35,3,5.76,5.5,7.46,1.45,1,3,1.85,4.49,2.73a13.86,13.86,0,0,0,3.48,1.75l-.7-1.23a11.22,11.22,0,0,1-4.66,7.6l.77-.1-7.39-2.41c-1.22-.39-1.75,1.54-.53,1.93Z"/>
      <path d="M188.59,377.57c.19.2.37.41.54.62l.15.18c-.06-.08,0,0,0,0l.22.29c.29.41.57.84.85,1.27a18.82,18.82,0,0,0,2,2.64,1,1,0,0,0,1.41,0,1,1,0,0,0,0-1.42c-.19-.2-.37-.4-.54-.61l-.15-.19c.06.08,0,.05,0,0l-.21-.29c-.3-.42-.58-.85-.86-1.27a17.72,17.72,0,0,0-2-2.64,1,1,0,0,0-1.41,1.41Z"/>
      <path d="M220.29,246.52a30.11,30.11,0,0,1-11.5,7.13c-4.51,1.67-9.21,3-13.14,5.87-6.78,5-9.88,13.11-15.52,19.12-7.13,7.58-16.1,13.07-23.95,19.84a54.32,54.32,0,0,0-10.44,11.29,15.29,15.29,0,0,0-2.54,6.92,18.8,18.8,0,0,0,1.54,8.16c4.69,12.57,10.68,24.66,16.33,36.82l1.73-1L160.52,357a1,1,0,0,0-1.83.23,46.59,46.59,0,0,0-1.94,6.76c-.27,1.09-.53,2.19-.79,3.28a5.34,5.34,0,0,0,0,2.42,53.16,53.16,0,0,0,8,19.95c1.52,2.33,3.2,4.53,4.9,6.72.78,1,2.19-.41,1.41-1.41a71.4,71.4,0,0,1-8.56-13.45,48.6,48.6,0,0,1-3.53-10.63,6.61,6.61,0,0,1-.36-2.86c.22-.95.45-1.89.68-2.83a48.22,48.22,0,0,1,2.1-7.41l-1.83.24,2.28,3.65a1,1,0,0,0,1.73-1c-5-10.74-10.14-21.43-14.59-32.41a49.47,49.47,0,0,1-2.75-7.83,11.74,11.74,0,0,1,1.08-8c2.31-4.47,6.25-8.22,10-11.53,7.61-6.77,16.39-12.15,23.63-19.35a61.57,61.57,0,0,0,8-10.12c2.12-3.23,4.23-6.47,7.17-9,4-3.51,9.12-5,14-6.77a32.44,32.44,0,0,0,12.38-7.64c.91-.92-.51-2.34-1.41-1.42Z"/>
      <path d="M192.19,381.38a18.68,18.68,0,0,1-3,4.82,10.3,10.3,0,0,1-4.82,2.92,1,1,0,0,0,.53,1.93,12.49,12.49,0,0,0,5.63-3.35,19.93,19.93,0,0,0,3.37-5.31,1,1,0,0,0-.36-1.37,1,1,0,0,0-1.37.36Z"/>
      <path d="M177.68,386.84a32,32,0,0,0,5.8,4.14,1,1,0,0,0,1.36-.35,1,1,0,0,0-.36-1.37,33.37,33.37,0,0,1-2.89-1.82L181,387l-.2-.15c-.13-.1.1.08,0,0l-.31-.25c-.45-.36-.89-.73-1.32-1.12a1,1,0,1,0-1.41,1.42Z"/>
      <path d="M176.79,385.79a8.8,8.8,0,0,0,.39,3,6.83,6.83,0,0,0,1.46,2.81,1,1,0,1,0,1.41-1.41,1.37,1.37,0,0,0-.19-.23c.07,0,.12.17,0,0l-.09-.13a4.88,4.88,0,0,1-.31-.55,1.75,1.75,0,0,0-.13-.28c.13.2,0,.05,0,0a.78.78,0,0,1-.05-.14c-.09-.22-.16-.45-.23-.68s-.11-.45-.16-.67l-.06-.35,0-.17c0-.14,0,0,0,.06,0-.42-.08-.82-.05-1.24a1,1,0,0,0-2,0Z"/>
      <path d="M178.41,390.7a11.5,11.5,0,0,1-8.83,4,1,1,0,0,0,0,2,13.39,13.39,0,0,0,10.24-4.55,1,1,0,1,0-1.41-1.41Z"/>
      <path d="M232.23,371.87a105.49,105.49,0,0,0-20.78,41.57,104.13,104.13,0,0,0-2.32,13.12c-.15,1.27,1.85,1.26,2,0a103,103,0,0,1,22.51-53.28c.81-1-.6-2.41-1.41-1.41Z"/>
      <path d="M209.16,426.82c2.35,10.54,6.9,20.45,12.38,29.71a1,1,0,0,0,1.73-1c-5.4-9.12-9.87-18.85-12.18-29.23-.28-1.25-2.21-.72-1.93.53Z"/>
      <path d="M250.49,401l.34.11.14.05c.23.08-.13-.06,0,0s.43.21.64.33a6.81,6.81,0,0,1,.63.41l.3.21.16.12c.12.1-.18-.14,0,0,.83.66,1.61,1.37,2.46,2a1,1,0,0,0,1.37-.36,1,1,0,0,0-.36-1.37l-.07-.05-.08-.06-.29-.24-.58-.48c-.45-.38-.9-.75-1.36-1.11A8.32,8.32,0,0,0,251,399a1,1,0,1,0-.53,1.93Z"/>
      <path d="M252.31,401.25a80.45,80.45,0,0,1-19.88,26.65c-1,.85.45,2.26,1.42,1.41A81.92,81.92,0,0,0,254,402.26c.54-1.16-1.19-2.17-1.73-1Z"/>
      <path d="M234.89,426.08A53.57,53.57,0,0,0,240.58,453c.59,1.14,2.32.13,1.72-1a51.71,51.71,0,0,1-5.41-25.9c.06-1.28-1.94-1.28-2,0Z"/>
      <path d="M241.71,452.08c3.66-.59,9.57,1.22,8.41,6.05-.52,2.17-2.59,3.45-4.47,4.35s-4.11,1.8-6.14,2.74c-7.59,3.53-14.94,7.86-20.85,13.85a46.58,46.58,0,0,0-7.58,10.07c-1.1,2-1.92,4.13-3.14,6A8.53,8.53,0,0,1,202,499c-4,.77-9.84.64-12.59-2.86s-1.67-9,.54-12.6a14.74,14.74,0,0,1,5.21-5c2.48-1.41,5.31-1.94,8-2.67,2.32-.63,4.63-1.18,6.95-1.76a11.67,11.67,0,0,0,5.69-3.19,1,1,0,0,0-1.42-1.41,11.15,11.15,0,0,1-6.08,3c-2.49.53-4.91,1.28-7.37,1.91a24.73,24.73,0,0,0-7.59,2.91,17.23,17.23,0,0,0-4.75,4.65c-2.61,3.79-3.79,9.08-2,13.44,1.94,4.6,7,6,11.59,6a17.23,17.23,0,0,0,7.21-1.31,11.32,11.32,0,0,0,5.06-5.37c1.13-2.18,2.14-4.4,3.44-6.49a42.83,42.83,0,0,1,4.49-6c6.38-7.14,14.8-12,23.43-15.88,4.17-1.89,10.81-3.89,10.33-9.68-.46-5.45-6.42-7.23-11.05-6.49-1.26.2-.73,2.13.54,1.93Z"/>
      <path d="M221.7,455.31c-2.8,3.58-7.32,5.74-11.39,7.51a72.76,72.76,0,0,1-14.26,4.52c-5.34,1.08-11.16.54-16.17,2.94a11.39,11.39,0,0,0-6.14,13.14c1.48,5.26,8.11,7.69,13.07,7.77a1,1,0,0,0,0-2c-4.19-.07-10.14-2.07-11.23-6.65a9.3,9.3,0,0,1,1.37-7.23,10.81,10.81,0,0,1,6.57-4.22c4.81-1.25,9.89-1,14.74-2.19a77.87,77.87,0,0,0,13.06-4.35c4.22-1.83,8.9-4.12,11.79-7.82.79-1-.62-2.43-1.41-1.42Z"/>
      <path d="M215.13,265.5a18.86,18.86,0,0,0,8.63,6.36c3.22,1.15,7.45.76,10.05,3.24.94.89,2.35-.52,1.42-1.41-2.62-2.49-6.26-2.47-9.56-3.34a16.36,16.36,0,0,1-8.81-5.86c-.77-1-2.51,0-1.73,1Z"/>
      <path d="M197.24,298.13c2.07,3.32,4,6.73,5.88,10.14a105.63,105.63,0,0,0,5.75,9.75c1.09,1.54,2.45,2,4.22,2.42,1.53.38,3,.78,4.55,1.25a18.33,18.33,0,0,1,6.64,3.34,16.42,16.42,0,0,1,4.54,7.56c.41,1.21,2.34.69,1.93-.53a20.71,20.71,0,0,0-3.74-7.14,15.85,15.85,0,0,0-5.86-4.07,65.56,65.56,0,0,0-8.67-2.62c-2-.54-2.84-2.69-3.82-4.33s-2-3.41-2.95-5.13c-2.21-3.9-4.37-7.84-6.74-11.65-.68-1.09-2.41-.08-1.73,1Z"/>
      <path d="M217.93,322.13c1.38,9,2.63,18,4,27a50.2,50.2,0,0,0,1.17,6.55,34.12,34.12,0,0,0,2.58,5.84,88.63,88.63,0,0,0,6.48,10.73c1.85,2.61,3.89,5.08,5.66,7.75.71,1.07,2.44.07,1.73-1-1.55-2.34-3.3-4.51-5-6.76a89.68,89.68,0,0,1-6.14-9.75,57.12,57.12,0,0,1-3-6,28.26,28.26,0,0,1-1.42-6.5c-.67-4.38-1.3-8.75-1.94-13.13-.74-5.07-1.47-10.13-2.25-15.19-.19-1.27-2.12-.73-1.93.53Z"/>
      <path d="M244.73,333.83c3.86-.6,7.68-1.35,11.54-1.95a1,1,0,0,0,.69-1.23,1,1,0,0,0-1.23-.7c-3.85.6-7.68,1.35-11.53,2a1,1,0,1,0,.53,1.92Z"/>
      <path d="M256.16,44c-20.34.21-41.83,4.38-58.36,16.91A63,63,0,0,0,178.93,84c-5.7,11.95-7.72,25.37-8.34,38.49-.36,7.38-.24,14.78,0,22.17.14,4.22.26,8.43.69,12.64s1,8.6,1.74,12.85c.59,3.4,1.15,7.15,2.75,10.25,2.13,4.14,8.2,5.07,12.29,5.79,4.94.88,9.82,2.05,14,5,7.74,5.5,9.64,15.37,11.18,24.12,2,11.23,4,22.86,8.83,33.26,2.33,5,5.55,9.33,10.25,12.28s10.06,4.25,15.44,4.93c2.89.37,5.8.53,8.71.61,1.29,0,1.29-2,0-2-11-.3-23.38-2-30-11.91-3-4.55-4.89-9.83-6.42-15.05-1.62-5.52-2.81-11.15-3.87-16.8-1.69-9-2.53-19-8.35-26.56a23.82,23.82,0,0,0-9.87-7.35c-5-2-10.33-2.15-15.37-3.84-1.79-.6-4-1.58-5-3.23a16.42,16.42,0,0,1-1.43-4.07,102.62,102.62,0,0,1-2.25-12.54,232.37,232.37,0,0,1-1.57-28.77c-.09-14,.78-28.25,5.22-41.61A62.24,62.24,0,0,1,193.7,67c14.64-13.87,35.16-19.49,54.84-20.71,2.54-.16,5.08-.24,7.62-.27a1,1,0,0,0,0-2Z"/>
      <path d="M248,384.11l7.65,2.41a1,1,0,0,0,.53-1.93l-7.65-2.4a1,1,0,1,0-.53,1.92Z"/>
    </g>
  </g>
</svg>
