<svg class="Body" xmlns="http://www.w3.org/2000/svg" viewBox="0 0 512 512">
  <title>body5</title>
  <path class="PrimaryColor" d="M374.87,328.13a53.8,53.8,0,0,0-1.3-10.95c-.83-3.87-.84-7.6-1.09-11.54a70.14,70.14,0,0,0-5.35-22.82,5.27,5.27,0,0,0-2-2.42l-.18-1a4.26,4.26,0,0,0-2.49-3.23c-3.83-13.8-19.71-21.94-30.45-29.81a5.19,5.19,0,0,0-1.28-.69,5.31,5.31,0,0,0,.47-1.75l.08-.78c5.56-5.06,7.07-12,10.45-18.81a5.32,5.32,0,0,0,.59-3,.41.41,0,0,1,.05-.09,5.53,5.53,0,0,0,1.15-1.35,7.32,7.32,0,0,0,.41-.78l.77-1.44a5.26,5.26,0,0,0-.1-5.12,5.3,5.3,0,0,0,.63-1.55c.68-3.07,1.37-6.15,2-9.23a5.09,5.09,0,0,0-2-5.21,27.43,27.43,0,0,0-4-15.41,51.4,51.4,0,0,1-5.75-12.2c-1.4-4.44-2.86-8.81-5.49-12.69a5.26,5.26,0,0,0-1.89-1.71c-.22-3.16-1.24-5.61-2.31-8.5a13,13,0,0,1,.14-1.74,5.06,5.06,0,0,0-1.28-4.38c0-2.13.16-4.28.29-6.47l1.47-24.45a4.29,4.29,0,0,0-1.18-3.22,37.81,37.81,0,0,0-.59-16.1c-1.33-5.2-4.43-12.33-9-16.69l-.22-.51-.07-.11a5.61,5.61,0,0,0-.69-2.57,5.1,5.1,0,0,0-3-2.3,6.55,6.55,0,0,0-1.34-.16A75.78,75.78,0,0,0,304.86,61a4.49,4.49,0,0,0-3.47-1.47,1.07,1.07,0,0,0-.37-.45c-1.22-.85-2.49-1.64-3.78-2.39a5.46,5.46,0,0,0-2-1.1c-.76-.39-1.53-.76-2.3-1.12l-.11-.14a4,4,0,0,0-4.15-1.45,4.64,4.64,0,0,0-2.79-2.13l-4.18-1.21a4.81,4.81,0,0,0-1.74-.17,13.7,13.7,0,0,0-4.07-1.23c-.22-.07-.44-.13-.66-.22l-.08,0-.27-.13a3.65,3.65,0,0,1-.34-.18,4.19,4.19,0,0,0-3-1.91,79.32,79.32,0,0,0-37.46,2,91.15,91.15,0,0,0-17.62,7.87c-4.25,2.4-8.59,4.71-11.76,8.33a13,13,0,0,0-5.83,5.26,4.29,4.29,0,0,0-.64,2.12,55.47,55.47,0,0,0-8.92,15.34c-2.4,6.23-4.83,15-2.82,22a5.79,5.79,0,0,0-.93,2.32c-.37,2.41,1,4.58,2.09,6.65-.17,8.93-.5,17.85-1.16,26.75a4.77,4.77,0,0,0-1.16,2.25c-1.67,7.09-5.13,12.35-8.43,18.67-1.4,2.67-1.6,5.35-1.8,8.29l0,.24a63.21,63.21,0,0,0-4.52,10.5l-1.32,1.59a7.89,7.89,0,0,0-1.8,2.25,4.63,4.63,0,0,0-.34,3.89,7.77,7.77,0,0,0-1.23,2.44,7.92,7.92,0,0,0,.1,4,42.43,42.43,0,0,0,.58,14.64,59.54,59.54,0,0,0,2.38,7.95c-.31,4.29,1.14,8.16,4.7,10.63.87,1.76,1.77,3.5,2.66,5.23a4.85,4.85,0,0,0,1.33,1.65c1,1.74,2.11,3.46,3.26,5.12a4.64,4.64,0,0,0-1.37,1.58,18.78,18.78,0,0,1-1.46,2.3,4.44,4.44,0,0,0-2.14.87,96.57,96.57,0,0,0-13.66,12.22,4.25,4.25,0,0,0-4,1.51c-2.57,2.88-6.72,7.73-8.53,12.56-4.17,3-5.64,11.08-7,15.44a81.05,81.05,0,0,0-3.17,13.2,21.73,21.73,0,0,0-.06,6.29,11.55,11.55,0,0,0,.77,3.18,3.84,3.84,0,0,0,.27.79,4.66,4.66,0,0,0-2.21,2.91A50.33,50.33,0,0,0,142.68,351a15,15,0,0,0,6.5,8.82,4.62,4.62,0,0,0,3.08.74l.21.35a4.71,4.71,0,0,0-.54,2.3c.14,7.52,2.37,14.42,5.27,21.29,2,4.73,4.81,13.51,11,14.28a5.79,5.79,0,0,0,6.17-3.87,9.06,9.06,0,0,0-.19-5.68,4.11,4.11,0,0,0,.87,1.17,5.36,5.36,0,0,0,2.73,1.41,4.59,4.59,0,0,0,1.95,1.07,5.1,5.1,0,0,0,3.86-.5c.18-.12.36-.26.55-.4,3.88-.26,6.07-5.84,3-8.52l-.59-.54a5.21,5.21,0,0,0-.95-2.43,6.42,6.42,0,0,0,1.11-1.1,33.08,33.08,0,0,0,4.88,2.21c2.53.93,5.47-1,6.15-3.49a5.11,5.11,0,0,0-3.5-6.15,20.91,20.91,0,0,1-7.85-5.21,7.4,7.4,0,0,0,3.29,1.56c6.26,1.48,8.93-8.16,2.66-9.64,1.1.26,0-.62-.47-1.2a10.72,10.72,0,0,0-.93-1,4.58,4.58,0,0,0-.2-.46,4.5,4.5,0,0,0-2.65-2.64,3.72,3.72,0,0,0-1.92-.43l-1.33.18a4.83,4.83,0,0,0-1.86,1c-2.22.14-4.34.71-6.6.43l-1.43-.17a25.8,25.8,0,0,0,3.69-9.38,5.13,5.13,0,0,0,.4-6c0-.8-.1-1.6-.2-2.41a25.76,25.76,0,0,0-.81-4,22.76,22.76,0,0,0-1-2.74,4.86,4.86,0,0,0-.52-3.66,6.19,6.19,0,0,0-2.93-2.59c7.41-1.66,14.09-6.32,20.37-10.4a5.56,5.56,0,0,0,1.36-1.27l.27.83a33.06,33.06,0,0,0,1.16,5.45c-.09.4-.16.83-.22,1.31a4,4,0,0,0,1,3.49,9.47,9.47,0,0,0,.35,3.73c.88,2.62,3.07,3.87,4.36,6.2,0,.08.1.14.15.22a4.07,4.07,0,0,0-1.22,2.48c-.06.45-.11.89-.17,1.34h0v.08c-.23,1.71-.42,3.42-.54,5.14a3.48,3.48,0,0,0,0,.65c-.31,2-.7,4-1,6.14-.33,2.62.55,5.21.56,7.91a16.06,16.06,0,0,0,2,7.6,22.86,22.86,0,0,0,1.57,2.41c0,.21,0,.42,0,.63a4.59,4.59,0,0,0,2.29,4.16,5.13,5.13,0,0,0,1.42,2.84l-.15.17a4.67,4.67,0,0,0-3.23,3.43c-.57,1.92-1.05,3.86-1.46,5.8a10.19,10.19,0,0,0-1.35,2.82,8.61,8.61,0,0,0-.23,1.1l-.09.16a14.77,14.77,0,0,0-1.08,7.49,33.44,33.44,0,0,0,.25,11.5,4.17,4.17,0,0,0,2.28,3.2c1.38,5.46,4.25,10.32,7.42,15.4a4.83,4.83,0,0,0-1,2.9c0,.21,0,.42,0,.63a4.59,4.59,0,0,0-.65,2.24,32.74,32.74,0,0,0,1.19,9.49c.06.19.14.35.21.53.17,1.25.35,2.51.52,3.76a3.81,3.81,0,0,0,1.46,2.37c.72,4.55,5.56,6.28,5.57,10.43V458l-1.18.67a5.28,5.28,0,0,0-3.26.63,85,85,0,0,1-18.92,7.27c-4.9,1.22-10.08,1.75-14.74,3.75-2.61-.7-4.48,1-5.2,3.23-2.58,2.29-4.33,5.4-3.39,9,1.39,5.38,6.85,6.91,11.71,7.25h.16a5,5,0,0,0,.26,1.74,17.33,17.33,0,0,0,3.46,6.24,4.09,4.09,0,0,0,4.32,1.44,9.91,9.91,0,0,0,7.49-.09l.52-.22a5.16,5.16,0,0,0,3.53-1.16c3.48-2.74,10.06-6.27,12.52-10.78a5.63,5.63,0,0,0,2.7-1.21l1.59-1.28a4.52,4.52,0,0,0,1.52-2.11c.73-.5,1.51-.95,2.23-1.46a59.12,59.12,0,0,0,6.06-5.11c4.23-4,8.35-8,12.39-12.18a5.85,5.85,0,0,0,1-1.33A4.76,4.76,0,0,0,246,459.1a5.25,5.25,0,0,0,.74-3.77,4.7,4.7,0,0,0-4.82-4.81,4.55,4.55,0,0,0-4,2.1c-.33.07-.65.15-1,.24a51.54,51.54,0,0,0,.84-6.87,5.75,5.75,0,0,0,.43-1.85c.16-2.35.19-4.68.12-7a6.84,6.84,0,0,0,.06-2.35l-.46-3.1a3.91,3.91,0,0,0-2.38-3.14c0-.12-.07-.25-.12-.38,1.71-2.6,5.12-3.95,7.5-5.77,6-4.53,8.47-11.28,9.52-18.5a5.32,5.32,0,0,0-.44-3,9.23,9.23,0,0,1,2.32.56,4.32,4.32,0,0,0,4.11-.76q.69,2.49,1.48,5c.49,1.53,1,3.09,1.6,4.58a4.17,4.17,0,0,0,.25,2c.23.65.5,1.28.79,1.9,1.19,3,2.25,6.59,4.92,8.46a16.77,16.77,0,0,0,5.21,2.14,4.83,4.83,0,0,0,2.38,1.71,25.38,25.38,0,0,0,3.1.75,5.91,5.91,0,0,0-.57.77l-1.82,2.95a4.43,4.43,0,0,0-.62,1.72,10.69,10.69,0,0,0-1.07,4.08v.46a5.8,5.8,0,0,0-.51,1.66,9.35,9.35,0,0,0,.75,4.67,42.4,42.4,0,0,0,1.41,6.26c.12.44.74,2.19,1,3.27-.72-.58-2.89-.61-3.24-.83-5.56-3.55-10,4.87-5,8.63l.67.5.13.09a4,4,0,0,0,1.44,2.67q5,4.17,10.15,8a4.33,4.33,0,0,0,.75,2,9.7,9.7,0,0,0,5.68,4.28,25.35,25.35,0,0,1,4.09,3.57,21.87,21.87,0,0,0,3.29,3.16,9,9,0,0,0,1.64,1l.44.28a4.45,4.45,0,0,0,2.78,2.72,4.87,4.87,0,0,0,3,1.54l.07.06c.34.38.67.76,1,1.16a21.7,21.7,0,0,0,1.71,1.61,46.83,46.83,0,0,0,5.92,4.18,15.57,15.57,0,0,0,6.05,2.52,9.25,9.25,0,0,0,3.23-.18l.5-.22a5.38,5.38,0,0,0,5.6-2.36,12.43,12.43,0,0,0,1.3-2.64,7.34,7.34,0,0,0,1-1.31,7.46,7.46,0,0,0,.84-2.14,10,10,0,0,0,.18-1.39,4.25,4.25,0,0,0,3.29,0,15,15,0,0,0,6.63-4.36,5.11,5.11,0,0,0,1.22-3.4,20.32,20.32,0,0,0,1.21-3.24,5.32,5.32,0,0,0-1.64-5.26,4.35,4.35,0,0,0-2.21-2.06c-6.19-2.86-13.34-3.4-19.92-5.08q-5-1.28-10-2.78c-1.24-.38-2.75-.72-4.26-1.16a44.59,44.59,0,0,0-7.56-3.91,4.06,4.06,0,0,0-1-.28l0-.09c.4-1.48.79-3,1.17-4.45a4.94,4.94,0,0,0,2.66-2.94c.31-.85.65-1.67,1-2.48a17.39,17.39,0,0,0,1.87-4,4.32,4.32,0,0,0,.1-2.6,57.9,57.9,0,0,0,1.65-5.83,7.93,7.93,0,0,0,.84-4.61c-.28-2.16-1.31-4-3.31-4.66.07-.4.13-.81.22-1.2a5.86,5.86,0,0,0,.62-.69c11-14.66,12.17-34.64,3.88-50.82a5.32,5.32,0,0,0-.89-1.26c7-10.24,6.92-23.3,5.38-35.55a5.7,5.7,0,0,0-1.73-3.38,20.58,20.58,0,0,0,3.05-4,5.17,5.17,0,0,0,.63-1.58l.3-.31a4.5,4.5,0,0,0,1.39-4.27,15.44,15.44,0,0,0,1.2-4.93,5.63,5.63,0,0,0,0-1.31c.41-1.17.83-2.34,1.27-3.5.17-.4.33-.82.48-1.25a5.43,5.43,0,0,0,.29-1.66,4.52,4.52,0,0,0,.56.51,4.93,4.93,0,0,0,2,2.78,9,9,0,0,0,3.79,1.54c.62.25,1.24.49,1.85.75l.81,1.07a5.32,5.32,0,0,0,5.16,2.22,28.21,28.21,0,0,0,4.09,2.33,22.5,22.5,0,0,0,2.4.67,29.06,29.06,0,0,1-1.43,4.15,4.61,4.61,0,0,0-.81,1.1,22.76,22.76,0,0,0-2.81,13.59c-1.72,3.59,1.05,7.61,2.66,11.73a28.75,28.75,0,0,1-3.15.91c-1.71.11-3.14-.47-4.74-.61a4,4,0,0,0-1-.1l-1.33.18a4.88,4.88,0,0,0-1.46.68c-4.16,1.9-8.09,6.4-7.12,10.92.71,3.32,3.71,4.13,6.21,3.26-1,.66-1.9,1.52-2.92,2.2a5,5,0,0,1-.68.37,4.67,4.67,0,0,0-3.29,1.47l-.59.59c-3.94,3.94,1.18,11,6.06,7.86,1.24-.8,3.17-1.34,4.56-2.42.16-.13.37-.27.59-.42a4.92,4.92,0,0,0,.22,1.69,5.84,5.84,0,0,0-.39.48c-.73.56-1,1.68-1.72,2.29a5.3,5.3,0,0,0-1,5.81s0,.06,0,.08a5.32,5.32,0,0,0,1.29,2.21,6.38,6.38,0,0,0,3,1.65,7.19,7.19,0,0,0,3.45,0,6.84,6.84,0,0,0,2.85-1.6c.74-.34,1.44-.74,2.18-1.09l1-.51a5.06,5.06,0,0,0,.42.91,5,5,0,0,0,.14,1.93c-.54,3,1.05,6.65,4.7,6.26,7.07-.77,10.1-9.67,12.39-15.5,3-7.6,4.15-15.72,4.63-23.83a6.67,6.67,0,0,0,4.57-3,15.61,15.61,0,0,0,4.27-5.46c1.14-1.08,2.25-2.21,3.29-3.41a5,5,0,0,0,.46-6.12A38.34,38.34,0,0,0,374.87,328.13Z" fill="#22b573"/>
  <g id="Draw">
    <path d="M233.25,338.58a100.21,100.21,0,0,1,37-1c1.26.2,1.8-1.73.53-1.93a102.9,102.9,0,0,0-38.08,1c-1.26.27-.72,2.2.53,1.93Z"/>
    <path d="M226.19,332a151.23,151.23,0,0,1,27-3.66q6.71-.3,13.4,0c2.23.1,4.46.24,6.69.44,1.7.15,4.13.15,5.17,1.77.69,1.08,2.42.08,1.73-1a6,6,0,0,0-4.4-2.49c-2.16-.34-4.38-.44-6.56-.57q-7.29-.45-14.59-.19a154,154,0,0,0-28.93,3.79c-1.26.29-.73,2.22.53,1.93Z"/>
    <path d="M239.68,268.11a40.56,40.56,0,0,0,35.84,2.54c1.17-.48.66-2.42-.53-1.93a38.65,38.65,0,0,1-34.3-2.34,1,1,0,0,0-1,1.73Z"/>
  </g>
  <g id="Mirror">
    <g>
      <path d="M306.93,373.12c4.65,6.86,6.48,15.29,6.42,23.49a52.47,52.47,0,0,1-5.31,23,27.71,27.71,0,0,1-6.46,8.67c-1,.84-2.39-.57-1.41-1.41,5-4.3,7.78-10.88,9.42-17.12a50.52,50.52,0,0,0,.72-23.51,35.1,35.1,0,0,0-5.11-12.14c-.72-1.07,1-2.07,1.73-1Z"/>
      <path d="M304.19,426.31c2.2,5.43,1.73,11.7.12,17.22-1.52,5.25-4.21,10.62-8.45,14.2-1,.82-2.4-.59-1.42-1.42,4-3.36,6.51-8.37,7.94-13.31,1.52-5.22,2-11-.12-16.16-.49-1.19,1.45-1.71,1.93-.53Z"/>
      <path d="M261.51,401a1.66,1.66,0,0,1-.29.1s.23-.1.07,0l-.11.06q-.26.12-.51.27c-.36.2-.72.43-1.09.63a9.74,9.74,0,0,1-3.31,1.15,1,1,0,0,1-1.23-.7,1,1,0,0,1,.69-1.23,10,10,0,0,0,1.79-.45l.2-.08c.1,0,.23,0,0,0a1.23,1.23,0,0,0,.31-.14l.63-.33A12.49,12.49,0,0,1,261,399a1,1,0,0,1,1.23.7,1,1,0,0,1-.7,1.23Z"/>
      <path d="M259.79,401.49c.94,5.23,1.76,10.83,4.68,15.39,3.4,5.28,9.34,8.35,14.9,10.86,1.17.53.15,2.26-1,1.73-4.81-2.18-9.73-4.73-13.35-8.66a24.61,24.61,0,0,1-5.46-10.63c-.71-2.69-1.2-5.43-1.69-8.16-.23-1.25,1.7-1.79,1.93-.53Z"/>
      <path d="M276.74,429c-4,7.49-3.07,17.15.73,24.53.58,1.14-1.14,2.15-1.73,1-4.13-8-5.1-18.41-.73-26.55.61-1.13,2.34-.13,1.73,1Z"/>
      <path d="M321.8,370.52a13.47,13.47,0,0,1-5.92-4.46,3.37,3.37,0,0,1-.94-2.55,13.83,13.83,0,0,1,.91-2.42,16.82,16.82,0,0,1,4.95-6.46,14.31,14.31,0,0,1,3.25-1.95,5.09,5.09,0,0,1,2.5-.67c.75.12,1.5.45,2.24.61a28.61,28.61,0,0,0,3.06.47,15.62,15.62,0,0,0,2.65.08c.06,0,.81-.16.83-.14.2.18-.12-.12,0,0a.58.58,0,0,0-.11.62.18.18,0,0,0-.12-.15c-.74-.34-1.48-1.84-1.86-2.51a14.91,14.91,0,0,1-1.24-3,22.22,22.22,0,0,1-.76-7.53,40,40,0,0,1,5.87-18.22,1,1,0,0,1,1.73,1A38.68,38.68,0,0,0,333.35,339c-.48,4.64,0,9.44,3.17,13.08.86,1,.86,2.24-.48,2.79s-3.26.31-4.72.14a49,49,0,0,1-5.13-1c.41.09.3-.06-.06.06l-.45.13a10.31,10.31,0,0,0-1.42.58,13.48,13.48,0,0,0-3.27,2.34,15.7,15.7,0,0,0-4,6.67c0,.1-.15.28-.13.37-.1-.5.44.42.49.49a9,9,0,0,0,1.44,1.63,11.43,11.43,0,0,0,3.58,2.32c1.19.45.67,2.38-.54,1.93Z"/>
      <path d="M327.53,380.54c-2.34.77-4.68,1.56-7,2.29a5.65,5.65,0,0,1-5-1c-1.9-1.35-3.17-3.87-2.37-6.19.66-1.93,2.39-3.25,4-4.33,1.94-1.27,4-2.31,6-3.63,1.66-1.14,3.44-2.67,3.36-4.87-.05-1.28,1.95-1.28,2,0,.16,4.33-4.4,6.73-7.6,8.59-2.54,1.48-7.45,3.78-5.53,7.38.7,1.33,2.58,2.59,4.13,2.27a35.74,35.74,0,0,0,3.63-1.18l3.87-1.25c1.23-.4,1.75,1.53.53,1.92Z"/>
      <path d="M328,380.29c-.2.22-.4.45-.59.69l-.12.14c.1-.13,0,0,0,.07a4,4,0,0,0-.29.39c-.38.52-.73,1.06-1.09,1.6a23,23,0,0,1-2.34,3.13,1,1,0,1,1-1.41-1.41q.32-.34.6-.69l.11-.15.05-.06.28-.39c.38-.53.74-1.07,1.09-1.61a23.83,23.83,0,0,1,2.34-3.13,1,1,0,0,1,1.41,0,1,1,0,0,1,0,1.42Z"/>
      <path d="M373.63,312a56.28,56.28,0,0,1,2.21,24.39c-.95,7.28-3.41,14.92-8.78,20.18a19.7,19.7,0,0,1-10.2,5.3c-1.25.23-1.8-1.68-.53-1.93l3.28-.65a1,1,0,0,1,1.23.7c.81,2.05.46,4.76.32,6.9a48.76,48.76,0,0,1-8.61,25.51c-1.52,2.32-3.19,4.52-4.89,6.71-.79,1-2.19-.41-1.42-1.41a72,72,0,0,0,8.49-13.28A47.26,47.26,0,0,0,359.09,368c.1-1.36.18-2.73.18-4.11a8.79,8.79,0,0,0-.36-3.31l1.23.7-3.28.65-.53-1.93c15.22-2.79,18.71-21.64,17.83-34.54a53.74,53.74,0,0,0-2.46-12.87c-.39-1.23,1.54-1.76,1.93-.53Z"/>
      <path d="M323.76,385.34a7.74,7.74,0,0,0,2.82,5.17,8.21,8.21,0,0,0,6,1.37,1,1,0,0,1,1.23.7,1,1,0,0,1-.7,1.23,10.38,10.38,0,0,1-7.58-1.57,9.51,9.51,0,0,1-3.74-6.37,1,1,0,0,1,.7-1.23,1,1,0,0,1,1.23.7Z"/>
      <path d="M339.46,390.26c-1.78,1.58-4,2.32-6.07,3.45a1,1,0,1,1-1-1.73c1-.54,2-1,3-1.48.48-.24,1-.48,1.42-.76.22-.14.44-.28.65-.43l.2-.15c.13-.1-.1.08,0,0l.34-.29a1,1,0,0,1,1.42,1.41Z"/>
      <path d="M339.75,389.55a6.53,6.53,0,0,1-1.85,4.78,1,1,0,0,1-1.42-1.41,3.64,3.64,0,0,1,.36-.41s-.11.15,0,0a.76.76,0,0,1,.08-.11l.15-.22c.09-.15.18-.31.26-.47a1.63,1.63,0,0,0,.11-.23c.07-.14,0,.05,0,.05s.05-.13.06-.15a4.93,4.93,0,0,0,.27-1s0-.19,0,0,0,0,0,0a2.28,2.28,0,0,0,0-.26,5,5,0,0,0,0-.55,1,1,0,0,1,1-1,1,1,0,0,1,1,1Z"/>
      <path d="M338.15,393.36a7.33,7.33,0,0,0,3,4.19,4.76,4.76,0,0,0,2.3.64,6.94,6.94,0,0,0,3-.63,1,1,0,0,1,1.37.36,1,1,0,0,1-.36,1.37,8,8,0,0,1-7.18,0,9.3,9.3,0,0,1-4.06-5.44c-.39-1.23,1.54-1.75,1.93-.53Z"/>
      <path d="M274.85,453.44c-2.29-.49-5.13-1.77-7.28-.25a2.77,2.77,0,0,0-1.3,2.3c0,2.52,2.19,5,3.75,6.75,3.94,4.45,8.76,8,13.12,12s9,8.11,13.62,12q3.48,2.92,7,5.77a70.23,70.23,0,0,0,6.71,5.07c4.05,2.51,9.75,3.26,14.15,1.09,4.8-2.36,4.87-8.51,2.9-12.82a14.93,14.93,0,0,0-5.06-6.1c-2.49-1.7-5.39-2.38-8.26-3.12a55.52,55.52,0,0,1-13.29-5,1,1,0,0,1,1-1.73,55.76,55.76,0,0,0,13.66,5,24.05,24.05,0,0,1,7.89,3.11,17.09,17.09,0,0,1,5,5.37c2.51,4.22,3.42,10.39.21,14.51s-9.58,4.62-14.23,3.55a19.21,19.21,0,0,1-6.94-3.47c-2.55-1.86-5-3.88-7.43-5.87q-8-6.5-15.58-13.39c-2.7-2.44-5.37-4.86-8.15-7.2a74,74,0,0,1-7.88-7.45c-2-2.3-4.68-5.51-4.18-8.8a4.94,4.94,0,0,1,2.38-3.41c2.72-1.69,5.83-.44,8.66.16,1.26.27.73,2.2-.53,1.93Z"/>
      <path d="M295.66,456.15c5.26,2.57,10.52,5.22,16,7.37a62.93,62.93,0,0,0,14.07,3.65c4.78.71,9.95,1.63,13.72,4.91a11.24,11.24,0,0,1,3.12,12.16c-1.76,4.55-7.06,7.25-11.74,7.35a1,1,0,0,1,0-2c3.87-.08,8.56-2.34,9.93-6.2,1.52-4.28-.63-8.83-4.39-11.08-4-2.38-8.84-2.87-13.35-3.53a54.74,54.74,0,0,1-12.46-3.56c-5.41-2.18-10.64-4.78-15.88-7.34-1.16-.56-.15-2.29,1-1.73Z"/>
      <path d="M255.93,43.33c17.93.51,36.2,6.62,50.32,17.8a56.23,56.23,0,0,1,16.37,20.23A46.56,46.56,0,0,1,326.42,94c.83,5.54.59,11.17.37,16.74-.5,12.82-1.67,25.93,1.79,38.48,3.12,11.32,9.71,21.37,14.07,32.21a54.66,54.66,0,0,1,3.7,31.88,63.39,63.39,0,0,1-11.2,27.81,48.58,48.58,0,0,1-24.94,17.51,56.65,56.65,0,0,1-33.32.05,53.92,53.92,0,0,1-7.74-3.11c-1.16-.57-.14-2.3,1-1.73,19.28,9.51,45.18,6.29,60-9.81,6.66-7.23,10.95-16.42,13.2-25.92a68.43,68.43,0,0,0,1.84-14.67,50.19,50.19,0,0,0-2.54-16.12c-3.43-10.7-9.4-20.33-13.64-30.69-4.74-11.57-5.14-23.88-4.66-36.21.42-10.65,1.82-21.74-1.26-32.12a50.05,50.05,0,0,0-13.38-21.44c-12.59-12.23-30.22-19.29-47.53-21.1q-3.13-.32-6.27-.41c-1.29,0-1.29-2,0-2Z"/>
      <path d="M273.79,251.79a18,18,0,0,1-7,5.15,41.27,41.27,0,0,1-10.26,2.25c-.54.07-1-.51-1-1a1,1,0,0,1,1-1,39.4,39.4,0,0,0,9.55-2.11,16.08,16.08,0,0,0,6.3-4.71c.83-1,2.24.44,1.41,1.42Z"/>
      <path d="M319,308a73.08,73.08,0,0,1-2,12.56,36.62,36.62,0,0,1-4,10.73c-3.93,6.41-11.61,10.93-19.17,8.34-1.21-.42-.69-2.35.53-1.93,7.19,2.47,14.14-2.27,17.5-8.45a39.1,39.1,0,0,0,3.38-10.06A67.19,67.19,0,0,0,317,308c.07-1.27,2.07-1.28,2,0Z"/>
      <path d="M312.06,334.15c2.84,15.39,3.24,36-11.9,45.32a34.66,34.66,0,0,1-15.09,4.6c-1.28.11-1.27-1.89,0-2,8.29-.78,16.38-4,21.16-11.14,4.32-6.43,5.47-14.45,5.38-22.05a82.52,82.52,0,0,0-1.48-14.2c-.23-1.26,1.7-1.8,1.93-.53Z"/>
      <path d="M332.39,244.48c9.51,7,19.72,13.74,27.05,23.17s11.83,21.25,13.9,33c1.16,6.59.47,12.89-3.22,18.58-.69,1.08-2.43.08-1.72-1a22.43,22.43,0,0,0,3.16-16.18A80.66,80.66,0,0,0,367,285.29a66.89,66.89,0,0,0-8.1-15.09,68.83,68.83,0,0,0-12-12.3c-5-4.13-10.28-7.85-15.49-11.69-1-.76,0-2.49,1-1.73Z"/>
      <path d="M342.05,324.18c-9.09-.25-16.91-5.34-24.19-10.3-1.06-.72-.06-2.45,1-1.72,7,4.73,14.47,9.78,23.18,10,1.29,0,1.29,2,0,2Z"/>
      <path d="M316.71,282.35a33.72,33.72,0,0,0,1.72,14.54c.43,1.22-1.5,1.74-1.92.53a35.07,35.07,0,0,1-1.8-15.07c.13-1.27,2.13-1.28,2,0Z"/>
    </g>
    <g>
      <path d="M205.07,373.12c-4.65,6.86-6.48,15.29-6.42,23.49a52.47,52.47,0,0,0,5.31,23,27.71,27.71,0,0,0,6.46,8.67c1,.84,2.39-.57,1.41-1.41-5-4.3-7.78-10.88-9.42-17.12a50.52,50.52,0,0,1-.72-23.51,35.1,35.1,0,0,1,5.11-12.14c.72-1.07-1-2.07-1.73-1Z"/>
      <path d="M207.81,426.31c-2.2,5.43-1.73,11.7-.12,17.22,1.52,5.25,4.21,10.62,8.45,14.2,1,.82,2.4-.59,1.42-1.42-4-3.36-6.51-8.37-7.94-13.31-1.52-5.22-2-11,.12-16.16.49-1.19-1.45-1.71-1.93-.53Z"/>
      <path d="M250.49,401a1.66,1.66,0,0,0,.29.1c-.05,0-.23-.1-.07,0l.11.06q.26.12.51.27c.36.2.72.43,1.09.63a9.74,9.74,0,0,0,3.31,1.15,1,1,0,0,0,1.23-.7,1,1,0,0,0-.69-1.23,10,10,0,0,1-1.79-.45l-.2-.08c-.1,0-.23,0,0,0a1.23,1.23,0,0,1-.31-.14l-.63-.33A12.49,12.49,0,0,0,251,399a1,1,0,0,0-1.23.7,1,1,0,0,0,.7,1.23Z"/>
      <path d="M252.21,401.49c-.94,5.23-1.76,10.83-4.68,15.39-3.4,5.28-9.34,8.35-14.9,10.86-1.17.53-.15,2.26,1,1.73,4.81-2.18,9.73-4.73,13.35-8.66a24.61,24.61,0,0,0,5.46-10.63c.71-2.69,1.2-5.43,1.69-8.16.23-1.25-1.7-1.79-1.93-.53Z"/>
      <path d="M235.26,429c4,7.49,3.07,17.15-.73,24.53-.58,1.14,1.14,2.15,1.73,1,4.13-8,5.1-18.41.73-26.55-.61-1.13-2.34-.13-1.73,1Z"/>
      <path d="M190.2,370.52a13.47,13.47,0,0,0,5.92-4.46,3.37,3.37,0,0,0,.94-2.55,13.83,13.83,0,0,0-.91-2.42,16.82,16.82,0,0,0-5-6.46,14.31,14.31,0,0,0-3.25-1.95,5.09,5.09,0,0,0-2.5-.67c-.75.12-1.5.45-2.24.61a28.61,28.61,0,0,1-3.06.47,15.62,15.62,0,0,1-2.65.08c-.06,0-.81-.16-.83-.14-.2.18.12-.12,0,0a.58.58,0,0,1,.11.62.18.18,0,0,1,.12-.15c.74-.34,1.48-1.84,1.86-2.51a14.91,14.91,0,0,0,1.24-3,22.22,22.22,0,0,0,.76-7.53,40,40,0,0,0-5.87-18.22,1,1,0,0,0-1.73,1A38.68,38.68,0,0,1,178.65,339c.48,4.64,0,9.44-3.17,13.08-.86,1-.86,2.24.48,2.79s3.26.31,4.72.14a49,49,0,0,0,5.13-1c-.41.09-.3-.06.06.06l.45.13a10.31,10.31,0,0,1,1.42.58,13.48,13.48,0,0,1,3.27,2.34,15.7,15.7,0,0,1,4,6.67c0,.1.15.28.13.37.1-.5-.44.42-.49.49a9,9,0,0,1-1.44,1.63,11.43,11.43,0,0,1-3.58,2.32c-1.19.45-.67,2.38.54,1.93Z"/>
      <path d="M184.47,380.54c2.34.77,4.68,1.56,7,2.29a5.65,5.65,0,0,0,5-1c1.9-1.35,3.17-3.87,2.37-6.19-.66-1.93-2.39-3.25-4-4.33-1.94-1.27-4-2.31-6-3.63-1.66-1.14-3.44-2.67-3.36-4.87.05-1.28-1.95-1.28-2,0-.16,4.33,4.4,6.73,7.6,8.59,2.54,1.48,7.45,3.78,5.53,7.38-.7,1.33-2.58,2.59-4.13,2.27a35.74,35.74,0,0,1-3.63-1.18L185,378.62c-1.23-.4-1.75,1.53-.53,1.92Z"/>
      <path d="M184,380.29c.2.22.4.45.59.69l.12.14c-.1-.13,0,0,0,.07a4,4,0,0,1,.29.39c.38.52.73,1.06,1.09,1.6a23,23,0,0,0,2.34,3.13,1,1,0,1,0,1.41-1.41q-.32-.34-.6-.69l-.11-.15,0-.06-.28-.39c-.38-.53-.74-1.07-1.09-1.61a23.83,23.83,0,0,0-2.34-3.13,1,1,0,0,0-1.41,0,1,1,0,0,0,0,1.42Z"/>
      <path d="M138.37,312a56.28,56.28,0,0,0-2.21,24.39c1,7.28,3.41,14.92,8.78,20.18a19.7,19.7,0,0,0,10.2,5.3c1.25.23,1.8-1.68.53-1.93l-3.28-.65a1,1,0,0,0-1.23.7c-.81,2.05-.46,4.76-.32,6.9a48.76,48.76,0,0,0,8.61,25.51c1.52,2.32,3.19,4.52,4.89,6.71.79,1,2.19-.41,1.42-1.41a72,72,0,0,1-8.49-13.28A47.26,47.26,0,0,1,152.91,368c-.1-1.36-.18-2.73-.18-4.11a8.79,8.79,0,0,1,.36-3.31l-1.23.7,3.28.65.53-1.93c-15.22-2.79-18.71-21.64-17.83-34.54a53.74,53.74,0,0,1,2.46-12.87c.39-1.23-1.54-1.76-1.93-.53Z"/>
      <path d="M188.24,385.34a7.74,7.74,0,0,1-2.82,5.17,8.21,8.21,0,0,1-6,1.37,1,1,0,0,0-1.23.7,1,1,0,0,0,.7,1.23,10.38,10.38,0,0,0,7.58-1.57,9.51,9.51,0,0,0,3.74-6.37,1,1,0,0,0-.7-1.23,1,1,0,0,0-1.23.7Z"/>
      <path d="M172.54,390.26c1.78,1.58,4,2.32,6.07,3.45a1,1,0,0,0,1-1.73c-1-.54-2-1-3-1.48-.48-.24-1-.48-1.42-.76-.22-.14-.44-.28-.65-.43l-.2-.15c-.13-.1.1.08,0,0l-.34-.29a1,1,0,0,0-1.42,1.41Z"/>
      <path d="M172.25,389.55a6.53,6.53,0,0,0,1.85,4.78,1,1,0,0,0,1.42-1.41,3.64,3.64,0,0,0-.36-.41s.11.15,0,0a.76.76,0,0,0-.08-.11l-.15-.22c-.09-.15-.18-.31-.26-.47a1.63,1.63,0,0,1-.11-.23c-.07-.14,0,.05,0,.05s-.05-.13-.06-.15a4.93,4.93,0,0,1-.27-1s0-.19,0,0,0,0,0,0a2.28,2.28,0,0,1,0-.26,5,5,0,0,1,0-.55,1,1,0,0,0-1-1,1,1,0,0,0-1,1Z"/>
      <path d="M173.85,393.36a7.33,7.33,0,0,1-3,4.19,4.76,4.76,0,0,1-2.3.64,6.94,6.94,0,0,1-3-.63,1,1,0,0,0-1.37.36,1,1,0,0,0,.36,1.37,8,8,0,0,0,7.18,0,9.3,9.3,0,0,0,4.06-5.44c.39-1.23-1.54-1.75-1.93-.53Z"/>
      <path d="M237.15,453.44c2.29-.49,5.13-1.77,7.28-.25a2.77,2.77,0,0,1,1.3,2.3c0,2.52-2.19,5-3.75,6.75-3.94,4.45-8.76,8-13.12,12s-9,8.11-13.62,12q-3.48,2.92-7,5.77a70.23,70.23,0,0,1-6.71,5.07c-4,2.51-9.75,3.26-14.15,1.09-4.8-2.36-4.87-8.51-2.9-12.82a14.93,14.93,0,0,1,5.06-6.1c2.49-1.7,5.39-2.38,8.26-3.12a55.52,55.52,0,0,0,13.29-5,1,1,0,0,0-1-1.73,55.76,55.76,0,0,1-13.66,5,24.05,24.05,0,0,0-7.89,3.11,17.09,17.09,0,0,0-5,5.37c-2.51,4.22-3.42,10.39-.21,14.51s9.58,4.62,14.23,3.55a19.21,19.21,0,0,0,6.94-3.47c2.55-1.86,5-3.88,7.43-5.87q7.95-6.5,15.58-13.39c2.7-2.44,5.37-4.86,8.15-7.2a74,74,0,0,0,7.88-7.45c2-2.3,4.68-5.51,4.18-8.8a4.94,4.94,0,0,0-2.38-3.41c-2.72-1.69-5.83-.44-8.66.16-1.26.27-.73,2.2.53,1.93Z"/>
      <path d="M216.34,456.15c-5.26,2.57-10.52,5.22-16,7.37a62.93,62.93,0,0,1-14.07,3.65c-4.78.71-10,1.63-13.72,4.91a11.24,11.24,0,0,0-3.12,12.16c1.76,4.55,7.06,7.25,11.74,7.35a1,1,0,0,0,0-2c-3.87-.08-8.56-2.34-9.93-6.2-1.52-4.28.63-8.83,4.39-11.08,4-2.38,8.84-2.87,13.35-3.53a54.74,54.74,0,0,0,12.46-3.56c5.41-2.18,10.64-4.78,15.88-7.34,1.16-.56.15-2.29-1-1.73Z"/>
      <path d="M256.07,43.33c-17.93.51-36.2,6.62-50.32,17.8a56.23,56.23,0,0,0-16.37,20.23A46.56,46.56,0,0,0,185.58,94c-.83,5.54-.59,11.17-.37,16.74.5,12.82,1.67,25.93-1.79,38.48-3.12,11.32-9.71,21.37-14.07,32.21a54.66,54.66,0,0,0-3.7,31.88,63.39,63.39,0,0,0,11.2,27.81,48.58,48.58,0,0,0,24.94,17.51,56.65,56.65,0,0,0,33.32.05,53.92,53.92,0,0,0,7.74-3.11c1.16-.57.14-2.3-1-1.73-19.28,9.51-45.18,6.29-60-9.81-6.66-7.23-11-16.42-13.2-25.92a68.43,68.43,0,0,1-1.84-14.67,50.19,50.19,0,0,1,2.54-16.12c3.43-10.7,9.4-20.33,13.64-30.69,4.74-11.57,5.14-23.88,4.66-36.21-.42-10.65-1.82-21.74,1.26-32.12a50.05,50.05,0,0,1,13.38-21.44c12.59-12.23,30.22-19.29,47.53-21.1q3.13-.32,6.27-.41c1.29,0,1.29-2,0-2Z"/>
      <path d="M238.21,251.79a18,18,0,0,0,7,5.15,41.27,41.27,0,0,0,10.26,2.25c.54.07,1-.51,1-1a1,1,0,0,0-1-1,39.4,39.4,0,0,1-9.55-2.11,16.08,16.08,0,0,1-6.3-4.71c-.83-1-2.24.44-1.41,1.42Z"/>
      <path d="M193,308a73.08,73.08,0,0,0,2,12.56,36.62,36.62,0,0,0,4,10.73c3.93,6.41,11.61,10.93,19.17,8.34,1.21-.42.69-2.35-.53-1.93-7.19,2.47-14.14-2.27-17.5-8.45a39.1,39.1,0,0,1-3.38-10.06A67.19,67.19,0,0,1,195,308c-.07-1.27-2.07-1.28-2,0Z"/>
      <path d="M199.94,334.15c-2.84,15.39-3.24,36,11.9,45.32a34.66,34.66,0,0,0,15.09,4.6c1.28.11,1.27-1.89,0-2-8.29-.78-16.38-4-21.16-11.14-4.32-6.43-5.47-14.45-5.38-22.05a82.52,82.52,0,0,1,1.48-14.2c.23-1.26-1.7-1.8-1.93-.53Z"/>
      <path d="M179.61,244.48c-9.51,7-19.72,13.74-27.05,23.17s-11.83,21.25-13.9,33c-1.16,6.59-.47,12.89,3.22,18.58.69,1.08,2.43.08,1.72-1a22.43,22.43,0,0,1-3.16-16.18A80.66,80.66,0,0,1,145,285.29a66.89,66.89,0,0,1,8.1-15.09,68.83,68.83,0,0,1,12-12.3c5-4.13,10.28-7.85,15.49-11.69,1-.76,0-2.49-1-1.73Z"/>
      <path d="M170,324.18c9.09-.25,16.91-5.34,24.19-10.3,1.06-.72.06-2.45-1-1.72-7,4.73-14.47,9.78-23.18,10-1.29,0-1.29,2,0,2Z"/>
      <path d="M195.29,282.35a33.72,33.72,0,0,1-1.72,14.54c-.43,1.22,1.5,1.74,1.92.53a35.07,35.07,0,0,0,1.8-15.07c-.13-1.27-2.13-1.28-2,0Z"/>
    </g>
  </g>
</svg>
