<svg class="Eyes" xmlns="http://www.w3.org/2000/svg" viewBox="0 0 512 512">
  <title>eyes4</title>
  <g id="Color">
    <path d="M245.19,165.47a9.23,9.23,0,0,1-3.75-1.05,4.62,4.62,0,0,1-1.76.33,17.76,17.76,0,0,1-2.3-.24,8.52,8.52,0,0,0-.87-.08,5,5,0,0,1-4.15-2.3q-.68-.06-1.35-.15c-5.31-.71-10.11-3.34-14.91-5.56a5.18,5.18,0,0,0-6.31,1.5v2.78a4.73,4.73,0,0,1-.77,2.6,3.44,3.44,0,0,0,.47.63,7.68,7.68,0,0,0-.48,4.85,6.63,6.63,0,0,0,.05,1.48c.93,5.63,1.42,14.07,4.75,18.86a6.42,6.42,0,0,0,2.92,2.23,4.68,4.68,0,0,1,2-.44,29.75,29.75,0,0,1,4.2.43l.81.09c.65.07,1.3.1,2,.11a5.11,5.11,0,0,1,2.59.77l1.2,0c4.87.24,11.12,1.91,14.43-2.66,3.45-4.78,4.95-12.21,6.08-17.87A5.08,5.08,0,0,0,245.19,165.47Z" fill="#fff"/>
    <path d="M302.41,168.81c-.05-.39-.14-.84-.24-1.33h.06c-.13-.6-.27-1.19-.4-1.78a10.53,10.53,0,0,1-.15-1.64,5,5,0,0,0,.72-2.06c.66-2.85-.89-6.3-4.68-6.3a4.56,4.56,0,0,0-3.82,1.83,5.56,5.56,0,0,0-1.55.7,10.13,10.13,0,0,0-2,1.69,8.84,8.84,0,0,1-1.31.77c-1.5.09-2.42,1-4,1.4-2.07.49-4.51.06-6.68.49-1.86.37-5.57,2.62-7.57,2.62a7.66,7.66,0,0,0-1.73-.21,4.61,4.61,0,0,0-2.92,1,5.42,5.42,0,0,0-4.57,6.17,57.6,57.6,0,0,0,4.17,14.27c2.08,4.75,4.42,6.07,9.55,6,4.8,0,9-2.09,13.61-2.35a24.73,24.73,0,0,0,3.39-.41,4,4,0,0,0,5-2.43,2.48,2.48,0,0,1,.13-.35,7.57,7.57,0,0,0,1.12-1.79,6.29,6.29,0,0,0,.54-1.9A4.37,4.37,0,0,0,300.1,180v-1.21a5.33,5.33,0,0,0,.1-1.62,4.23,4.23,0,0,0,.61-.83L301,176a5.62,5.62,0,0,0,.48-4A3.9,3.9,0,0,0,302.41,168.81Z" fill="#fff"/>
  </g>
  <g id="Draw">
    <path d="M270.84,195a99.65,99.65,0,0,1,26.07-3.1,1,1,0,0,0,0-2,101.53,101.53,0,0,0-26.6,3.18,1,1,0,0,0,.53,1.92Z"/>
    <path d="M261.18,167a26.36,26.36,0,0,0,1.54,16.18,34.1,34.1,0,0,0,4,7.11c1.15,1.56,3,4.53,5.23,4.4,1.28-.07,1.29-2.07,0-2-.83.05-1.66-1.13-2.15-1.71a33.32,33.32,0,0,1-2.28-3,31.33,31.33,0,0,1-3.32-6.43,24,24,0,0,1-1.1-14c.29-1.26-1.64-1.79-1.93-.54Z"/>
    <path d="M299.23,155.37c1.77,3.89,1.86,8.69,1.79,12.88a48.56,48.56,0,0,1-2.42,15.36,15.71,15.71,0,0,1-3.44,6,1,1,0,0,0,1.41,1.41c3.4-3.36,4.74-8.58,5.55-13.14a56.41,56.41,0,0,0,.56-16.61,23.39,23.39,0,0,0-1.72-6.89c-.53-1.17-2.25-.15-1.73,1Z"/>
    <path d="M287.43,155.12a78.19,78.19,0,0,0,9.81-3.78q2.36-1.11,4.64-2.38c.26-.14.72-.55,1-.57.53,0,.71.48,1,.87a22.75,22.75,0,0,1,1.41,2.32c.61,1.13,2.34.12,1.73-1a22.47,22.47,0,0,0-1.61-2.6,2.56,2.56,0,0,0-4.24-.91c-.9.52-1.82,1-2.75,1.48a73.23,73.23,0,0,1-11.52,4.65c-1.22.38-.7,2.31.53,1.93Z"/>
    <path d="M305.16,180.29a42.58,42.58,0,0,1-3,8.43,1,1,0,0,0,.36,1.36,1,1,0,0,0,1.37-.35,46.18,46.18,0,0,0,3.15-8.9c.3-1.26-1.63-1.79-1.93-.54Z"/>
    <path d="M241,193.08a101.58,101.58,0,0,0-26.6-3.18,1,1,0,0,0,0,2,99.57,99.57,0,0,1,26.06,3.1,1,1,0,0,0,.54-1.92Z"/>
    <path d="M248.23,167.54a24,24,0,0,1-1.1,14,31.36,31.36,0,0,1-3.21,6.26,29.2,29.2,0,0,1-2.26,3c-.55.65-1.42,1.91-2.36,1.86-1.29-.08-1.28,1.92,0,2,2.26.13,4-2.67,5.19-4.23a33.92,33.92,0,0,0,4.13-7.27A26.33,26.33,0,0,0,250.16,167c-.29-1.26-2.22-.73-1.93.53Z"/>
    <path d="M210.38,154.36c-1.93,4.24-2.13,9.3-2.07,13.89A49.49,49.49,0,0,0,211,184.66a17,17,0,0,0,3.77,6.34,1,1,0,0,0,1.41-1.41c-3.14-3.11-4.29-8.06-5-12.26a55.45,55.45,0,0,1-.56-15.54,21.48,21.48,0,0,1,1.51-6.42c.53-1.16-1.19-2.18-1.72-1Z"/>
    <path d="M224.44,153.19a73.23,73.23,0,0,1-11.52-4.65c-.88-.44-1.74-.91-2.6-1.39a3.93,3.93,0,0,0-2.47-.82,3,3,0,0,0-1.83,1.5,25,25,0,0,0-1.7,2.74c-.61,1.13,1.11,2.14,1.72,1a22.84,22.84,0,0,1,1.42-2.32c.27-.39.45-.91,1-.87.26,0,.63.35.87.49q2.34,1.32,4.79,2.46a78.05,78.05,0,0,0,9.8,3.78c1.24.38,1.76-1.55.54-1.93Z"/>
    <path d="M204.25,180.83a46.18,46.18,0,0,0,3.15,8.9,1,1,0,0,0,1.73-1,42.8,42.8,0,0,1-2.95-8.43c-.3-1.25-2.23-.72-1.93.54Z"/>
    <ellipse class="EyeColor" cx="234.22" cy="171.73" rx="7.29" ry="7.83" stroke="#f15a24" stroke-miterlimit="10" stroke-width="2"/>
    <ellipse cx="231.53" cy="167.57" rx="2.69" ry="2.63" fill="#fff"/>
    <ellipse class="EyeColor" data-name="EyeColor" cx="277.22" cy="171.73" rx="7.29" ry="7.83" stroke="#f15a24" stroke-miterlimit="10" stroke-width="2"/>
    <ellipse cx="274.53" cy="167.57" rx="2.69" ry="2.63" fill="#fff"/>
    <path d="M300.91,153.38a136.22,136.22,0,0,1-20,7.75,211.58,211.58,0,0,1-20.8,4.78c-1.26.23-.73,2.16.53,1.93A210.27,210.27,0,0,0,281.86,163a141.33,141.33,0,0,0,20.06-7.84c1.16-.56.15-2.28-1-1.73Z"/>
    <path d="M209.42,155.11A140.15,140.15,0,0,0,229.48,163a209.65,209.65,0,0,0,21.18,4.89c1.25.23,1.79-1.69.53-1.93a211.58,211.58,0,0,1-20.8-4.78,135.79,135.79,0,0,1-20-7.75c-1.16-.55-2.18,1.17-1,1.73Z"/>
  </g>
</svg>
