<svg class="Eyes" xmlns="http://www.w3.org/2000/svg" viewBox="0 0 512 512">
  <title>eyes5</title>
  <g id="Color">
    <path d="M247.33,160.48c-1.06-2.09-3.54-2.68-5.65-2.29-4.09.74-8.19,1.43-12.27,2.26-1.72.34-3.44.71-5.13,1.18-1.42.4-3.45,1.48-5.23,1.84a4.67,4.67,0,0,0-3.16-1.11c-3.44,0-5,2.86-4.8,5.52a5.36,5.36,0,0,0,0,1.6,3.61,3.61,0,0,0-.34,2c.77,6.15,4.06,15.16,9.53,18.79,3,2,6.39.71,9.58-.14a65.7,65.7,0,0,1,14-2,5.85,5.85,0,0,0,1.24-.2,4.43,4.43,0,0,0,5.24-3.52A34.18,34.18,0,0,0,247.33,160.48Z" fill="#fff"/>
    <path d="M293.4,163c-3.56-.89-7.23-2-10.86-2.26s-6.81.13-10.34-1a5.45,5.45,0,0,0-5.82-.54c-3.47,1.67-4.23,7.28-4.78,10.61a44.13,44.13,0,0,0,.33,15.29c.53,2.88,3.68,3.86,6.15,3.49,6.25-.93,13.14,1.76,19.15,3.24a5,5,0,0,0,4.87-1.29,28,28,0,0,0,5.79-9c1.43-3.67.88-8,2.44-11.5C302.49,165.24,296.84,160.89,293.4,163Z" fill="#fff"/>
  </g>
  <g id="Draw">
    <path d="M210.28,163.85a131.64,131.64,0,0,0,21.86-2.41,64.85,64.85,0,0,0,10-2.45,12.79,12.79,0,0,0,6.21-4.56c.72-1.07-1-2.07-1.73-1-1.51,2.21-4.13,3.45-6.64,4.16-3,.85-6.19,1.52-9.3,2.11a128.37,128.37,0,0,1-20.4,2.16,1,1,0,0,0,0,2Z"/>
    <path d="M220.26,193.62a75.87,75.87,0,0,1,29.46-4.23c1.29.07,1.28-1.93,0-2a77.23,77.23,0,0,0-30,4.31c-1.21.42-.69,2.35.53,1.92Z"/>
    <path d="M211.11,163c-2.86,10.58,2.18,22.57,10.17,29.63,1,.85,2.39-.56,1.42-1.42-7.47-6.58-12.34-17.76-9.66-27.68a1,1,0,0,0-1.93-.53Z"/>
    <path d="M243.44,157.62c3.86,3.14,5.46,8.36,6.47,13a22.25,22.25,0,0,1-2.41,16.47,1,1,0,0,0,1.73,1,24.16,24.16,0,0,0,2.68-17.66c-1.07-5.11-2.86-10.86-7.06-14.27-1-.8-2.41.6-1.41,1.41Z"/>
    <ellipse class="EyeColor" cx="232.54" cy="174.42" rx="7.29" ry="7.83" stroke="#f15a24" stroke-miterlimit="10" stroke-width="2"/>
    <ellipse cx="229.85" cy="170.26" rx="2.69" ry="2.63" fill="#fff"/>
    <path d="M215.51,156.58c-1.31.22-2.65.27-4,.36l-4.07.26a3.31,3.31,0,0,0-1.91.4,2.8,2.8,0,0,0-.73,1.7,11,11,0,0,0-.07,4,1,1,0,0,0,1.23.7,1,1,0,0,0,.7-1.23,8.58,8.58,0,0,1,.08-3s.22-.79.21-.79l-.4.31h.2a4,4,0,0,0,.49,0l1.79-.12c2.33-.15,4.69-.21,7-.59a1,1,0,1,0-.53-1.93Z"/>
    <path d="M209.64,187.14a28.66,28.66,0,0,0,4.72,5.47,1,1,0,0,0,1.42-1.42,25.44,25.44,0,0,1-2.42-2.45c-.19-.21-.37-.42-.54-.64l-.27-.32-.14-.19c.06.08,0,0,0,0q-.52-.7-1-1.44a1,1,0,0,0-1.37-.36,1,1,0,0,0-.36,1.37Z"/>
    <path d="M301.64,162.52a129.42,129.42,0,0,1-20.4-2.16c-3.05-.58-6.1-1.25-9.1-2.06-2.58-.7-5.29-1.94-6.84-4.21-.72-1.06-2.46-.06-1.73,1a12.73,12.73,0,0,0,6.21,4.55,64.6,64.6,0,0,0,10,2.46,131.64,131.64,0,0,0,21.86,2.41,1,1,0,0,0,0-2Z"/>
    <path d="M292.19,192.36a77.23,77.23,0,0,0-30-4.3c-1.28.07-1.29,2.07,0,2a75.7,75.7,0,0,1,29.46,4.23c1.21.43,1.74-1.5.53-1.93Z"/>
    <path d="M298.88,164.18c2.68,9.9-1.91,21.22-9.41,27.84-1,.85.46,2.26,1.42,1.41,8-7.08,12.78-19.22,9.92-29.78a1,1,0,0,0-1.93.53Z"/>
    <path d="M267.07,156.88c-4.2,3.4-6,9.16-7.06,14.26a24.15,24.15,0,0,0,2.68,17.66,1,1,0,0,0,1.73-1A22.25,22.25,0,0,1,262,171.33c1-4.69,2.61-9.91,6.47-13,1-.81-.42-2.22-1.41-1.41Z"/>
    <ellipse class="EyeColor" data-name="EyeColor" cx="279.37" cy="175.08" rx="7.29" ry="7.83" stroke="#f15a24" stroke-miterlimit="10" stroke-width="2"/>
    <ellipse cx="276.69" cy="170.93" rx="2.69" ry="2.63" fill="#fff"/>
    <path d="M295.88,159.17a45.94,45.94,0,0,0,4.69.45l4.78.31a1,1,0,0,0,0-2l-4.6-.3a41.89,41.89,0,0,1-4.34-.39,1,1,0,0,0-1.23.7,1,1,0,0,0,.7,1.23Z"/>
    <path d="M301.29,185.44q-.15.45-.33.9c-.07.17.09-.21,0,.08,0,.06-.05.12-.08.19l-.2.4a12.92,12.92,0,0,1-1,1.64l-.27.37,0,0-.15.19c-.21.25-.42.49-.64.72s-.42.43-.65.63l-.38.33-.15.13-.11.09a1,1,0,0,0-.36,1.37,1,1,0,0,0,1.36.36,14.22,14.22,0,0,0,4.93-6.91,1,1,0,0,0-.69-1.23,1,1,0,0,0-1.23.7Z"/>
    <path d="M265,195.36A74.72,74.72,0,0,1,279,196.72c1.26.24,1.8-1.68.53-1.93A77.87,77.87,0,0,0,265,193.36a1,1,0,0,0,0,2Z"/>
    <path d="M231.66,196.32A92.17,92.17,0,0,1,246.21,195a1,1,0,0,0,0-2,95.24,95.24,0,0,0-15.08,1.39c-1.26.22-.73,2.15.53,1.93Z"/>
  </g>
</svg>
