<svg class="Eyes" xmlns="http://www.w3.org/2000/svg" viewBox="0 0 512 512">
  <title>eyes1</title>
  <g id="Eyes_Color">
    <path d="M251.1,174.72c-1.32-8.18-5.72-16.79-14.39-19a10.83,10.83,0,0,0-4-.28,4,4,0,0,0-4.51.42,6.84,6.84,0,0,1-.75.58,4.63,4.63,0,0,0-2.21.75l-.59.4a4.76,4.76,0,0,0-2.32,1.79,21.25,21.25,0,0,0-7.26,13.74,24.21,24.21,0,0,0,1.07,10.24,27.81,27.81,0,0,0,1.85,4.27,35.85,35.85,0,0,0,1.92,3.07,3.45,3.45,0,0,0,.21,1.41l.11.27a5.2,5.2,0,0,0,6.15,3.49l.35-.05a4.16,4.16,0,0,0,2.28-1.37,33,33,0,0,1,14.81-2.11c2.36.17,4.05-1.71,4.82-3.67a23.07,23.07,0,0,0,1.46-9.77A5.26,5.26,0,0,0,251.1,174.72Z" fill="#fff"/>
    <path d="M297.67,176.59a28.43,28.43,0,0,0-1.52-9.7,21.34,21.34,0,0,0-3-6.14,5.51,5.51,0,0,0-2.05-1.58,4.2,4.2,0,0,0-2.09-1.94c-.4-.19-.8-.34-1.2-.51h0a21.63,21.63,0,0,0-13-1.21,4.22,4.22,0,0,0-2.67,1.72l-.16.16-.36.37a4.94,4.94,0,0,0-2.8,2l-1.63,2.4a6.84,6.84,0,0,0-1.14,1.19,21.21,21.21,0,0,0-4.21,12.17c-.11,4.77,2.32,8.6,3,13.18.46,3.28,4.86,4.43,7.35,3,1.48-.86,5.39.65,6.78,1a57.07,57.07,0,0,1,7.51,2.62c2.05.86,4.57-.59,5.64-2.3A33.65,33.65,0,0,0,296,184.5a5.85,5.85,0,0,0,1.22-2A11,11,0,0,0,297.67,176.59Z" fill="#fff"/>
  </g>
  <g id="Eyes_Draw">
    <path d="M247.62,192.33a32.42,32.42,0,0,0-24.89,4.33c-1.07.7-.07,2.43,1,1.73a30.36,30.36,0,0,1,23.35-4.13c1.25.29,1.78-1.63.53-1.93Z"/>
    <path d="M224,195.88c-4-5.3-8-10.85-8.62-17.64a22.67,22.67,0,0,1,5.75-17.62A15.45,15.45,0,0,1,238,156.94c5.68,2.11,9.65,7.3,11.31,13,2.17,7.45.29,15.4-3.56,21.95a1,1,0,0,0,1.72,1c3.73-6.35,5.68-13.88,4.31-21.22-1.2-6.39-5-12.55-10.9-15.63s-13.13-3-18.51.89c-5.55,4-8.62,10.89-9,17.64a25.08,25.08,0,0,0,2.14,11.55,56.7,56.7,0,0,0,6.82,10.76c.76,1,2.5,0,1.73-1Z"/>
    <path d="M230.54,149.26a23.75,23.75,0,0,0-17.6,10.13c-.73,1.06,1,2.06,1.73,1a21.59,21.59,0,0,1,15.87-9.14c1.27-.1,1.28-2.1,0-2Z"/>
    <path d="M265.53,193.75a30.33,30.33,0,0,1,23.35,4.13c1.08.7,2.08-1,1-1.73A32.39,32.39,0,0,0,265,191.82c-1.25.29-.72,2.22.53,1.93Z"/>
    <path d="M290.32,196.38c4.38-5.86,8.51-11.93,9-19.46a24.35,24.35,0,0,0-7-18.79,17.37,17.37,0,0,0-18.18-3.63c-6.24,2.31-10.67,7.77-12.6,14-2.48,8-.53,16.74,3.65,23.86a1,1,0,0,0,1.73-1c-3.44-5.86-5.38-12.89-4.1-19.68,1.11-5.92,4.54-11.58,10-14.43s12.41-2.57,17.22,1.47,7.27,10.39,7.32,16.55c.05,7.81-4.25,14.06-8.73,20.08-.77,1,1,2,1.72,1Z"/>
    <path d="M282.08,150.75A21.61,21.61,0,0,1,298,159.89c.73,1.05,2.46.05,1.72-1a23.68,23.68,0,0,0-17.59-10.13c-1.28-.1-1.28,1.9,0,2Z"/>
    <path d="M298.73,188.68a19.72,19.72,0,0,1-4.51,7.86c-.88.94.53,2.36,1.41,1.42a22,22,0,0,0,5-8.75,1,1,0,0,0-1.93-.53Z"/>
    <path d="M211.26,191a38.16,38.16,0,0,0,5.73,7.92c.88.94,2.29-.48,1.41-1.42A35.75,35.75,0,0,1,213,190c-.61-1.13-2.34-.12-1.73,1Z"/>
    <ellipse class="EyeColor" cx="277.76" cy="175.37" rx="7.29" ry="7.83" stroke="#f15a24" stroke-miterlimit="10" stroke-width="2"/>
    <ellipse class="EyeColor" data-name="EyeColor" cx="234.86" cy="175.88" rx="7.29" ry="7.83" stroke="#f15a24" stroke-miterlimit="10" stroke-width="2"/>
    <ellipse cx="275.07" cy="171.22" rx="2.69" ry="2.63" fill="#fff"/>
    <ellipse cx="232.17" cy="171.73" rx="2.69" ry="2.63" fill="#fff"/>
  </g>
</svg>
