<svg class="Eyes" xmlns="http://www.w3.org/2000/svg" viewBox="0 0 512 512">
  <title>eyes8</title>
  <g>
    <path d="M269.14,204.82c-4.05-1.41-5.66-4.93-7.52-8.79-5.66-11.73-5-27.1-2-35.24,2.73-7.27,8.86-16,17.4-16.13,11.53-.23,22.56,19.61,21.11,32.78-1.36,12.45-9.31,21.34-11.09,22.13" fill="#fff"/>
    <path d="M269.4,203.86a10.18,10.18,0,0,1-5.19-4.91,44.19,44.19,0,0,1-3.22-7,48.84,48.84,0,0,1-2.64-15.81c-.09-9,2-18.28,8.29-25.09,3-3.23,7.2-5.87,11.78-5.29,3.77.47,7,3.06,9.48,5.79,5.73,6.31,9.63,15.58,9.38,24.17a34.3,34.3,0,0,1-4.89,15.88,33.73,33.73,0,0,1-3.49,5,8.67,8.67,0,0,1-2.34,2.16c-1.16.56-.14,2.28,1,1.73a8.65,8.65,0,0,0,2.46-2.17,32.71,32.71,0,0,0,3.36-4.5A38.58,38.58,0,0,0,299,179c1.41-9.51-2.37-19.71-8.22-27.15-2.58-3.27-5.9-6.31-9.95-7.58-4.42-1.39-9.1,0-12.69,2.76-7.89,6-11.2,16.22-11.69,25.76a52,52,0,0,0,2.45,19.15,44,44,0,0,0,3.88,8.53,11.84,11.84,0,0,0,6.12,5.36c1.21.45,1.73-1.48.53-1.92Z"/>
  </g>
  <g>
    <path d="M219,195.32s-5.36-3.56-5.14-15.71c.19-10.16,8.24-22.15,20.63-22.15,11.74,0,22.17,10.83,20.63,22.15-1.12,8.25-9.74,18.47-19.32,20" fill="#fff"/>
    <path d="M219.53,194.46c-.2-.14.12.1,0,0s-.34-.3-.5-.46a10.34,10.34,0,0,1-1.41-1.81,20.2,20.2,0,0,1-2.63-9,24,24,0,0,1,7.57-20.08,18.43,18.43,0,0,1,21.71-2c6.69,3.88,11.47,11.8,9.63,19.66-2,8.4-9.76,16.35-18.35,17.79-1.26.21-.73,2.14.53,1.93,8.6-1.44,16-8.82,19-16.78,3.1-8.17-.34-17.12-7-22.41s-16.38-6.62-23.9-1.93a25,25,0,0,0-11.29,19.9,26.28,26.28,0,0,0,2.51,13,10.49,10.49,0,0,0,3.11,3.84c1.07.72,2.07-1,1-1.72Z"/>
  </g>
  <path d="M233.85,149.11c-1.84.22-3.67-.17-5.5-.05a8.59,8.59,0,0,0-4.87,2c-3.21,2.49-6.31,5.13-9.46,7.69-1,.81.42,2.22,1.41,1.41l8.73-7.1a7.38,7.38,0,0,1,4.51-2c1.73,0,3.45.27,5.18.07,1.26-.16,1.27-2.16,0-2Z"/>
  <path d="M291.81,144.69a27.77,27.77,0,0,1,9.55,13.25c.42,1.21,2.35.69,1.93-.53A30.16,30.16,0,0,0,292.82,143a1,1,0,0,0-1.37.36,1,1,0,0,0,.36,1.37Z"/>
  <path d="M291.67,135.19a35.69,35.69,0,0,1,14.51,14.95c.6,1.14,2.32.13,1.73-1a37.65,37.65,0,0,0-15.23-15.67c-1.13-.61-2.14,1.11-1,1.73Z"/>
  <ellipse class="EyeColor" cx="244.63" cy="178.89" rx="6.29" ry="6.75" stroke="#f15a24" stroke-miterlimit="10" stroke-width="2"/>
  <path d="M229.33,141.52a45.57,45.57,0,0,0-22.12,16c-.78,1,1,2,1.72,1a43.31,43.31,0,0,1,20.93-15.11c1.22-.4.7-2.33-.53-1.93Z"/>
  <path d="M267.08,207.87a41.53,41.53,0,0,1,11.29-5.71c4.1-1.16,8.41-1.35,12.64-1.59,1.28-.07,1.29-2.07,0-2-4.4.24-8.91.45-13.17,1.66a43,43,0,0,0-11.76,5.91c-1.07.71-.07,2.44,1,1.73Z"/>
  <path d="M214.45,195.7c8.11,1,16.36,2.52,23.81,6,1.16.54,2.17-1.18,1-1.72-7.8-3.65-16.34-5.26-24.82-6.28-1.28-.15-1.27,1.85,0,2Z"/>
  <path d="M244.63,175.3a2.21,2.21,0,0,1-.57,1.49,2.26,2.26,0,1,1,.57-1.49Z" fill="#fff"/>
  <ellipse class="EyeColor" data-name="EyeColor" cx="276.51" cy="177.16" rx="7" ry="7.52" stroke="#f15a24" stroke-miterlimit="10" stroke-width="2"/>
  <ellipse cx="273.93" cy="173.16" rx="2.58" ry="2.53" fill="#fff"/>
</svg>
