<svg class="Eyes" xmlns="http://www.w3.org/2000/svg" viewBox="0 0 512 512">
  <title>eyes7</title>
  <g id="Color">
    <path d="M279,164.24c-.55-2-2.65-3.87-4.82-3.67a248.24,248.24,0,0,1-37.39.48c-3.5-.22-5.36,3.35-4.82,6.33a7.69,7.69,0,0,0,.4,1.41,9.2,9.2,0,0,0-2.61,5.38c-.94,7.77,3.72,23,12.65,24.37,5.79.87,12.23.1,18.07-.24a25.06,25.06,0,0,0,7-1,3.86,3.86,0,0,0,5-1.29C279.62,186.79,282.2,175.52,279,164.24Z" fill="#fff"/>
  </g>
  <g id="Draw">
    <path d="M238.71,199.77c11.27-.87,22.58-.64,33.86-.53a1,1,0,0,0,0-2c-11.28-.11-22.59-.34-33.86.53-1.27.1-1.29,2.1,0,2Z"/>
    <path d="M233.22,161.17a113,113,0,0,0,44.31-.51c1.25-.26.72-2.19-.54-1.93a110.41,110.41,0,0,1-43.24.51c-1.26-.23-1.8,1.69-.53,1.93Z"/>
    <path d="M233.57,161c-3.27,6.48-5,13.63-3.72,20.87,1.13,6.53,4.59,12.34,8.86,17.31.83,1,2.24-.44,1.41-1.41-4-4.63-7.15-10-8.28-16.08-1.27-6.79.39-13.61,3.46-19.68.58-1.15-1.15-2.16-1.73-1Z"/>
    <path d="M275.64,161.15c3.07,6.07,4.73,12.9,3.46,19.68-1.14,6.06-4.31,11.44-8.28,16.08-.84,1,.57,2.39,1.41,1.41,4.26-5,7.72-10.78,8.86-17.31,1.26-7.24-.45-14.39-3.73-20.87-.58-1.15-2.3-.14-1.72,1Z"/>
    <path d="M243.59,156.14c-3.89.38-7.63-.81-11.4-1.56-1.58-.31-3.44-.78-4.1,1.15a18.69,18.69,0,0,0-.8,5.8,1,1,0,0,0,2,0,18.7,18.7,0,0,1,.63-4.94c.09-.34,0-.34.31-.34a6.87,6.87,0,0,1,1.28.23c.81.16,1.62.34,2.42.52,3.17.71,6.39,1.45,9.66,1.14,1.27-.12,1.29-2.13,0-2Z"/>
    <path d="M266.15,157.74a46,46,0,0,0,15.25-3.87l-1.37-.36a9.91,9.91,0,0,1,1.55,5.12,1,1,0,0,0,2,0,12,12,0,0,0-1.82-6.13,1,1,0,0,0-1.37-.36,43,43,0,0,1-14.24,3.6c-1.27.1-1.28,2.1,0,2Z"/>
    <path d="M234.2,197.11a14.91,14.91,0,0,1-4.74-6.67,1,1,0,0,0-1.23-.7,1,1,0,0,0-.69,1.23,16.72,16.72,0,0,0,5.24,7.55,1,1,0,0,0,1.42,0,1,1,0,0,0,0-1.41Z"/>
    <path d="M282.75,183.78a24.8,24.8,0,0,1-6.38,12.71c-.89.94.52,2.35,1.41,1.42a26.66,26.66,0,0,0,6.9-13.6c.22-1.26-1.7-1.8-1.93-.53Z"/>
    <ellipse class="EyeColor" cx="255.69" cy="175.3" rx="8.29" ry="8.9" stroke="#f15a24" stroke-miterlimit="10" stroke-width="2"/>
    <ellipse cx="252.63" cy="170.58" rx="3.06" ry="2.99" fill="#fff"/>
  </g>
</svg>
