<svg class="Eyes" xmlns="http://www.w3.org/2000/svg" viewBox="0 0 512 512">
  <title>eyes2</title>
  <g id="Color">
    <path d="M250.25,166.2c-3.21-7-11.41-4.9-17.86-4.78-3.49.06-9.29-.89-13.12.69a5.35,5.35,0,0,0-4.9,4.73c-.9,7.78-3.15,17.53,3.87,23.26,3.44,2.82,7,1.39,11.13,1s10.08-2.15,13.88-.69c2.66,1,5.3-1.16,6.15-3.49C251.86,180.11,253.4,173.08,250.25,166.2Z" fill="#fff"/>
    <path d="M298.24,172c-.14-2.41-.08-5.09-1.47-7.15-2-2.91-5.51-2.74-8.65-3.06-4-.41-8.1-.71-12.15-.89-2.45-.12-5-.33-7.19.72a4.62,4.62,0,0,0-5.85,2.08,25.88,25.88,0,0,0-.93,24.53,5,5,0,0,0,4.32,2.48l11.57.14c1.79,0,7.9-.61,8.63,0,2,1.54,5.2,2.28,7.07,0C298.1,185.3,298.67,178.84,298.24,172Zm-16.05-.45a5.46,5.46,0,0,0-.39-.45l1.25.05Z" fill="#fff"/>
  </g>
  <g id="Draw">
    <path d="M248.79,189.6A201.75,201.75,0,0,0,219,191.35c-1.26.17-1.28,2.17,0,2a201.75,201.75,0,0,1,29.79-1.75,1,1,0,0,0,0-2Z"/>
    <path d="M247.66,160.43a158.93,158.93,0,0,0-32.41.89c-1.26.17-1.27,2.17,0,2a158.93,158.93,0,0,1,32.41-.89c1.29.1,1.28-1.9,0-2Z"/>
    <path d="M214.29,162.06c-1.8,5.29-3.08,10.94-2.34,16.56a25.36,25.36,0,0,0,7,14c.88.95,2.29-.47,1.41-1.41a23.27,23.27,0,0,1-6.53-13.3c-.56-5.22.69-10.44,2.36-15.35.41-1.22-1.52-1.75-1.93-.53Z"/>
    <path d="M246.8,161.94c2.4,4.61,4.56,9.63,4.48,14.93-.08,4.76-2.07,9.14-4.36,13.22-.63,1.13,1.1,2.14,1.73,1,2.46-4.39,4.55-9.12,4.63-14.23.09-5.65-2.19-11-4.75-15.94-.6-1.14-2.32-.13-1.73,1Z"/>
    <path d="M230.32,154a106.51,106.51,0,0,0-16.45,1.13c-2.27.34-4.26.62-5.3,2.9a32.36,32.36,0,0,0-2.26,7.51c-.23,1.26,1.7,1.8,1.93.53a34.07,34.07,0,0,1,1.86-6.56c.44-1.09.88-1.81,2.09-2.09s2.48-.41,3.71-.57a105.31,105.31,0,0,1,14.42-.85,1,1,0,0,0,0-2Z"/>
    <path d="M262.62,191.7a201.91,201.91,0,0,1,29.79,1.75c1.27.17,1.25-1.83,0-2a201.91,201.91,0,0,0-29.79-1.75,1,1,0,0,0,0,2Z"/>
    <path d="M263.74,162.53a158.93,158.93,0,0,1,32.41.89c1.27.17,1.26-1.83,0-2a158.93,158.93,0,0,0-32.41-.89c-1.28.1-1.29,2.1,0,2Z"/>
    <path d="M295.18,162.69c1.68,4.92,2.92,10.12,2.36,15.35a23.27,23.27,0,0,1-6.53,13.3c-.88.94.53,2.36,1.41,1.41a25.39,25.39,0,0,0,7-14c.74-5.62-.54-11.27-2.34-16.56-.41-1.21-2.34-.69-1.93.53Z"/>
    <path d="M262.87,161C260.31,166,258,171.32,258.12,177c.08,5.11,2.17,9.84,4.63,14.23.63,1.13,2.36.12,1.73-1-2.28-4.08-4.28-8.46-4.36-13.22-.08-5.3,2.08-10.32,4.48-14.93.59-1.14-1.13-2.16-1.73-1Z"/>
    <path d="M281.08,156.07a105.31,105.31,0,0,1,14.42.85c1.18.16,2.38.3,3.55.54a2.67,2.67,0,0,1,2.15,1.89,32.59,32.59,0,0,1,2,6.79c.23,1.27,2.16.73,1.93-.53a33.07,33.07,0,0,0-2.19-7.35c-1-2.39-3-2.71-5.37-3.06a106.43,106.43,0,0,0-16.45-1.13,1,1,0,0,0,0,2Z"/>
    <path d="M207.05,177.32h0a1,1,0,0,0,1.13-.46,1.13,1.13,0,0,0-.65-1.64c-.89-.24-1.37.61-1.44,1.35a17.63,17.63,0,0,0,.16,4,18.19,18.19,0,0,0,2.85,7.44c.71,1.06,2.45.06,1.73-1a16.83,16.83,0,0,1-2.27-5.06,16.27,16.27,0,0,1-.46-2.6c0-.45-.06-.9-.06-1.36,0-.26,0-.52,0-.77,0-.09.09-.71,0-.5l-.36.35.09-.05h-1l.06,0-.46-.59,0,.07.1-.77,0,.06,1.13-.46h0c-1.25-.28-1.79,1.65-.53,1.93Z"/>
    <path d="M202.46,173.64a1.08,1.08,0,0,0,1.6-.69,1.16,1.16,0,0,0-1-1.45c-1.43,0-1.4,1.77-1.51,2.77a12.58,12.58,0,0,0,.7,6.46,1,1,0,0,0,1.37.36,1,1,0,0,0,.36-1.37,8,8,0,0,1-.56-3.32,17.9,17.9,0,0,1,.1-1.79c0-.32.06-.64.1-1,0-.14,0-.27,0-.41s0-.18,0-.09c.1-.33-.11-.21-.62.35l-.51-.13,0,0-.36-.36.14-.95.71-.29h0l.5.14,0,0a1,1,0,0,0-1,1.73Z"/>
    <path d="M303.49,177.07a15.09,15.09,0,0,1-3,10.89,1,1,0,1,0,1.73,1,16.8,16.8,0,0,0,3.28-11.9,1,1,0,0,0-1-1,1,1,0,0,0-1,1Z"/>
    <ellipse class="EyeColor" cx="237.78" cy="178.99" rx="7.08" ry="7.6" stroke="#f15a24" stroke-miterlimit="10" stroke-width="2"/>
    <ellipse cx="235.17" cy="174.95" rx="2.61" ry="2.56" fill="#fff"/>
    <ellipse class="EyeColor" data-name="EyeColor" cx="274.6" cy="178.89" rx="7.08" ry="7.6" stroke="#f15a24" stroke-miterlimit="10" stroke-width="2"/>
    <ellipse cx="271.98" cy="174.85" rx="2.61" ry="2.56" fill="#fff"/>
  </g>
</svg>
