<svg class="Eyes" xmlns="http://www.w3.org/2000/svg" viewBox="0 0 512 512">
  <title>eyes3</title>
  <g id="Color">
    <path d="M251.18,169.8c-.45-3.06-2.32-5.42-5.51-5.7-2.06-.18-3,.15-5.07-.67a24.41,24.41,0,0,1-5.24-3.23c-5-3.81-9-12.51-16.54-9.59a6.34,6.34,0,0,0-1.71,1,4.52,4.52,0,0,0-2.92,2.31c-5.37,9.47-8.51,21.94-.94,30.74a4.79,4.79,0,0,0,4.87,4.85l15.13,0c3.68,0,7.86.48,11.32-1C251.06,185.77,252.07,175.93,251.18,169.8Zm-21.93-.42q0-.67,0-1.35c.25.2.49.39.75.58C229.76,168.87,229.52,169.13,229.25,169.38Z" fill="#fff"/>
    <path d="M301.69,162.57a13.75,13.75,0,0,0-10.24-11.5c-6.91-2-8.73,5.5-13.27,8.91-3.08,2.31-6.87,3.42-9.72,5.67a5.08,5.08,0,0,0-6.9,3.06c-1.88,5.69-2,13.63,2,18.54,1.94,2.34,4.34,2.77,7.25,2.77,4.43,0,8.9-.4,13.34-.61,5.85-.26,13.25,1,16.06-5.42S302.86,169.27,301.69,162.57Z" fill="#fff"/>
  </g>
  <g id="Draw">
    <path d="M227,152.5a25.21,25.21,0,0,0,23.21,13.43c1.29-.06,1.29-2.06,0-2a23.24,23.24,0,0,1-21.49-12.44c-.58-1.15-2.31-.13-1.72,1Z"/>
    <path d="M213.92,189.94a158.49,158.49,0,0,0,18.48.91c2.94,0,5.89-.11,8.82-.33a17.05,17.05,0,0,0,7.42-1.94,1,1,0,0,0-1-1.73c-2.27,1.33-4.87,1.58-7.44,1.73q-4.38.27-8.77.28a162.42,162.42,0,0,1-17.5-.92c-1.28-.13-1.27,1.87,0,2Z"/>
    <path d="M228.22,150.81c-3.22-2.53-7.48-2.49-11.06-.72-3.17,1.57-5.44,4.61-6.9,7.76a30.84,30.84,0,0,0-1.21,21.55,21.61,21.61,0,0,0,6,9.89c1,.85,2.37-.56,1.41-1.42-4.68-4.18-6.57-10.76-6.74-16.87s1.32-12.87,5.76-17.26c2.85-2.82,7.94-4.19,11.33-1.51,1,.78,2.43-.62,1.42-1.42Z"/>
    <path d="M248,166.6a19.09,19.09,0,0,1,2,10.76,22.77,22.77,0,0,1-4.18,10.21c-.73,1.06,1,2.07,1.73,1A24.72,24.72,0,0,0,252,177.36a21.16,21.16,0,0,0-2.24-11.77c-.57-1.15-2.3-.14-1.73,1Z"/>
    <path d="M235.36,152.51a10.56,10.56,0,0,1-3.53-6,1,1,0,0,0-.7-.7c-5.8-2-12.44-2.49-17.9.77a21.54,21.54,0,0,0-9.79,13.39c-.3,1.25,1.63,1.78,1.93.53a19.49,19.49,0,0,1,8.87-12.19c5-3,11.06-2.45,16.36-.57l-.7-.7a12.34,12.34,0,0,0,4,6.94c.92.9,2.34-.52,1.42-1.42Z"/>
    <ellipse class="EyeColor" cx="231.76" cy="174.96" rx="7.53" ry="7.01" transform="translate(43.07 395.69) rotate(-86.52)" stroke="#f15a24" stroke-miterlimit="10" stroke-width="2"/>
    <ellipse cx="229.42" cy="170.82" rx="2.53" ry="2.59" transform="translate(45.01 389.46) rotate(-86.52)" fill="#fff"/>
    <path d="M282.61,151.82a23.22,23.22,0,0,1-21.49,12.44c-1.28-.06-1.28,1.94,0,2a25.22,25.22,0,0,0,23.22-13.43c.59-1.14-1.14-2.16-1.73-1Z"/>
    <path d="M297.45,188.27a162.61,162.61,0,0,1-17.51.92q-4.26,0-8.52-.26c-2.65-.15-5.34-.38-7.69-1.75a1,1,0,0,0-1,1.73,16.67,16.67,0,0,0,7.22,1.92c3,.24,6,.32,9,.35a158.49,158.49,0,0,0,18.48-.91c1.27-.13,1.28-2.13,0-2Z"/>
    <path d="M284.56,152.55c2.95-2.32,7.26-1.56,10.13.49a16.09,16.09,0,0,1,5.23,7.43,29.44,29.44,0,0,1,.38,19,19.48,19.48,0,0,1-5.38,8.71c-1,.86.45,2.27,1.41,1.42,5.34-4.78,7.39-12.46,7.33-19.41-.05-6.76-2.18-15-8.1-19-3.71-2.52-8.79-2.92-12.41-.07-1,.8.41,2.2,1.41,1.41Z"/>
    <path d="M261.6,165.92a21.25,21.25,0,0,0-2.25,11.77,24.74,24.74,0,0,0,4.46,11.22c.72,1.05,2.46.06,1.72-1a23,23,0,0,1-4.18-10.21,19.18,19.18,0,0,1,2-10.76c.56-1.15-1.16-2.17-1.73-1Z"/>
    <path d="M277.42,154.26a12.31,12.31,0,0,0,4-6.94l-.69.7c5.3-1.88,11.35-2.43,16.36.57A19.53,19.53,0,0,1,306,160.78c.3,1.25,2.23.72,1.92-.53a21.52,21.52,0,0,0-9.78-13.39c-5.45-3.26-12.11-2.82-17.91-.77a1,1,0,0,0-.69.7,10.56,10.56,0,0,1-3.53,6.05c-.92.9.49,2.32,1.41,1.42Z"/>
    <path d="M290.75,194.36a74.81,74.81,0,0,1-14.66.08c-1.29-.12-1.28,1.88,0,2a74.81,74.81,0,0,0,14.66-.08c1.26-.13,1.28-2.14,0-2Z"/>
    <path d="M223.35,196.51a53.17,53.17,0,0,0,18.19-.24c1.26-.23.73-2.16-.53-1.93a50,50,0,0,1-17.13.24c-1.26-.2-1.8,1.73-.53,1.93Z"/>
    <ellipse class="EyeColor" data-name="EyeColor" cx="279.79" cy="174.96" rx="7.53" ry="7.01" transform="translate(88.19 443.64) rotate(-86.52)" stroke="#f15a24" stroke-miterlimit="10" stroke-width="2"/>
    <ellipse cx="277.45" cy="170.82" rx="2.53" ry="2.59" transform="translate(90.13 437.4) rotate(-86.52)" fill="#fff"/>
  </g>
</svg>
