<svg class="Eyes" xmlns="http://www.w3.org/2000/svg" viewBox="0 0 512 512">
  <title>eyes6</title>
  <g id="Color">
    <path d="M251,173.44l-1.18-3.13a4.36,4.36,0,0,0-.29-2.74c-.87-2.12-1.6-3.34-3.62-4.49a4.91,4.91,0,0,0-.62-.28c-2.32-1.08-5.13-1-8.06-.59a5.14,5.14,0,0,0-2.22-.16L222.4,163.9a36.48,36.48,0,0,0-4.25.59c-3-1.11-7,.36-6.7,4.45a50.62,50.62,0,0,0,3.75,16.59c1,2.35,3.34,4.5,6.15,3.5,3.48-1.25,7.3-.2,10.93-.42,4.09-.24,8-1,12.09-.62,2.3.2,4.11-1.72,4.82-3.67a20.15,20.15,0,0,0,1.24-6.57A4,4,0,0,0,251,173.44Z" fill="#fff"/>
    <path d="M299.82,167.68c-2.18-8-10.83-6.66-17.63-6.65-3.33,0-7.32-.08-10.34,1a5.08,5.08,0,0,0-4,.13c-2.92-.62-6.26,1.34-6.16,4.77A78.62,78.62,0,0,0,264,183.55c.49,1.94,2.71,3.88,4.83,3.67a85,85,0,0,1,14.62-.14c3.53.25,8.87,1.94,12.14,0C301.27,183.82,301.32,173.17,299.82,167.68Z" fill="#fff"/>
  </g>
  <g id="Draw">
    <path d="M210.52,166.17a171.21,171.21,0,0,1,20.29-2.92,143.91,143.91,0,0,1,20.45.15c1.28.09,1.28-1.91,0-2a143.66,143.66,0,0,0-20.85-.12,177.75,177.75,0,0,0-20.42,3c-1.26.25-.73,2.18.53,1.93Z"/>
    <path d="M216,191a123.23,123.23,0,0,1,32.37-1.58c1.28.11,1.27-1.89,0-2a125.13,125.13,0,0,0-32.9,1.65c-1.26.23-.73,2.15.53,1.93Z"/>
    <path d="M211.52,166c-.54,4.76-.8,9.53.39,14.21.94,3.69,2.57,7.5,5.44,10.1,1,.86,2.37-.55,1.41-1.42-2.71-2.45-4.16-6.05-5-9.53-1.07-4.41-.75-8.91-.24-13.36.15-1.28-1.85-1.27-2,0Z"/>
    <path d="M246,163.18c5.72,6.79,5.9,17.65,0,24.38-.85,1,.56,2.39,1.41,1.42,6.66-7.61,6.46-19.56,0-27.21-.83-1-2.24.43-1.41,1.41Z"/>
    <ellipse class="EyeColor" cx="236.65" cy="172.44" rx="7.67" ry="7.14" transform="translate(50.18 398.19) rotate(-86.52)" stroke="#f15a24" stroke-miterlimit="10" stroke-width="2"/>
    <ellipse cx="234.26" cy="168.21" rx="2.58" ry="2.64" transform="translate(52.16 391.84) rotate(-86.52)" fill="#fff"/>
    <path d="M260.87,163.56a177.13,177.13,0,0,1,20.33-1.3A141.13,141.13,0,0,1,301.71,164c1.26.19,1.8-1.74.53-1.93a147.24,147.24,0,0,0-20.64-1.84,173.24,173.24,0,0,0-20.73,1.3c-1.26.14-1.28,2.14,0,2Z"/>
    <path d="M264.35,188.72a123.28,123.28,0,0,1,32.39,1c1.26.21,1.8-1.72.53-1.93a125.17,125.17,0,0,0-32.92-1.06c-1.26.13-1.28,2.13,0,2Z"/>
    <path d="M262.11,163.27a43.5,43.5,0,0,0-.84,14.34c.5,3.79,1.45,7.78,4.14,10.66.88.94,2.29-.48,1.41-1.42-2.44-2.61-3.22-6.44-3.63-9.87A41.74,41.74,0,0,1,264,163.8c.25-1.26-1.68-1.79-1.92-.53Z"/>
    <path d="M296.54,163.27c5.25,7.34,4.51,18.15-2,24.48-.93.9.49,2.31,1.41,1.42,7.13-6.92,8.09-18.86,2.34-26.91-.74-1-2.48,0-1.73,1Z"/>
    <ellipse class="EyeColor" data-name="EyeColor" cx="286.83" cy="171.98" rx="7.67" ry="7.14" transform="translate(76.19 431.74) rotate(-81.91)" stroke="#f15a24" stroke-miterlimit="10" stroke-width="2"/>
    <ellipse cx="284.8" cy="167.57" rx="2.58" ry="2.64" transform="translate(78.8 425.95) rotate(-81.91)" fill="#fff"/>
    <path d="M218.06,157.65a71.81,71.81,0,0,0-10.38,2.12c-1.37.39-3.31.7-3.64,2.35a12.65,12.65,0,0,0,.42,5.33c.3,1.25,2.23.72,1.92-.53a14.86,14.86,0,0,1-.37-2.2,6.38,6.38,0,0,1,0-2.09c.13-.44.86-.53,1.27-.65.72-.22,1.44-.42,2.16-.61a66.84,66.84,0,0,1,8.65-1.72,1,1,0,0,0,1-1c0-.48-.46-1.07-1-1Z"/>
    <path d="M294.18,157.73a68.46,68.46,0,0,1,8.57.82q1,.16,2.07.36c.4.08,1,.1,1.14.54a6.55,6.55,0,0,1,.09,2c0,.73,0,1.47-.07,2.2-.07,1.28,1.93,1.28,2,0,0-.82.07-1.63.07-2.45a8.9,8.9,0,0,0-.19-2.36c-.5-1.6-2.18-1.79-3.6-2a71,71,0,0,0-10.08-1.05c-1.29,0-1.29,2,0,2Z"/>
  </g>
</svg>
